# Dn-FamiTracker text export 0.5.0.1
# Module version 0450

# INFO block
TITLE           "MKII Special"
AUTHOR          "Amilgi"
COPYRIGHT       "Dan Forden / Matt Furniss"

# COMMENTS block
COMMENT ""

# PARAMS block
MACHINE         0
FRAMERATE       0
EXPANSION       0
VIBRATO         1
SPLIT           32
PLAYBACKRATE    0 16639

# SEQUENCES block
MACRO       0   0  -1  -1   0 : 4 2 1 1 0
MACRO       0   1  -1  -1   0 : 7 4 4 3 3 3 2 2 2 1 1 1 1 0
MACRO       0   2  -1  -1   0 : 7 2 2 2 7 2 2 2 1 1 0
MACRO       0   3  -1  -1   0 : 7 4 3 3 3 2 2 2 2 1 1 1 1 0
MACRO       0   4  -1  -1   0 : 3 2 1 1 0
MACRO       0   5  -1  -1   0 : 5 6 6 6 5 5 5 5 4 4 4 4 4 4 4 4 3 3 3 3 3 3 3 3 3 3 3 3 3 3 2 2 2 2 2 2 2 2 2 2 2 2 2 2 1 1 1 1 1 1 1 1 1 1 1 1 1 1 0
MACRO       0   6  -1  -1   0 : 2 3 3 3 3 3 3 2 2 2 2 2 2 2 2 2 2 2 2 1 1 1 1 1 1 1 1 1 1 1 1 1 1 0
MACRO       0   7  -1  -1   0 : 6 7 7 7 7 7 7 6 6 6 6 6 6 6 6 6 6 6 6 6 6 5 5 5 5 5 5 5 5 5 5 5 5 5 5 4 4 4 4 4 4 4 4 4 4 4 4 4 4 3 3 3 3 3 3 3 3 3 3 3 3 3 2
MACRO       0   8  -1  -1   0 : 8 4 3 2 2 1 1 1 0
MACRO       0   9  -1  -1   0 : 6 5 4 3 2 2 1 1 0 3 2 1 1 0
MACRO       0  10  -1  -1   0 : 3 2 1 1 0 0 0 0 0 1 1 0 0 0
MACRO       0  11  -1  -1   0 : 6 4 2 1 1 0
MACRO       0  12  -1  -1   0 : 5 3 3 3 2 2 2 1 1 1 1 0
MACRO       0  13  -1  33   0 : 1 2 2 3 3 3 4 4 4 4 4 4 4 4 4 4 3 3 3 3 3 3 3 3 3 3 3 3 3 3 3 3 3 2 2 2 2 2 2 2 2 1 1 1 1 1 1 1 1 0
MACRO       0  14  -1  -1   0 : 7 4 4 3 3 2 2 1 1 1 1 0
MACRO       0  15  -1  -1   0 : 4 8 6 5 4 4 3 3 3 3 2
MACRO       0  16  -1  -1   0 : 4 8 6 5 4 4 8 6 5 4 4 3 3 3 3 2
MACRO       0  17  -1  -1   0 : 3 5 5 6 6 6 5 5 5 5 5 5 5 5 5 5 4 4 4 4 4 4 4 4 4 4 3 3 3 3 3 3 3 3 3 3 3 3 3 3 3 3 3 3 3 3 3 2
MACRO       0  18  -1  -1   0 : 2 4 3 2 2 2 1 1 1 1 0
MACRO       0  19  -1  -1   0 : 2 3 4 3 2 2 3 4 3 2 2 1 1 1 1 0
MACRO       0  20  -1  -1   0 : 1 2 2 3 3 3 2 2 2 2 2 2 2 2 2 1
MACRO       0  21  -1  -1   0 : 7 3 3 2 2 1 1 1 0
MACRO       0  22  -1  -1   0 : 6 6 3 3 2 2 1 1 1 1 0
MACRO       0  23  -1  -1   0 : 5 3 3 2 2 2 2 1 1 1 1 1 1 0
MACRO       0  24  -1  -1   0 : 4 6 7 7 7 7 7 7 7 7 6
MACRO       0  25  -1  -1   0 : 1 3 3 3 3 3 3 3 3 3 3 3 3 2
MACRO       0  26  -1  -1   0 : 3 5 5 5 5 4 4 4 4 4 4 4 4 4 4 3 3 3 3 3 3 3 3 3 3 3 3 3 2 2 2 2 2 2 2 2 2 2 2 2 2 2 2 2 2 2 2 2 2 2 2 1
MACRO       0  27  -1  -1   0 : 4 5 5 5 5 4 4 4 4 4 4 3 3 3 3 3 3 3 3 3 3 3 3 3 2 2 2 2 2 2 2 2 2 2 2 2 2 1
MACRO       0  28  -1  -1   0 : 6 8 4 2 1 1 1 0
MACRO       0  29  -1  -1   0 : 6 5 4 3 6 5 4 3 2 2 1 1 0 3 2 1 1 0
MACRO       0  30  -1  -1   0 : 3 2 1 1 3 2 1 1 0 0 0 0 0 1 1 0 0 0
MACRO       0  31  -1  -1   0 : 5 2 2 1 1 1 0
MACRO       0  32  -1  -1   0 : 5 5 5 5 5 5 5 4 4 4 4 4 4 4 3 3 3 3 3 3 3 2 2 2 2 2 2 2 1 1 1 1 1 1 1 0
MACRO       0  33  -1  -1   0 : 6
MACRO       0  34  -1  -1   0 : 2
MACRO       0  35  -1  -1   0 : 4 4 4 4 4 4 3 3 3 3 3 3 3 3 3 3 3 3 3 3 3 3 3 3 3 3 3 2
MACRO       0  36  -1  -1   0 : 2 2 2 1
MACRO       0  37  -1  -1   0 : 10 8 7 7 6 6 6 5 5 5 5 4 4 4 4 4 4 3 3 3 3 3 3 3 3 3 2 2 2 2 2 2 2 2 2 2 2 2 2 2 1 1 1 1 1 1 1 1 1 1 1 1 1 1 1 1 1 1 1 1 1 1 1 0
MACRO       0  38  -1  -1   0 : 10 9 8 8 7 6 0 0 0 3 3 2 2 1 1 0
MACRO       0  39  -1  -1   0 : 6 8 6 4 2 1 0
MACRO       0  40  -1  -1   0 : 9 7 5 3 1 0
MACRO       0  41  -1  -1   0 : 2 3 2 1 1 0
MACRO       0  42  -1  -1   0 : 9 8 7 6 5 4 0 0 0 3 3 2 2 1 1 0
MACRO       0  43  -1  -1   0 : 1 1 1 1 1 1 1 1 1 1 1 1 1 1 1 1 1 1 1 1 1 1 1 1 1 1 1 2 2 2 2 2 2 2 2 2 2 2 2 2 2 2 2 2 2 2 2 2 2 2 2 2 2 2 2 3 3 3 3 3 3 3 3 3 3 3 3 3 3 3 3 3 3 3 4 4 4 4 4 4 4 4 4 4 4 4 4 5 5 5 5 5 5 5 6 6 6 6 6 6 6 7 7 7 7 8 8 9
MACRO       0  44  -1  -1   0 : 1 1 1 1 1 1 2 2 2 2 2 2 3 3 3 3 2
MACRO       0  45  -1  -1   0 : 7 4 4 3 3 3 2 2 2 2 2 2 2 3 2 2 2 2 2 2 2 2 1 1 1 1 1 1 1 1 1 1 1 1 1 1 1 1 1 1 1 1 1 1 1 0
MACRO       1   0  -1  -1   1 : 36 33 30 27 24
MACRO       1   1  -1  -1   1 : 45 43
MACRO       1   2  -1  -1   0 : 0 4
MACRO       1   3  -1  -1   0 : 0 1 2
MACRO       1   4  -1  -1   0 : 0 1 2 2 0 1 2
MACRO       1   5  -1  -1   0 : 0 -1
MACRO       1   6  -1  -1   0 : 0 2
MACRO       1   7  -1  -1   0 : 0 2
MACRO       1   8  -1  -1   0 : 6 0
MACRO       1   9  -1  -1   0 : 0 0 -3
MACRO       1  10  -1  -1   0 : 0 5
MACRO       1  11  -1  -1   0 : 0 1 1 2 2 3
MACRO       1  12  -1  -1   0 : 0 7 12 0 7 12 0 0 0 0 7 12 0 7 12
MACRO       1  13  -1  -1   0 : 7 7 12 12 0 0 0 0 0 7 7 12 12 0 0
MACRO       1  15  -1  -1   0 : 7 7 12 12 0 0 -1 -1 -1 7 7 12 12 0 0
MACRO       1  16  -1  -1   0 : 0 1 2 2 2 2 2 3 3 3 3 3 4 3
MACRO       2   0   7  -1   1 : 0 0 0 0 0 0 0 0 -1 -1 0 1 1
MACRO       2   1  -1  -1   0 : 1
MACRO       2   2  10  -1   1 : 0 0 0 0 0 0 0 0 0 0 -1 -2 -2 -1 0 0 2 2 1 0 0 -1 -2 -2 -1 0 1 2 2 1 0 0 -2 -2 -1 0 0 1 2 2 1 0
MACRO       2   3  -1  -1   0 : 0 -2
MACRO       2   4  10  -1   1 : 0 0 0 0 0 0 0 0 0 0 0 0 -1 -1 -1 0 0 1 1 1
MACRO       2   5   0  -1   1 : 1 2 2 1 -1 -2 -2 -1
MACRO       2   6   0  -1   1 : 2 4 4 2 -2 -4 -4 -2
MACRO       2   7   0  -1   0 : 16
MACRO       4   0  -1  -1   0 : 0 1
MACRO       4   1  -1  -1   0 : 0 1
MACRO       4   2  -1  -1   0 : 0
MACRO       4   3  -1  -1   0 : 1 2
MACRO       4   4  -1  -1   0 : 2 2 3
MACRO       4   5  -1  -1   0 : 1 1 2 2 2 1 1 2
MACRO       4   6  -1  -1   0 : 1 1 2
MACRO       4   7  -1  -1   0 : 1 2
MACRO       4   8  -1  -1   0 : 0 1
MACRO       4   9  -1  -1   0 : 0
MACRO       4  10  -1  -1   0 : 2
MACRO       4  11  -1  -1   0 : 2
MACRO       4  12  -1  -1   0 : 2
MACRO       4  13  -1  -1   0 : 2
MACRO       4  14  -1  -1   0 : 3 2 2 2 2
MACRO       4  15  -1  -1   0 : 0
MACRO       4  16  -1  -1   0 : 1

# DPCM SAMPLES block
DPCMDEF   0  3889 "mk2-00830"
DPCM : AA AA 52 55 55 55 55 55 55 55 D5 AA 52 55 A5 AA AA AA AA 6A 55 D5 AA AA AA AA 54 95 AA D2 AA AA
DPCM : 56 55 B5 AA 4A 55 55 55 55 55 55 D5 AA 56 55 55 55 25 55 4A 55 55 B5 AA 5A 55 B5 54 55 A9 54 B5
DPCM : 52 AB 55 D5 5A AB AA AA 2A 29 55 55 55 55 55 55 55 55 55 A5 4A A9 55 55 D5 6A 55 AB 55 55 AA AA
DPCM : 54 29 55 AD 6A 55 B5 6A AD 54 49 55 A9 AA AA 54 6B 55 B5 6A 55 55 55 29 55 55 AA 54 55 D5 AA AA
DPCM : 5A 55 AB 54 55 A9 AA AA 52 55 6B 55 AB 55 D5 AA 9A A4 4A 55 55 55 55 55 55 55 55 A5 54 55 AB 55
DPCM : 55 55 55 55 55 55 55 2D 95 2A 55 AD 55 55 55 55 AD 2A 55 A9 AA D5 AA AA 52 55 53 A5 54 D2 BA 56
DPCM : D5 6A B5 B6 AA 4A 55 D5 0A A2 22 D5 DA 6A A9 5A 56 55 55 24 25 D5 AD AA 55 B5 5A AB AA 52 55 B5
DPCM : 55 54 55 5A B7 AD 52 A9 54 95 52 25 95 AA 6B 55 55 55 55 D5 52 55 55 D5 4A A9 12 D5 AD 2A 55 B5
DPCM : 5A 6F 29 51 55 55 5B 55 55 55 D5 56 92 5A 95 DA 0A 21 95 6C 6F 95 6A 55 59 2D 09 11 A9 ED B6 D6
DPCM : 5A 75 57 25 A5 AA B5 56 49 52 AA D6 96 52 B5 AF 40 55 41 7D AB 6A 35 55 ED 96 08 05 84 F4 5E B5
DPCM : 55 D5 76 57 65 49 C8 5A 15 90 94 B4 FF 5B D5 56 D5 5A 05 51 15 D9 5D 29 6D 4B DD AB 08 52 8A F4
DPCM : 5E 49 6A 05 F9 4F 44 AD 44 76 5B 09 DA 44 FE BD AA DA 94 6E AB 84 A4 4A FB 01 50 0B AA 7F 45 DA
DPCM : 55 55 BB 12 A0 15 A8 FF 92 B6 55 F5 5B 95 24 25 F5 9B 80 B4 89 FC BF B2 26 40 B2 55 22 92 44 FE
DPCM : 5F 55 55 51 76 55 55 55 55 FD 0F 90 55 84 FE 17 68 57 A4 FE 13 00 54 50 FF 8A A8 B6 6B 7B 2B 90
DPCM : 94 DA 35 21 F5 AA F6 2F 21 4D 51 B5 95 44 DA 4A DB A6 24 B5 65 B5 A6 52 55 B5 EE 15 00 5B 40 FF
DPCM : 15 F4 55 D5 FB 15 A0 9A 40 6F 85 D4 5B D5 DF 92 D4 5A 54 09 00 5A 95 F6 5F B1 5D 51 B2 25 84 6E
DPCM : A5 FE 2D A9 6D 55 BB 16 49 29 D9 5F 00 B4 05 F5 3F 80 5A A4 DE 55 01 A9 42 FD B6 A8 BE ED FE AB
DPCM : 44 52 A9 55 40 AA 52 BD 37 41 55 82 76 13 A2 B4 AA DF 55 49 5B 55 D7 2A 49 55 F7 55 40 99 94 FD
DPCM : 57 4B 09 44 6A AB 88 1A 40 FF AF 2A 6D 92 BD 6A 2B ED 42 FF 01 80 96 C4 FF 41 D9 AD B0 7B 01 A2
DPCM : 36 ED 4D 54 95 5A 48 95 B0 F7 BD 44 51 D5 56 DB 90 D8 B5 DA 6F 02 CA DA 35 55 00 40 ED 6F 5B 93
DPCM : DA BD ED 2E 00 00 93 F6 7F A4 56 CD DA 16 00 A8 21 FB 7F 25 B5 2D D5 9A 82 E8 95 24 55 D5 B4 5D
DPCM : 2B 69 5B D5 DE 02 54 2D 51 57 85 FC BF A6 94 04 A0 AB 6A 15 20 7F D2 FF 41 DC 55 F5 BB 0A 40 15
DPCM : 60 EF 8A F4 55 59 BF 8A DA 7F 00 C0 00 F8 7F 00 7F C9 FE 07 00 76 C4 FE 5F B4 BD 92 B4 92 68 FF
DPCM : 08 DA 02 69 57 00 B0 48 FE 7F 2B 49 27 69 57 89 6C 5F ED 37 20 ED AE FE 03 00 00 E8 FF 11 40 6B
DPCM : FB DF 02 00 F0 7D FF 4B 55 F7 AF 08 00 41 F7 46 B4 AB D4 5E 22 A4 56 10 7F 03 D9 57 A4 6E 00 FD
DPCM : 6F B5 FF AA 94 EA AA 00 A8 92 7E 97 24 55 A1 B6 29 75 7F 00 A0 02 FE 7F 69 AF C8 FE 0D 01 A8 52
DPCM : 7B 6F 6A 7F 01 B4 10 B0 B7 28 55 5B 5B 55 29 91 FC B5 BA 57 90 6A 45 22 AD 54 FF FF 4A 2A 00 74
DPCM : 17 01 D0 22 FB FF 94 AD 24 FF 26 8B 50 85 74 55 45 DA 77 FF DB 2A 12 00 80 02 F5 AF EA DD B2 56
DPCM : 52 05 50 EB 7E BF A5 EA A6 D4 4A 75 05 00 5C 45 FD 4D 80 7A 89 FE 4B 50 BD 55 AA 25 B4 FF 93 FD
DPCM : 03 D0 17 6A AB 00 00 56 FB 4F 21 25 F5 FF 15 00 00 FE FF 13 55 6B FF 93 A4 02 40 7B 81 7E 15 FD
DPCM : 2D B5 5B 01 00 05 E9 FF 15 D5 96 6A AB 54 DD 4A 52 9B CA AA 4A 54 5B 55 ED 27 A9 B5 04 40 85 E8
DPCM : FF 55 FF 0A D4 2E 21 49 D5 85 DA 55 50 DF 56 36 2B 11 95 AA 6E 5B CA 76 ED 3E 01 94 00 00 7E DB
DPCM : FD AF 69 35 55 2A 11 40 DA AD F7 5F A5 DA 95 24 04 80 7E 97 54 77 55 FD 17 41 59 42 7A 4B 25 AD
DPCM : 25 DD AF 55 02 91 28 AA DE B7 49 D1 55 70 FF 22 AA AD 90 7A 05 90 AD BA DB 2B D5 A6 DA 15 50 AD
DPCM : 10 F5 4A EA 56 6B 45 C8 AA AA DB 52 55 49 75 B5 D4 BF 48 DF 13 84 9A 00 80 B7 C4 FF 0B E8 2D AA
DPCM : DF 0A 55 11 6D D3 76 AB B6 AD 24 AD B6 37 00 00 00 FE FF A5 25 A0 6B A5 52 77 DD FF 2B 09 20 A9
DPCM : 4A 5B 4B EF 11 F9 7F 00 40 00 F8 8F B4 BF 95 54 6B A9 56 95 54 5B D5 56 DA AE A6 2A 49 25 55 D5
DPCM : AE B4 5F 81 FE 02 00 07 00 BF 51 FF 17 69 57 ED AE D3 6D 0D 01 80 84 FE BF 64 FF 00 E0 0A 00 BF
DPCM : A5 FD 55 ED 46 DA 2B 75 57 E9 25 00 60 A5 F6 2B 81 DE DD FE 0B 00 00 F4 FD 54 2B D9 FD 12 D4 15
DPCM : 01 FD 2D F5 57 00 FA AF EC 5F 00 A0 15 60 03 C0 FF FF F5 4D D2 2E 00 A8 41 FF DF 52 51 AB D4 4D
DPCM : 90 12 F5 7D AF 00 80 2D F4 7F 42 57 85 76 55 B5 5E 0A 7D 41 D4 2B 11 AB 65 5D B7 97 92 4A 4A 59
DPCM : AF 25 00 EA 9B 74 57 00 FC AF FE 3F 00 54 02 E0 AF D4 FF 17 FD 2F D5 0B 00 00 00 FE FF AB 55 84
DPCM : 48 4A C8 FE AB 5A 57 A5 56 45 55 AD 7E 5B 14 00 D4 AA 7A 5B AA F5 AE 49 55 82 64 92 6A 53 BA AD
DPCM : D6 DF B7 05 00 60 21 FA 17 D2 FF 7F DA 02 00 A0 52 FD 5A DD BB DD 56 11 09 00 50 51 FF 7F FB A7
DPCM : 00 80 02 D0 FF 57 DB EF 4A CA 9A A4 FF 05 2A 05 40 40 48 BD 75 FF 5B ED 5B 01 12 01 D4 BF 5B FB
DPCM : 6D AD 2A A4 24 00 F0 66 FD FF 01 FA 57 68 03 00 00 FF B6 D5 4A FF 7F 25 01 4A 95 92 B4 BA FF D6
DPCM : 12 40 22 C8 BE DA D6 56 5B 15 10 00 E9 FF FF FE 05 A0 12 A1 16 40 FD BB DD 57 42 6A 55 94 6A 25
DPCM : DB 55 B5 AA 2A 12 00 6D EB 7E AB D4 AE A9 B5 02 C0 BE DA 77 49 B9 4A D2 A9 D5 82 C4 95 88 6E 83
DPCM : 50 2B CB BD 8A EA BD AA 5D 09 F5 6D ED 7F 01 00 04 C0 FF 53 55 42 CA 6A 95 A0 FC B7 FD 2D 41 D5
DPCM : AD D5 0A 00 A9 EA F7 4A 2A 55 D5 52 55 A9 5A 6F 5B 02 80 A2 F6 77 A7 52 D5 DB D6 05 00 AD 49 7D
DPCM : 5F 44 15 42 AA 5E 57 6D ED DA BF 22 00 A0 59 FC 7D 69 B7 90 4E 00 00 D4 FE FF FF 2F 4B 00 94 14
DPCM : 00 D0 5F FF FF 29 01 11 41 A5 E9 7F AF EA 4B A4 4D AA 95 BE 2F 08 48 04 60 37 28 FB 7F F5 75 41
DPCM : B2 4A 55 55 11 D1 6E 5B FF 3F 01 52 95 A4 4A 00 7C D7 DE 17 00 68 5B FD 3F 91 56 81 F4 FD 2B 04
DPCM : 55 D1 FF 1F 09 01 40 6D 95 DA 55 42 ED 44 F4 2B E9 F7 DF FF 0A 00 00 80 EA DA A5 FA BB AD 2D 40
DPCM : 25 A5 6A F7 4A EA FB 32 00 00 C0 FD FF 27 D4 AD E8 1B 00 00 EC FF FF FF 4A 49 A9 0A 01 00 C0 AF
DPCM : FE 2F 45 94 42 B5 6F D7 BE BB B5 24 84 48 A9 5A FB 92 50 49 A0 F6 12 B1 6E A5 FF 0B AD 55 52 6F
DPCM : A0 FE 00 F8 1B 81 2A 41 ED BF 45 22 B5 D7 DE 02 80 FE AD 7F 01 D4 9F 80 6D 45 A9 08 F4 5F 6C 7F
DPCM : 40 FF 01 D0 24 6A 9B 2A 6D DB 2E 92 A4 6C 5B 55 A5 5A 55 F7 6E ED 2D 00 A8 94 D4 56 01 B4 0B D5
DPCM : 3F 49 AB 95 76 6F 49 BD F7 FF 09 00 00 00 C0 FF 4D ED 4D 55 4D 00 D0 BF FB FF A0 BD A0 F5 6D 09
DPCM : 01 00 FC D5 B7 02 80 2F C4 BF 04 BD 5F 75 5F 91 74 6F A9 A4 55 EA B6 14 00 00 50 BF A4 DE AA FE
DPCM : AD F6 5F 04 15 01 7D FF 44 36 01 BC 57 4A 04 25 D0 FF 07 6D 0B FD BF A4 2E 01 D2 75 9B 50 92 50
DPCM : FF AF 75 5B 00 54 41 54 48 BD 7F EF 36 AA AD B2 15 00 00 4C F9 FF 47 FD 2B F5 17 00 00 D4 F6 FF
DPCM : 02 D0 95 B8 6D 55 D5 FF 05 01 11 4A EB 5E 55 FF 56 3F 01 00 06 00 2D EA FF FF AF 7B 6B 22 09 00
DPCM : 00 F0 FF FF 7F 11 84 40 24 C5 F5 6D 55 55 85 D4 5F 45 65 25 DA FF 23 A8 10 E0 B7 80 F4 AD EE B7
DPCM : 42 D2 2A ED FF 03 00 15 A0 FF 12 F4 55 A2 D7 04 E0 D5 F9 FD 2F 75 17 51 2D 00 50 08 AB AA AB 76
DPCM : 4D 77 5B AB 14 55 A2 F7 6F 6F 09 00 28 91 FF 2A 15 44 75 7D 2B 91 B4 DB FF 17 00 A0 76 FF 15 00
DPCM : 74 45 2A 41 DA FF F7 F7 09 00 4A A5 2A 27 7A 3F 2D DD 2F 00 A0 0B D0 FF 7F D9 17 92 36 09 00 10
DPCM : FF FF 2A 14 A9 EF 92 12 40 D9 FF FF 85 92 A4 AA 4A 04 B4 7E DF 02 20 49 FE FF 01 99 10 FD 1F 00
DPCM : D4 EA FF 57 A4 10 7A F7 AB 00 00 C5 FF FF 81 3D 80 BE 05 80 BA DD FD 57 08 59 51 6A 46 F4 FE D6
DPCM : 0A 50 02 D4 C9 FB 55 A9 4C 4A 57 09 10 F5 FF FF 6D 81 90 04 6A BB ED 2B A9 2A D5 44 40 D2 D6 FB
DPCM : BF AD 2D 01 00 45 EA 76 7B 77 AA 14 04 40 EA FE 77 6F AB D6 24 01 49 D5 56 4B D5 5F 09 08 02 00
DPCM : FF CF FE 97 FE 7F 10 88 40 F6 4F A0 6A B2 FF 37 15 00 00 50 DF B7 52 F5 B5 F6 2B A8 25 A4 54 92
DPCM : EC BF 4A AA 14 F4 AF 29 11 42 ED FF B5 45 22 49 5D 11 A2 B2 7D AD 24 45 48 BB ED AD AD 56 55 22
DPCM : AA CD 52 29 42 D2 EE 77 FF 1B 00 74 2D 54 35 01 F4 5B F5 AF A0 B6 25 04 48 A2 F4 FB DB FF DF 56
DPCM : 12 02 40 14 88 6C AB 7A 77 B5 7F 02 50 05 E8 BF 4A 57 55 DD 5F 29 59 5A 82 88 00 FB D7 F6 2B 00
DPCM : F4 4B ED 26 A5 5A AB 5B 11 55 DD DA 46 40 32 DA 5B ED 0C 00 F8 5F 75 5F 02 FB 05 71 4F E0 FF 49
DPCM : 6A 24 04 6A 93 7A 57 D5 BE BD 0D 04 00 00 EF FF 5F B5 B5 EA 56 00 00 00 F8 FF FF 2B A9 7E 7B 01
DPCM : 10 01 AA FB 25 AB 56 95 AC 55 B5 54 A5 DA DB DA 9A 02 40 BD 65 77 01 22 21 EA EF 6D F5 BF A0 A4
DPCM : 00 F4 57 FD 3F 00 B0 0A BE 15 90 B7 90 FD 22 E9 FF FB 7F 00 00 00 FF AF 92 12 11 54 29 4A B6 77
DPCM : DF B7 DD B7 41 00 00 E0 FF F6 55 90 75 91 20 40 7D BB FF A5 ED 57 48 12 04 DF 0F 54 2F C9 AE 00
DPCM : A8 00 FE 7F EB 5B B1 FF AB 00 00 80 FE 7F 42 B5 AA FE 13 00 00 BA FF FF A3 05 00 DB A5 EA AD 50
DPCM : BD 12 A9 14 69 5F 45 AD 42 6F 4F 51 55 F5 FF 1F 00 00 00 FF 17 6B 05 F4 57 90 AF A2 F7 05 52 DF
DPCM : FF 1F 00 50 74 5F 01 00 D8 EF DB 04 80 FF FF 7F 01 00 6E D5 7F 00 FE 27 B0 05 00 AA D4 BD CD 12
DPCM : E9 DF 6F 53 11 A4 ED DD BF 00 C0 56 BD 02 00 80 FB BF DB 4A E8 2D 91 5D 55 FD 3F A8 37 42 7D 00
DPCM : 00 92 6A 6D 49 B4 FB DB A6 51 6A B7 B7 DF 27 01 00 00 E4 FF 81 34 45 FA 97 80 FF 9F FF 07 00 5F
DPCM : E1 FF 01 00 20 FA FF 00 C0 13 D4 AF 00 FF FF FF 0F 00 50 55 FD 1F 00 FD 01 89 00 00 FE FF FF 25
DPCM : FD AB 76 05 00 00 E0 FF FF 7F 51 A5 04 00 00 C0 FF FF FF 07 40 89 E8 6E 55 D5 BE 5B 6B 04 00 24
DPCM : E8 FF 95 56 B5 DD 2A 00 30 2B FF AD 54 DF DA 5F 01 00 00 EA FF 7F E0 AE E8 5A 00 00 FE FF FF 03
DPCM : 80 AE 7C BF 00 00 00 FD FF 04 F0 BF 52 BF 02 72 37 42 6B A5 DD 7F A2 96 00 88 00 EB F6 5E 65 97
DPCM : 6A BD FD 5E 01 00 A0 FA FF 2F 00 11 F5 6D A5 00 E8 FD FF 01 00 2D FD FF 03 69 57 5F 02 00 00 FC
DPCM : FF FF 55 25 41 52 00 80 FF 7F FF 3F 00 0A 00 FD 9F 54 15 40 FB F7 9A 44 88 DE 6E 55 D5 54 D5 56
DPCM : 4A B2 26 C1 9D 90 7E 55 ED 00 F8 5B ED 56 40 DA B5 6B EB 22 00 6D 00 FF 3F 29 F5 A8 FA 02 80 F6
DPCM : 5D FF 27 10 2D 45 40 5B 80 FE 3F 90 57 51 FF 0F 90 F6 7B 9B 00 00 F9 EF 7B 08 00 C0 FF BF 2B 00
DPCM : F4 5F A5 BB 00 BC 6F 49 2B 08 FD 56 6D 07 00 F4 5F F5 17 00 D4 4A F6 DF DA 3F 02 00 02 F1 FF A3
DPCM : FE 3F 40 09 00 BC DD F7 27 42 57 00 B6 6F BB EF 45 B4 6F 00 00 00 FC 57 7B B7 55 A9 14 00 D5 BE
DPCM : FF FF A8 A2 84 4A A5 52 2D 00 FE 57 42 ED 24 F2 35 E4 FB F6 6E 21 A2 40 BD 05 E0 FF 85 EE 02 00
DPCM : 7B 55 7B 55 D0 FF 83 54 11 80 7F B9 FD FF 7F 00 00 00 00 FF 4A FD 7F 6A 09 48 76 AB 55 29 49 79
DPCM : 75 69 75 A9 29 A9 55 51 55 09 80 BF 5A FD 4D D4 BE 0A 00 00 EA FF FF FF 0F 00 58 5B 15 00 B0 FE
DPCM : 7F 15 52 A5 B6 1D 95 04 D4 FF DA 9F 00 00 F0 6A FF 6E AD 94 24 A9 FE 16 2A 11 00 7A B7 ED DF AA
DPCM : 92 25 04 00 FE FF FF 2D BA DA 2E 00 00 00 F8 FF BF 10 55 AD 5B 21 00 D0 7F FF 3F 80 7E 01 E9 AF
DPCM : 40 D0 52 FA FF 01 D2 52 DA 0F 00 FC 57 FD 0B 00 58 55 FD 7F AD AA 1A 02 00 00 F5 FF FF FF 01 40
DPCM : 88 A8 4A F5 FF AD DB 92 BF 00 00 08 D0 FF 7F 00 D0 6A DB BF 13 54 FB A6 A8 10 D2 DF AF 08 88 48
DPCM : 5E D7 7D 05 80 BD CA FE 2F 00 DD 6A BD 2A 50 FD 16 41 09 82 B6 B5 B6 EF EB 57 01 41 01 D5 D2 7E
DPCM : F7 DD 15 00 00 08 E8 FF 7F FF 3F 82 DE 04 00 02 E0 FF DF AB AF 00 68 00 C0 FF F2 F7 BF 6A 13 01
DPCM : 00 50 FF 7F AD 84 EA 3D 41 4A 00 FC DF 07 69 99 72 FB 07 00 C0 FF FB BE 02 42 6D 01 70 AB F6 3F
DPCM : 09 B5 14 A8 55 45 FF BF 74 3B A9 54 04 00 08 F6 FF 87 DA 04 76 15 A0 7E E9 FF 9F A4 1B 88 AA 44
DPCM : A9 7F 25 40 15 C0 BF 00 F0 DF FA 5F 4B 7A 2F 4A 2B 42 FB 4B 04 02 60 6F 2D 49 24 B4 6F D7 DD FF
DPCM : 7F 0B 00 00 F0 5F 44 6A 5B 55 BF 00 00 78 FF 7F 01 DE FF FF 01 00 00 E0 FF 04 E8 FF FF 05 00 00
DPCM : F0 FF FF 03 D0 BF F2 1D 00 00 5A FD 3F 00 FF 11 55 85 40 74 BF F7 AE 6E FF 55 12 00 00 80 FF FF
DPCM : 00 C0 BA 7D 5F 04 12 A5 EE F7 FF FF 00 00 00 F0 6F 10 EA 5F 9B 15 01 F0 7F 3B 95 B2 BD FF 1F 00
DPCM : 00 00 FC FF 80 FF 01 B5 04 00 FF D7 6F 91 EA 2E D0 55 04 BE 55 FB 3F 88 0A 00 A0 BE D7 5D 95 44
DPCM : EB AA AA 6A FF 86 52 0B 92 AA 88 DA 56 BB 4F 24 17 15 B6 4B A8 2F 01 5C AB FF 9F 2A 0A 08 7A 2D
DPCM : A8 7B EF DD 5F 00 E1 BA 04 00 80 28 FD FF 6B FF 5F 04 00 00 FC FF FE 1B 84 7E D3 56 00 00 C0 FE
DPCM : FF 11 DA 4A 75 27 00 FA FF 2F 00 00 F8 FF FF 0F 00 C0 52 FF 02 20 FD BF 75 04 40 F7 6D AA B2 55
DPCM : DD 4E 05 00 80 FF 7F AB AE 64 F7 22 00 80 F7 DE 57 89 4A 5A 17 01 B0 FF 5D 15 51 B7 5A DD 02 D1
DPCM : 5F 11 5F 05 00 77 F7 DB 40 D0 F7 A8 26 00 E0 FF D7 FF 05 F2 7F 01 00 00 F8 FF D7 4D 00 C0 D7 64
DPCM : 2B 89 FE 37 F9 7F 22 02 00 F8 7F 6B 42 DB 2B 00 50 80 FF FF 6E 95 AC 55 42 A1 BC FF 7E 7F 09 00
DPCM : 00 00 80 DD FF FF 0F 00 55 95 D6 D5 FA FF BB 20 20 10 F4 56 01 A8 EF AD 6A 15 41 F5 2B 54 5F DB
DPCM : 7B AB 52 45 A4 56 00 D0 7D 15 69 5D 92 64 17 00 A4 AA FA 1F 89 2A 29 AF 49 01 C8 92 2A 6E 09 9A
DPCM : BF AA DE 00 A8 2B 59 DB 7B FD 17 00 C0 01 80 7B D1 FF 3F AA 0A 00 F8 FF EF BB 50 68 D4 BA 02 00
DPCM : F8 BB BB A5 90 6A A1 54 24 A8 FD 7F 77 2B C9 B6 AA 5A 00 00 7C E5 FF 05 C2 FD AA 6E 93 40 10 C4
DPCM : FA 4A FB FF 9F 44 11 00 40 B2 6F F7 FD 16 29 6A BB
DPCMDEF   1  3729 "MORTAL KOMBAT!!! 1.dmc"
DPCM : F9 D8 A1 63 E4 87 0E 0F DC 0B 3E 7A 58 49 FC 41 E3 03 5F 89 8F 16 AD A2 EB 18 AE C1 1D 7A E5 11
DPCM : E3 72 8C 8F 2A 78 C2 97 27 3A 14 9F 72 F8 C0 1D B3 E6 03 07 FA A8 0F 8F E0 17 37 7C 70 80 9D FA
DPCM : E1 03 7E F8 A1 07 0E E0 F3 0F 3D E0 0F CF 78 C0 00 DF 3F E6 01 7F 78 E2 21 02 79 FE 79 0E 78 C7
DPCM : 11 8F 10 E4 F1 CF 39 E2 39 87 3C 20 F0 87 7F CF 20 C7 1C F6 01 C0 1F FF 59 03 1E 3E CC 03 80 3B
DPCM : FE 37 8E 38 76 38 0F 00 77 FC E7 0C 39 E6 61 0F 00 EE F8 CF 19 E3 CC E1 1E 00 DC F1 9F 33 C2 F8
DPCM : C1 3F 00 9C F1 9F 33 C6 B1 83 3F 00 F8 F0 3F 63 C4 B1 C7 3C 00 FC F0 BF 13 C2 F0 87 3F 00 F8 E1
DPCM : 3F 73 84 F1 87 3D 00 FC F0 3F 38 C2 F1 83 7B 00 F8 F0 7F 38 46 F0 87 3F 00 7C F0 3F 1C 07 EC 83
DPCM : BF 00 7C F0 3F B8 03 FC 83 1F 01 3C F0 3F 7C 06 F7 81 1F 00 3F F0 1F FC 00 EF 81 7F 00 3F FC 1F
DPCM : CC 00 FF C0 0F 00 1F FC 0F 7E 80 7F E0 07 C0 0F FF 07 33 C0 7F F0 07 E0 87 FF 01 1F C0 1F F8 03
DPCM : F0 81 FF C0 1B E0 1F FC 01 F8 E0 7F E0 07 F0 07 FF 00 3C F0 3F F8 01 FC C1 3F 00 1F FC 0F 7E 00
DPCM : 7E E0 0F C0 07 FE 87 3F 80 3F F8 03 E0 83 FF 81 0F E0 0F FE 03 F8 C0 7F E0 0F F0 83 7F 00 3C F0
DPCM : 3F F8 03 FC C0 3F 00 1F F8 0F FE 00 7E F0 0F C0 07 FE 83 3F C0 0F FC 03 F0 85 FF C0 0B E0 17 FF
DPCM : 01 78 E0 7F F0 03 F8 C3 3F 00 1F F8 1F DE 00 7E F0 07 C0 07 FE 87 3F C0 1F FC 03 E0 81 FF E1 07
DPCM : E0 07 FF 00 7C C0 7F F0 07 F8 81 7F 00 1F F0 1F FC 01 7E E0 3F 80 07 FC 07 FE 80 1F F0 07 F0 07
DPCM : FF 81 1F C0 0F FE 01 F8 80 7F E0 0F F8 07 FE 00 7F E0 1F F8 01 FE C0 1F C0 1F FC 0F 72 00 3F F6
DPCM : 0B C0 07 FE 81 3F E0 1F F8 03 F8 01 FF C0 1F E0 0F FF 00 78 C0 7F F8 07 F8 81 7F 00 1F F8 0F FC
DPCM : 01 7E F0 0F C0 1C FC 03 7F 80 1F FE 07 E0 03 FF C0 1F A0 0F FC 03 B8 41 7F E0 0F F8 01 FF 00 3E
DPCM : E0 1F F8 03 FE 80 3F 80 17 FC 07 FE 00 7F F0 1F 60 07 FE 01 7F C0 1B F8 07 F0 82 FF C0 0F F0 0E
DPCM : FE 01 9C E1 1F F1 07 F8 80 3F 80 39 F8 CF FC 01 EE D0 0F 80 1F FC 23 7E C0 3B F8 07 80 33 FF 9C
DPCM : 0F E0 1C FE 01 38 E2 3F F3 03 F8 81 7F 00 1C F1 1F FE 80 3F E0 1F 20 07 FC 23 7F C0 0F F8 0F E0
DPCM : 84 FF F1 07 F0 01 FE 03 38 C0 7F F8 07 FE 00 7F 00 1F F0 1F FE 01 3E C0 1F C0 07 FC 87 7F 80 0F
DPCM : F8 07 F0 01 FF E1 0F F8 03 FF 01 CE E0 1F F8 03 7E C0 3F C0 13 FC 07 7F 00 EF F0 07 F0 00 FF E1
DPCM : 1F C0 07 FE 01 3C E1 3F F8 07 F0 83 3F 00 67 F8 0F FF 01 3C E0 0F E0 0C FF E1 3F C0 06 F4 01 3C
DPCM : C1 7F FC 07 F0 01 7F 80 27 F8 0F FF 00 3B F0 07 F0 07 FE C1 1F E0 0E FC 03 BC C1 3F F0 07 F8 80
DPCM : 7F 80 67 F8 07 FF 80 1C F0 0F E0 0F FE E0 0F 30 0F FF 01 3C E1 0F FC 00 8F F1 1F C0 17 FC 03 7F
DPCM : E0 0F F8 07 F0 86 7F C0 0F F8 01 FF 00 FE E0 0F FC 01 F3 60 1F E0 1D FE 01 3F 00 47 FC 03 78 C3
DPCM : 3B E0 1F C6 81 7F 00 67 FC 03 7F C4 11 FE 07 E0 8C FF E0 07 3C 03 FE 01 9E F1 1F F0 8C 47 9C 39
DPCM : C0 1F FE 01 8E 77 88 3F 80 38 E7 1F F8 01 CF F0 07 90 67 FC 03 3F E0 07 7D 06 F0 8E FF C0 07 3C
DPCM : 87 3F 00 CF E8 0F 7E 80 3F EC 03 C0 1F FE 01 0E F0 DC 1F 01 B8 E3 3F F0 01 DE F8 1F 80 73 FC 03
DPCM : 1F E0 00 FF 01 F0 8E 7F E0 07 F8 C0 FF 00 BC E1 1F FC 01 4E F0 0F 98 23 FE 81 3F E0 0B FE 07 78
DPCM : C6 7F C0 07 F8 80 FF 00 96 F0 1F FC 01 77 C0 1F C0 09 FE 83 3F C0 0F FA 07 78 83 7F E0 07 BC 01
DPCM : FF 00 FE F0 1F F8 01 1F E0 3F C0 19 FE 07 7E E0 0C 78 07 F0 07 FE C0 0F 78 03 FF 01 EE 91 3F E0
DPCM : 33 06 CC 79 80 7F F8 07 7E C0 83 7C 0E F0 8F FF 00 0E F1 61 DE 03 F0 E3 1F E0 63 0C CB E7 00 FE
DPCM : F8 0F F0 9C 81 37 38 C2 DF F8 03 9E 71 C0 3C 07 E0 37 FF 80 0F 38 1B A7 01 FC C6 3F F0 03 7C 82
DPCM : FF 00 3F C0 0F F8 84 1F F0 1F F0 0F FE 01 3F E0 03 FC 07 F8 03 7F C0 1F F0 01 FE 03 7C F0 1F F8
DPCM : 03 7E C0 FF 00 EE 41 3E FE 18 10 F8 47 18 77 9C 87 7F 38 00 FF 01 78 1E 7F E0 3F 60 C0 7B 0C 8C
DPCM : FF C1 3C 3F 00 E7 C3 0F 00 7F C7 F9 03 D8 01 FF 01 FC 87 FC E0 3F 00 7F 78 00 FC 01 7F E0 1F E0
DPCM : 0F 1E 01 FF F0 0F FE 03 0C F0 3F C0 1F FC 81 7F 00 1E F0 0F F0 1F FC E1 3F 00 98 FF 00 F0 8F 1F
DPCM : F0 0F 98 E1 36 00 FC 63 1E FC 07 F0 F8 0F 00 FE E0 33 FC 01 7E C7 1D 80 7F F0 0F FE 00 78 08 1F
DPCM : C0 77 F0 1F FE 01 78 F0 07 E0 FF 80 7F FE 00 0E FF 00 FC 18 0F F0 1F 98 83 3F 80 7B E3 1C FC 07
DPCM : F8 20 1E 82 EF C1 7F FE 03 F0 70 80 01 FC 03 FF F9 03 38 3E 84 81 FB F0 BF F8 01 3C 07 E1 30 7E
DPCM : E0 FF 7F 00 1F 40 38 C8 1F 70 FF 1F C0 07 F2 00 F8 0F FF F1 0F F8 81 03 80 39 CE CF F9 03 7C C0
DPCM : 0D E1 E1 3D F8 FF 61 38 38 04 E3 E0 0F FC E7 71 18 1F C0 0F F0 07 FE C1 3F 8C 07 E0 07 F8 03 7F
DPCM : C0 1F FC 0C F0 03 FC 07 FF C0 1F 3C 01 3F 00 9E F7 07 FC 03 7F 80 0F E0 E2 3B 3A F8 31 1E F8 01
DPCM : 60 F8 7F 38 7F 18 0F F8 01 00 3F EF C7 3E 86 07 73 1C C0 1F 9E E3 1F E0 83 9C 03 E0 EF 3F F0 07
DPCM : F8 04 FE 01 F8 E3 1E E4 03 FE 80 7F 00 FC 81 1F F8 87 1F F0 1F 00 FC CE 01 FF 88 0F F8 1F 00 7E
DPCM : FC 00 7E CE 0F E3 1F 00 1F E0 39 FC 8F E1 0C 1F 80 7F 84 07 FF 01 CE C7 01 C0 7F 0E F0 7F C0 E3
DPCM : 7F 00 E0 E3 08 FF 99 3F F8 03 00 FC C0 C3 FF F8 07 7C 00 00 FF C1 F8 8F FE 80 1F 00 E0 7F 0C FF
DPCM : E3 1F F0 07 60 70 DE E1 3D FC 03 7E 00 00 BE 1F FC 07 7F C0 0F 00 C3 F3 0F EF E1 1F F8 01 20 F0
DPCM : 7E F3 0F F8 03 3F 00 06 3E 3F FC 03 7F E0 0F C0 80 FF C3 3F C0 0F F8 03 E0 70 FE F0 0F F0 03 FF
DPCM : 00 83 77 1F FF 01 3E 70 4F 00 EC F1 C7 7F 80 07 3E 06 61 3C DE 7F 0F 18 C0 DF 00 CC C3 BF CF C1
DPCM : 03 FC 00 0C F8 3F 7C 0F FE 00 7F 80 18 FE 07 FE 81 0F F0 1F C0 39 FC E1 1F C0 03 9F 07 38 0F 3F
DPCM : F8 0D 78 F0 E8 01 E6 C3 83 1F DF 01 1F 1C C0 FE 78 F0 C1 8F E1 07 03 86 FF 01 3F F8 03 FE 01 38
DPCM : FC 3F F0 06 7E C0 3F 00 1C FD 07 7E C0 1F FC 07 80 F0 7F C8 07 F8 1F 8F 01 1C C6 7F 5F 00 BC F7
DPCM : 07 00 73 FF C3 0F 00 E3 FF 10 20 FC FB F0 01 F8 E1 CF 01 80 FF 0F 7F 00 1E FE 33 00 F0 FF F1 07
DPCM : E0 87 7F 00 06 E7 C7 7F 00 C1 F1 0F 40 F0 FF F8 0F 80 C3 FF 01 04 8E 1F FE 03 E7 C1 EF 80 C0 F9
DPCM : C3 3F 80 1F FC 07 20 8E 7F F0 07 E0 87 77 02 E2 3E DF 61 1C 70 0F 78 00 FC FB 1F 80 0F CE 07 07
DPCM : 80 FF FC 0F F0 01 FC 23 60 F0 FF F8 01 7E 80 CF E0 08 BC 7F 7E 00 1F F0 1F 02 03 FF 8F 1F C0 0F
DPCM : FC 03 E0 F0 FF C1 07 F0 03 3F 04 18 FE 3F FC 00 FC E1 1B C0 C1 FF C1 1F C0 3F FC 01 30 CE 3F 0C
DPCM : 07 E0 E7 FF 01 C0 E3 4F E0 01 FE E3 7F 00 F0 FE 41 18 80 FF 8F 1F 00 3E F7 80 60 E0 FF E7 00 E0
DPCM : DF 9F 07 0C 84 FF 41 10 FC FF 1F 00 7C F8 1F 00 82 CF E7 67 C0 31 FE 03 E0 70 FC F8 3C 30 1E FF
DPCM : 00 00 FF 3F FE 00 F0 F0 3F 80 C0 7F 87 1F 80 1F FE 03 20 F0 FF F9 03 C0 F1 7F 00 20 FF E7 73 C0
DPCM : C1 F9 07 08 9C 7F 1F 02 87 F1 9C 33 04 CF FF 07 C0 33 EC E1 21 E0 FE FB 1D 00 82 7F 18 00 FE FF
DPCM : 7C 80 33 E0 0F 38 C1 FB 3F 03 F0 1C 7C 00 1F E6 1F FF 00 FE E0 0F C0 C1 F8 F3 38 C0 3F F8 03 18
DPCM : 0F FF 0C 03 F8 3F 3C 80 F3 E0 FF 70 00 FC 8F 0F 00 0E FF E3 03 C0 DF 87 00 8C FF FF 18 00 F8 EF
DPCM : 03 00 F8 F7 7F 00 F0 F8 31 00 40 FF FF 03 30 96 FF 80 01 F0 FF FF 00 E0 F9 0F 00 00 FE BF 1F 00
DPCM : CF FF 03 00 C0 FF FF 03 98 C3 FF 00 10 FC 7F 7F 00 BC F9 07 00 84 FF FB 0F 80 E1 FF 00 00 F0 F3
DPCM : FE 00 38 FE 3F 00 00 FE CF 1F C0 83 FF 03 70 C0 FD F1 1F F0 80 7F 00 30 F8 3F FE 03 1C FC 17 80
DPCM : 01 FF C7 1F E0 01 FF 01 00 F0 FF FF 03 1C C0 7F 00 00 FE FF 3F E0 00 FC 87 21 C0 FF FF 07 1C 00
DPCM : FF 30 00 F8 FF 7E 04 0F C2 1F C1 00 FF C7 CF E1 41 FC 07 18 C2 FD F3 71 78 80 3F 18 03 F8 7B FC
DPCM : 8C 1F E0 87 11 00 FE 3F 1F F0 07 FC C1 03 C0 8F FF 07 9E 80 1F E0 80 F9 E3 FF B1 03 E0 07 3C 60
DPCM : 3E FC 3D C7 09 F1 83 03 B0 87 FF CF 13 A2 C3 F0 80 F1 F0 F9 7F 58 08 1A 4F E0 01 FE F8 3F 3C 07
DPCM : C0 1F F8 20 7C F8 1F 9E 03 73 06 3C 18 1F FE 87 7F 00 E7 F0 00 7C CC 3F 8F 1F C0 07 CE 81 78 78
DPCM : 7C 3E 47 F8 03 3C 8C E7 82 79 7F 08 F3 E6 01 BC F8 01 DC 0F C0 3F 7E 00 BC 47 C7 C1 63 B0 E7 E7
DPCM : 81 F1 81 D1 F3 08 E6 F8 3F 38 0C 3B 1E 1E 00 9E FB 07 CE 63 FC 01 0E F0 1F AF E0 77 80 1D E7 01
DPCM : E0 FF 3D C0 99 71 CC F1 01 1E FC 0F 38 70 7C 06 8F 21 CF 7E 0F 06 1E 1F 07 12 CE DD 9F 71 10 7C
DPCM : 9C 1C 30 3E FE 87 71 C0 E3 F3 00 F0 4F 3C 07 1F 1C 4F 3E 04 FE 07 3E 3C 07 78 F0 8E 61 E7 F8 03
DPCM : 3E 80 1F E2 43 E0 73 FC 1E 63 0C 9C 8F 87 C0 E3 E3 E1 F3 30 0F 8E 83 E3 39 FC 07 18 0F 0F 07 C3
DPCM : FF 80 7F 0C 1E 87 C3 E1 C1 F3 F0 1F 8C 03 0F 87 CF C3 71 F4 1C 1C 0F 87 C1 E3 E1 F0 7C 38 3C 1C
DPCM : 66 38 0F C7 F1 79 38 CE 11 84 1F 87 C3 7F 80 8F 79 00 F8 1F C7 E1 7F 50 38 0E 01 FF 0F C7 E0 3E
DPCM : 8E E1 38 18 0F 9E 07 FE 83 38 3E 07 C1 E7 C7 01 FE 19 1E 0E 00 7F 7F 23 E0 7D C4 81 3F 80 3F 1F
DPCM : C2 E1 1F 1C C3 0F E0 3D 1E 0E E7 03 5F 83 03 3C 1F C3 27 F8 0E 1F 20 1E 8F CF 71 1C 8E C7 E1 03
DPCM : FC 78 F8 3F C0 71 3C 08 9F 87 E3 F1 05 78 0C 5F 00 FF C3 CF B0 43 8C 8B 03 C2 FB 71 7C 8E 73 C0
DPCM : 3F 80 8F F9 80 FF 01 3C C6 0F E0 83 7F C0 8F F1 38 9C 03 78 F0 1F F0 1F FA 00 7C 03 DE F3 03 FC
DPCM : 83 0F C0 0F C3 31 FC 41 7C F8 0F D8 83 F0 38 7F 0C 0F FC 03 0F 83 C7 C3 F1 F0 F8 07 60 1E 1E C7
DPCM : 73 FC E0 E1 01 F8 03 7E F0 F3 70 F0 3D 30 3C 88 7F F0 1C 3C 4E 0F 87 E1 51 F3 C1 33 8C 87 13 1C
DPCM : 8E 8F 7D F0 C1 78 98 0F C0 F3 E1 BB E0 E3 B0 C2 01 3E FC 0F FA 13 F4 0C E3 00 F8 0F E7 E3 3C C3
DPCM : 83 3F 00 8E 1F E0 9F C3 7F 80 0F 9C E1 79 04 F7 03 7E F0 0F E0 3F 80 1F F8 47 F0 80 9F E1 3F 80
DPCM : 1F F0 13 F8 01 FF EC 1F 00 3E E0 E3 82 27 FE 9F 0F 00 E0 3F 10 0F FE E1 FF 03 38 C0 1F C0 0F FC
DPCM : 87 FF 01 0C C7 83 C0 F1 7D 3E 9F C3 30 1C E0 09 FC CF F9 78 0E 3C C0 81 07 FC 0F FF E1 0C 3F 80
DPCM : 01 DF F0 78 FE 80 F3 41 03 07 FC 07 FA F9 18 FE C1 01 1F F8 03 FF 70 0F CE 20 1E 06 FC 80 1F E7
DPCM : 3F 1C 03 7E 78 C0 79 E3 C6 3F 38 60 3F F8 80 1E 78 86 1F 7C D8 47 1F 80 1F 70 C6 FF 00 8E CF 0F
DPCM : 80 1F FC C0 7F 38 06 FE 01 80 AF 7F 80 3F 7C 00 FF 61 80 F7 F8 C0 7F 1E C0 3F 10 80 7F 7C C0 FF
DPCM : 07 E0 FF 01 C0 3F 87 C1 7F 02 E0 FF 01 C0 3F 7C E0 3F 04 C0 F7 01 E0 3F 7E E0 3D 00 E1 FF 01 E0
DPCM : 3F FE E1 1F 00 C3 7F 00 E0 3F FE C1 3F C0 01 FF 03 00 FF 7F 80 1F 88 00 FF 07 C0 FF FF 81 0F C0
DPCM : 01 FE 07 00 FF 3F C0 0F 78 C0 FF 00 C0 FF 1F F0 03 18 F8 7F 00 F0 FD 0F FC 00 3C FC 1F 00 C0 FF
DPCM : FB 30 70 1C FE 0F 01 E0 FF 67 C0 F0 18 FC CF 00 F0 FF 1F 80 1F 80 FF 7F 00 FC F1 07 C0 07 32 F8
DPCM : 3F 00 FE FE 00 F8 03 0E F3 0E 00 FF 7F 00 1E 87 07 E7 01 80 F8 3F 00 1F DF 83 FF 03 00 FC 3F 80
DPCM : 7F 1E 02 FF 03 C0 FF FF 80 78 00 0C FF 03 F0 FF 1F E0 0B 70 E0 FF 01 C0 CF 1F C3 83 03 F0 F7 00
DPCM : C0 FB F7 E3 E0 60 B8 78 18 00 FF CF 87 C1 E1 F9 F0 00 C0 FF FF 01 03 90 7F 3F 00 CC E3 3F 84 01
DPCM : 7E FC 3F 00 E0 F3 1F F0 00 3E FE 1F 00 F0 FC 1F 1C 00 9F FF 03 30 78 7E 3E 0C 38 9E FF 01 00 F8
DPCM : FF 3C 0C 3C 9C 3D 00 00 FF FF 0D 00 8E F7 7F 02 00 FF 7F 08 00 FE 61 FF 00 00 FF 3F 1C 00 FB F0
DPCM : 1F 80 00 FF CF 83 C0 77 F8 3F 00 C0 FF F3 01 F0 31 F8 DC 03 C0 EF FF 80 F0 C0 79 3C 0E 00 9E FF
DPCM : 0F 06 E0 FF 79 00 E0 75 FE 8D 03 60 FE 1F 00 F2 BF 0F 83 40 38 FF C7 00 F0 7F 0E 70 30 BC F7 0F
DPCM : 00 7C 7F 0F 0C 06 8E CF 03 60 F8 7F 04 3E 40 9F FF 03 00 FC 3F C0 03 78 E3 FF 01 70 FE 1F 70 00
DPCM : FE E1 7F 00 00 EF 0F 1D 80 CF F1 1F 00 80 FF E3 E3 C1 E3 F8 3F 00 E0 FF E0 70 F0 70 FC 1F 00 E0
DPCM : FF 71 64 F0 21 FE C7 00 E0 FF 0F 0C 78 0E FE 77 00 F8 F3 07 F8 01 8F FC 07 00 F8 FF 41 38 0F C7
DPCM : EF 07 00 FE EF 00 C0 F9 F1 FF 00 80 E3 FF C3 01 F0 E1 FF 00 C0 FB 1F C0 03 7F FC 3F 00 E0 EF 0F
DPCM : 80 81 1F FE 0F 00 F0 FB 07 00 F0 CF FC 07 00 E4 FF 33 00 CF F3 7F 00 80 FF FF 03 80 E1 F8 0F 00
DPCM : E0 FF FB 20 E0 F0 FF 70 00 F0 FB 7F 20 20 F0 FF 3D 00 F0 FF CF 40 00 FC FF 19 00 F8 FF 71 08 00
DPCM : BE FF 0F 00 FC FF 71 00 02 C7 FF 03 00 EF E7 87 00 C3 F9 7F 00 C0 E3 F3 E3 81 C0 DD 3F 00 E0 F7
DPCM : F3 F1 00 70 FC 3F 20 C0 FF FF 00 40 E0 FF 37 00 E0 FF 9F 03 00 F8 FF 0F 00 F0 FF 8F 43 00 D8 FF
DPCM : 1D 00 FC 3F 0F 0C 00 FC FF 0F 00 3E 3E 1F 0E 0C FE 3F 0E 08 3C 3E 1F 0F 02 CF FF 07 00 9E FF 1F
DPCM : 00 00 FF FF 03 00 FE FF 0C 00 C0 FC FF 03 80 FF 7F 0C 00 E0 F9 FF 00 80 FF FF 00 C0 E0 F9 7F 00
DPCM : C0 E7 E7 C3 C1 E0 FF CF 00 C0 E3 F7 41 C0 F0 FF 3F 00 80 FF 3F 00 80 FF F9 3F 00 60 FF 1F 00 C0
DPCM : FC FF 0F 00 70 FE 0F 01 78 1E FF 0F 00 F0 FF C3 00 1C 1E FF 07 00 F8 7F 1E 08 1E 8C FF 0F 00 F8
DPCM : 7F 1E 1C 1C 1C BF 0F 00 7C FE 1F 3C 18 3C FE 1F AA
DPCMDEF   2  3489 "MORTAL KOMBAT!!! 2.dmc"
DPCM : E1 F8 7F E0 80 F8 FC 1F 00 C0 FF 1F 40 80 7F FF 13 00 F0 FF C7 01 E0 87 FF 07 00 F8 FF F3 00 00
DPCM : E7 FF 03 00 FC FF 07 00 07 E7 FF 01 00 FE 9F 07 07 81 FF 8F 03 80 9F 8F 87 83 C3 E3 E3 01 04 9F
DPCM : 8F C7 C3 E1 F1 E1 21 70 BC FF 83 03 E0 FF F8 01 38 9C FF 63 00 F0 E7 3F 00 1C FE 7F 18 00 F0 F1
DPCM : 7F 00 07 FF 3F 06 00 FC 78 BA 07 01 FE FF 03 00 DE F3 E0 01 03 E7 FF 01 E0 FC 3C EE 03 08 DE FF
DPCM : 00 C0 FF C1 F8 03 04 FE 7F 00 C0 FF E1 3C 06 03 FF 8F 00 E2 7F 78 38 1F 00 E7 FF 01 F0 7F 0E 80
DPCM : 1F 10 F4 7F 80 7F F8 03 F8 07 30 E0 FF E0 E7 FF 00 F8 03 00 FC 1F 71 F1 7F 80 E1 CF 00 F8 1F 0F
DPCM : C6 CF E1 60 3C 18 1C 8F 87 C3 F1 71 78 1F 0C 8C CF C7 E1 F1 38 30 7E 0C 04 DF CF C3 E1 71 70 38
DPCM : 1E 84 FF 1F 84 E7 00 30 F6 18 62 FF 3F E0 3B 00 30 FF 00 F0 FF 3F E0 07 20 F0 7F 20 18 EF DF F1
DPCM : 00 60 F8 79 38 38 F7 F8 3C 58 40 F8 F8 3C 30 7E FC 0B 38 C0 FF 70 78 38 02 FF 03 2C F8 79 3C BA
DPCM : 05 1C 1F 35 07 78 E3 3F 11 07 C7 C3 63 E0 73 7C 0F 3E 00 1F F7 01 F8 63 FC 98 1F 80 0F E7 83 79
DPCM : 70 78 B6 02 F0 E1 F1 78 1C 78 1C FF 00 0F F0 3E 0F 1C 87 F3 3D 83 C0 E1 F9 73 38 38 FC 0F 10 C0
DPCM : FF 73 10 7E 70 F8 7F 00 60 7C 3F 30 7C 3C 78 7E 00 E0 FF 0E 0C 9E 0F 8E 1F 00 9E EF 07 C0 C7 63
DPCM : 9E 1F 04 C2 7F A1 C1 CF 83 CF 03 02 EE EF C1 C1 E3 E1 8F 03 80 FF C7 03 F0 C7 C1 7F 10 80 FF 4F
DPCM : 81 C3 C7 C3 F8 03 C1 F1 CF C0 03 EF C1 7F 00 3C FF 03 E0 C1 7F C0 3F 00 CE 3F 3D 30 F0 3D 70 2F
DPCM : 6C 30 7E 7C 10 F8 1C 7E F4 1C 38 7E 74 10 F8 1C FE 18 3C 38 FE 19 10 FC 3F 78 1C 1C 0C FE 01 38
DPCM : FC 7F 40 3C 0E 8E F7 00 F0 F9 07 9E 47 30 FC 1F 84 81 FF 83 39 3C 06 CE 1F 80 81 FF C3 F1 D0 1F
DPCM : EC E0 01 7C E6 8F 3C C0 1F C6 C7 81 0A F5 47 3C C0 DF E8 03 05 33 FF 10 BC 83 8F F0 87 E0 78 9C
DPCM : 07 F6 07 C7 C7 86 41 FB 1C 0D FA 03 3E 98 4F E0 F1 9E 0C 7F 00 1F C6 0F 07 C7 7F 3C 00 CE 0F F4
DPCM : 07 7E C0 1F 3F A0 07 87 F4 0C 3E E2 8F 3F 86 07 83 87 1F 16 E0 7F 1F E0 0F EC 80 77 38 F0 3D 3E
DPCM : E0 07 7C 30 1F 10 FC 1F 3F 78 08 1E FC 1F 00 FE 1D 38 7C 0E 2E F8 0F C0 D7 87 35 70 1C 2E FC 83
DPCM : 67 70 87 F3 70 10 7F 70 06 DF 01 1E FF 01 70 FE 03 EF 03 C0 CF 1F 00 3F 3C 03 FF 03 E0 CF 1F 80
DPCM : 47 1F C0 FF 01 69 FC 0F C0 79 1F E0 FE 00 E1 FD 0C 80 8F EF F1 18 00 F5 FF 1C 00 9E 1F C7 C3 81
DPCM : F0 FD 3C 00 BC EF 66 10 70 B8 FE 31 0C 78 9E B3 63 C0 70 FF 07 00 FF 0F F0 3E 00 F8 FF 01 F0 7F
DPCM : 00 FC 1E 00 FC FF 40 F0 3F 80 8D 1F 00 FE FF 00 FE 6F 00 F0 0F 00 FC BF 03 F6 0F 00 FC 0F 08 FE
DPCM : 7B C0 FD 07 00 FC 07 70 F6 7F 00 DF 7B 00 F8 03 1C F1 7F E0 15 FE 00 E3 81 F1 F0 FF E0 C1 7F 00
DPCM : 60 3C E0 FF FB 01 60 3E 10 02 FF E0 FF FD 03 C0 0F 70 00 7F E0 7F FF 01 30 7C 08 04 E7 E1 FD FF
DPCM : 01 08 7E 0F 00 E6 F9 79 FE 03 08 FC 07 00 FC F7 7E 7F 01 00 FC 0F 00 FE C7 3F 7E 02 00 FE 1F 00
DPCM : FE E1 1F FE 01 00 FC 1F 06 C0 CF FF E3 03 40 F8 7F 02 C0 1F FF E1 07 60 F0 7F 00 C0 DF FB 87 07
DPCM : 40 E4 FF 00 00 FF 9F E3 19 00 FD FF 00 C0 FE F1 E1 75 00 DC FF 00 00 FE F3 23 FC 01 3F 1E 07 00
DPCM : FF 8F 07 FC 03 31 DF 03 00 FC 1F 04 FC 0F FC E0 01 F8 F8 0F 60 FE 0F 8C C1 31 F8 17 30 78 1F FF
DPCM : 07 04 0E DE 07 06 FE 05 FF 03 00 FC 3F 0F 84 0E 9E FF 0F 00 E0 FF 78 20 0C FF E1 7F 00 F0 FE 07
DPCM : 00 3E E6 F0 7F 00 80 FF 03 C0 F3 E3 FC 7F 00 C0 FF 81 70 08 E6 FF 0F C0 70 F8 FC 03 00 FC 7F 8A
DPCM : 3F 00 FC FF 01 C0 3F 78 F3 03 00 FE 1F 81 20 0E F7 1F F0 81 F7 E3 02 A0 03 FE 1F F8 1F 61 F0 1F
DPCM : 00 EE F3 05 FF 83 61 F8 00 1E 1C 3F 3F F0 6F 80 F8 81 F0 79 08 FE 73 FC 03 60 FC 1F 80 3F 70 EC
DPCM : 7F 00 20 FF 30 60 0E F0 FF 7F 00 60 7C 3E 0A 03 F0 FD BF 00 00 F8 FF 01 80 F3 FF F9 01 00 D0 FF
DPCM : 03 80 F9 7F FC 01 00 F8 FF 1C 20 F8 FE DD 3E 00 80 FF 1F 00 FC 3F F8 3F 00 00 FF 0F 80 7C 7F F0
DPCM : 1F 00 88 FF 0F 00 E1 FF 38 3F 00 E0 FF 07 82 C1 FB 87 F3 01 E0 FF 1C 00 F8 FB C1 FF 00 E0 FF 38
DPCM : 00 E4 E6 C3 BF 03 C3 F0 71 00 BC CF C3 F8 1F 00 EF E7 00 78 5F 0C FC 1F 04 8E DF 03 E0 79 18 FC
DPCM : 3F 18 0C 8F 0F E0 3C 1C FC 7F 18 04 9F 0F 82 1F 07 EC FF 18 00 9F 8F 43 C6 81 F1 FF 01 D0 1F 9F
DPCM : C3 A0 1C E6 FF 01 80 FC FF 01 F0 83 E1 FF 43 00 FC FF 00 E2 C1 E0 FF 61 60 FC 7C 0C C2 E1 F0 FF
DPCM : 20 60 FC FC 00 E3 F1 F0 7F 30 00 FC FF 03 C0 F1 B3 FF 03 00 FC FF 01 00 FE 07 FF 07 00 F8 FF 01
DPCM : 00 E7 CF 7F 07 00 F8 FF 03 88 83 C7 BF 03 C0 F8 FF 01 80 87 C7 FF C1 40 F8 FF 00 80 C7 E3 FF 00
DPCM : 40 BC BF 00 86 C7 E3 FF 01 80 FD 7F 04 84 C7 E7 FF 00 80 F9 FF 00 8C C3 F3 7F 02 80 F8 FF 00 86
DPCM : E3 3F FF 01 00 F4 FF 03 80 FB 86 FF 01 80 FB 7F 00 C0 E3 9F FF 00 80 FB 7F 00 C0 C3 F3 7F 00 C0
DPCM : F9 FB 00 C0 F3 F1 7F 00 E0 FC 7F 00 E0 F3 F8 3F 00 E0 FC 7F 00 E2 F1 B8 7F 00 C0 FF 3F 00 E0 FD
DPCM : 88 FF 00 E0 FE 3F 00 C6 F9 39 CF 01 C0 FC 3F 00 E2 73 2F DF 01 C0 FD 3F 00 C6 E3 71 FF 00 E0 FC
DPCM : 1F 00 E3 F3 F0 EF 20 70 3C 1F 80 E1 F9 78 9F 60 70 7C 1F 00 F1 7F 98 FF 00 30 FE 0F 00 F8 3F C0
DPCM : FF 00 B0 FF 03 80 F8 3F 8E F7 00 30 FF 03 40 F8 3F E6 7F 00 80 FF 23 40 FC 3F F4 1F 00 C0 FF 13
DPCM : 40 FC 1F F8 17 00 F0 FF 31 00 FE 1F F8 1D 00 E0 7F 1A 30 FE 3F 3E 0E 00 E3 F3 38 18 0E CF 3F 0F
DPCM : 80 E1 FD 39 00 9F 0F 8F 07 C1 F1 79 1C 08 BF 3F 1C 07 C0 F1 9F 03 80 FF CF 30 4F 80 F8 FF 00 80
DPCM : FF 1F 8C 27 60 F8 FF 00 C4 FD 0B CE 01 60 F8 3F 0E C0 DF 0F C6 21 0C FC 7F 04 C0 FF 31 8E E1 11
DPCM : 7C 1F 07 C0 FF 1C 0F 06 19 FE 77 00 E0 F7 18 8F 03 81 FC 3F 04 E0 F7 B8 E7 70 30 DC 67 80 E0 FB
DPCM : 78 E6 38 18 9E CF 01 E1 F3 3C C7 1D 10 B8 1F 87 C0 7B FC 83 0F C4 70 1F 0E 81 1F FE C3 07 70 38
DPCM : 1F 0E E0 1F FF E1 0E 20 F0 3F 07 E0 0F DF F1 0E 00 F8 3F 0C 78 1E 7E 2C 1E 0E 0E CF 0B 38 1E 3F
DPCM : 1E 0E 07 C1 FF 03 70 1E 3F 7C 0E 0C FC 1F 00 F0 1F 3F F8 07 08 F6 DF 00 F0 3E 7F 78 0C 0C FC 3F
DPCM : 00 38 3E 7F 7C 0C 04 F7 7F 00 F0 1F 61 F8 03 84 FE 3B 00 F8 3F E6 F8 08 00 FE 7F 00 F8 27 EF F8
DPCM : 00 00 FF 1F 00 F8 F7 73 F8 00 E0 FD 3F 00 F0 C7 7F F8 00 00 FF FF 00 F0 07 7F F8 04 80 DF 0F 00
DPCM : F8 9F 7F 7C 00 00 FF 3F 00 F0 0F FE 47 08 F0 FF 8F 00 C0 7F FE 03 0C F0 FF 1F 00 B0 E3 E3 33 00
DPCM : A0 FF 7F 00 F8 E1 E3 7F 00 20 FE 9F 01 E0 FC FC E7 00 30 FE 9F 00 F0 F8 9F E7 00 70 F8 7E 03 C0
DPCM : 7F F8 8F 00 70 BC 7F 00 C0 FF F1 37 08 40 FF DF 01 C0 F3 E3 F7 00 60 FC 3F 0C 00 FF C3 7F 00 80
DPCM : FE 7F 06 00 FF 83 7F 00 80 FF 9F 03 00 FF C7 79 20 C0 FF 73 0C 00 FE E7 3C 98 01 FC F3 04 00 BF
DPCM : 0F 7E 16 08 FE BF 04 00 FF 0F 3E 0F 00 C7 FF 11 00 FF 07 7F 1C 03 C4 FF 03 00 FC D7 3F 7C 00 8C
DPCM : 7F 04 80 FF 87 7F 38 02 F8 FF 03 00 F8 8F FE 03 03 F8 DF 07 80 F0 1F FC 03 07 F0 3F 0E 80 C3 3F
DPCM : F8 03 1C E0 7F 1F 00 F1 27 FC 03 0F E0 CF 3F 00 C3 1F FC 07 3C E0 1F 7F 00 86 EF F0 0F 10 E0 FF
DPCM : 3F 00 80 3F F1 3F 38 00 FF 77 10 00 FE E3 3F 10 80 7F 3F 02 00 FF E7 3F 00 00 FF FF 41 00 F8 8F
DPCM : FF 01 02 F8 FF 41 00 F8 7F FF 01 00 FC 7F 78 00 F0 FF 3F 00 00 F4 FF 7C 00 C0 FF FD 01 18 F0 07
DPCM : FF 00 80 FF F3 0E 18 C0 1F FF 10 00 FF CF 0F 70 80 1F FF 01 00 FE CF 1F E0 00 FE FD 03 00 FC 9F
DPCM : 1F E0 01 F8 FF 03 20 F0 DF F8 60 00 F8 FF C4 1C C0 FF 80 07 38 B0 FF FF 00 00 FF C3 1D 8A 01 FF
DPCM : 7F 00 18 FE 07 F8 DB 00 F0 FF 03 00 FC 0F F0 FF 01 E0 FF 07 00 F0 2F CC FF 07 80 FF 07 00 E1 0F
DPCM : F8 3F 07 C0 7F 87 03 82 DF E1 7F 10 80 FF E1 1E 00 CC C7 FF 81 01 FE C3 27 C0 B0 0F FF 23 0E F8
DPCM : C3 3F 80 C0 CF FF 03 00 FC 9E 9F 3D 00 F8 7F 07 01 E0 F8 7F 3E 00 F8 E3 3F 00 80 FB FF 23 00 78
DPCM : 9F 7F 00 0E E2 FF F8 01 80 7F FC 07 20 1C FF FF 03 00 F0 C7 FF 00 00 FC FF 13 00 E0 FF FB 00 02
DPCM : 62 FF 0F 00 BC DF FF 0E 00 C6 FF 31 00 80 FF DF 0F 00 C8 FF 87 03 00 FD F7 7F 00 00 FF 1F 0E 00
DPCM : FC CF FF 00 E0 F8 33 1F 00 C8 FF FF 00 00 FF C3 E7 00 80 FF FF 03 38 80 CF EF 01 00 FF FF 0F 00
DPCM : 80 FE 9F 00 00 FE FF 3F 00 00 FF 87 E3 00 D0 FF FF 03 00 C7 87 F3 03 00 FC BF 1F C0 03 FE FF 03
DPCM : 00 F0 DF 3F 80 03 F8 FE 0F 00 C0 7F FF 00 07 C0 FF FF 00 80 FF 3C E1 1F 00 FC FF 01 00 FF E3 87
DPCM : 3F 00 F8 7F 00 00 FE 87 FF 01 00 FC FF 41 00 F8 7F FF 07 00 80 FF 0F 02 80 FF FF 1F 00 00 FE CF
DPCM : 03 00 FC FF 3F 00 00 FE FF 07 00 F8 FF 7F 00 00 9C FF 0F 00 C0 FF FF 03 20 C0 FF 3F 04 00 FF DF
DPCM : 3C 00 03 F9 FF 00 C0 FB 7F F8 03 80 E0 FF 08 06 C7 FF F9 0F 80 C0 DF 20 0E 07 EE 1F FA 01 18 FF
DPCM : 1B 38 0E 81 FF E1 0F C0 83 7F 78 3E 00 FE 87 3F 80 03 FE 70 3F 20 F8 3F 7C 00 0E 7E 03 FF 07 00
DPCM : FF 63 78 38 0E C0 F7 BC 03 F0 2F F0 79 02 80 FF 9F 03 E0 1F F0 7F 1E 00 8C FF C3 08 F7 80 FF 47
DPCM : 00 F0 F7 8D 0F 80 C7 FF 03 00 80 FF FF 78 00 F8 E7 7F 00 00 F8 FF 3F 00 80 FF FF 03 00 E0 FF 7F
DPCM : 00 00 FE FF 0F 00 00 FF FF 1D 00 F0 8D 7F 00 02 DC FF 0F 00 E0 FF 71 39 08 80 FF 1F 00 C4 FF 7F
DPCM : 60 78 00 FE 3F 0C 5E C1 7F C0 EF 00 E0 7F 00 FF 03 F0 71 FF 00 E0 F8 1D 3F 07 00 F2 FF 7C 08 20
DPCM : 3F FE BF 01 C0 FF 11 FC 00 10 FF 8F 03 80 FF 7F 0F 00 80 FD 7F 01 00 FC FF 3F 00 00 FE BF 07 00
DPCM : 60 FF 1F 1F 00 FC FF 07 C0 10 F8 7F F0 00 FC 8F 3F 80 1C E0 FF 01 7C CC 87 7F 00 FC 03 F8 1F F0
DPCM : 98 3F 40 FC 1E 1E 80 FF C0 7F 98 03 E0 1F 3F 60 40 7C FC 1F 08 C0 FF 38 3F 00 3C FF FD 03 00 FC
DPCM : 07 FB 00 00 FE FF 07 00 06 FF FF 04 00 FC EF 3F 00 06 FC F9 1F 00 C0 FF F1 03 3C 00 FF 3F 00 01
DPCM : F4 FF F0 3C 07 E0 3F 03 FB 01 F8 0F FE 01 22 F0 3F 9F 03 80 F8 FF 1F 06 00 DF FF 21 00 F0 3F 8F
DPCM : 3F 00 E8 FF 03 45 00 FE 8F FF 00 00 FE 3F 00 0F E0 3F FC 0F 20 F0 3F 66 FC 01 F0 9F 5F 10 12 BC
DPCM : 0F DE 4F 00 F8 1F F0 1F 0C 80 FF AF 03 00 FF C1 7F 1C 00 FE D3 0F 06 C0 7F FC 1F 01 C0 9F 83 FF
DPCM : 01 80 FF C0 3F 03 C0 3F FA 39 00 F0 3F E0 FF 01 C0 FF 38 19 08 DF C7 F9 1F 00 F0 19 FC 1F 00 EE
DPCM : AF F7 03 00 3C 1E FF 01 00 FF 07 FF 03 00 FE 3B E7 00 F0 7F C0 FF 03 80 F7 81 FF 00 F0 07 FC 4F
DPCM : 00 F8 87 F8 7F 00 FC 05 FE 07 00 3E B2 FF 0F 00 FF C0 FF 03 00 70 FF FF 00 00 FF 80 FF 07 00 FE
DPCM : 0F F1 23 10 9F 6F F8 18 FC 1F 00 FE 03 F0 1F 02 FC 3F 0F 01 F8 3F A0 F0 30 10 FE FF 00 9C C0 FF
DPCM : 7F 00 10 FE E7 3F 00 C0 17 FE 07 00 FF E3 70 7C 00 FC 07 EE E0 0D FE 03 7C 82 1F 7F 00 70 FF B3
DPCM : 00 17 C0 FF FF 00 80 C7 F3 FF 00 00 F8 FF E1 07 C0 F1 FF 81 20 E0 7F D8 07 C1 F9 83 0F F0 E3 E3
DPCM : 60 80 FF F9 F0 07 80 F0 FF 50 80 67 F0 DF 0F 21 E8 5F 00 8F C7 E0 7F 00 FF 60 3F 1F 00 7E F8 1E
DPCM : 03 F8 01 FE 07 8E 1B 73 8C 1F F0 11 FC 03 B8 3F E6 07 47 E8 81 CF 63 80 FF C0 DF 80 7F 80 0F F8
DPCM : 00 FF F9 02 E6 F0 07 7F 02 01 FF 77 84 07 F0 39 7F 00 C6 E3 FF 03 C1 E1 61 FF 01 00 FF C1 7F C0
DPCM : 80 FF 2B 58 1C 7C C3 3F C0 83 1D FF 01 F8 12 7F 0F 80 FC E5 D4 05 C0 BF F0 1F 00 87 FF C1 39 30
DPCM : 8F 27 3E 0C 1C C7 6F 10 3C 8F 7F 11 08 BE 0F E7 07 00 FE 9F 07 00 DF 87 FB 0F 00 F8 7F 01 C2 1A
DPCM : FA FF 1C 00 D8 FE 0F 0A 18 87 FF 8F 00 F0 3F FC 31 18 4C FB 57 00 F0 7F A0 3E 8F 40 7F 23 40 F9
DPCM : 3F 80 A7 7E 08 FE 0B 80 F9 3F 80 EB 17 38 1C 0F D0 F5 1F 80 E3 1F F0 0F 07 81 FF 61 C6 E0 7B 70
DPCM : F0 0F C0 F1 3F E0 E1 33 E0 63 B7 C0 F8 0B F2 C1 3F C0 7D 80 DA E3 0F F0 03 FC 61 FC 1B 00 BE 1F
DPCM : F0 23 35 E8 47 3E 04 BC FF 80 7B 38 80 FF 03 34 38 FF 03 3B 5C 00 FE 1F 80 7D 47 E3 33 F0 58 72
DPCM : 3F 01 B8 FE 81 3D 98 E1 73 3E 0A 50 FC 17 7C 94 41 EF 37 02 D4 74 27 5F C2 0B F8 BF 04 E0 F1 B0
DPCM : AE 92 96 A4 DF 43 81 FA 21 BC AB 30 BC 0F C3 07 C3 AB F8 44 2F D0 3F 09 AA 47 8B E2 27 68 8A 7F
DPCM : 05 A9 AE 96 B8 95 B2 E0 AF A0 86 79 96 E4 2D 1A 83 5F F0 2A D3 9C A1 AE 8E C2 AD 52 D5 AA AA AA
DPCM : AA

# DETUNETABLES block

# GROOVES block

# Tracks using default groove:

# INSTRUMENTS block
INST2A03   0    -1  -1  -1  -1  -1 "Blank"
INST2A03   1    -1   0  -1  -1  -1 "Tri Kick -> Bass"
INST2A03   2    -1   1  -1  -1  -1 "Tri Snare -> Bass"
INST2A03   3     0   2  -1  -1  -1 "Kick Noise Enhance"
INST2A03   4     1   3  -1  -1  -1 "Snare Noise Enhance"
INST2A03   5     2   4  -1  -1  -1 "Snare Roll"
INST2A03   6     3   5  -1  -1  -1 "Low Drum"
INST2A03   7     4   6  -1  -1  -1 "Hat 1"
INST2A03   8     5  -1  -1  -1   0 "Synth Lead"
INST2A03   9     6  -1  -1  -1   0 "Synth Echo"
INST2A03  10     7  -1  -1  -1   1 "Pulse Bass"
INST2A03  11     8  -1  -1  -1  -1 "Roll Drum"
INST2A03  12     9  -1  -1  -1   2 "Pluck"
INST2A03  13    10  -1  -1  -1   2 "Pluck (Quiet)"
INST2A03  14    11   7  -1  -1  -1 "Bongo"
INST2A03  15    12   8  -1  -1  -1 "Long Kick"
INST2A03  16    13  -1   0  -1   3 "Flute"
INST2A03  17    -1  -1  -1  -1  -1 "DPCM"
KEYDPCM  17   3   0     0  15   0     0  -1
INST2A03  18    21  -1  -1  -1  -1 "Quiet Drum"
INST2A03  19    14   3  -1  -1  -1 "Snare 2"
INST2A03  20    17  -1   2  -1   6 "Synth 2"
INST2A03  21    20  -1   2  -1   6 "Synth 2 Echo"
INST2A03  22    15  -1  -1  -1   4 "Bamboo?"
INST2A03  23    18  -1  -1  -1   4 "Bamboo Echo"
INST2A03  24    16  -1  -1  -1   5 "Bamboo x2"
INST2A03  25    19  -1  -1  -1   5 "Bamboo x2 echo"
INST2A03  26    23   6  -1  -1  -1 "Open Hat"
INST2A03  27    22   9  -1  -1  -1 "Metallic Slap?"
INST2A03  28    24  -1  -1  -1   7 "Opening Synth"
INST2A03  29    25  -1  -1  -1   7 "Opening Synth Echo"
INST2A03  30    26  -1   4  -1   8 "Warrior Synth"
INST2A03  31    27  -1   4  -1   8 "Warrior Synth 2"
INST2A03  32    28  10  -1  -1  -1 "Pop Drum"
INST2A03  33    29  -1  -1  -1   9 "Double Pluck"
INST2A03  34    30  -1  -1  -1   9 "Double Pluck Echo"
INST2A03  35    31  -1  -1  -1  -1 "Light Drum"
INST2A03  36    32  -1   6  -1  10 "Opening Synth fade"
INST2A03  37    33  -1   5  -1  11 "Opening Synth Vibrato 2"
INST2A03  38    33  -1   6  -1  11 "Opening Synth Vibrato 4"
INST2A03  39    34  -1   6  -1  11 "Opening Echo Vib 4"
INST2A03  40    34  -1   5  -1  11 "Opening Echo Vib 2"
INST2A03  41    -1  -1  -1  -1  -1 ""
INST2A03  42    17  -1  -1  -1   6 "Goro Sweep"
INST2A03  43    35  -1   2  -1  12 "Goro Vibrato"
INST2A03  44    20  -1  -1  -1   6 "Goro Echo Sweep"
INST2A03  45    36  -1   2  -1  12 "Goro Vib Echo"
INST2A03  46    37  11  -1  -1  -1 "Crash"
INST2A03  47    38  12  -1  -1  13 "Orch Hit 0 7 12"
INST2A03  48    43  -1  -1  -1  -1 "Reverse Crash"
INST2A03  49    39  14  -1  -1  13 "Theme Intro"
INST2A03  50    44  -1   4  -1  15 "Theme String"
INST2A03  51    40  -1   7  -1  14 "Pulse Tom"
INST2A03  52    41  14  -1  -1  13 "Theme Intro Echo"
INST2A03  53    42  12  -1  -1  16 "Orch Hit 0 7 12"
INST2A03  54    -1  -1  -1  -1  -1 "Theme DPCM"
KEYDPCM  54   3   0     1  15   0     0  -1
KEYDPCM  54   3   2     2  15   0     0  -1
INST2A03  55    45  16  -1  -1  -1 "Snare Crash Tail"

# track HEADER block
TRACK  32   7 150 "Your Destiny"
COLUMNS : 1 1 1 1 1

# track FRAMES block
ORDER 00 : 00 00 00 00 00

# track PATTERNS block
PATTERN 00
ROW 00 : ... .. . ... : ... .. . ... : E-2 01 . ... : 9-# 03 . ... : ... .. . ...
ROW 01 : ... .. . ... : ... .. . ... : ... .. . ... : ... .. . ... : ... .. . ...
ROW 02 : B-2 0C . ... : E-3 0C . ... : --- .. . ... : B-# 07 . ... : ... .. . ...
ROW 03 : B-2 0C . ... : E-3 0C . ... : ... .. . ... : ... .. . ... : ... .. . ...
ROW 04 : A-2 0C . ... : D-3 0C . ... : E-2 01 . ... : 9-# 03 . ... : ... .. . ...
ROW 05 : ... .. . ... : ... .. . ... : ... .. . ... : ... .. . ... : ... .. . ...
ROW 06 : B-2 0C . ... : E-3 0C . ... : --- .. . ... : B-# 07 . ... : ... .. . ...
ROW 07 : ... .. . ... : ... .. . ... : ... .. . ... : ... .. . ... : ... .. . ...
ROW 08 : D-3 0C . ... : G-3 0C . ... : E-2 01 . ... : 9-# 03 . ... : ... .. . ...
ROW 09 : ... .. . ... : ... .. . ... : ... .. . ... : ... .. . ... : ... .. . ...
ROW 0A : B-2 0C . ... : E-3 0C . ... : --- .. . ... : B-# 07 . ... : ... .. . ...
ROW 0B : ... .. . ... : ... .. . ... : ... .. . ... : ... .. . ... : ... .. . ...
ROW 0C : A-2 0C . ... : D-3 0C . ... : E-2 01 . ... : 9-# 03 . ... : ... .. . ...
ROW 0D : ... .. . ... : ... .. . ... : ... .. . ... : ... .. . ... : ... .. . ...
ROW 0E : B-2 0C . ... : E-3 0C . ... : --- .. . ... : 4-# 12 . ... : ... .. . ...
ROW 0F : ... .. . ... : ... .. . ... : ... .. . ... : 4-# 12 . ... : ... .. . ...
ROW 10 : ... .. . ... : ... .. . ... : E-2 01 . ... : 9-# 03 . ... : ... .. . ...
ROW 11 : ... .. . ... : ... .. . ... : ... .. . ... : ... .. . ... : ... .. . ...
ROW 12 : B-2 0C . ... : E-3 0C . ... : --- .. . ... : B-# 07 . ... : ... .. . ...
ROW 13 : B-2 0C . ... : E-3 0C . ... : ... .. . ... : ... .. . ... : ... .. . ...
ROW 14 : A-2 0C . ... : D-3 0C . ... : E-2 01 . ... : 9-# 03 . ... : ... .. . ...
ROW 15 : ... .. . ... : ... .. . ... : ... .. . ... : ... .. . ... : ... .. . ...
ROW 16 : B-2 0C . ... : E-3 0C . ... : --- .. . ... : B-# 07 . ... : ... .. . ...
ROW 17 : ... .. . ... : ... .. . ... : ... .. . ... : ... .. . ... : ... .. . ...
ROW 18 : D-3 0C . ... : G-3 0C . ... : E-2 01 . ... : 9-# 03 . ... : ... .. . ...
ROW 19 : ... .. . ... : ... .. . ... : ... .. . ... : ... .. . ... : ... .. . ...
ROW 1A : B-2 0C . ... : E-3 0C . ... : --- .. . ... : 4-# 12 . ... : ... .. . ...
ROW 1B : ... .. . ... : ... .. . ... : ... .. . ... : 4-# 12 . ... : ... .. . ...
ROW 1C : A-2 0C . ... : D-3 0C . ... : E-2 01 . ... : 9-# 03 . ... : ... .. . ...
ROW 1D : ... .. . ... : ... .. . ... : ... .. . ... : ... .. . ... : ... .. . ...
ROW 1E : F#2 0C . ... : B-2 0C . ... : --- .. . ... : 4-# 12 . ... : ... .. . ...
ROW 1F : ... .. . ... : ... .. . ... : ... .. . ... : 4-# 12 . ... : ... .. . ...

# track BOOKMARKS block

# track HEADER block
TRACK  80   7 150 "Dead Pool"
COLUMNS : 1 1 1 1 1

# track FRAMES block
ORDER 00 : 00 00 00 00 00
ORDER 01 : 01 01 01 00 00
ORDER 02 : 01 01 01 00 00
ORDER 03 : 02 02 02 00 00

# track PATTERNS block
PATTERN 00
ROW 00 : ... .. . ... : ... .. . ... : E-2 01 . ... : 9-# 03 . ... : ... .. . ...
ROW 01 : ... .. . ... : ... .. . ... : ... .. . ... : ... .. . ... : ... .. . ...
ROW 02 : ... .. . ... : ... .. . ... : ... .. . ... : B-# 07 . ... : ... .. . ...
ROW 03 : ... .. . ... : ... .. . ... : E-2 01 . ... : 9-# 03 . ... : ... .. . ...
ROW 04 : ... .. . ... : ... .. . ... : ... .. . ... : ... .. . ... : ... .. . ...
ROW 05 : ... .. . ... : ... .. . ... : ... .. . ... : 7-# 05 . ... : ... .. . ...
ROW 06 : ... .. . ... : ... .. . ... : E-2 02 . ... : 7-# 04 . ... : ... .. . ...
ROW 07 : ... .. . ... : ... .. . ... : ... .. . ... : ... .. . ... : ... .. . ...
ROW 08 : ... .. . ... : ... .. . ... : ... .. . ... : B-# 07 . ... : ... .. . ...
ROW 09 : ... .. . ... : ... .. . ... : ... .. . ... : ... .. . ... : ... .. . ...
ROW 0A : ... .. . ... : ... .. . ... : ... .. . ... : 3-# 06 . ... : ... .. . ...
ROW 0B : ... .. . ... : ... .. . ... : ... .. . ... : ... .. . ... : ... .. . ...
ROW 0C : ... .. . ... : ... .. . ... : ... .. . ... : ... .. . ... : ... .. . ...
ROW 0D : ... .. . ... : ... .. . ... : ... .. . ... : ... .. . ... : ... .. . ...
ROW 0E : ... .. . ... : ... .. . ... : ... .. . ... : ... .. . ... : ... .. . ...
ROW 0F : ... .. . ... : ... .. . ... : --- .. . ... : ... .. . ... : ... .. . ...
ROW 10 : ... .. . ... : ... .. . ... : E-2 01 . ... : 9-# 03 . ... : ... .. . ...
ROW 11 : ... .. . ... : ... .. . ... : ... .. . ... : ... .. . ... : ... .. . ...
ROW 12 : ... .. . ... : ... .. . ... : ... .. . ... : B-# 07 . ... : ... .. . ...
ROW 13 : ... .. . ... : ... .. . ... : E-2 01 . ... : 9-# 03 . ... : ... .. . ...
ROW 14 : ... .. . ... : ... .. . ... : ... .. . ... : ... .. . ... : ... .. . ...
ROW 15 : ... .. . ... : ... .. . ... : ... .. . ... : 7-# 05 . ... : ... .. . ...
ROW 16 : ... .. . ... : ... .. . ... : E-2 02 . ... : 7-# 04 . ... : ... .. . ...
ROW 17 : ... .. . ... : ... .. . ... : ... .. . ... : ... .. . ... : ... .. . ...
ROW 18 : ... .. . ... : ... .. . ... : ... .. . ... : B-# 07 . ... : ... .. . ...
ROW 19 : ... .. . ... : ... .. . ... : ... .. . ... : ... .. . ... : ... .. . ...
ROW 1A : ... .. . ... : ... .. . ... : ... .. . ... : 3-# 06 . ... : ... .. . ...
ROW 1B : ... .. . ... : ... .. . ... : ... .. . ... : ... .. . ... : ... .. . ...
ROW 1C : ... .. . ... : ... .. . ... : ... .. . ... : 2-# 06 . ... : ... .. . ...
ROW 1D : ... .. . ... : ... .. . ... : ... .. . ... : ... .. . ... : ... .. . ...
ROW 1E : ... .. . ... : ... .. . ... : ... .. . ... : ... .. . ... : ... .. . ...
ROW 1F : ... .. . ... : ... .. . ... : --- .. . D00 : ... .. . ... : ... .. . ...
ROW 20 : ... .. . ... : ... .. . ... : ... .. . ... : 9-# 03 . ... : ... .. . ...
ROW 21 : ... .. . ... : ... .. . ... : ... .. . ... : ... .. . ... : ... .. . ...
ROW 22 : ... .. . ... : ... .. . ... : ... .. . ... : B-# 07 . ... : ... .. . ...
ROW 23 : ... .. . ... : ... .. . ... : ... .. . ... : 9-# 03 . ... : ... .. . ...
ROW 24 : ... .. . ... : ... .. . ... : ... .. . ... : ... .. . ... : ... .. . ...
ROW 25 : ... .. . ... : ... .. . ... : ... .. . ... : 7-# 05 . ... : ... .. . ...
ROW 26 : ... .. . ... : ... .. . ... : ... .. . ... : 7-# 04 . ... : ... .. . ...
ROW 27 : ... .. . ... : ... .. . ... : ... .. . ... : ... .. . ... : ... .. . ...
ROW 28 : ... .. . ... : ... .. . ... : ... .. . ... : B-# 07 . ... : ... .. . ...
ROW 29 : ... .. . ... : ... .. . ... : ... .. . ... : ... .. . ... : ... .. . ...
ROW 2A : ... .. . ... : ... .. . ... : ... .. . ... : 3-# 06 . ... : ... .. . ...
ROW 2B : ... .. . ... : ... .. . ... : ... .. . ... : ... .. . ... : ... .. . ...
ROW 2C : ... .. . ... : ... .. . ... : ... .. . ... : ... .. . ... : ... .. . ...
ROW 2D : ... .. . ... : ... .. . ... : ... .. . ... : ... .. . ... : ... .. . ...
ROW 2E : ... .. . ... : ... .. . ... : ... .. . ... : ... .. . ... : ... .. . ...
ROW 2F : ... .. . ... : ... .. . ... : ... .. . ... : ... .. . ... : ... .. . ...
ROW 30 : ... .. . ... : ... .. . ... : ... .. . ... : 9-# 03 . ... : ... .. . ...
ROW 31 : ... .. . ... : ... .. . ... : ... .. . ... : ... .. . ... : ... .. . ...
ROW 32 : ... .. . ... : ... .. . ... : ... .. . ... : B-# 07 . ... : ... .. . ...
ROW 33 : ... .. . ... : ... .. . ... : ... .. . ... : 9-# 03 . ... : ... .. . ...
ROW 34 : ... .. . ... : ... .. . ... : ... .. . ... : ... .. . ... : ... .. . ...
ROW 35 : ... .. . ... : ... .. . ... : ... .. . ... : 7-# 05 . ... : ... .. . ...
ROW 36 : ... .. . ... : ... .. . ... : ... .. . ... : 7-# 04 . ... : ... .. . ...
ROW 37 : ... .. . ... : ... .. . ... : ... .. . ... : ... .. . ... : ... .. . ...
ROW 38 : ... .. . ... : ... .. . ... : ... .. . ... : B-# 07 . ... : ... .. . ...
ROW 39 : ... .. . ... : ... .. . ... : ... .. . ... : ... .. . ... : ... .. . ...
ROW 3A : ... .. . ... : ... .. . ... : ... .. . ... : 3-# 06 . ... : ... .. . ...
ROW 3B : ... .. . ... : ... .. . ... : ... .. . ... : ... .. . ... : ... .. . ...
ROW 3C : ... .. . ... : ... .. . ... : ... .. . ... : 2-# 06 . ... : ... .. . ...
ROW 3D : ... .. . ... : ... .. . ... : ... .. . ... : ... .. . ... : ... .. . ...
ROW 3E : ... .. . ... : ... .. . ... : ... .. . ... : ... .. . ... : ... .. . ...
ROW 3F : ... .. . ... : ... .. . ... : ... .. . ... : ... .. . ... : ... .. . ...
ROW 40 : ... .. . ... : ... .. . ... : ... .. . ... : 9-# 03 . ... : ... .. . ...
ROW 41 : ... .. . ... : ... .. . ... : ... .. . ... : ... .. . ... : ... .. . ...
ROW 42 : ... .. . ... : ... .. . ... : ... .. . ... : B-# 07 . ... : ... .. . ...
ROW 43 : ... .. . ... : ... .. . ... : ... .. . ... : 9-# 03 . ... : ... .. . ...
ROW 44 : ... .. . ... : ... .. . ... : ... .. . ... : ... .. . ... : ... .. . ...
ROW 45 : ... .. . ... : ... .. . ... : ... .. . ... : 7-# 05 . ... : ... .. . ...
ROW 46 : ... .. . ... : ... .. . ... : ... .. . ... : 7-# 04 . ... : ... .. . ...
ROW 47 : ... .. . ... : ... .. . ... : ... .. . ... : ... .. . ... : ... .. . ...
ROW 48 : ... .. . ... : ... .. . ... : ... .. . ... : B-# 07 . ... : ... .. . ...
ROW 49 : ... .. . ... : ... .. . ... : ... .. . ... : ... .. . ... : ... .. . ...
ROW 4A : ... .. . ... : ... .. . ... : ... .. . ... : 3-# 06 . ... : ... .. . ...
ROW 4B : ... .. . ... : ... .. . ... : ... .. . ... : ... .. . ... : ... .. . ...
ROW 4C : ... .. . ... : ... .. . ... : ... .. . ... : ... .. . ... : ... .. . ...
ROW 4D : ... .. . ... : ... .. . ... : ... .. . ... : ... .. . ... : ... .. . ...
ROW 4E : ... .. . ... : ... .. . ... : ... .. . ... : ... .. . ... : ... .. . ...
ROW 4F : ... .. . ... : ... .. . ... : ... .. . ... : ... .. . ... : ... .. . ...
PATTERN 01
ROW 00 : ... .. . ... : E-2 08 . ... : E-2 01 . ... : ... .. . ... : ... .. . ...
ROW 01 : ... .. . ... : ... .. . ... : ... .. . ... : ... .. . ... : ... .. . ...
ROW 02 : ... .. . ... : A#2 08 . ... : ... .. . ... : ... .. . ... : ... .. . ...
ROW 03 : E-2 09 . ... : ... .. . ... : E-2 01 . ... : ... .. . ... : ... .. . ...
ROW 04 : ... .. . ... : D-3 08 . ... : ... .. . ... : ... .. . ... : ... .. . ...
ROW 05 : A#2 09 . ... : ... .. . ... : ... .. . ... : ... .. . ... : ... .. . ...
ROW 06 : ... .. . ... : G#2 08 . ... : E-2 02 . ... : ... .. . ... : ... .. . ...
ROW 07 : D-3 09 . ... : ... .. . ... : ... .. . ... : ... .. . ... : ... .. . ...
ROW 08 : ... .. . ... : G-2 08 . ... : ... .. . ... : ... .. . ... : ... .. . ...
ROW 09 : G#2 09 . ... : ... .. . ... : ... .. . ... : ... .. . ... : ... .. . ...
ROW 0A : ... .. . ... : ... .. . ... : ... .. . ... : ... .. . ... : ... .. . ...
ROW 0B : G-2 09 . ... : ... .. . ... : ... .. . ... : ... .. . ... : ... .. . ...
ROW 0C : ... .. . ... : ... .. . ... : ... .. . ... : ... .. . ... : ... .. . ...
ROW 0D : ... .. . ... : ... .. . ... : ... .. . ... : ... .. . ... : ... .. . ...
ROW 0E : ... .. . ... : ... .. . ... : ... .. . ... : ... .. . ... : ... .. . ...
ROW 0F : ... .. . ... : ... .. . ... : --- .. . ... : ... .. . ... : ... .. . ...
ROW 10 : ... .. . ... : ... .. . ... : G-2 01 . ... : ... .. . ... : ... .. . ...
ROW 11 : ... .. . ... : ... .. . ... : ... .. . ... : ... .. . ... : ... .. . ...
ROW 12 : ... .. . ... : ... .. . ... : ... .. . ... : ... .. . ... : ... .. . ...
ROW 13 : ... .. . ... : ... .. . ... : G-2 01 . ... : ... .. . ... : ... .. . ...
ROW 14 : ... .. . ... : ... .. . ... : ... .. . ... : ... .. . ... : ... .. . ...
ROW 15 : ... .. . ... : ... .. . ... : ... .. . ... : ... .. . ... : ... .. . ...
ROW 16 : ... .. . ... : ... .. . ... : G-2 02 . ... : ... .. . ... : ... .. . ...
ROW 17 : ... .. . ... : ... .. . ... : ... .. . ... : ... .. . ... : ... .. . ...
ROW 18 : ... .. . ... : ... .. . ... : ... .. . ... : ... .. . ... : ... .. . ...
ROW 19 : ... .. . ... : ... .. . ... : ... .. . ... : ... .. . ... : ... .. . ...
ROW 1A : ... .. . ... : ... .. . ... : ... .. . ... : ... .. . ... : ... .. . ...
ROW 1B : ... .. . ... : ... .. . ... : ... .. . ... : ... .. . ... : ... .. . ...
ROW 1C : ... .. . ... : ... .. . ... : ... .. . ... : ... .. . ... : ... .. . ...
ROW 1D : ... .. . ... : ... .. . ... : ... .. . ... : ... .. . ... : ... .. . ...
ROW 1E : ... .. . ... : ... .. . ... : ... .. . ... : ... .. . ... : ... .. . ...
ROW 1F : ... .. . ... : ... .. . ... : --- .. . ... : ... .. . ... : ... .. . ...
ROW 20 : ... .. . ... : E-2 08 . ... : C#3 01 . ... : ... .. . ... : ... .. . ...
ROW 21 : ... .. . ... : ... .. . ... : ... .. . ... : ... .. . ... : ... .. . ...
ROW 22 : ... .. . ... : G-2 08 . ... : ... .. . ... : ... .. . ... : ... .. . ...
ROW 23 : E-2 09 . ... : ... .. . ... : B-2 01 . S05 : ... .. . ... : ... .. . ...
ROW 24 : ... .. . ... : C#3 08 . ... : B-2 00 . ... : ... .. . ... : ... .. . ...
ROW 25 : G-2 09 . ... : ... .. . ... : ... .. . ... : ... .. . ... : ... .. . ...
ROW 26 : ... .. . ... : ... .. . ... : B-2 02 . ... : ... .. . ... : ... .. . ...
ROW 27 : C#3 09 . ... : ... .. . ... : ... .. . ... : ... .. . ... : ... .. . ...
ROW 28 : ... .. . ... : ... .. . ... : ... .. . ... : ... .. . ... : ... .. . ...
ROW 29 : ... .. . ... : ... .. . ... : ... .. . ... : ... .. . ... : ... .. . ...
ROW 2A : ... .. . ... : ... .. . ... : ... .. . ... : ... .. . ... : ... .. . ...
ROW 2B : ... .. . ... : ... .. . ... : --- .. . ... : ... .. . ... : ... .. . ...
ROW 2C : ... .. . ... : ... .. . ... : G-2 00 . ... : ... .. . ... : ... .. . ...
ROW 2D : ... .. . ... : ... .. . ... : ... .. . ... : ... .. . ... : ... .. . ...
ROW 2E : ... .. . ... : ... .. . ... : ... .. . ... : ... .. . ... : ... .. . ...
ROW 2F : ... .. . ... : ... .. . ... : --- .. . ... : ... .. . ... : ... .. . ...
ROW 30 : ... .. . ... : ... .. . ... : A#2 01 . ... : ... .. . ... : ... .. . ...
ROW 31 : ... .. . ... : ... .. . ... : ... .. . ... : ... .. . ... : ... .. . ...
ROW 32 : ... .. . ... : ... .. . ... : ... .. . ... : ... .. . ... : ... .. . ...
ROW 33 : ... .. . ... : ... .. . ... : A#2 01 . ... : ... .. . ... : ... .. . ...
ROW 34 : ... .. . ... : ... .. . ... : ... .. . ... : ... .. . ... : ... .. . ...
ROW 35 : ... .. . ... : ... .. . ... : ... .. . ... : ... .. . ... : ... .. . ...
ROW 36 : ... .. . ... : ... .. . ... : A#2 02 . ... : ... .. . ... : ... .. . ...
ROW 37 : ... .. . ... : ... .. . ... : ... .. . ... : ... .. . ... : ... .. . ...
ROW 38 : ... .. . ... : ... .. . ... : ... .. . ... : ... .. . ... : ... .. . ...
ROW 39 : ... .. . ... : ... .. . ... : ... .. . ... : ... .. . ... : ... .. . ...
ROW 3A : ... .. . ... : ... .. . ... : ... .. . ... : ... .. . ... : ... .. . ...
ROW 3B : ... .. . ... : ... .. . ... : ... .. . ... : ... .. . ... : ... .. . ...
ROW 3C : ... .. . ... : ... .. . ... : ... .. . ... : ... .. . ... : ... .. . ...
ROW 3D : ... .. . ... : ... .. . ... : ... .. . ... : ... .. . ... : ... .. . ...
ROW 3E : ... .. . ... : ... .. . ... : ... .. . ... : ... .. . ... : ... .. . ...
ROW 3F : ... .. . ... : ... .. . ... : --- .. . ... : ... .. . ... : ... .. . ...
ROW 40 : ... .. . ... : C#3 08 . ... : E-2 01 . ... : ... .. . ... : ... .. . ...
ROW 41 : ... .. . ... : D-3 08 . ... : ... .. . ... : ... .. . ... : ... .. . ...
ROW 42 : ... .. . ... : C#3 08 . ... : ... .. . ... : ... .. . ... : ... .. . ...
ROW 43 : C#3 09 . ... : ... .. . ... : E-2 01 . ... : ... .. . ... : ... .. . ...
ROW 44 : D-3 09 . ... : ... .. . ... : ... .. . ... : ... .. . ... : ... .. . ...
ROW 45 : C#3 09 . ... : ... .. . ... : ... .. . ... : ... .. . ... : ... .. . ...
ROW 46 : ... .. . ... : ... .. . ... : E-2 02 . ... : ... .. . ... : ... .. . ...
ROW 47 : ... .. . ... : ... .. . ... : ... .. . ... : ... .. . ... : ... .. . ...
ROW 48 : ... .. . ... : ... .. . ... : ... .. . ... : ... .. . ... : ... .. . ...
ROW 49 : ... .. . ... : ... .. . ... : ... .. . ... : ... .. . ... : ... .. . ...
ROW 4A : ... .. . ... : ... .. . ... : ... .. . ... : ... .. . ... : ... .. . ...
ROW 4B : ... .. . ... : ... .. . ... : ... .. . ... : ... .. . ... : ... .. . ...
ROW 4C : ... .. . ... : ... .. . ... : ... .. . ... : ... .. . ... : ... .. . ...
ROW 4D : ... .. . ... : ... .. . ... : ... .. . ... : ... .. . ... : ... .. . ...
ROW 4E : ... .. . ... : ... .. . ... : ... .. . ... : ... .. . ... : ... .. . ...
ROW 4F : ... .. . ... : ... .. . ... : --- .. . ... : ... .. . ... : ... .. . ...
PATTERN 02
ROW 00 : ... .. . ... : E-2 08 . ... : F#2 01 . ... : ... .. . ... : ... .. . ...
ROW 01 : ... .. . ... : ... .. . ... : ... .. . ... : ... .. . ... : ... .. . ...
ROW 02 : ... .. . ... : E-3 08 . ... : ... .. . ... : ... .. . ... : ... .. . ...
ROW 03 : E-2 09 . ... : ... .. . ... : F#2 01 . ... : ... .. . ... : ... .. . ...
ROW 04 : ... .. . ... : F#2 08 . ... : ... .. . ... : ... .. . ... : ... .. . ...
ROW 05 : E-3 09 . ... : ... .. . ... : ... .. . ... : ... .. . ... : ... .. . ...
ROW 06 : ... .. . ... : C-3 08 . ... : F#2 02 . ... : ... .. . ... : ... .. . ...
ROW 07 : F#2 09 . ... : ... .. . ... : ... .. . ... : ... .. . ... : ... .. . ...
ROW 08 : ... .. . ... : ... .. . ... : ... .. . ... : ... .. . ... : ... .. . ...
ROW 09 : C-3 09 . ... : ... .. . ... : ... .. . ... : ... .. . ... : ... .. . ...
ROW 0A : ... .. . ... : ... .. . ... : ... .. . ... : ... .. . ... : ... .. . ...
ROW 0B : ... .. . ... : ... .. . ... : ... .. . ... : ... .. . ... : ... .. . ...
ROW 0C : ... .. . ... : ... .. . ... : ... .. . ... : ... .. . ... : ... .. . ...
ROW 0D : ... .. . ... : ... .. . ... : ... .. . ... : ... .. . ... : ... .. . ...
ROW 0E : ... .. . ... : ... .. . ... : ... .. . ... : ... .. . ... : ... .. . ...
ROW 0F : ... .. . ... : ... .. . ... : --- .. . ... : ... .. . ... : ... .. . ...
ROW 10 : ... .. . ... : E-2 08 . ... : F#2 01 . ... : ... .. . ... : ... .. . ...
ROW 11 : ... .. . ... : ... .. . ... : ... .. . ... : ... .. . ... : ... .. . ...
ROW 12 : ... .. . ... : E-3 08 . ... : ... .. . ... : ... .. . ... : ... .. . ...
ROW 13 : E-2 09 . ... : ... .. . ... : F#2 01 . ... : ... .. . ... : ... .. . ...
ROW 14 : ... .. . ... : F#2 08 . ... : ... .. . ... : ... .. . ... : ... .. . ...
ROW 15 : E-3 09 . ... : ... .. . ... : ... .. . ... : ... .. . ... : ... .. . ...
ROW 16 : ... .. . ... : C-3 08 . ... : F#2 02 . ... : ... .. . ... : ... .. . ...
ROW 17 : F#2 09 . ... : ... .. . ... : ... .. . ... : ... .. . ... : ... .. . ...
ROW 18 : ... .. . ... : ... .. . ... : ... .. . ... : ... .. . ... : ... .. . ...
ROW 19 : C-3 09 . ... : ... .. . ... : ... .. . ... : ... .. . ... : ... .. . ...
ROW 1A : ... .. . ... : ... .. . ... : ... .. . ... : ... .. . ... : ... .. . ...
ROW 1B : ... .. . ... : ... .. . ... : ... .. . ... : ... .. . ... : ... .. . ...
ROW 1C : ... .. . ... : ... .. . ... : ... .. . ... : ... .. . ... : ... .. . ...
ROW 1D : ... .. . ... : ... .. . ... : ... .. . ... : ... .. . ... : ... .. . ...
ROW 1E : ... .. . ... : ... .. . ... : ... .. . ... : ... .. . ... : ... .. . ...
ROW 1F : ... .. . ... : ... .. . D00 : --- .. . ... : ... .. . ... : ... .. . ...
ROW 20 : ... .. . ... : ... .. . ... : ... .. . ... : ... .. . ... : ... .. . ...
ROW 21 : ... .. . ... : ... .. . ... : ... .. . ... : ... .. . ... : ... .. . ...
ROW 22 : ... .. . ... : ... .. . ... : ... .. . ... : ... .. . ... : ... .. . ...
ROW 23 : ... .. . ... : ... .. . ... : ... .. . ... : ... .. . ... : ... .. . ...
ROW 24 : ... .. . ... : ... .. . ... : ... .. . ... : ... .. . ... : ... .. . ...
ROW 25 : ... .. . ... : ... .. . ... : ... .. . ... : ... .. . ... : ... .. . ...
ROW 26 : ... .. . ... : ... .. . ... : ... .. . ... : ... .. . ... : ... .. . ...
ROW 27 : ... .. . ... : ... .. . ... : ... .. . ... : ... .. . ... : ... .. . ...
ROW 28 : ... .. . ... : ... .. . ... : ... .. . ... : ... .. . ... : ... .. . ...
ROW 29 : ... .. . ... : ... .. . ... : ... .. . ... : ... .. . ... : ... .. . ...
ROW 2A : ... .. . ... : ... .. . ... : ... .. . ... : ... .. . ... : ... .. . ...
ROW 2B : ... .. . ... : ... .. . ... : ... .. . ... : ... .. . ... : ... .. . ...
ROW 2C : ... .. . ... : ... .. . ... : ... .. . ... : ... .. . ... : ... .. . ...
ROW 2D : ... .. . ... : ... .. . ... : ... .. . ... : ... .. . ... : ... .. . ...
ROW 2E : ... .. . ... : ... .. . ... : ... .. . ... : ... .. . ... : ... .. . ...
ROW 2F : ... .. . ... : ... .. . ... : ... .. . ... : ... .. . ... : ... .. . ...
ROW 30 : ... .. . ... : ... .. . ... : ... .. . ... : ... .. . ... : ... .. . ...
ROW 31 : ... .. . ... : ... .. . ... : ... .. . ... : ... .. . ... : ... .. . ...
ROW 32 : ... .. . ... : ... .. . ... : ... .. . ... : ... .. . ... : ... .. . ...
ROW 33 : ... .. . ... : ... .. . ... : ... .. . ... : ... .. . ... : ... .. . ...
ROW 34 : ... .. . ... : ... .. . ... : ... .. . ... : ... .. . ... : ... .. . ...
ROW 35 : ... .. . ... : ... .. . ... : ... .. . ... : ... .. . ... : ... .. . ...
ROW 36 : ... .. . ... : ... .. . ... : ... .. . ... : ... .. . ... : ... .. . ...
ROW 37 : ... .. . ... : ... .. . ... : ... .. . ... : ... .. . ... : ... .. . ...
ROW 38 : ... .. . ... : ... .. . ... : ... .. . ... : ... .. . ... : ... .. . ...
ROW 39 : ... .. . ... : ... .. . ... : ... .. . ... : ... .. . ... : ... .. . ...
ROW 3A : ... .. . ... : ... .. . ... : ... .. . ... : ... .. . ... : ... .. . ...
ROW 3B : ... .. . ... : ... .. . ... : ... .. . ... : ... .. . ... : ... .. . ...
ROW 3C : ... .. . ... : ... .. . ... : ... .. . ... : ... .. . ... : ... .. . ...
ROW 3D : ... .. . ... : ... .. . ... : ... .. . ... : ... .. . ... : ... .. . ...
ROW 3E : ... .. . ... : ... .. . ... : ... .. . ... : ... .. . ... : ... .. . ...
ROW 3F : ... .. . ... : ... .. . ... : ... .. . ... : ... .. . ... : ... .. . ...
ROW 40 : ... .. . ... : ... .. . ... : ... .. . ... : ... .. . ... : ... .. . ...
ROW 41 : ... .. . ... : ... .. . ... : ... .. . ... : ... .. . ... : ... .. . ...
ROW 42 : ... .. . ... : ... .. . ... : ... .. . ... : ... .. . ... : ... .. . ...
ROW 43 : ... .. . ... : ... .. . ... : ... .. . ... : ... .. . ... : ... .. . ...
ROW 44 : ... .. . ... : ... .. . ... : ... .. . ... : ... .. . ... : ... .. . ...
ROW 45 : ... .. . ... : ... .. . ... : ... .. . ... : ... .. . ... : ... .. . ...
ROW 46 : ... .. . ... : ... .. . ... : ... .. . ... : ... .. . ... : ... .. . ...
ROW 47 : ... .. . ... : ... .. . ... : ... .. . ... : ... .. . ... : ... .. . ...
ROW 48 : ... .. . ... : ... .. . ... : ... .. . ... : ... .. . ... : ... .. . ...
ROW 49 : ... .. . ... : ... .. . ... : ... .. . ... : ... .. . ... : ... .. . ...
ROW 4A : ... .. . ... : ... .. . ... : ... .. . ... : ... .. . ... : ... .. . ...
ROW 4B : ... .. . ... : ... .. . ... : ... .. . ... : ... .. . ... : ... .. . ...
ROW 4C : ... .. . ... : ... .. . ... : ... .. . ... : ... .. . ... : ... .. . ...
ROW 4D : ... .. . ... : ... .. . ... : ... .. . ... : ... .. . ... : ... .. . ...
ROW 4E : ... .. . ... : ... .. . ... : ... .. . ... : ... .. . ... : ... .. . ...
ROW 4F : ... .. . ... : ... .. . ... : ... .. . ... : ... .. . ... : ... .. . ...

# track BOOKMARKS block

# track HEADER block
TRACK  80   7 150 "Dead Pool (PB)"
COLUMNS : 1 1 1 1 1

# track FRAMES block
ORDER 00 : 00 00 01 00 00
ORDER 01 : 01 01 01 00 00
ORDER 02 : 01 01 01 00 00
ORDER 03 : 02 02 01 00 00

# track PATTERNS block
PATTERN 00
ROW 00 : E-1 0A . ... : ... .. . ... : E-2 01 . S05 : 9-# 03 . ... : ... .. . ...
ROW 01 : ... .. . ... : ... .. . ... : ... .. . ... : ... .. . ... : ... .. . ...
ROW 02 : ... .. . ... : ... .. . ... : ... .. . ... : B-# 07 . ... : ... .. . ...
ROW 03 : ... .. . ... : ... .. . ... : E-2 01 . S05 : 9-# 03 . ... : ... .. . ...
ROW 04 : ... .. . ... : ... .. . ... : ... .. . ... : ... .. . ... : ... .. . ...
ROW 05 : ... .. . ... : ... .. . ... : ... .. . ... : 7-# 05 . ... : ... .. . ...
ROW 06 : ... .. . ... : ... .. . ... : E-2 02 . S02 : 7-# 04 . ... : ... .. . ...
ROW 07 : ... .. . ... : ... .. . ... : ... .. . ... : ... .. . ... : ... .. . ...
ROW 08 : ... .. . ... : ... .. . ... : ... .. . ... : B-# 07 . ... : ... .. . ...
ROW 09 : ... .. . ... : ... .. . ... : ... .. . ... : ... .. . ... : ... .. . ...
ROW 0A : ... .. . ... : ... .. . ... : ... .. . ... : 3-# 06 . ... : ... .. . ...
ROW 0B : ... .. . ... : ... .. . ... : ... .. . ... : ... .. . ... : ... .. . ...
ROW 0C : ... .. . ... : ... .. . ... : ... .. . ... : ... .. . ... : ... .. . ...
ROW 0D : ... .. . ... : ... .. . ... : ... .. . ... : ... .. . ... : ... .. . ...
ROW 0E : ... .. . ... : ... .. . ... : ... .. . ... : ... .. . ... : ... .. . ...
ROW 0F : ... .. . ... : ... .. . ... : --- .. . ... : ... .. . ... : ... .. . ...
ROW 10 : E-1 0A . ... : ... .. . ... : E-2 01 . S05 : 9-# 03 . ... : ... .. . ...
ROW 11 : ... .. . ... : ... .. . ... : ... .. . ... : ... .. . ... : ... .. . ...
ROW 12 : ... .. . ... : ... .. . ... : ... .. . ... : B-# 07 . ... : ... .. . ...
ROW 13 : ... .. . ... : ... .. . ... : E-2 01 . S05 : 9-# 03 . ... : ... .. . ...
ROW 14 : ... .. . ... : ... .. . ... : ... .. . ... : ... .. . ... : ... .. . ...
ROW 15 : ... .. . ... : ... .. . ... : ... .. . ... : 7-# 05 . ... : ... .. . ...
ROW 16 : ... .. . ... : ... .. . ... : E-2 02 . S02 : 7-# 04 . ... : ... .. . ...
ROW 17 : ... .. . ... : ... .. . ... : ... .. . ... : ... .. . ... : ... .. . ...
ROW 18 : ... .. . ... : ... .. . ... : ... .. . ... : B-# 07 . ... : ... .. . ...
ROW 19 : ... .. . ... : ... .. . ... : ... .. . ... : ... .. . ... : ... .. . ...
ROW 1A : ... .. . ... : ... .. . ... : ... .. . ... : 3-# 06 . ... : ... .. . ...
ROW 1B : ... .. . ... : ... .. . ... : ... .. . ... : ... .. . ... : ... .. . ...
ROW 1C : ... .. . ... : ... .. . ... : ... .. . ... : 2-# 06 . ... : ... .. . ...
ROW 1D : ... .. . ... : ... .. . ... : ... .. . ... : ... .. . ... : ... .. . ...
ROW 1E : ... .. . ... : ... .. . ... : ... .. . ... : ... .. . ... : ... .. . ...
ROW 1F : ... .. . D00 : ... .. . ... : --- .. . D00 : ... .. . ... : ... .. . ...
ROW 20 : ... .. . ... : ... .. . ... : ... .. . ... : 9-# 03 . ... : ... .. . ...
ROW 21 : ... .. . ... : ... .. . ... : ... .. . ... : ... .. . ... : ... .. . ...
ROW 22 : ... .. . ... : ... .. . ... : ... .. . ... : B-# 07 . ... : ... .. . ...
ROW 23 : ... .. . ... : ... .. . ... : ... .. . ... : 9-# 03 . ... : ... .. . ...
ROW 24 : ... .. . ... : ... .. . ... : ... .. . ... : ... .. . ... : ... .. . ...
ROW 25 : ... .. . ... : ... .. . ... : ... .. . ... : 7-# 05 . ... : ... .. . ...
ROW 26 : ... .. . ... : ... .. . ... : ... .. . ... : 7-# 04 . ... : ... .. . ...
ROW 27 : ... .. . ... : ... .. . ... : ... .. . ... : ... .. . ... : ... .. . ...
ROW 28 : ... .. . ... : ... .. . ... : ... .. . ... : B-# 07 . ... : ... .. . ...
ROW 29 : ... .. . ... : ... .. . ... : ... .. . ... : ... .. . ... : ... .. . ...
ROW 2A : ... .. . ... : ... .. . ... : ... .. . ... : 3-# 06 . ... : ... .. . ...
ROW 2B : ... .. . ... : ... .. . ... : ... .. . ... : ... .. . ... : ... .. . ...
ROW 2C : ... .. . ... : ... .. . ... : ... .. . ... : ... .. . ... : ... .. . ...
ROW 2D : ... .. . ... : ... .. . ... : ... .. . ... : ... .. . ... : ... .. . ...
ROW 2E : ... .. . ... : ... .. . ... : ... .. . ... : ... .. . ... : ... .. . ...
ROW 2F : ... .. . ... : ... .. . ... : ... .. . ... : ... .. . ... : ... .. . ...
ROW 30 : ... .. . ... : ... .. . ... : ... .. . ... : 9-# 03 . ... : ... .. . ...
ROW 31 : ... .. . ... : ... .. . ... : ... .. . ... : ... .. . ... : ... .. . ...
ROW 32 : ... .. . ... : ... .. . ... : ... .. . ... : B-# 07 . ... : ... .. . ...
ROW 33 : ... .. . ... : ... .. . ... : ... .. . ... : 9-# 03 . ... : ... .. . ...
ROW 34 : ... .. . ... : ... .. . ... : ... .. . ... : ... .. . ... : ... .. . ...
ROW 35 : ... .. . ... : ... .. . ... : ... .. . ... : 7-# 05 . ... : ... .. . ...
ROW 36 : ... .. . ... : ... .. . ... : ... .. . ... : 7-# 04 . ... : ... .. . ...
ROW 37 : ... .. . ... : ... .. . ... : ... .. . ... : ... .. . ... : ... .. . ...
ROW 38 : ... .. . ... : ... .. . ... : ... .. . ... : B-# 07 . ... : ... .. . ...
ROW 39 : ... .. . ... : ... .. . ... : ... .. . ... : ... .. . ... : ... .. . ...
ROW 3A : ... .. . ... : ... .. . ... : ... .. . ... : 3-# 06 . ... : ... .. . ...
ROW 3B : ... .. . ... : ... .. . ... : ... .. . ... : ... .. . ... : ... .. . ...
ROW 3C : ... .. . ... : ... .. . ... : ... .. . ... : 2-# 06 . ... : ... .. . ...
ROW 3D : ... .. . ... : ... .. . ... : ... .. . ... : ... .. . ... : ... .. . ...
ROW 3E : ... .. . ... : ... .. . ... : ... .. . ... : ... .. . ... : ... .. . ...
ROW 3F : ... .. . ... : ... .. . ... : ... .. . ... : ... .. . ... : ... .. . ...
ROW 40 : ... .. . ... : ... .. . ... : ... .. . ... : 9-# 03 . ... : ... .. . ...
ROW 41 : ... .. . ... : ... .. . ... : ... .. . ... : ... .. . ... : ... .. . ...
ROW 42 : ... .. . ... : ... .. . ... : ... .. . ... : B-# 07 . ... : ... .. . ...
ROW 43 : ... .. . ... : ... .. . ... : ... .. . ... : 9-# 03 . ... : ... .. . ...
ROW 44 : ... .. . ... : ... .. . ... : ... .. . ... : ... .. . ... : ... .. . ...
ROW 45 : ... .. . ... : ... .. . ... : ... .. . ... : 7-# 05 . ... : ... .. . ...
ROW 46 : ... .. . ... : ... .. . ... : ... .. . ... : 7-# 04 . ... : ... .. . ...
ROW 47 : ... .. . ... : ... .. . ... : ... .. . ... : ... .. . ... : ... .. . ...
ROW 48 : ... .. . ... : ... .. . ... : ... .. . ... : B-# 07 . ... : ... .. . ...
ROW 49 : ... .. . ... : ... .. . ... : ... .. . ... : ... .. . ... : ... .. . ...
ROW 4A : ... .. . ... : ... .. . ... : ... .. . ... : 3-# 06 . ... : ... .. . ...
ROW 4B : ... .. . ... : ... .. . ... : ... .. . ... : ... .. . ... : ... .. . ...
ROW 4C : ... .. . ... : ... .. . ... : ... .. . ... : ... .. . ... : ... .. . ...
ROW 4D : ... .. . ... : ... .. . ... : ... .. . ... : ... .. . ... : ... .. . ...
ROW 4E : ... .. . ... : ... .. . ... : ... .. . ... : ... .. . ... : ... .. . ...
ROW 4F : ... .. . ... : ... .. . ... : ... .. . ... : ... .. . ... : ... .. . ...
PATTERN 01
ROW 00 : E-1 0A . ... : E-2 08 . ... : E-2 01 . S05 : ... .. . ... : ... .. . ...
ROW 01 : ... .. . ... : ... .. . ... : ... .. . ... : ... .. . ... : ... .. . ...
ROW 02 : ... .. . ... : A#2 08 . ... : ... .. . ... : ... .. . ... : ... .. . ...
ROW 03 : ... .. . ... : ... .. . ... : E-2 01 . S05 : ... .. . ... : ... .. . ...
ROW 04 : ... .. . ... : D-3 08 . ... : ... .. . ... : ... .. . ... : ... .. . ...
ROW 05 : ... .. . ... : ... .. . ... : ... .. . ... : ... .. . ... : ... .. . ...
ROW 06 : ... .. . ... : G#2 08 . ... : E-2 02 . S02 : ... .. . ... : ... .. . ...
ROW 07 : ... .. . ... : ... .. . ... : ... .. . ... : ... .. . ... : ... .. . ...
ROW 08 : ... .. . ... : G-2 08 . ... : ... .. . ... : ... .. . ... : ... .. . ...
ROW 09 : ... .. . ... : ... .. . ... : ... .. . ... : ... .. . ... : ... .. . ...
ROW 0A : ... .. . ... : ... .. . ... : ... .. . ... : ... .. . ... : ... .. . ...
ROW 0B : ... .. . ... : ... .. . ... : ... .. . ... : ... .. . ... : ... .. . ...
ROW 0C : ... .. . ... : ... .. . ... : ... .. . ... : ... .. . ... : ... .. . ...
ROW 0D : ... .. . ... : ... .. . ... : ... .. . ... : ... .. . ... : ... .. . ...
ROW 0E : ... .. . ... : ... .. . ... : ... .. . ... : ... .. . ... : ... .. . ...
ROW 0F : ... .. . ... : ... .. . ... : --- .. . ... : ... .. . ... : ... .. . ...
ROW 10 : G-1 0A . ... : ... .. . ... : E-2 01 . S05 : ... .. . ... : ... .. . ...
ROW 11 : ... .. . ... : ... .. . ... : ... .. . ... : ... .. . ... : ... .. . ...
ROW 12 : ... .. . ... : ... .. . ... : ... .. . ... : ... .. . ... : ... .. . ...
ROW 13 : ... .. . ... : ... .. . ... : E-2 01 . S05 : ... .. . ... : ... .. . ...
ROW 14 : ... .. . ... : ... .. . ... : ... .. . ... : ... .. . ... : ... .. . ...
ROW 15 : ... .. . ... : ... .. . ... : ... .. . ... : ... .. . ... : ... .. . ...
ROW 16 : ... .. . ... : ... .. . ... : E-2 02 . S02 : ... .. . ... : ... .. . ...
ROW 17 : ... .. . ... : ... .. . ... : ... .. . ... : ... .. . ... : ... .. . ...
ROW 18 : ... .. . ... : ... .. . ... : ... .. . ... : ... .. . ... : ... .. . ...
ROW 19 : ... .. . ... : ... .. . ... : ... .. . ... : ... .. . ... : ... .. . ...
ROW 1A : ... .. . ... : ... .. . ... : ... .. . ... : ... .. . ... : ... .. . ...
ROW 1B : ... .. . ... : ... .. . ... : ... .. . ... : ... .. . ... : ... .. . ...
ROW 1C : ... .. . ... : ... .. . ... : ... .. . ... : ... .. . ... : ... .. . ...
ROW 1D : ... .. . ... : ... .. . ... : ... .. . ... : ... .. . ... : ... .. . ...
ROW 1E : ... .. . ... : ... .. . ... : ... .. . ... : ... .. . ... : ... .. . ...
ROW 1F : ... .. . ... : ... .. . ... : --- .. . ... : ... .. . ... : ... .. . ...
ROW 20 : C#2 0A . ... : E-2 08 . ... : E-2 01 . S05 : ... .. . ... : ... .. . ...
ROW 21 : ... .. . ... : ... .. . ... : ... .. . ... : ... .. . ... : ... .. . ...
ROW 22 : ... .. . ... : G-2 08 . ... : ... .. . ... : ... .. . ... : ... .. . ...
ROW 23 : ... .. . ... : ... .. . ... : E-2 01 . S05 : ... .. . ... : ... .. . ...
ROW 24 : B-1 0A . ... : C#3 08 . ... : ... .. . ... : ... .. . ... : ... .. . ...
ROW 25 : ... .. . ... : ... .. . ... : ... .. . ... : ... .. . ... : ... .. . ...
ROW 26 : ... .. . ... : ... .. . ... : E-2 02 . S02 : ... .. . ... : ... .. . ...
ROW 27 : ... .. . ... : ... .. . ... : ... .. . ... : ... .. . ... : ... .. . ...
ROW 28 : ... .. . ... : ... .. . ... : ... .. . ... : ... .. . ... : ... .. . ...
ROW 29 : ... .. . ... : ... .. . ... : ... .. . ... : ... .. . ... : ... .. . ...
ROW 2A : ... .. . ... : ... .. . ... : ... .. . ... : ... .. . ... : ... .. . ...
ROW 2B : ... .. . ... : ... .. . ... : ... .. . ... : ... .. . ... : ... .. . ...
ROW 2C : G-1 0A . ... : ... .. . ... : ... .. . ... : ... .. . ... : ... .. . ...
ROW 2D : ... .. . ... : ... .. . ... : ... .. . ... : ... .. . ... : ... .. . ...
ROW 2E : ... .. . ... : ... .. . ... : ... .. . ... : ... .. . ... : ... .. . ...
ROW 2F : ... .. . ... : ... .. . ... : --- .. . ... : ... .. . ... : ... .. . ...
ROW 30 : A#1 0A . ... : ... .. . ... : E-2 01 . S05 : ... .. . ... : ... .. . ...
ROW 31 : ... .. . ... : ... .. . ... : ... .. . ... : ... .. . ... : ... .. . ...
ROW 32 : ... .. . ... : ... .. . ... : ... .. . ... : ... .. . ... : ... .. . ...
ROW 33 : ... .. . ... : ... .. . ... : E-2 01 . S05 : ... .. . ... : ... .. . ...
ROW 34 : ... .. . ... : ... .. . ... : ... .. . ... : ... .. . ... : ... .. . ...
ROW 35 : ... .. . ... : ... .. . ... : ... .. . ... : ... .. . ... : ... .. . ...
ROW 36 : ... .. . ... : ... .. . ... : E-2 02 . S02 : ... .. . ... : ... .. . ...
ROW 37 : ... .. . ... : ... .. . ... : ... .. . ... : ... .. . ... : ... .. . ...
ROW 38 : ... .. . ... : ... .. . ... : ... .. . ... : ... .. . ... : ... .. . ...
ROW 39 : ... .. . ... : ... .. . ... : ... .. . ... : ... .. . ... : ... .. . ...
ROW 3A : ... .. . ... : ... .. . ... : ... .. . ... : ... .. . ... : ... .. . ...
ROW 3B : ... .. . ... : ... .. . ... : ... .. . ... : ... .. . ... : ... .. . ...
ROW 3C : ... .. . ... : ... .. . ... : ... .. . ... : ... .. . ... : ... .. . ...
ROW 3D : ... .. . ... : ... .. . ... : ... .. . ... : ... .. . ... : ... .. . ...
ROW 3E : ... .. . ... : ... .. . ... : ... .. . ... : ... .. . ... : ... .. . ...
ROW 3F : ... .. . ... : ... .. . ... : --- .. . ... : ... .. . ... : ... .. . ...
ROW 40 : E-1 0A . ... : C#3 08 . ... : E-2 01 . S05 : ... .. . ... : ... .. . ...
ROW 41 : ... .. . ... : D-3 08 . ... : ... .. . ... : ... .. . ... : ... .. . ...
ROW 42 : ... .. . ... : C#3 08 . ... : ... .. . ... : ... .. . ... : ... .. . ...
ROW 43 : ... .. . ... : ... .. . ... : E-2 01 . S05 : ... .. . ... : ... .. . ...
ROW 44 : ... .. . ... : ... .. . ... : ... .. . ... : ... .. . ... : ... .. . ...
ROW 45 : ... .. . ... : ... .. . ... : ... .. . ... : ... .. . ... : ... .. . ...
ROW 46 : ... .. . ... : ... .. . ... : E-2 02 . S02 : ... .. . ... : ... .. . ...
ROW 47 : ... .. . ... : ... .. . ... : ... .. . ... : ... .. . ... : ... .. . ...
ROW 48 : ... .. . ... : ... .. . ... : ... .. . ... : ... .. . ... : ... .. . ...
ROW 49 : ... .. . ... : ... .. . ... : ... .. . ... : ... .. . ... : ... .. . ...
ROW 4A : ... .. . ... : ... .. . ... : ... .. . ... : ... .. . ... : ... .. . ...
ROW 4B : ... .. . ... : ... .. . ... : ... .. . ... : ... .. . ... : ... .. . ...
ROW 4C : ... .. . ... : ... .. . ... : ... .. . ... : ... .. . ... : ... .. . ...
ROW 4D : ... .. . ... : ... .. . ... : ... .. . ... : ... .. . ... : ... .. . ...
ROW 4E : ... .. . ... : ... .. . ... : ... .. . ... : ... .. . ... : ... .. . ...
ROW 4F : ... .. . ... : ... .. . ... : --- .. . ... : ... .. . ... : ... .. . ...
PATTERN 02
ROW 00 : F#1 0A . ... : E-2 08 . ... : ... .. . ... : ... .. . ... : ... .. . ...
ROW 01 : ... .. . ... : ... .. . ... : ... .. . ... : ... .. . ... : ... .. . ...
ROW 02 : ... .. . ... : E-3 08 . ... : ... .. . ... : ... .. . ... : ... .. . ...
ROW 03 : ... .. . ... : ... .. . ... : ... .. . ... : ... .. . ... : ... .. . ...
ROW 04 : ... .. . ... : F#2 08 . ... : ... .. . ... : ... .. . ... : ... .. . ...
ROW 05 : ... .. . ... : ... .. . ... : ... .. . ... : ... .. . ... : ... .. . ...
ROW 06 : ... .. . ... : C-3 08 . ... : ... .. . ... : ... .. . ... : ... .. . ...
ROW 07 : ... .. . ... : ... .. . ... : ... .. . ... : ... .. . ... : ... .. . ...
ROW 08 : ... .. . ... : ... .. . ... : ... .. . ... : ... .. . ... : ... .. . ...
ROW 09 : ... .. . ... : ... .. . ... : ... .. . ... : ... .. . ... : ... .. . ...
ROW 0A : ... .. . ... : ... .. . ... : ... .. . ... : ... .. . ... : ... .. . ...
ROW 0B : ... .. . ... : ... .. . ... : ... .. . ... : ... .. . ... : ... .. . ...
ROW 0C : ... .. . ... : ... .. . ... : ... .. . ... : ... .. . ... : ... .. . ...
ROW 0D : ... .. . ... : ... .. . ... : ... .. . ... : ... .. . ... : ... .. . ...
ROW 0E : ... .. . ... : ... .. . ... : ... .. . ... : ... .. . ... : ... .. . ...
ROW 0F : ... .. . ... : ... .. . ... : ... .. . ... : ... .. . ... : ... .. . ...
ROW 10 : F#1 0A . ... : E-2 08 . ... : ... .. . ... : ... .. . ... : ... .. . ...
ROW 11 : ... .. . ... : ... .. . ... : ... .. . ... : ... .. . ... : ... .. . ...
ROW 12 : ... .. . ... : E-3 08 . ... : ... .. . ... : ... .. . ... : ... .. . ...
ROW 13 : ... .. . ... : ... .. . ... : ... .. . ... : ... .. . ... : ... .. . ...
ROW 14 : ... .. . ... : F#2 08 . ... : ... .. . ... : ... .. . ... : ... .. . ...
ROW 15 : ... .. . ... : ... .. . ... : ... .. . ... : ... .. . ... : ... .. . ...
ROW 16 : ... .. . ... : C-3 08 . ... : ... .. . ... : ... .. . ... : ... .. . ...
ROW 17 : ... .. . ... : ... .. . ... : ... .. . ... : ... .. . ... : ... .. . ...
ROW 18 : ... .. . ... : ... .. . ... : ... .. . ... : ... .. . ... : ... .. . ...
ROW 19 : ... .. . ... : ... .. . ... : ... .. . ... : ... .. . ... : ... .. . ...
ROW 1A : ... .. . ... : ... .. . ... : ... .. . ... : ... .. . ... : ... .. . ...
ROW 1B : ... .. . ... : ... .. . ... : ... .. . ... : ... .. . ... : ... .. . ...
ROW 1C : ... .. . ... : ... .. . ... : ... .. . ... : ... .. . ... : ... .. . ...
ROW 1D : ... .. . ... : ... .. . ... : ... .. . ... : ... .. . ... : ... .. . ...
ROW 1E : ... .. . ... : ... .. . ... : ... .. . ... : ... .. . ... : ... .. . ...
ROW 1F : ... .. . D00 : ... .. . ... : ... .. . ... : ... .. . ... : ... .. . ...
ROW 20 : ... .. . ... : ... .. . ... : ... .. . ... : ... .. . ... : ... .. . ...
ROW 21 : ... .. . ... : ... .. . ... : ... .. . ... : ... .. . ... : ... .. . ...
ROW 22 : ... .. . ... : ... .. . ... : ... .. . ... : ... .. . ... : ... .. . ...
ROW 23 : ... .. . ... : ... .. . ... : ... .. . ... : ... .. . ... : ... .. . ...
ROW 24 : ... .. . ... : ... .. . ... : ... .. . ... : ... .. . ... : ... .. . ...
ROW 25 : ... .. . ... : ... .. . ... : ... .. . ... : ... .. . ... : ... .. . ...
ROW 26 : ... .. . ... : ... .. . ... : ... .. . ... : ... .. . ... : ... .. . ...
ROW 27 : ... .. . ... : ... .. . ... : ... .. . ... : ... .. . ... : ... .. . ...
ROW 28 : ... .. . ... : ... .. . ... : ... .. . ... : ... .. . ... : ... .. . ...
ROW 29 : ... .. . ... : ... .. . ... : ... .. . ... : ... .. . ... : ... .. . ...
ROW 2A : ... .. . ... : ... .. . ... : ... .. . ... : ... .. . ... : ... .. . ...
ROW 2B : ... .. . ... : ... .. . ... : ... .. . ... : ... .. . ... : ... .. . ...
ROW 2C : ... .. . ... : ... .. . ... : ... .. . ... : ... .. . ... : ... .. . ...
ROW 2D : ... .. . ... : ... .. . ... : ... .. . ... : ... .. . ... : ... .. . ...
ROW 2E : ... .. . ... : ... .. . ... : ... .. . ... : ... .. . ... : ... .. . ...
ROW 2F : ... .. . ... : ... .. . ... : ... .. . ... : ... .. . ... : ... .. . ...
ROW 30 : ... .. . ... : ... .. . ... : ... .. . ... : ... .. . ... : ... .. . ...
ROW 31 : ... .. . ... : ... .. . ... : ... .. . ... : ... .. . ... : ... .. . ...
ROW 32 : ... .. . ... : ... .. . ... : ... .. . ... : ... .. . ... : ... .. . ...
ROW 33 : ... .. . ... : ... .. . ... : ... .. . ... : ... .. . ... : ... .. . ...
ROW 34 : ... .. . ... : ... .. . ... : ... .. . ... : ... .. . ... : ... .. . ...
ROW 35 : ... .. . ... : ... .. . ... : ... .. . ... : ... .. . ... : ... .. . ...
ROW 36 : ... .. . ... : ... .. . ... : ... .. . ... : ... .. . ... : ... .. . ...
ROW 37 : ... .. . ... : ... .. . ... : ... .. . ... : ... .. . ... : ... .. . ...
ROW 38 : ... .. . ... : ... .. . ... : ... .. . ... : ... .. . ... : ... .. . ...
ROW 39 : ... .. . ... : ... .. . ... : ... .. . ... : ... .. . ... : ... .. . ...
ROW 3A : ... .. . ... : ... .. . ... : ... .. . ... : ... .. . ... : ... .. . ...
ROW 3B : ... .. . ... : ... .. . ... : ... .. . ... : ... .. . ... : ... .. . ...
ROW 3C : ... .. . ... : ... .. . ... : ... .. . ... : ... .. . ... : ... .. . ...
ROW 3D : ... .. . ... : ... .. . ... : ... .. . ... : ... .. . ... : ... .. . ...
ROW 3E : ... .. . ... : ... .. . ... : ... .. . ... : ... .. . ... : ... .. . ...
ROW 3F : ... .. . ... : ... .. . ... : ... .. . ... : ... .. . ... : ... .. . ...
ROW 40 : ... .. . ... : ... .. . ... : ... .. . ... : ... .. . ... : ... .. . ...
ROW 41 : ... .. . ... : ... .. . ... : ... .. . ... : ... .. . ... : ... .. . ...
ROW 42 : ... .. . ... : ... .. . ... : ... .. . ... : ... .. . ... : ... .. . ...
ROW 43 : ... .. . ... : ... .. . ... : ... .. . ... : ... .. . ... : ... .. . ...
ROW 44 : ... .. . ... : ... .. . ... : ... .. . ... : ... .. . ... : ... .. . ...
ROW 45 : ... .. . ... : ... .. . ... : ... .. . ... : ... .. . ... : ... .. . ...
ROW 46 : ... .. . ... : ... .. . ... : ... .. . ... : ... .. . ... : ... .. . ...
ROW 47 : ... .. . ... : ... .. . ... : ... .. . ... : ... .. . ... : ... .. . ...
ROW 48 : ... .. . ... : ... .. . ... : ... .. . ... : ... .. . ... : ... .. . ...
ROW 49 : ... .. . ... : ... .. . ... : ... .. . ... : ... .. . ... : ... .. . ...
ROW 4A : ... .. . ... : ... .. . ... : ... .. . ... : ... .. . ... : ... .. . ...
ROW 4B : ... .. . ... : ... .. . ... : ... .. . ... : ... .. . ... : ... .. . ...
ROW 4C : ... .. . ... : ... .. . ... : ... .. . ... : ... .. . ... : ... .. . ...
ROW 4D : ... .. . ... : ... .. . ... : ... .. . ... : ... .. . ... : ... .. . ...
ROW 4E : ... .. . ... : ... .. . ... : ... .. . ... : ... .. . ... : ... .. . ...
ROW 4F : ... .. . ... : ... .. . ... : ... .. . ... : ... .. . ... : ... .. . ...

# track BOOKMARKS block

# track HEADER block
TRACK  24   7 150 "Living Forest"
COLUMNS : 1 1 1 1 1

# track FRAMES block
ORDER 00 : 00 00 00 00 00
ORDER 01 : 00 00 01 00 00
ORDER 02 : 00 00 02 01 00
ORDER 03 : 01 00 03 02 00
ORDER 04 : 02 00 02 01 00
ORDER 05 : 01 00 02 01 00
ORDER 06 : 03 00 02 01 00
ORDER 07 : 00 00 02 01 00
ORDER 08 : 00 00 02 01 00
ORDER 09 : 01 00 03 02 00
ORDER 0A : 02 00 02 01 00
ORDER 0B : 01 00 02 01 00
ORDER 0C : 03 01 04 01 00
ORDER 0D : 04 01 04 01 00
ORDER 0E : 04 01 05 00 00
ORDER 0F : 04 01 04 01 00
ORDER 10 : 00 00 06 00 00

# track PATTERNS block
PATTERN 00
ROW 00 : B-2 0D . ... : E-3 0C . ... : ... .. . ... : 3-# 0B . ... : ... .. . ...
ROW 01 : ... .. . ... : ... .. . ... : ... .. . ... : 3-# 0B . ... : ... .. . ...
ROW 02 : D-3 0D . ... : G-3 0C . ... : ... .. . ... : ... .. . ... : ... .. . ...
ROW 03 : ... .. . ... : ... .. . ... : ... .. . ... : 2-# 0B . ... : ... .. . ...
ROW 04 : B-2 0D . ... : E-3 0C . ... : ... .. . ... : ... .. . ... : ... .. . ...
ROW 05 : D-3 0D . ... : G-3 0C . ... : ... .. . ... : 1-# 0B . ... : ... .. . ...
ROW 06 : B-2 0D . ... : E-3 0C . ... : ... .. . ... : 1-# 0B . ... : ... .. . ...
ROW 07 : ... .. . ... : ... .. . ... : ... .. . ... : ... .. . ... : ... .. . ...
ROW 08 : F-3 0D . ... : A#3 0C . ... : ... .. . ... : ... .. . ... : ... .. . ...
ROW 09 : ... .. . ... : ... .. . ... : ... .. . ... : ... .. . ... : ... .. . ...
ROW 0A : B-2 0D . ... : E-3 0C . ... : ... .. . ... : 1-# 0B . ... : ... .. . ...
ROW 0B : D-3 0D . ... : G-3 0C . ... : ... .. . ... : ... .. . ... : ... .. . ...
ROW 0C : ... .. . ... : ... .. . ... : ... .. . ... : 1-# 0B . ... : ... .. . ...
ROW 0D : B-2 0D . ... : E-3 0C . ... : ... .. . ... : 1-# 0B . ... : ... .. . ...
ROW 0E : F-3 0D . ... : A#3 0C . ... : ... .. . ... : ... .. . ... : ... .. . ...
ROW 0F : ... .. . ... : ... .. . ... : ... .. . ... : 1-# 0B . ... : ... .. . ...
ROW 10 : B-2 0D . ... : E-3 0C . ... : ... .. . ... : ... .. . ... : ... .. . ...
ROW 11 : ... .. . ... : ... .. . ... : ... .. . ... : ... .. . ... : ... .. . ...
ROW 12 : D-3 0D . ... : G-3 0C . ... : ... .. . ... : 3-# 0B . G07 : ... .. . ...
ROW 13 : ... .. . ... : ... .. . ... : ... .. . ... : 3-# 0B . G04 : ... .. . ...
ROW 14 : B-2 0D . ... : E-3 0C . ... : ... .. . ... : 3-# 0B . ... : ... .. . ...
ROW 15 : D-3 0D . ... : G-3 0C . ... : ... .. . ... : 2-# 0B . ... : ... .. . ...
ROW 16 : F-3 0D . ... : A#3 0C . ... : ... .. . ... : 2-# 0B . ... : ... .. . ...
ROW 17 : A-2 0D . ... : D-3 0C . ... : ... .. . ... : ... .. . ... : ... .. . ...
PATTERN 01
ROW 00 : E-4 10 . ... : G-3 0C . ... : E-2 00 . ... : 9-# 03 . ... : ... .. . ...
ROW 01 : F-4 10 . ... : ... .. . ... : ... .. . ... : ... .. . ... : ... .. . ...
ROW 02 : G-4 10 . ... : A#3 0C . ... : ... .. . ... : 4-# 06 . ... : ... .. . ...
ROW 03 : A#4 10 . ... : G-3 0C . ... : ... .. . ... : 4-# 06 . ... : ... .. . ...
ROW 04 : ... .. . ... : ... .. . ... : ... .. . ... : 3-# 0F . ... : ... .. . ...
ROW 05 : ... .. . ... : C#4 0C . ... : ... .. . ... : ... .. . ... : ... .. . ...
ROW 06 : ... .. . ... : G-3 0C . ... : A#2 00 . ... : ... .. . ... : ... .. . ...
ROW 07 : ... .. . ... : ... .. . ... : ... .. . ... : 7-# 05 . ... : ... .. . ...
ROW 08 : ... .. . ... : F-3 0C . ... : --- .. . ... : 7-# 04 . ... : ... .. . ...
ROW 09 : ... .. . ... : ... .. . ... : ... .. . ... : ... .. . ... : ... .. . ...
ROW 0A : ... .. . ... : G-3 0C . ... : ... .. . ... : ... .. . ... : ... .. . ...
ROW 0B : ... .. . ... : C#4 0C . ... : ... .. . ... : ... .. . ... : ... .. . ...
ROW 0C : ... .. . ... : ... .. . ... : ... .. . ... : 3-# 0F . ... : ... .. . ...
ROW 0D : C#5 10 . ... : G-3 0C . ... : ... .. . ... : ... .. . ... : ... .. . ...
ROW 0E : C-5 10 . ... : A#3 0C . ... : ... .. . ... : ... .. . ... : ... .. . ...
ROW 0F : E-4 10 . ... : C#4 0C . ... : ... .. . ... : ... .. . ... : ... .. . ...
ROW 10 : A#4 10 . ... : G-3 0C . ... : ... .. . ... : ... .. . ... : ... .. . ...
ROW 11 : ... .. . ... : ... .. . ... : ... .. . ... : ... .. . ... : ... .. . ...
ROW 12 : ... .. . ... : A#3 0C . ... : A#2 00 . ... : ... .. . ... : ... .. . ...
ROW 13 : ... .. . ... : G-3 0C . ... : ... .. . ... : 7-# 05 . ... : ... .. . ...
ROW 14 : ... .. . ... : C#3 0C . ... : --- .. . ... : 7-# 04 . ... : ... .. . ...
ROW 15 : ... .. . ... : C#4 0C . ... : A#2 00 . ... : ... .. . ... : ... .. . ...
ROW 16 : G-4 10 . ... : G-3 0C . ... : ... .. . ... : 3-# 0F . ... : ... .. . ...
ROW 17 : F-4 10 . ... : F-3 0C . ... : --- .. . ... : ... .. . ... : ... .. . ...
PATTERN 02
ROW 00 : E-4 10 . ... : ... .. . ... : E-2 01 . ... : 9-# 03 . ... : ... .. . ...
ROW 01 : ... .. . ... : ... .. . ... : ... .. . ... : ... .. . ... : ... .. . ...
ROW 02 : ... .. . ... : ... .. . ... : ... .. . ... : 4-# 06 . ... : ... .. . ...
ROW 03 : ... .. . ... : ... .. . ... : ... .. . ... : 4-# 06 . ... : ... .. . ...
ROW 04 : ... .. . ... : ... .. . ... : E-2 01 . ... : 3-# 0F . ... : ... .. . ...
ROW 05 : ... .. . ... : ... .. . ... : ... .. . ... : ... .. . ... : ... .. . ...
ROW 06 : ... .. . ... : ... .. . ... : A#2 00 . ... : ... .. . ... : ... .. . ...
ROW 07 : ... .. . ... : ... .. . ... : ... .. . ... : 7-# 05 . ... : ... .. . ...
ROW 08 : ... .. . ... : ... .. . ... : E-4 02 . S02 : 7-# 04 . ... : ... .. . ...
ROW 09 : ... .. . ... : ... .. . ... : ... .. . ... : ... .. . ... : ... .. . ...
ROW 0A : ... .. . ... : ... .. . ... : ... .. . ... : ... .. . ... : ... .. . ...
ROW 0B : ... .. . ... : ... .. . ... : ... .. . ... : ... .. . ... : ... .. . ...
ROW 0C : ... .. . ... : ... .. . ... : E-2 01 . S05 : 3-# 0F . ... : ... .. . ...
ROW 0D : ... .. . ... : ... .. . ... : ... .. . ... : ... .. . ... : ... .. . ...
ROW 0E : ... .. . ... : ... .. . ... : ... .. . ... : ... .. . ... : ... .. . ...
ROW 0F : ... .. . ... : ... .. . ... : ... .. . ... : ... .. . ... : ... .. . ...
ROW 10 : === .. . ... : ... .. . ... : ... .. . ... : ... .. . ... : ... .. . ...
ROW 11 : ... .. . ... : ... .. . ... : ... .. . ... : ... .. . ... : ... .. . ...
ROW 12 : ... .. . ... : ... .. . ... : A#2 00 . ... : ... .. . ... : ... .. . ...
ROW 13 : ... .. . ... : ... .. . ... : ... .. . ... : 7-# 05 . ... : ... .. . ...
ROW 14 : ... .. . ... : ... .. . ... : E-4 02 . S02 : 7-# 04 . ... : ... .. . ...
ROW 15 : ... .. . ... : ... .. . ... : A#2 00 . ... : 7-# 04 . ... : ... .. . ...
ROW 16 : ... .. . ... : ... .. . ... : A#2 01 . ... : ... .. . ... : ... .. . ...
ROW 17 : ... .. . ... : ... .. . ... : --- .. . ... : 7-# 04 . ... : ... .. . ...
PATTERN 03
ROW 00 : E-5 10 . ... : ... .. . ... : E-2 01 . ... : ... .. . ... : ... .. . ...
ROW 01 : ... .. . ... : ... .. . ... : ... .. . ... : ... .. . ... : ... .. . ...
ROW 02 : ... .. . ... : ... .. . ... : ... .. . ... : ... .. . ... : ... .. . ...
ROW 03 : ... .. . ... : ... .. . ... : ... .. . ... : ... .. . ... : ... .. . ...
ROW 04 : ... .. . ... : ... .. . ... : E-2 01 . ... : ... .. . ... : ... .. . ...
ROW 05 : ... .. . ... : ... .. . ... : ... .. . ... : ... .. . ... : ... .. . ...
ROW 06 : ... .. . ... : ... .. . ... : A#2 00 . ... : ... .. . ... : ... .. . ...
ROW 07 : ... .. . ... : ... .. . ... : ... .. . ... : ... .. . ... : ... .. . ...
ROW 08 : ... .. . ... : ... .. . ... : E-4 02 . S02 : ... .. . ... : ... .. . ...
ROW 09 : ... .. . ... : ... .. . ... : ... .. . ... : ... .. . ... : ... .. . ...
ROW 0A : ... .. . ... : ... .. . ... : ... .. . ... : ... .. . ... : ... .. . ...
ROW 0B : ... .. . ... : ... .. . ... : ... .. . ... : ... .. . ... : ... .. . ...
ROW 0C : ... .. . ... : ... .. . ... : E-2 01 . S05 : ... .. . ... : ... .. . ...
ROW 0D : ... .. . ... : ... .. . ... : ... .. . ... : ... .. . ... : ... .. . ...
ROW 0E : ... .. . ... : ... .. . ... : ... .. . ... : ... .. . ... : ... .. . ...
ROW 0F : ... .. . ... : ... .. . ... : ... .. . ... : ... .. . ... : ... .. . ...
ROW 10 : === .. . ... : ... .. . ... : ... .. . ... : ... .. . ... : ... .. . ...
ROW 11 : ... .. . ... : ... .. . ... : ... .. . ... : ... .. . ... : ... .. . ...
ROW 12 : ... .. . ... : ... .. . ... : A#2 00 . ... : ... .. . ... : ... .. . ...
ROW 13 : ... .. . ... : ... .. . ... : ... .. . ... : ... .. . ... : ... .. . ...
ROW 14 : ... .. . ... : ... .. . ... : E-4 02 . S02 : ... .. . ... : ... .. . ...
ROW 15 : ... .. . ... : ... .. . ... : A#2 02 . ... : ... .. . ... : ... .. . ...
ROW 16 : ... .. . ... : ... .. . ... : ... .. . ... : ... .. . ... : ... .. . ...
ROW 17 : ... .. . ... : ... .. . ... : E-4 02 . S02 : ... .. . ... : ... .. . ...
PATTERN 04
ROW 00 : D-3 0D . ... : ... .. . ... : G-2 01 . ... : ... .. . ... : ... .. . ...
ROW 01 : ... .. . ... : ... .. . ... : ... .. . ... : ... .. . ... : ... .. . ...
ROW 02 : F-3 0D . ... : ... .. . ... : ... .. . ... : ... .. . ... : ... .. . ...
ROW 03 : D-3 0D . ... : ... .. . ... : ... .. . ... : ... .. . ... : ... .. . ...
ROW 04 : ... .. . ... : ... .. . ... : G-2 01 . ... : ... .. . ... : ... .. . ...
ROW 05 : G#3 0D . ... : ... .. . ... : ... .. . ... : ... .. . ... : ... .. . ...
ROW 06 : D-3 0D . ... : ... .. . ... : C#3 00 . ... : ... .. . ... : ... .. . ...
ROW 07 : ... .. . ... : ... .. . ... : ... .. . ... : ... .. . ... : ... .. . ...
ROW 08 : C-3 0D . ... : ... .. . ... : E-4 02 . S02 : ... .. . ... : ... .. . ...
ROW 09 : ... .. . ... : ... .. . ... : ... .. . ... : ... .. . ... : ... .. . ...
ROW 0A : D-3 0D . ... : ... .. . ... : ... .. . ... : ... .. . ... : ... .. . ...
ROW 0B : G#3 0D . ... : ... .. . ... : ... .. . ... : ... .. . ... : ... .. . ...
ROW 0C : ... .. . ... : ... .. . ... : C#2 01 . ... : ... .. . ... : ... .. . ...
ROW 0D : D-3 0D . ... : ... .. . ... : ... .. . ... : ... .. . ... : ... .. . ...
ROW 0E : F-3 0D . ... : ... .. . ... : ... .. . ... : ... .. . ... : ... .. . ...
ROW 0F : G#3 0D . ... : ... .. . ... : ... .. . ... : ... .. . ... : ... .. . ...
ROW 10 : D-3 0D . ... : ... .. . ... : ... .. . ... : ... .. . ... : ... .. . ...
ROW 11 : ... .. . ... : ... .. . ... : ... .. . ... : ... .. . ... : ... .. . ...
ROW 12 : F-3 0D . ... : ... .. . ... : C#3 00 . ... : ... .. . ... : ... .. . ...
ROW 13 : D-3 0D . ... : ... .. . ... : ... .. . ... : ... .. . ... : ... .. . ...
ROW 14 : G#2 0D . ... : ... .. . ... : E-4 02 . S02 : ... .. . ... : ... .. . ...
ROW 15 : G#3 0D . ... : ... .. . ... : C#2 00 . ... : ... .. . ... : ... .. . ...
ROW 16 : D-3 0D . ... : ... .. . ... : C#2 01 . ... : ... .. . ... : ... .. . ...
ROW 17 : C-3 0D . ... : ... .. . ... : --- .. . ... : ... .. . ... : ... .. . ...
PATTERN 05
ROW 00 : ... .. . ... : ... .. . ... : G-2 00 . ... : ... .. . ... : ... .. . ...
ROW 01 : ... .. . ... : ... .. . ... : ... .. . ... : ... .. . ... : ... .. . ...
ROW 02 : ... .. . ... : ... .. . ... : ... .. . ... : ... .. . ... : ... .. . ...
ROW 03 : ... .. . ... : ... .. . ... : ... .. . ... : ... .. . ... : ... .. . ...
ROW 04 : ... .. . ... : ... .. . ... : ... .. . ... : ... .. . ... : ... .. . ...
ROW 05 : ... .. . ... : ... .. . ... : ... .. . ... : ... .. . ... : ... .. . ...
ROW 06 : ... .. . ... : ... .. . ... : C#3 00 . ... : ... .. . ... : ... .. . ...
ROW 07 : ... .. . ... : ... .. . ... : ... .. . ... : ... .. . ... : ... .. . ...
ROW 08 : ... .. . ... : ... .. . ... : --- .. . ... : ... .. . ... : ... .. . ...
ROW 09 : ... .. . ... : ... .. . ... : ... .. . ... : ... .. . ... : ... .. . ...
ROW 0A : ... .. . ... : ... .. . ... : ... .. . ... : ... .. . ... : ... .. . ...
ROW 0B : ... .. . ... : ... .. . ... : ... .. . ... : ... .. . ... : ... .. . ...
ROW 0C : ... .. . ... : ... .. . ... : C#2 00 . ... : ... .. . ... : ... .. . ...
ROW 0D : ... .. . ... : ... .. . ... : ... .. . ... : ... .. . ... : ... .. . ...
ROW 0E : ... .. . ... : ... .. . ... : ... .. . ... : ... .. . ... : ... .. . ...
ROW 0F : ... .. . ... : ... .. . ... : ... .. . ... : ... .. . ... : ... .. . ...
ROW 10 : ... .. . ... : ... .. . ... : ... .. . ... : ... .. . ... : ... .. . ...
ROW 11 : ... .. . ... : ... .. . ... : ... .. . ... : ... .. . ... : ... .. . ...
ROW 12 : ... .. . ... : ... .. . ... : C#3 00 . ... : ... .. . ... : ... .. . ...
ROW 13 : ... .. . ... : ... .. . ... : ... .. . ... : ... .. . ... : ... .. . ...
ROW 14 : ... .. . ... : ... .. . ... : --- .. . ... : ... .. . ... : ... .. . ...
ROW 15 : ... .. . ... : ... .. . ... : C#2 00 . ... : ... .. . ... : ... .. . ...
ROW 16 : ... .. . ... : ... .. . ... : ... .. . ... : ... .. . ... : ... .. . ...
ROW 17 : ... .. . ... : ... .. . ... : --- .. . ... : ... .. . ... : ... .. . ...
PATTERN 06
ROW 00 : ... .. . ... : ... .. . ... : A#2 00 . ... : ... .. . ... : ... .. . ...
ROW 01 : ... .. . ... : ... .. . ... : ... .. . ... : ... .. . ... : ... .. . ...
ROW 02 : ... .. . ... : ... .. . ... : ... .. . ... : ... .. . ... : ... .. . ...
ROW 03 : ... .. . ... : ... .. . ... : ... .. . ... : ... .. . ... : ... .. . ...
ROW 04 : ... .. . ... : ... .. . ... : ... .. . ... : ... .. . ... : ... .. . ...
ROW 05 : ... .. . ... : ... .. . ... : ... .. . ... : ... .. . ... : ... .. . ...
ROW 06 : ... .. . ... : ... .. . ... : ... .. . ... : ... .. . ... : ... .. . ...
ROW 07 : ... .. . ... : ... .. . ... : ... .. . ... : ... .. . ... : ... .. . ...
ROW 08 : ... .. . ... : ... .. . ... : ... .. . ... : ... .. . ... : ... .. . ...
ROW 09 : ... .. . ... : ... .. . ... : --- .. . ... : ... .. . ... : ... .. . ...
ROW 0A : ... .. . ... : ... .. . ... : A#2 00 . ... : ... .. . ... : ... .. . ...
ROW 0B : ... .. . ... : ... .. . ... : ... .. . ... : ... .. . ... : ... .. . ...
ROW 0C : ... .. . ... : ... .. . ... : --- .. . ... : ... .. . ... : ... .. . ...
ROW 0D : ... .. . ... : ... .. . ... : A#2 00 . ... : ... .. . ... : ... .. . ...
ROW 0E : ... .. . ... : ... .. . ... : ... .. . ... : ... .. . ... : ... .. . ...
ROW 0F : ... .. . ... : ... .. . ... : --- .. . ... : ... .. . ... : ... .. . ...
ROW 10 : ... .. . ... : ... .. . ... : A-2 00 . ... : ... .. . ... : ... .. . ...
ROW 11 : ... .. . ... : ... .. . ... : ... .. . ... : ... .. . ... : ... .. . ...
ROW 12 : ... .. . ... : ... .. . ... : ... .. . ... : ... .. . ... : ... .. . ...
ROW 13 : ... .. . ... : ... .. . ... : ... .. . ... : ... .. . ... : ... .. . ...
ROW 14 : ... .. . ... : ... .. . ... : ... .. . ... : ... .. . ... : ... .. . ...
ROW 15 : ... .. . ... : ... .. . ... : ... .. . ... : ... .. . ... : ... .. . ...
ROW 16 : ... .. . ... : ... .. . ... : ... .. . ... : ... .. . ... : ... .. . ...
ROW 17 : ... .. . ... : ... .. . ... : --- .. . B01 : ... .. . ... : ... .. . ...

# track BOOKMARKS block

# track HEADER block
TRACK  64   6 150 "Wasteland / Pit II"
COLUMNS : 1 1 1 1 1

# track FRAMES block
ORDER 00 : 00 00 00 00 00
ORDER 01 : 00 00 01 01 00
ORDER 02 : 01 01 01 01 00
ORDER 03 : 02 02 01 01 00
ORDER 04 : 03 03 04 03 00
ORDER 05 : 04 04 05 04 00
ORDER 06 : 02 02 01 01 00
ORDER 07 : 03 03 04 03 00
ORDER 08 : 04 04 05 04 00
ORDER 09 : 05 05 02 01 00
ORDER 0A : 06 06 03 02 00

# track PATTERNS block
PATTERN 00
ROW 00 : ... .. . ... : ... .. . ... : D-2 00 . ... : B-# 1A . ... : ... .. . ...
ROW 01 : ... .. . ... : ... .. . ... : ... .. . ... : ... .. . ... : ... .. . ...
ROW 02 : ... .. . ... : ... .. . ... : ... .. . ... : B-# 07 . ... : ... .. . ...
ROW 03 : ... .. . ... : ... .. . ... : ... .. . ... : B-# 07 . ... : ... .. . ...
ROW 04 : ... .. . ... : ... .. . ... : ... .. . ... : B-# 07 . ... : ... .. . ...
ROW 05 : ... .. . ... : ... .. . ... : ... .. . ... : ... .. . ... : ... .. . ...
ROW 06 : ... .. . ... : ... .. . ... : ... .. . ... : B-# 07 . ... : ... .. . ...
ROW 07 : ... .. . ... : ... .. . ... : ... .. . ... : B-# 07 . ... : ... .. . ...
ROW 08 : ... .. . ... : ... .. . ... : ... .. . ... : B-# 1A . ... : ... .. . ...
ROW 09 : ... .. . ... : ... .. . ... : ... .. . ... : ... .. . ... : ... .. . ...
ROW 0A : ... .. . ... : ... .. . ... : ... .. . ... : B-# 07 . ... : ... .. . ...
ROW 0B : ... .. . ... : ... .. . ... : ... .. . ... : B-# 07 . ... : ... .. . ...
ROW 0C : ... .. . ... : ... .. . ... : ... .. . ... : B-# 1A . ... : ... .. . ...
ROW 0D : ... .. . ... : ... .. . ... : ... .. . ... : ... .. . ... : ... .. . ...
ROW 0E : ... .. . ... : ... .. . ... : ... .. . ... : B-# 07 . ... : ... .. . ...
ROW 0F : ... .. . ... : ... .. . ... : ... .. . ... : B-# 07 . ... : ... .. . ...
ROW 10 : ... .. . ... : ... .. . ... : ... .. . ... : B-# 07 . ... : ... .. . ...
ROW 11 : ... .. . ... : ... .. . ... : ... .. . ... : ... .. . ... : ... .. . ...
ROW 12 : ... .. . ... : ... .. . ... : ... .. . ... : B-# 07 . ... : ... .. . ...
ROW 13 : ... .. . ... : ... .. . ... : ... .. . ... : B-# 07 . ... : ... .. . ...
ROW 14 : ... .. . ... : ... .. . ... : ... .. . ... : B-# 07 . ... : ... .. . ...
ROW 15 : ... .. . ... : ... .. . ... : ... .. . ... : ... .. . ... : ... .. . ...
ROW 16 : ... .. . ... : ... .. . ... : ... .. . ... : B-# 07 . ... : ... .. . ...
ROW 17 : ... .. . ... : ... .. . ... : ... .. . ... : B-# 07 . ... : ... .. . ...
ROW 18 : ... .. . ... : ... .. . ... : ... .. . ... : B-# 07 . ... : ... .. . ...
ROW 19 : ... .. . ... : ... .. . ... : ... .. . ... : ... .. . ... : ... .. . ...
ROW 1A : ... .. . ... : ... .. . ... : ... .. . ... : B-# 1A . ... : ... .. . ...
ROW 1B : ... .. . ... : ... .. . ... : ... .. . ... : B-# 07 . ... : ... .. . ...
ROW 1C : ... .. . ... : ... .. . ... : ... .. . ... : B-# 1A . ... : ... .. . ...
ROW 1D : ... .. . ... : ... .. . ... : ... .. . ... : ... .. . ... : ... .. . ...
ROW 1E : ... .. . ... : ... .. . ... : ... .. . ... : B-# 07 . ... : ... .. . ...
ROW 1F : ... .. . ... : ... .. . ... : --- .. . D00 : B-# 07 . ... : ... .. . ...
ROW 20 : ... .. . ... : ... .. . ... : ... .. . ... : ... .. . ... : ... .. . ...
ROW 21 : ... .. . ... : ... .. . ... : ... .. . ... : ... .. . ... : ... .. . ...
ROW 22 : ... .. . ... : ... .. . ... : ... .. . ... : ... .. . ... : ... .. . ...
ROW 23 : ... .. . ... : ... .. . ... : ... .. . ... : ... .. . ... : ... .. . ...
ROW 24 : ... .. . ... : ... .. . ... : ... .. . ... : ... .. . ... : ... .. . ...
ROW 25 : ... .. . ... : ... .. . ... : ... .. . ... : ... .. . ... : ... .. . ...
ROW 26 : ... .. . ... : ... .. . ... : ... .. . ... : ... .. . ... : ... .. . ...
ROW 27 : ... .. . ... : ... .. . ... : ... .. . ... : ... .. . ... : ... .. . ...
ROW 28 : ... .. . ... : ... .. . ... : ... .. . ... : ... .. . ... : ... .. . ...
ROW 29 : ... .. . ... : ... .. . ... : ... .. . ... : ... .. . ... : ... .. . ...
ROW 2A : ... .. . ... : ... .. . ... : ... .. . ... : ... .. . ... : ... .. . ...
ROW 2B : ... .. . ... : ... .. . ... : ... .. . ... : ... .. . ... : ... .. . ...
ROW 2C : ... .. . ... : ... .. . ... : ... .. . ... : ... .. . ... : ... .. . ...
ROW 2D : ... .. . ... : ... .. . ... : ... .. . ... : ... .. . ... : ... .. . ...
ROW 2E : ... .. . ... : ... .. . ... : ... .. . ... : ... .. . ... : ... .. . ...
ROW 2F : ... .. . ... : ... .. . ... : ... .. . ... : ... .. . ... : ... .. . ...
ROW 30 : ... .. . ... : ... .. . ... : ... .. . ... : ... .. . ... : ... .. . ...
ROW 31 : ... .. . ... : ... .. . ... : ... .. . ... : ... .. . ... : ... .. . ...
ROW 32 : ... .. . ... : ... .. . ... : ... .. . ... : ... .. . ... : ... .. . ...
ROW 33 : ... .. . ... : ... .. . ... : ... .. . ... : ... .. . ... : ... .. . ...
ROW 34 : ... .. . ... : ... .. . ... : ... .. . ... : ... .. . ... : ... .. . ...
ROW 35 : ... .. . ... : ... .. . ... : ... .. . ... : ... .. . ... : ... .. . ...
ROW 36 : ... .. . ... : ... .. . ... : ... .. . ... : ... .. . ... : ... .. . ...
ROW 37 : ... .. . ... : ... .. . ... : ... .. . ... : ... .. . ... : ... .. . ...
ROW 38 : ... .. . ... : ... .. . ... : ... .. . ... : ... .. . ... : ... .. . ...
ROW 39 : ... .. . ... : ... .. . ... : ... .. . ... : ... .. . ... : ... .. . ...
ROW 3A : ... .. . ... : ... .. . ... : ... .. . ... : ... .. . ... : ... .. . ...
ROW 3B : ... .. . ... : ... .. . ... : ... .. . ... : ... .. . ... : ... .. . ...
ROW 3C : ... .. . ... : ... .. . ... : ... .. . ... : ... .. . ... : ... .. . ...
ROW 3D : ... .. . ... : ... .. . ... : ... .. . ... : ... .. . ... : ... .. . ...
ROW 3E : ... .. . ... : ... .. . ... : ... .. . ... : ... .. . ... : ... .. . ...
ROW 3F : ... .. . ... : ... .. . ... : ... .. . ... : ... .. . ... : ... .. . ...
PATTERN 01
ROW 00 : ... .. . ... : ... .. . ... : D-2 01 . ... : B-# 07 . ... : ... .. . ...
ROW 01 : ... .. . ... : ... .. . ... : ... .. . ... : ... .. . ... : ... .. . ...
ROW 02 : ... .. . ... : ... .. . ... : ... .. . ... : B-# 07 . ... : ... .. . ...
ROW 03 : ... .. . ... : ... .. . ... : ... .. . ... : B-# 07 . ... : ... .. . ...
ROW 04 : ... .. . ... : ... .. . ... : ... .. . ... : B-# 07 . ... : ... .. . ...
ROW 05 : ... .. . ... : ... .. . ... : ... .. . ... : ... .. . ... : ... .. . ...
ROW 06 : ... .. . ... : ... .. . ... : D-2 01 . ... : B-# 07 . ... : ... .. . ...
ROW 07 : ... .. . ... : ... .. . ... : ... .. . ... : B-# 07 . ... : ... .. . ...
ROW 08 : ... .. . ... : ... .. . ... : F-2 02 . ... : 7-# 04 . ... : ... .. . ...
ROW 09 : ... .. . ... : ... .. . ... : ... .. . ... : ... .. . ... : ... .. . ...
ROW 0A : ... .. . ... : ... .. . ... : ... .. . ... : B-# 07 . ... : ... .. . ...
ROW 0B : ... .. . ... : ... .. . ... : ... .. . ... : B-# 07 . ... : ... .. . ...
ROW 0C : ... .. . ... : ... .. . ... : ... .. . ... : B-# 1A . ... : ... .. . ...
ROW 0D : ... .. . ... : ... .. . ... : ... .. . ... : ... .. . ... : ... .. . ...
ROW 0E : ... .. . ... : ... .. . ... : ... .. . ... : B-# 07 . ... : ... .. . ...
ROW 0F : ... .. . ... : ... .. . ... : ... .. . ... : B-# 07 . ... : ... .. . ...
ROW 10 : ... .. . ... : ... .. . ... : F#2 01 . ... : B-# 07 . ... : ... .. . ...
ROW 11 : ... .. . ... : ... .. . ... : ... .. . ... : ... .. . ... : ... .. . ...
ROW 12 : ... .. . ... : ... .. . ... : ... .. . ... : B-# 07 . ... : ... .. . ...
ROW 13 : ... .. . ... : ... .. . ... : ... .. . ... : B-# 07 . ... : ... .. . ...
ROW 14 : ... .. . ... : ... .. . ... : G#2 00 . ... : B-# 07 . ... : ... .. . ...
ROW 15 : ... .. . ... : ... .. . ... : ... .. . ... : ... .. . ... : ... .. . ...
ROW 16 : ... .. . ... : ... .. . ... : ... .. . ... : B-# 07 . ... : ... .. . ...
ROW 17 : ... .. . ... : ... .. . ... : ... .. . ... : B-# 07 . ... : ... .. . ...
ROW 18 : ... .. . ... : ... .. . ... : A#2 02 . S02 : 7-# 04 . ... : ... .. . ...
ROW 19 : ... .. . ... : ... .. . ... : A#2 02 . S02 : 7-# 04 . ... : ... .. . ...
ROW 1A : ... .. . ... : ... .. . ... : ... .. . ... : ... .. . ... : ... .. . ...
ROW 1B : ... .. . ... : ... .. . ... : ... .. . ... : B-# 07 . ... : ... .. . ...
ROW 1C : ... .. . ... : ... .. . ... : C-2 02 . ... : 7-# 04 . ... : ... .. . ...
ROW 1D : ... .. . ... : ... .. . ... : ... .. . ... : ... .. . ... : ... .. . ...
ROW 1E : ... .. . ... : ... .. . ... : ... .. . ... : B-# 07 . ... : ... .. . ...
ROW 1F : ... .. . ... : ... .. . ... : ... .. . ... : B-# 07 . ... : ... .. . ...
ROW 20 : ... .. . ... : ... .. . ... : D-2 00 . ... : B-# 1A . ... : ... .. . ...
ROW 21 : ... .. . ... : ... .. . ... : ... .. . ... : ... .. . ... : ... .. . ...
ROW 22 : ... .. . ... : ... .. . ... : D-2 01 . ... : B-# 07 . ... : ... .. . ...
ROW 23 : ... .. . ... : ... .. . ... : ... .. . ... : B-# 07 . ... : ... .. . ...
ROW 24 : ... .. . ... : ... .. . ... : ... .. . ... : B-# 07 . ... : ... .. . ...
ROW 25 : ... .. . ... : ... .. . ... : ... .. . ... : ... .. . ... : ... .. . ...
ROW 26 : ... .. . ... : ... .. . ... : D-2 01 . ... : B-# 07 . ... : ... .. . ...
ROW 27 : ... .. . ... : ... .. . ... : ... .. . ... : B-# 07 . ... : ... .. . ...
ROW 28 : ... .. . ... : ... .. . ... : D-2 02 . ... : 7-# 04 . ... : ... .. . ...
ROW 29 : ... .. . ... : ... .. . ... : ... .. . ... : ... .. . ... : ... .. . ...
ROW 2A : A-2 08 . ... : D-3 09 . ... : ... .. . ... : B-# 07 . ... : ... .. . ...
ROW 2B : ... .. . ... : ... .. . ... : ... .. . ... : B-# 07 . ... : ... .. . ...
ROW 2C : ... .. . ... : ... .. . ... : ... .. . ... : B-# 1A . ... : ... .. . ...
ROW 2D : ... .. . ... : ... .. . ... : ... .. . ... : ... .. . ... : ... .. . ...
ROW 2E : ... .. . ... : ... .. . ... : ... .. . ... : B-# 07 . ... : ... .. . ...
ROW 2F : ... .. . ... : ... .. . ... : ... .. . ... : B-# 07 . ... : ... .. . ...
ROW 30 : ... .. . ... : ... .. . ... : D-2 01 . ... : B-# 07 . ... : ... .. . ...
ROW 31 : ... .. . ... : ... .. . ... : ... .. . ... : ... .. . ... : ... .. . ...
ROW 32 : ... .. . ... : ... .. . ... : ... .. . ... : B-# 07 . ... : ... .. . ...
ROW 33 : ... .. . ... : ... .. . ... : ... .. . ... : B-# 07 . ... : ... .. . ...
ROW 34 : ... .. . ... : ... .. . ... : ... .. . ... : B-# 07 . ... : ... .. . ...
ROW 35 : ... .. . ... : ... .. . ... : ... .. . ... : ... .. . ... : ... .. . ...
ROW 36 : ... .. . ... : ... .. . ... : ... .. . ... : B-# 07 . ... : ... .. . ...
ROW 37 : ... .. . ... : ... .. . ... : ... .. . ... : B-# 07 . ... : ... .. . ...
ROW 38 : ... .. . ... : ... .. . ... : D-2 02 . ... : 7-# 04 . ... : ... .. . ...
ROW 39 : ... .. . ... : ... .. . ... : ... .. . ... : ... .. . ... : ... .. . ...
ROW 3A : G#2 08 . ... : C#3 09 . ... : ... .. . ... : 3-# 12 . ... : ... .. . ...
ROW 3B : ... .. . ... : ... .. . ... : ... .. . ... : 2-# 12 . ... : ... .. . ...
ROW 3C : ... .. . ... : ... .. . ... : D-2 02 . ... : 7-# 04 . ... : ... .. . ...
ROW 3D : ... .. . ... : ... .. . ... : ... .. . ... : ... .. . ... : ... .. . ...
ROW 3E : ... .. . ... : ... .. . ... : ... .. . ... : B-# 07 . ... : ... .. . ...
ROW 3F : ... .. . ... : ... .. . ... : --- .. . ... : B-# 07 . ... : ... .. . ...
PATTERN 02
ROW 00 : ... .. . ... : D-2 08 . ... : D-2 01 . ... : B-# 07 . ... : ... .. . ...
ROW 01 : ... .. . ... : ... .. . ... : ... .. . ... : ... .. . ... : ... .. . ...
ROW 02 : D-2 09 . ... : ... .. . ... : ... .. . ... : B-# 07 . ... : ... .. . ...
ROW 03 : ... .. . ... : ... .. . ... : ... .. . ... : B-# 07 . ... : ... .. . ...
ROW 04 : ... .. . ... : F-2 08 . ... : ... .. . ... : B-# 07 . ... : ... .. . ...
ROW 05 : ... .. . ... : ... .. . ... : ... .. . ... : ... .. . ... : ... .. . ...
ROW 06 : F-2 09 . ... : ... .. . ... : D-2 01 . ... : B-# 07 . ... : ... .. . ...
ROW 07 : ... .. . ... : ... .. . ... : ... .. . ... : B-# 07 . ... : ... .. . ...
ROW 08 : ... .. . ... : G-2 08 . ... : F-2 02 . ... : 7-# 04 . ... : ... .. . ...
ROW 09 : ... .. . ... : ... .. . ... : ... .. . ... : ... .. . ... : ... .. . ...
ROW 0A : G-2 09 . ... : ... .. . ... : ... .. . ... : B-# 07 . ... : ... .. . ...
ROW 0B : ... .. . ... : ... .. . ... : ... .. . ... : B-# 07 . ... : ... .. . ...
ROW 0C : ... .. . ... : ... .. . ... : ... .. . ... : B-# 1A . ... : ... .. . ...
ROW 0D : ... .. . ... : ... .. . ... : ... .. . ... : ... .. . ... : ... .. . ...
ROW 0E : ... .. . ... : ... .. . ... : ... .. . ... : B-# 07 . ... : ... .. . ...
ROW 0F : ... .. . ... : ... .. . ... : ... .. . ... : B-# 07 . ... : ... .. . ...
ROW 10 : ... .. . ... : G#2 08 . ... : F#2 01 . ... : B-# 07 . ... : ... .. . ...
ROW 11 : ... .. . ... : ... .. . ... : ... .. . ... : ... .. . ... : ... .. . ...
ROW 12 : G#2 09 . ... : ... .. . ... : ... .. . ... : B-# 07 . ... : ... .. . ...
ROW 13 : ... .. . ... : ... .. . ... : ... .. . ... : B-# 07 . ... : ... .. . ...
ROW 14 : ... .. . ... : ... .. . ... : G#2 00 . ... : B-# 07 . ... : ... .. . ...
ROW 15 : ... .. . ... : ... .. . ... : ... .. . ... : ... .. . ... : ... .. . ...
ROW 16 : ... .. . ... : ... .. . ... : ... .. . ... : B-# 07 . ... : ... .. . ...
ROW 17 : ... .. . ... : ... .. . ... : ... .. . ... : B-# 07 . ... : ... .. . ...
ROW 18 : ... .. . ... : ... .. . ... : G#2 02 . S02 : 7-# 04 . ... : ... .. . ...
ROW 19 : ... .. . ... : ... .. . ... : G#2 02 . S02 : 7-# 04 . ... : ... .. . ...
ROW 1A : ... .. . ... : ... .. . ... : ... .. . ... : ... .. . ... : ... .. . ...
ROW 1B : ... .. . ... : ... .. . ... : ... .. . ... : B-# 07 . ... : ... .. . ...
ROW 1C : ... .. . ... : ... .. . ... : C-2 02 . ... : 7-# 04 . ... : ... .. . ...
ROW 1D : ... .. . ... : ... .. . ... : ... .. . ... : ... .. . ... : ... .. . ...
ROW 1E : ... .. . ... : C-3 08 . ... : ... .. . ... : B-# 07 . ... : ... .. . ...
ROW 1F : ... .. . ... : A-2 08 . ... : ... .. . ... : B-# 07 . ... : ... .. . ...
ROW 20 : C-3 09 . ... : B-2 08 . ... : B-1 00 . ... : B-# 1A . ... : ... .. . ...
ROW 21 : A-2 09 . ... : ... .. . ... : ... .. . ... : ... .. . ... : ... .. . ...
ROW 22 : B-2 09 . ... : ... .. . ... : B-1 01 . ... : B-# 07 . ... : ... .. . ...
ROW 23 : ... .. . ... : ... .. . ... : ... .. . ... : B-# 07 . ... : ... .. . ...
ROW 24 : ... .. . ... : ... .. . ... : ... .. . ... : B-# 07 . ... : ... .. . ...
ROW 25 : ... .. . ... : ... .. . ... : ... .. . ... : ... .. . ... : ... .. . ...
ROW 26 : ... .. . ... : ... .. . ... : B-1 01 . ... : B-# 07 . ... : ... .. . ...
ROW 27 : ... .. . ... : ... .. . ... : ... .. . ... : B-# 07 . ... : ... .. . ...
ROW 28 : ... .. . ... : ... .. . ... : B-1 02 . ... : 5-# 12 . ... : ... .. . ...
ROW 29 : ... .. . ... : ... .. . ... : ... .. . ... : ... .. . ... : ... .. . ...
ROW 2A : ... .. . ... : ... .. . ... : ... .. . ... : B-# 07 . ... : ... .. . ...
ROW 2B : ... .. . ... : ... .. . ... : ... .. . ... : 4-# 12 . ... : ... .. . ...
ROW 2C : ... .. . ... : ... .. . ... : ... .. . ... : B-# 07 . ... : ... .. . ...
ROW 2D : ... .. . ... : ... .. . ... : ... .. . ... : ... .. . ... : ... .. . ...
ROW 2E : ... .. . ... : ... .. . ... : ... .. . ... : 3-# 12 . ... : ... .. . ...
ROW 2F : ... .. . ... : ... .. . ... : ... .. . ... : B-# 07 . ... : ... .. . ...
ROW 30 : ... .. . ... : ... .. . ... : B-1 01 . ... : B-# 07 . ... : ... .. . ...
ROW 31 : ... .. . ... : ... .. . ... : ... .. . ... : ... .. . ... : ... .. . ...
ROW 32 : ... .. . ... : ... .. . ... : ... .. . ... : B-# 07 . ... : ... .. . ...
ROW 33 : ... .. . ... : ... .. . ... : ... .. . ... : B-# 07 . ... : ... .. . ...
ROW 34 : ... .. . ... : ... .. . ... : ... .. . ... : B-# 07 . ... : ... .. . ...
ROW 35 : ... .. . ... : ... .. . ... : ... .. . ... : ... .. . ... : ... .. . ...
ROW 36 : ... .. . ... : ... .. . ... : ... .. . ... : B-# 07 . ... : ... .. . ...
ROW 37 : ... .. . ... : ... .. . ... : ... .. . ... : B-# 07 . ... : ... .. . ...
ROW 38 : ... .. . ... : ... .. . ... : B-1 02 . ... : 4-# 12 . ... : ... .. . ...
ROW 39 : ... .. . ... : ... .. . ... : ... .. . ... : 3-# 12 . ... : ... .. . ...
ROW 3A : ... .. . ... : ... .. . ... : ... .. . ... : 7-# 12 . ... : ... .. . ...
ROW 3B : ... .. . ... : ... .. . ... : ... .. . ... : 7-# 12 . ... : ... .. . ...
ROW 3C : ... .. . ... : ... .. . ... : B-1 02 . ... : 7-# 04 . ... : ... .. . ...
ROW 3D : ... .. . ... : ... .. . ... : ... .. . ... : ... .. . ... : ... .. . ...
ROW 3E : ... .. . ... : ... .. . ... : ... .. . ... : 4-# 12 . ... : ... .. . ...
ROW 3F : ... .. . ... : ... .. . ... : ... .. . ... : 3-# 12 . ... : ... .. . ...
PATTERN 03
ROW 00 : ... .. . ... : D-1 08 . ... : D-2 01 . ... : B-# 07 . ... : ... .. . ...
ROW 01 : ... .. . ... : ... .. . ... : ... .. . ... : ... .. . ... : ... .. . ...
ROW 02 : ... .. . ... : ... .. . ... : ... .. . ... : B-# 07 . ... : ... .. . ...
ROW 03 : ... .. . ... : ... .. . ... : ... .. . ... : B-# 07 . ... : ... .. . ...
ROW 04 : ... .. . ... : ... .. . ... : ... .. . ... : B-# 07 . ... : ... .. . ...
ROW 05 : ... .. . ... : ... .. . ... : ... .. . ... : ... .. . ... : ... .. . ...
ROW 06 : ... .. . ... : ... .. . ... : D-2 01 . ... : B-# 07 . ... : ... .. . ...
ROW 07 : ... .. . ... : ... .. . ... : ... .. . ... : B-# 07 . ... : ... .. . ...
ROW 08 : ... .. . ... : ... .. . ... : D-2 02 . ... : 7-# 04 . ... : ... .. . ...
ROW 09 : ... .. . ... : ... .. . ... : ... .. . ... : ... .. . ... : ... .. . ...
ROW 0A : ... .. . ... : ... .. . ... : ... .. . ... : B-# 07 . ... : ... .. . ...
ROW 0B : ... .. . ... : ... .. . ... : ... .. . ... : B-# 07 . ... : ... .. . ...
ROW 0C : ... .. . ... : ... .. . ... : ... .. . ... : B-# 1A . ... : ... .. . ...
ROW 0D : ... .. . ... : ... .. . ... : ... .. . ... : ... .. . ... : ... .. . ...
ROW 0E : ... .. . ... : ... .. . ... : ... .. . ... : B-# 07 . ... : ... .. . ...
ROW 0F : ... .. . ... : ... .. . ... : ... .. . ... : B-# 07 . ... : ... .. . ...
ROW 10 : ... .. . ... : ... .. . ... : D-2 01 . ... : B-# 07 . ... : ... .. . ...
ROW 11 : ... .. . ... : ... .. . ... : ... .. . ... : ... .. . ... : ... .. . ...
ROW 12 : ... .. . ... : ... .. . ... : ... .. . ... : B-# 07 . ... : ... .. . ...
ROW 13 : ... .. . ... : ... .. . ... : ... .. . ... : B-# 07 . ... : ... .. . ...
ROW 14 : ... .. . ... : ... .. . ... : ... .. . ... : B-# 07 . ... : ... .. . ...
ROW 15 : ... .. . ... : ... .. . ... : ... .. . ... : ... .. . ... : ... .. . ...
ROW 16 : ... .. . ... : ... .. . ... : ... .. . ... : B-# 07 . ... : ... .. . ...
ROW 17 : ... .. . ... : ... .. . ... : ... .. . ... : B-# 07 . ... : ... .. . ...
ROW 18 : ... .. . ... : ... .. . ... : D-2 02 . ... : 7-# 04 . ... : ... .. . ...
ROW 19 : ... .. . ... : ... .. . ... : D-2 02 . ... : 7-# 04 . ... : ... .. . ...
ROW 1A : ... .. . ... : ... .. . ... : ... .. . ... : ... .. . ... : ... .. . ...
ROW 1B : ... .. . ... : ... .. . ... : ... .. . ... : B-# 07 . ... : ... .. . ...
ROW 1C : ... .. . ... : ... .. . ... : A#1 02 . ... : 7-# 04 . ... : ... .. . ...
ROW 1D : ... .. . ... : ... .. . ... : ... .. . ... : ... .. . ... : ... .. . ...
ROW 1E : ... .. . ... : ... .. . ... : A-1 00 . ... : B-# 07 . ... : ... .. . ...
ROW 1F : ... .. . ... : ... .. . ... : ... .. . ... : B-# 07 . ... : ... .. . ...
ROW 20 : ... .. . ... : ... .. . ... : G#1 00 . ... : B-# 1A . ... : ... .. . ...
ROW 21 : ... .. . ... : ... .. . ... : ... .. . ... : ... .. . ... : ... .. . ...
ROW 22 : ... .. . ... : ... .. . ... : G#1 01 . ... : B-# 07 . ... : ... .. . ...
ROW 23 : ... .. . ... : ... .. . ... : ... .. . ... : B-# 07 . ... : ... .. . ...
ROW 24 : ... .. . ... : ... .. . ... : ... .. . ... : B-# 07 . ... : ... .. . ...
ROW 25 : ... .. . ... : ... .. . ... : ... .. . ... : ... .. . ... : ... .. . ...
ROW 26 : ... .. . ... : ... .. . ... : G#1 01 . ... : B-# 07 . ... : ... .. . ...
ROW 27 : ... .. . ... : ... .. . ... : ... .. . ... : B-# 07 . ... : ... .. . ...
ROW 28 : ... .. . ... : ... .. . ... : G#1 02 . ... : 7-# 04 . ... : ... .. . ...
ROW 29 : ... .. . ... : ... .. . ... : ... .. . ... : ... .. . ... : ... .. . ...
ROW 2A : ... .. . ... : ... .. . ... : ... .. . ... : B-# 07 . ... : ... .. . ...
ROW 2B : ... .. . ... : ... .. . ... : G#1 02 . ... : B-# 07 . ... : ... .. . ...
ROW 2C : ... .. . ... : ... .. . ... : ... .. . ... : B-# 1A . ... : ... .. . ...
ROW 2D : ... .. . ... : ... .. . ... : ... .. . ... : ... .. . ... : ... .. . ...
ROW 2E : ... .. . ... : ... .. . ... : G#1 02 . ... : B-# 07 . ... : ... .. . ...
ROW 2F : ... .. . ... : ... .. . ... : ... .. . ... : B-# 07 . ... : ... .. . ...
ROW 30 : ... .. . ... : ... .. . ... : ... .. . ... : B-# 07 . ... : ... .. . ...
ROW 31 : ... .. . ... : ... .. . ... : ... .. . ... : ... .. . ... : ... .. . ...
ROW 32 : ... .. . ... : ... .. . ... : G#1 01 . ... : B-# 07 . ... : ... .. . ...
ROW 33 : ... .. . ... : ... .. . ... : ... .. . ... : B-# 07 . ... : ... .. . ...
ROW 34 : ... .. . ... : ... .. . ... : G#1 01 . ... : B-# 07 . ... : ... .. . ...
ROW 35 : ... .. . ... : ... .. . ... : ... .. . ... : ... .. . ... : ... .. . ...
ROW 36 : ... .. . ... : ... .. . ... : ... .. . ... : B-# 07 . ... : ... .. . ...
ROW 37 : ... .. . ... : ... .. . ... : ... .. . ... : B-# 07 . ... : ... .. . ...
ROW 38 : ... .. . ... : ... .. . ... : G#1 02 . ... : 7-# 04 . ... : ... .. . ...
ROW 39 : ... .. . ... : ... .. . ... : G#1 02 . ... : ... .. . ... : ... .. . ...
ROW 3A : ... .. . ... : ... .. . ... : ... .. . ... : 3-# 0B . ... : ... .. . ...
ROW 3B : ... .. . ... : ... .. . ... : ... .. . ... : 2-# 0B . ... : ... .. . ...
ROW 3C : ... .. . ... : ... .. . ... : G#1 02 . ... : 7-# 04 . ... : ... .. . ...
ROW 3D : ... .. . ... : ... .. . ... : ... .. . ... : ... .. . ... : ... .. . ...
ROW 3E : ... .. . ... : ... .. . ... : G#1 02 . ... : B-# 07 . ... : ... .. . ...
ROW 3F : ... .. . ... : ... .. . ... : G#1 02 . B01 : B-# 07 . ... : ... .. . ...
PATTERN 04
ROW 00 : ... .. . ... : D-2 08 . ... : D-2 01 . ... : B-# 07 . ... : ... .. . ...
ROW 01 : ... .. . ... : ... .. . ... : ... .. . ... : ... .. . ... : ... .. . ...
ROW 02 : ... .. . ... : ... .. . ... : ... .. . ... : B-# 07 . ... : ... .. . ...
ROW 03 : ... .. . ... : ... .. . ... : ... .. . ... : B-# 07 . ... : ... .. . ...
ROW 04 : ... .. . ... : ... .. . ... : ... .. . ... : B-# 07 . ... : ... .. . ...
ROW 05 : ... .. . ... : ... .. . ... : ... .. . ... : ... .. . ... : ... .. . ...
ROW 06 : ... .. . ... : ... .. . ... : D-2 01 . ... : B-# 07 . ... : ... .. . ...
ROW 07 : ... .. . ... : ... .. . ... : ... .. . ... : B-# 07 . ... : ... .. . ...
ROW 08 : ... .. . ... : ... .. . ... : F-2 02 . ... : 7-# 04 . ... : ... .. . ...
ROW 09 : ... .. . ... : ... .. . ... : ... .. . ... : ... .. . ... : ... .. . ...
ROW 0A : ... .. . ... : ... .. . ... : ... .. . ... : B-# 07 . ... : ... .. . ...
ROW 0B : ... .. . ... : ... .. . ... : ... .. . ... : B-# 07 . ... : ... .. . ...
ROW 0C : ... .. . ... : ... .. . ... : ... .. . ... : B-# 1A . ... : ... .. . ...
ROW 0D : ... .. . ... : ... .. . ... : ... .. . ... : ... .. . ... : ... .. . ...
ROW 0E : ... .. . ... : ... .. . ... : ... .. . ... : B-# 07 . ... : ... .. . ...
ROW 0F : ... .. . ... : ... .. . ... : ... .. . ... : B-# 07 . ... : ... .. . ...
ROW 10 : ... .. . ... : ... .. . ... : F#2 01 . ... : B-# 07 . ... : ... .. . ...
ROW 11 : ... .. . ... : ... .. . ... : ... .. . ... : ... .. . ... : ... .. . ...
ROW 12 : ... .. . ... : ... .. . ... : ... .. . ... : B-# 07 . ... : ... .. . ...
ROW 13 : ... .. . ... : ... .. . ... : ... .. . ... : B-# 07 . ... : ... .. . ...
ROW 14 : ... .. . ... : ... .. . ... : G#2 00 . ... : B-# 07 . ... : ... .. . ...
ROW 15 : ... .. . ... : ... .. . ... : ... .. . ... : ... .. . ... : ... .. . ...
ROW 16 : ... .. . ... : ... .. . ... : ... .. . ... : B-# 07 . ... : ... .. . ...
ROW 17 : ... .. . ... : ... .. . ... : ... .. . ... : B-# 07 . ... : ... .. . ...
ROW 18 : ... .. . ... : ... .. . ... : A#2 02 . S02 : 7-# 04 . ... : ... .. . ...
ROW 19 : ... .. . ... : ... .. . ... : A#2 02 . S02 : 7-# 04 . ... : ... .. . ...
ROW 1A : ... .. . ... : ... .. . ... : ... .. . ... : ... .. . ... : ... .. . ...
ROW 1B : ... .. . ... : ... .. . ... : ... .. . ... : B-# 07 . ... : ... .. . ...
ROW 1C : ... .. . ... : ... .. . ... : C-2 02 . ... : 7-# 04 . ... : ... .. . ...
ROW 1D : ... .. . ... : ... .. . ... : ... .. . ... : ... .. . ... : ... .. . ...
ROW 1E : ... .. . ... : ... .. . ... : ... .. . ... : B-# 07 . ... : ... .. . ...
ROW 1F : ... .. . ... : ... .. . ... : ... .. . ... : B-# 07 . ... : ... .. . ...
ROW 20 : ... .. . ... : ... .. . ... : D-2 00 . ... : B-# 1A . ... : ... .. . ...
ROW 21 : ... .. . ... : ... .. . ... : ... .. . ... : ... .. . ... : ... .. . ...
ROW 22 : ... .. . ... : ... .. . ... : D-2 01 . ... : B-# 07 . ... : ... .. . ...
ROW 23 : ... .. . ... : ... .. . ... : ... .. . ... : B-# 07 . ... : ... .. . ...
ROW 24 : ... .. . ... : ... .. . ... : ... .. . ... : B-# 07 . ... : ... .. . ...
ROW 25 : ... .. . ... : ... .. . ... : ... .. . ... : ... .. . ... : ... .. . ...
ROW 26 : ... .. . ... : ... .. . ... : D-2 01 . ... : B-# 07 . ... : ... .. . ...
ROW 27 : ... .. . ... : ... .. . ... : ... .. . ... : B-# 07 . ... : ... .. . ...
ROW 28 : ... .. . ... : ... .. . ... : D-2 02 . ... : 5-# 12 . ... : ... .. . ...
ROW 29 : ... .. . ... : ... .. . ... : ... .. . ... : ... .. . ... : ... .. . ...
ROW 2A : ... .. . ... : ... .. . ... : ... .. . ... : B-# 07 . ... : ... .. . ...
ROW 2B : ... .. . ... : ... .. . ... : ... .. . ... : 4-# 12 . ... : ... .. . ...
ROW 2C : ... .. . ... : ... .. . ... : ... .. . ... : B-# 07 . ... : ... .. . ...
ROW 2D : ... .. . ... : ... .. . ... : ... .. . ... : ... .. . ... : ... .. . ...
ROW 2E : ... .. . ... : ... .. . ... : ... .. . ... : 3-# 12 . ... : ... .. . ...
ROW 2F : ... .. . ... : ... .. . ... : ... .. . ... : B-# 07 . ... : ... .. . ...
ROW 30 : ... .. . ... : ... .. . ... : D-2 01 . ... : B-# 07 . ... : ... .. . ...
ROW 31 : ... .. . ... : ... .. . ... : ... .. . ... : ... .. . ... : ... .. . ...
ROW 32 : ... .. . ... : ... .. . ... : ... .. . ... : B-# 07 . ... : ... .. . ...
ROW 33 : ... .. . ... : ... .. . ... : ... .. . ... : B-# 07 . ... : ... .. . ...
ROW 34 : ... .. . ... : ... .. . ... : ... .. . ... : B-# 07 . ... : ... .. . ...
ROW 35 : ... .. . ... : ... .. . ... : ... .. . ... : ... .. . ... : ... .. . ...
ROW 36 : ... .. . ... : ... .. . ... : ... .. . ... : B-# 07 . ... : ... .. . ...
ROW 37 : ... .. . ... : ... .. . ... : ... .. . ... : B-# 07 . ... : ... .. . ...
ROW 38 : ... .. . ... : ... .. . ... : D-2 02 . ... : 4-# 12 . ... : ... .. . ...
ROW 39 : ... .. . ... : ... .. . ... : ... .. . ... : 3-# 12 . ... : ... .. . ...
ROW 3A : ... .. . ... : ... .. . ... : ... .. . ... : 7-# 12 . ... : ... .. . ...
ROW 3B : ... .. . ... : ... .. . ... : ... .. . ... : 7-# 12 . ... : ... .. . ...
ROW 3C : ... .. . ... : ... .. . ... : D-2 02 . ... : 7-# 04 . ... : ... .. . ...
ROW 3D : ... .. . ... : ... .. . ... : ... .. . ... : ... .. . ... : ... .. . ...
ROW 3E : ... .. . ... : ... .. . ... : ... .. . ... : 4-# 12 . ... : ... .. . ...
ROW 3F : ... .. . ... : ... .. . ... : --- .. . ... : 3-# 12 . ... : ... .. . ...
PATTERN 05
ROW 00 : ... .. . ... : D-2 08 . ... : D-2 01 . ... : ... .. . ... : ... .. . ...
ROW 01 : ... .. . ... : ... .. . ... : ... .. . ... : ... .. . ... : ... .. . ...
ROW 02 : D-2 09 . ... : ... .. . ... : ... .. . ... : ... .. . ... : ... .. . ...
ROW 03 : ... .. . ... : ... .. . ... : ... .. . ... : ... .. . ... : ... .. . ...
ROW 04 : ... .. . ... : F-2 08 . ... : ... .. . ... : ... .. . ... : ... .. . ...
ROW 05 : ... .. . ... : ... .. . ... : ... .. . ... : ... .. . ... : ... .. . ...
ROW 06 : F-2 09 . ... : ... .. . ... : D-2 01 . ... : ... .. . ... : ... .. . ...
ROW 07 : ... .. . ... : ... .. . ... : ... .. . ... : ... .. . ... : ... .. . ...
ROW 08 : ... .. . ... : G-2 08 . ... : F-2 02 . ... : ... .. . ... : ... .. . ...
ROW 09 : ... .. . ... : ... .. . ... : ... .. . ... : ... .. . ... : ... .. . ...
ROW 0A : G-2 09 . ... : ... .. . ... : ... .. . ... : ... .. . ... : ... .. . ...
ROW 0B : ... .. . ... : ... .. . ... : ... .. . ... : ... .. . ... : ... .. . ...
ROW 0C : ... .. . ... : ... .. . ... : ... .. . ... : ... .. . ... : ... .. . ...
ROW 0D : ... .. . ... : ... .. . ... : ... .. . ... : ... .. . ... : ... .. . ...
ROW 0E : ... .. . ... : ... .. . ... : ... .. . ... : ... .. . ... : ... .. . ...
ROW 0F : ... .. . ... : ... .. . ... : ... .. . ... : ... .. . ... : ... .. . ...
ROW 10 : ... .. . ... : G#2 08 . ... : F#2 01 . ... : ... .. . ... : ... .. . ...
ROW 11 : ... .. . ... : ... .. . ... : ... .. . ... : ... .. . ... : ... .. . ...
ROW 12 : G#2 09 . ... : ... .. . ... : ... .. . ... : ... .. . ... : ... .. . ...
ROW 13 : ... .. . ... : ... .. . ... : ... .. . ... : ... .. . ... : ... .. . ...
ROW 14 : ... .. . ... : ... .. . ... : G#2 00 . ... : ... .. . ... : ... .. . ...
ROW 15 : ... .. . ... : ... .. . ... : ... .. . ... : ... .. . ... : ... .. . ...
ROW 16 : ... .. . ... : ... .. . ... : ... .. . ... : ... .. . ... : ... .. . ...
ROW 17 : ... .. . ... : ... .. . ... : ... .. . ... : ... .. . ... : ... .. . ...
ROW 18 : ... .. . ... : ... .. . ... : A#2 02 . S02 : ... .. . ... : ... .. . ...
ROW 19 : ... .. . ... : ... .. . ... : A#2 02 . S02 : ... .. . ... : ... .. . ...
ROW 1A : ... .. . ... : ... .. . ... : ... .. . ... : ... .. . ... : ... .. . ...
ROW 1B : ... .. . ... : ... .. . ... : ... .. . ... : ... .. . ... : ... .. . ...
ROW 1C : ... .. . ... : ... .. . ... : C-2 02 . ... : ... .. . ... : ... .. . ...
ROW 1D : ... .. . ... : ... .. . ... : ... .. . ... : ... .. . ... : ... .. . ...
ROW 1E : ... .. . ... : C-3 08 . ... : ... .. . ... : ... .. . ... : ... .. . ...
ROW 1F : ... .. . ... : A-2 08 . ... : ... .. . ... : ... .. . ... : ... .. . ...
ROW 20 : C-3 09 . ... : C#3 08 . ... : D-2 00 . ... : ... .. . ... : ... .. . ...
ROW 21 : A-2 09 . ... : ... .. . ... : ... .. . ... : ... .. . ... : ... .. . ...
ROW 22 : C#3 09 . ... : ... .. . ... : D-2 01 . ... : ... .. . ... : ... .. . ...
ROW 23 : ... .. . ... : ... .. . ... : ... .. . ... : ... .. . ... : ... .. . ...
ROW 24 : ... .. . ... : ... .. . ... : ... .. . ... : ... .. . ... : ... .. . ...
ROW 25 : ... .. . ... : ... .. . ... : ... .. . ... : ... .. . ... : ... .. . ...
ROW 26 : ... .. . ... : ... .. . ... : D-2 01 . ... : ... .. . ... : ... .. . ...
ROW 27 : ... .. . ... : ... .. . ... : ... .. . ... : ... .. . ... : ... .. . ...
ROW 28 : ... .. . ... : ... .. . ... : D-2 02 . ... : ... .. . ... : ... .. . ...
ROW 29 : ... .. . ... : ... .. . ... : ... .. . ... : ... .. . ... : ... .. . ...
ROW 2A : ... .. . ... : ... .. . ... : ... .. . ... : ... .. . ... : ... .. . ...
ROW 2B : ... .. . ... : ... .. . ... : D-2 02 . ... : ... .. . ... : ... .. . ...
ROW 2C : ... .. . ... : ... .. . ... : ... .. . ... : ... .. . ... : ... .. . ...
ROW 2D : ... .. . ... : ... .. . ... : ... .. . ... : ... .. . ... : ... .. . ...
ROW 2E : ... .. . ... : ... .. . ... : D-2 02 . ... : ... .. . ... : ... .. . ...
ROW 2F : ... .. . ... : ... .. . ... : ... .. . ... : ... .. . ... : ... .. . ...
ROW 30 : ... .. . ... : ... .. . ... : ... .. . ... : ... .. . ... : ... .. . ...
ROW 31 : ... .. . ... : ... .. . ... : ... .. . ... : ... .. . ... : ... .. . ...
ROW 32 : ... .. . ... : ... .. . ... : D-2 01 . ... : ... .. . ... : ... .. . ...
ROW 33 : ... .. . ... : ... .. . ... : ... .. . ... : ... .. . ... : ... .. . ...
ROW 34 : ... .. . ... : ... .. . ... : D-2 01 . ... : ... .. . ... : ... .. . ...
ROW 35 : ... .. . ... : ... .. . ... : ... .. . ... : ... .. . ... : ... .. . ...
ROW 36 : ... .. . ... : ... .. . ... : ... .. . ... : ... .. . ... : ... .. . ...
ROW 37 : ... .. . ... : ... .. . ... : ... .. . ... : ... .. . ... : ... .. . ...
ROW 38 : ... .. . ... : ... .. . ... : D-2 02 . ... : ... .. . ... : ... .. . ...
ROW 39 : ... .. . ... : ... .. . ... : D-2 02 . ... : ... .. . ... : ... .. . ...
ROW 3A : ... .. . ... : ... .. . ... : ... .. . ... : ... .. . ... : ... .. . ...
ROW 3B : ... .. . ... : ... .. . ... : ... .. . ... : ... .. . ... : ... .. . ...
ROW 3C : ... .. . ... : ... .. . ... : D-2 02 . ... : ... .. . ... : ... .. . ...
ROW 3D : ... .. . ... : ... .. . ... : ... .. . ... : ... .. . ... : ... .. . ...
ROW 3E : ... .. . ... : ... .. . ... : D-2 02 . ... : ... .. . ... : ... .. . ...
ROW 3F : ... .. . ... : ... .. . ... : D-2 02 . S02 : ... .. . ... : ... .. . ...
PATTERN 06
ROW 00 : ... .. . ... : ... .. . ... : ... .. . ... : ... .. . ... : ... .. . ...
ROW 01 : ... .. . ... : ... .. . ... : ... .. . ... : ... .. . ... : ... .. . ...
ROW 02 : ... .. . ... : ... .. . ... : ... .. . ... : ... .. . ... : ... .. . ...
ROW 03 : ... .. . ... : ... .. . ... : ... .. . ... : ... .. . ... : ... .. . ...
ROW 04 : ... .. . ... : ... .. . ... : ... .. . ... : ... .. . ... : ... .. . ...
ROW 05 : ... .. . ... : ... .. . ... : ... .. . ... : ... .. . ... : ... .. . ...
ROW 06 : ... .. . ... : ... .. . ... : ... .. . ... : ... .. . ... : ... .. . ...
ROW 07 : ... .. . ... : ... .. . ... : ... .. . ... : ... .. . ... : ... .. . ...
ROW 08 : ... .. . ... : ... .. . ... : ... .. . ... : ... .. . ... : ... .. . ...
ROW 09 : ... .. . ... : ... .. . ... : ... .. . ... : ... .. . ... : ... .. . ...
ROW 0A : ... .. . ... : ... .. . ... : ... .. . ... : ... .. . ... : ... .. . ...
ROW 0B : ... .. . ... : ... .. . ... : ... .. . ... : ... .. . ... : ... .. . ...
ROW 0C : ... .. . ... : A#0 08 . ... : ... .. . ... : ... .. . ... : ... .. . ...
ROW 0D : ... .. . ... : ... .. . ... : ... .. . ... : ... .. . ... : ... .. . ...
ROW 0E : ... .. . ... : ... .. . ... : ... .. . ... : ... .. . ... : ... .. . ...
ROW 0F : ... .. . ... : ... .. . ... : ... .. . ... : ... .. . ... : ... .. . ...
ROW 10 : ... .. . ... : ... .. . ... : ... .. . ... : ... .. . ... : ... .. . ...
ROW 11 : ... .. . ... : ... .. . ... : ... .. . ... : ... .. . ... : ... .. . ...
ROW 12 : ... .. . ... : ... .. . ... : ... .. . ... : ... .. . ... : ... .. . ...
ROW 13 : ... .. . ... : ... .. . ... : ... .. . ... : ... .. . ... : ... .. . ...
ROW 14 : ... .. . ... : ... .. . ... : ... .. . ... : ... .. . ... : ... .. . ...
ROW 15 : ... .. . ... : ... .. . ... : ... .. . ... : ... .. . ... : ... .. . ...
ROW 16 : ... .. . ... : ... .. . ... : ... .. . ... : ... .. . ... : ... .. . ...
ROW 17 : ... .. . ... : ... .. . ... : ... .. . ... : ... .. . ... : ... .. . ...
ROW 18 : ... .. . ... : ... .. . ... : ... .. . ... : ... .. . ... : ... .. . ...
ROW 19 : ... .. . ... : ... .. . ... : ... .. . ... : ... .. . ... : ... .. . ...
ROW 1A : ... .. . ... : ... .. . ... : ... .. . ... : ... .. . ... : ... .. . ...
ROW 1B : ... .. . ... : ... .. . ... : ... .. . ... : ... .. . ... : ... .. . ...
ROW 1C : ... .. . ... : ... .. . ... : ... .. . ... : ... .. . ... : ... .. . ...
ROW 1D : ... .. . ... : ... .. . ... : ... .. . ... : ... .. . ... : ... .. . ...
ROW 1E : ... .. . ... : ... .. . ... : ... .. . ... : ... .. . ... : ... .. . ...
ROW 1F : ... .. . ... : ... .. . ... : ... .. . ... : ... .. . ... : ... .. . ...
ROW 20 : ... .. . ... : G#1 08 . ... : ... .. . ... : ... .. . ... : ... .. . ...
ROW 21 : ... .. . ... : ... .. . ... : ... .. . ... : ... .. . ... : ... .. . ...
ROW 22 : ... .. . ... : ... .. . ... : ... .. . ... : ... .. . ... : ... .. . ...
ROW 23 : ... .. . ... : ... .. . ... : ... .. . ... : ... .. . ... : ... .. . ...
ROW 24 : ... .. . ... : ... .. . ... : ... .. . ... : ... .. . ... : ... .. . ...
ROW 25 : ... .. . ... : ... .. . ... : ... .. . ... : ... .. . ... : ... .. . ...
ROW 26 : ... .. . ... : ... .. . ... : ... .. . ... : ... .. . ... : ... .. . ...
ROW 27 : ... .. . ... : ... .. . ... : ... .. . ... : ... .. . ... : ... .. . ...
ROW 28 : ... .. . ... : ... .. . ... : ... .. . ... : ... .. . ... : ... .. . ...
ROW 29 : ... .. . ... : ... .. . ... : ... .. . ... : ... .. . ... : ... .. . ...
ROW 2A : ... .. . ... : ... .. . ... : ... .. . ... : ... .. . ... : ... .. . ...
ROW 2B : ... .. . ... : ... .. . ... : ... .. . ... : ... .. . ... : ... .. . ...
ROW 2C : ... .. . ... : ... .. . ... : ... .. . ... : ... .. . ... : ... .. . ...
ROW 2D : ... .. . ... : ... .. . ... : ... .. . ... : ... .. . ... : ... .. . ...
ROW 2E : ... .. . ... : ... .. . ... : ... .. . ... : ... .. . ... : ... .. . ...
ROW 2F : ... .. . ... : ... .. . ... : ... .. . ... : ... .. . ... : ... .. . ...
ROW 30 : ... .. . ... : ... .. . ... : ... .. . ... : ... .. . ... : ... .. . ...
ROW 31 : ... .. . ... : ... .. . ... : ... .. . ... : ... .. . ... : ... .. . ...
ROW 32 : ... .. . ... : ... .. . ... : ... .. . ... : ... .. . ... : ... .. . ...
ROW 33 : ... .. . ... : ... .. . ... : ... .. . ... : ... .. . ... : ... .. . ...
ROW 34 : ... .. . ... : ... .. . ... : ... .. . ... : ... .. . ... : ... .. . ...
ROW 35 : ... .. . ... : ... .. . ... : ... .. . ... : ... .. . ... : ... .. . ...
ROW 36 : ... .. . ... : ... .. . ... : ... .. . ... : ... .. . ... : ... .. . ...
ROW 37 : ... .. . ... : ... .. . ... : ... .. . ... : ... .. . ... : ... .. . ...
ROW 38 : ... .. . ... : ... .. . ... : ... .. . ... : ... .. . ... : ... .. . ...
ROW 39 : ... .. . ... : ... .. . ... : ... .. . ... : ... .. . ... : ... .. . ...
ROW 3A : ... .. . ... : ... .. . ... : ... .. . ... : ... .. . ... : ... .. . ...
ROW 3B : ... .. . ... : ... .. . ... : ... .. . ... : ... .. . ... : ... .. . ...
ROW 3C : ... .. . ... : ... .. . ... : ... .. . ... : ... .. . ... : ... .. . ...
ROW 3D : ... .. . ... : ... .. . ... : ... .. . ... : ... .. . ... : ... .. . ...
ROW 3E : ... .. . ... : ... .. . ... : ... .. . ... : ... .. . ... : ... .. . ...
ROW 3F : ... .. . ... : ... .. . ... : ... .. . ... : ... .. . ... : ... .. . ...

# track BOOKMARKS block

# track HEADER block
TRACK  64   7 150 "Tower (SNES) / Kombat Tomb (Genesis)"
COLUMNS : 1 1 1 1 1

# track FRAMES block
ORDER 00 : 00 00 00 00 00
ORDER 01 : 00 00 00 00 00
ORDER 02 : 01 01 01 00 00
ORDER 03 : 00 00 00 00 01
ORDER 04 : 02 02 02 00 00

# track PATTERNS block
PATTERN 00
ROW 00 : C-3 0D . ... : C-2 0C . ... : C-2 01 . ... : 9-# 03 . ... : ... .. . ...
ROW 01 : ... .. . ... : ... .. . ... : ... .. . ... : ... .. . ... : ... .. . ...
ROW 02 : ... .. . ... : ... .. . ... : ... .. . ... : ... .. . ... : ... .. . ...
ROW 03 : C-4 0D . ... : C-3 0C . ... : C-2 01 . ... : 7-# 03 . ... : ... .. . ...
ROW 04 : F#3 0D . ... : F#2 0C . ... : C-2 01 . ... : 7-# 03 . ... : ... .. . ...
ROW 05 : ... .. . ... : ... .. . ... : ... .. . ... : ... .. . ... : ... .. . ...
ROW 06 : ... .. . ... : ... .. . ... : C-2 01 . ... : 9-# 03 . ... : ... .. . ...
ROW 07 : A-3 0D . ... : A-2 0C . ... : ... .. . ... : ... .. . ... : ... .. . ...
ROW 08 : D#3 0D . ... : D#2 0C . ... : ... .. . ... : ... .. . ... : ... .. . ...
ROW 09 : ... .. . ... : ... .. . ... : C-2 01 . ... : 7-# 03 . ... : ... .. . ...
ROW 0A : ... .. . ... : ... .. . ... : C-2 01 . ... : 7-# 03 . ... : ... .. . ...
ROW 0B : F#3 0D . ... : F#2 0C . ... : ... .. . ... : ... .. . ... : ... .. . ...
ROW 0C : C-3 0D . ... : C-2 0C . ... : C-2 01 . ... : 9-# 03 . ... : ... .. . ...
ROW 0D : E-3 0D . ... : E-2 0C . ... : ... .. . ... : ... .. . ... : ... .. . ...
ROW 0E : A#2 0D . ... : A#1 0C . ... : C-2 01 . ... : 7-# 03 . ... : ... .. . ...
ROW 0F : ... .. . ... : ... .. . ... : ... .. . ... : ... .. . ... : ... .. . ...
ROW 10 : ... .. . ... : ... .. . ... : C-2 01 . ... : 9-# 03 . ... : ... .. . ...
ROW 11 : ... .. . ... : ... .. . ... : ... .. . ... : ... .. . ... : ... .. . ...
ROW 12 : ... .. . ... : ... .. . ... : ... .. . ... : ... .. . ... : ... .. . ...
ROW 13 : C-4 0D . ... : C-3 0C . ... : C-2 01 . ... : 7-# 03 . ... : ... .. . ...
ROW 14 : F#3 0D . ... : F#2 0C . ... : C-2 01 . ... : 7-# 03 . ... : ... .. . ...
ROW 15 : ... .. . ... : ... .. . ... : ... .. . ... : ... .. . ... : ... .. . ...
ROW 16 : ... .. . ... : ... .. . ... : C-2 01 . ... : 9-# 03 . ... : ... .. . ...
ROW 17 : A-3 0D . ... : A-2 0C . ... : ... .. . ... : ... .. . ... : ... .. . ...
ROW 18 : D#3 0D . ... : D#2 0C . ... : ... .. . ... : ... .. . ... : ... .. . ...
ROW 19 : ... .. . ... : ... .. . ... : C-2 01 . ... : 7-# 03 . ... : ... .. . ...
ROW 1A : ... .. . ... : ... .. . ... : C-2 01 . ... : 7-# 03 . ... : ... .. . ...
ROW 1B : F#3 0D . ... : F#2 0C . ... : ... .. . ... : ... .. . ... : ... .. . ...
ROW 1C : C-3 0D . ... : C-2 0C . ... : C-2 01 . ... : 9-# 03 . ... : ... .. . ...
ROW 1D : E-3 0D . ... : E-2 0C . ... : ... .. . ... : ... .. . ... : ... .. . ...
ROW 1E : A#2 0D . ... : A#1 0C . ... : C-2 01 . ... : 7-# 03 . ... : ... .. . ...
ROW 1F : ... .. . ... : ... .. . ... : ... .. . ... : ... .. . ... : ... .. . ...
ROW 20 : C-3 08 . ... : ... .. . ... : C-2 01 . ... : 9-# 03 . ... : ... .. . ...
ROW 21 : ... .. . ... : ... .. . ... : ... .. . ... : ... .. . ... : ... .. . ...
ROW 22 : F-3 08 . ... : C-3 09 . ... : ... .. . ... : ... .. . ... : ... .. . ...
ROW 23 : ... .. . ... : ... .. . ... : C-2 01 . ... : 7-# 03 . ... : ... .. . ...
ROW 24 : G-3 08 . ... : F-3 09 . ... : A#2 01 . ... : 7-# 03 . ... : ... .. . ...
ROW 25 : ... .. . ... : ... .. . ... : ... .. . ... : ... .. . ... : ... .. . ...
ROW 26 : A#3 08 . ... : G-3 09 . ... : A#2 01 . ... : 9-# 03 . ... : ... .. . ...
ROW 27 : ... .. . ... : ... .. . ... : ... .. . ... : ... .. . ... : ... .. . ...
ROW 28 : ... .. . ... : A#3 09 . ... : F#2 00 . ... : ... .. . ... : ... .. . ...
ROW 29 : ... .. . ... : ... .. . ... : F#2 01 . ... : 7-# 03 . ... : ... .. . ...
ROW 2A : C-4 08 . ... : ... .. . ... : F#2 01 . ... : 7-# 03 . ... : ... .. . ...
ROW 2B : A#3 08 . ... : ... .. . ... : ... .. . ... : ... .. . ... : ... .. . ...
ROW 2C : F#3 08 . ... : C-4 09 . ... : A-2 01 . ... : 9-# 03 . ... : ... .. . ...
ROW 2D : ... .. . ... : A#3 09 . ... : ... .. . ... : ... .. . ... : ... .. . ...
ROW 2E : A-3 08 . ... : F#3 09 . ... : A-2 01 . ... : 7-# 03 . ... : ... .. . ...
ROW 2F : ... .. . ... : ... .. . ... : ... .. . ... : ... .. . ... : ... .. . ...
ROW 30 : ... .. . ... : A-3 09 . ... : A-2 01 . ... : 9-# 03 . ... : ... .. . ...
ROW 31 : ... .. . ... : ... .. . ... : ... .. . ... : ... .. . ... : ... .. . ...
ROW 32 : ... .. . ... : ... .. . ... : ... .. . ... : ... .. . ... : ... .. . ...
ROW 33 : ... .. . ... : ... .. . ... : A-2 01 . ... : 7-# 03 . ... : ... .. . ...
ROW 34 : ... .. . ... : ... .. . ... : A-2 01 . ... : 7-# 03 . ... : ... .. . ...
ROW 35 : ... .. . ... : ... .. . ... : ... .. . ... : ... .. . ... : ... .. . ...
ROW 36 : ... .. . ... : ... .. . ... : A-2 01 . ... : 9-# 03 . ... : ... .. . ...
ROW 37 : ... .. . ... : ... .. . ... : ... .. . ... : ... .. . ... : ... .. . ...
ROW 38 : ... .. . ... : ... .. . ... : ... .. . ... : ... .. . ... : ... .. . ...
ROW 39 : ... .. . ... : ... .. . ... : A-2 01 . ... : 7-# 03 . ... : ... .. . ...
ROW 3A : ... .. . ... : ... .. . ... : A-2 01 . ... : 7-# 03 . ... : ... .. . ...
ROW 3B : ... .. . ... : ... .. . ... : ... .. . ... : ... .. . ... : ... .. . ...
ROW 3C : ... .. . ... : ... .. . ... : F#2 01 . ... : 9-# 03 . ... : ... .. . ...
ROW 3D : ... .. . ... : ... .. . ... : ... .. . ... : ... .. . ... : ... .. . ...
ROW 3E : ... .. . ... : ... .. . ... : F#2 01 . ... : 7-# 03 . ... : ... .. . ...
ROW 3F : ... .. . ... : ... .. . ... : ... .. . ... : ... .. . ... : ... .. . ...
PATTERN 01
ROW 00 : C-3 0D . ... : C-2 0C . ... : C-2 01 . ... : ... .. . ... : ... .. . ...
ROW 01 : ... .. . ... : ... .. . ... : ... .. . ... : ... .. . ... : ... .. . ...
ROW 02 : ... .. . ... : ... .. . ... : ... .. . ... : ... .. . ... : ... .. . ...
ROW 03 : C-4 0D . ... : C-3 0C . ... : C-2 01 . ... : ... .. . ... : ... .. . ...
ROW 04 : F#3 0D . ... : F#2 0C . ... : C-2 01 . ... : ... .. . ... : ... .. . ...
ROW 05 : ... .. . ... : ... .. . ... : ... .. . ... : ... .. . ... : ... .. . ...
ROW 06 : ... .. . ... : ... .. . ... : C-2 01 . ... : ... .. . ... : ... .. . ...
ROW 07 : A-3 0D . ... : A-2 0C . ... : ... .. . ... : ... .. . ... : ... .. . ...
ROW 08 : D#3 0D . ... : D#2 0C . ... : ... .. . ... : ... .. . ... : ... .. . ...
ROW 09 : ... .. . ... : ... .. . ... : C-2 01 . ... : ... .. . ... : ... .. . ...
ROW 0A : ... .. . ... : ... .. . ... : C-2 01 . ... : ... .. . ... : ... .. . ...
ROW 0B : F#3 0D . ... : F#2 0C . ... : ... .. . ... : ... .. . ... : ... .. . ...
ROW 0C : C-3 0D . ... : C-2 0C . ... : C-2 01 . ... : ... .. . ... : ... .. . ...
ROW 0D : E-3 0D . ... : E-2 0C . ... : ... .. . ... : ... .. . ... : ... .. . ...
ROW 0E : A#2 0D . ... : A#1 0C . ... : C-2 01 . ... : ... .. . ... : ... .. . ...
ROW 0F : ... .. . ... : ... .. . ... : ... .. . ... : ... .. . ... : ... .. . ...
ROW 10 : ... .. . ... : ... .. . ... : C-2 01 . ... : ... .. . ... : ... .. . ...
ROW 11 : ... .. . ... : ... .. . ... : ... .. . ... : ... .. . ... : ... .. . ...
ROW 12 : ... .. . ... : ... .. . ... : ... .. . ... : ... .. . ... : ... .. . ...
ROW 13 : C-4 0D . ... : C-3 0C . ... : C-2 01 . ... : ... .. . ... : ... .. . ...
ROW 14 : F#3 0D . ... : F#2 0C . ... : C-2 01 . ... : ... .. . ... : ... .. . ...
ROW 15 : ... .. . ... : ... .. . ... : ... .. . ... : ... .. . ... : ... .. . ...
ROW 16 : ... .. . ... : ... .. . ... : C-2 01 . ... : ... .. . ... : ... .. . ...
ROW 17 : A-3 0D . ... : A-2 0C . ... : ... .. . ... : ... .. . ... : ... .. . ...
ROW 18 : D#3 0D . ... : D#2 0C . ... : ... .. . ... : ... .. . ... : ... .. . ...
ROW 19 : ... .. . ... : ... .. . ... : C-2 01 . ... : ... .. . ... : ... .. . ...
ROW 1A : ... .. . ... : ... .. . ... : C-2 01 . ... : ... .. . ... : ... .. . ...
ROW 1B : F#3 0D . ... : F#2 0C . ... : ... .. . ... : ... .. . ... : ... .. . ...
ROW 1C : C-3 0D . ... : C-2 0C . ... : C-2 01 . ... : ... .. . ... : ... .. . ...
ROW 1D : E-3 0D . ... : E-2 0C . ... : ... .. . ... : ... .. . ... : ... .. . ...
ROW 1E : A#2 0D . ... : A#1 0C . ... : C-2 01 . ... : ... .. . ... : ... .. . ...
ROW 1F : ... .. . ... : ... .. . ... : ... .. . ... : ... .. . ... : ... .. . D00
ROW 20 : C#3 0D . ... : C#2 0C . ... : C#2 01 . ... : ... .. . ... : ... .. . ...
ROW 21 : ... .. . ... : ... .. . ... : ... .. . ... : ... .. . ... : ... .. . ...
ROW 22 : ... .. . ... : ... .. . ... : ... .. . ... : ... .. . ... : ... .. . ...
ROW 23 : C#4 0D . ... : C#3 0C . ... : C#2 01 . ... : ... .. . ... : ... .. . ...
ROW 24 : G-3 0D . ... : G-2 0C . ... : C#2 01 . ... : ... .. . ... : ... .. . ...
ROW 25 : ... .. . ... : ... .. . ... : ... .. . ... : ... .. . ... : ... .. . ...
ROW 26 : ... .. . ... : ... .. . ... : C#2 01 . ... : ... .. . ... : ... .. . ...
ROW 27 : A#3 0D . ... : A#2 0C . ... : ... .. . ... : ... .. . ... : ... .. . ...
ROW 28 : E-3 0D . ... : E-2 0C . ... : ... .. . ... : ... .. . ... : ... .. . ...
ROW 29 : ... .. . ... : ... .. . ... : C#2 01 . ... : ... .. . ... : ... .. . ...
ROW 2A : ... .. . ... : ... .. . ... : C#2 01 . ... : ... .. . ... : ... .. . ...
ROW 2B : G-3 0D . ... : G-2 0C . ... : ... .. . ... : ... .. . ... : ... .. . ...
ROW 2C : C#3 0D . ... : C#2 0C . ... : C#2 01 . ... : ... .. . ... : ... .. . ...
ROW 2D : F-3 0D . ... : F-2 0C . ... : ... .. . ... : ... .. . ... : ... .. . ...
ROW 2E : ... .. . ... : ... .. . ... : C#2 01 . ... : ... .. . ... : ... .. . ...
ROW 2F : ... .. . ... : ... .. . ... : ... .. . D00 : ... .. . ... : ... .. . ...
ROW 30 : ... .. . ... : ... .. . ... : ... .. . ... : ... .. . ... : ... .. . ...
ROW 31 : ... .. . ... : ... .. . ... : ... .. . ... : ... .. . ... : ... .. . ...
ROW 32 : ... .. . ... : ... .. . ... : ... .. . ... : ... .. . ... : ... .. . ...
ROW 33 : ... .. . ... : ... .. . ... : ... .. . ... : ... .. . ... : ... .. . ...
ROW 34 : ... .. . ... : ... .. . ... : ... .. . ... : ... .. . ... : ... .. . ...
ROW 35 : ... .. . ... : ... .. . ... : ... .. . ... : ... .. . ... : ... .. . ...
ROW 36 : ... .. . ... : ... .. . ... : ... .. . ... : ... .. . ... : ... .. . ...
ROW 37 : ... .. . ... : ... .. . ... : ... .. . ... : ... .. . ... : ... .. . ...
ROW 38 : ... .. . ... : ... .. . ... : ... .. . ... : ... .. . ... : ... .. . ...
ROW 39 : ... .. . ... : ... .. . ... : ... .. . ... : ... .. . ... : ... .. . ...
ROW 3A : ... .. . ... : ... .. . ... : ... .. . ... : ... .. . ... : ... .. . ...
ROW 3B : ... .. . ... : ... .. . ... : ... .. . ... : ... .. . ... : ... .. . ...
ROW 3C : ... .. . ... : ... .. . ... : ... .. . ... : ... .. . ... : ... .. . ...
ROW 3D : ... .. . ... : ... .. . ... : ... .. . ... : ... .. . ... : ... .. . ...
ROW 3E : ... .. . ... : ... .. . ... : ... .. . ... : ... .. . ... : ... .. . ...
ROW 3F : ... .. . ... : ... .. . ... : ... .. . ... : ... .. . ... : ... .. . ...
PATTERN 02
ROW 00 : A#2 08 . ... : ... .. . ... : F-2 01 . ... : ... .. . ... : ... .. . ...
ROW 01 : ... .. . ... : ... .. . ... : ... .. . ... : ... .. . ... : ... .. . ...
ROW 02 : ... .. . ... : A#2 09 . ... : ... .. . ... : ... .. . ... : ... .. . ...
ROW 03 : ... .. . ... : ... .. . ... : F-2 01 . ... : ... .. . ... : ... .. . ...
ROW 04 : A-2 08 . ... : ... .. . ... : E-2 01 . ... : ... .. . ... : ... .. . ...
ROW 05 : ... .. . ... : ... .. . ... : ... .. . ... : ... .. . ... : ... .. . ...
ROW 06 : ... .. . ... : A-2 09 . ... : E-2 01 . ... : ... .. . ... : ... .. . ...
ROW 07 : ... .. . ... : ... .. . ... : ... .. . ... : ... .. . ... : ... .. . ...
ROW 08 : C#3 08 . ... : ... .. . ... : G#2 00 . ... : ... .. . ... : ... .. . ...
ROW 09 : ... .. . ... : ... .. . ... : G#2 01 . ... : ... .. . ... : ... .. . ...
ROW 0A : ... .. . ... : C#3 09 . ... : G#2 01 . ... : ... .. . ... : ... .. . ...
ROW 0B : ... .. . ... : ... .. . ... : ... .. . ... : ... .. . ... : ... .. . ...
ROW 0C : ... .. . ... : ... .. . ... : G#2 01 . ... : ... .. . ... : ... .. . ...
ROW 0D : ... .. . ... : ... .. . ... : ... .. . ... : ... .. . ... : ... .. . ...
ROW 0E : ... .. . ... : ... .. . ... : G#2 01 . ... : ... .. . ... : ... .. . ...
ROW 0F : ... .. . ... : ... .. . ... : ... .. . ... : ... .. . ... : ... .. . ...
ROW 10 : C-3 08 . ... : C-4 0C . ... : G-2 01 . ... : ... .. . ... : ... .. . ...
ROW 11 : ... .. . ... : A#3 0C . ... : ... .. . ... : ... .. . ... : ... .. . ...
ROW 12 : ... .. . ... : F#3 0C . ... : ... .. . ... : ... .. . ... : ... .. . ...
ROW 13 : ... .. . ... : F-3 0C . ... : G-2 01 . ... : ... .. . ... : ... .. . ...
ROW 14 : ... .. . ... : A#3 0C . ... : G-2 01 . ... : ... .. . ... : ... .. . ...
ROW 15 : ... .. . ... : F#3 0C . ... : ... .. . ... : ... .. . ... : ... .. . ...
ROW 16 : ... .. . ... : F-3 0C . ... : G-2 01 . ... : ... .. . ... : ... .. . ...
ROW 17 : ... .. . ... : C#3 0C . ... : ... .. . ... : ... .. . ... : ... .. . ...
ROW 18 : ... .. . ... : C-3 0C . ... : ... .. . ... : ... .. . ... : ... .. . ...
ROW 19 : ... .. . ... : A#2 0C . ... : G-2 01 . ... : ... .. . ... : ... .. . ...
ROW 1A : ... .. . ... : F#2 0C . ... : G-2 01 . ... : ... .. . ... : ... .. . ...
ROW 1B : ... .. . ... : F-2 0C . ... : ... .. . ... : ... .. . ... : ... .. . ...
ROW 1C : ... .. . ... : A#2 0C . ... : G-2 01 . ... : ... .. . ... : ... .. . ...
ROW 1D : ... .. . ... : F#2 0C . ... : ... .. . ... : ... .. . ... : ... .. . ...
ROW 1E : ... .. . ... : F-2 0C . ... : G-2 01 . ... : ... .. . ... : ... .. . ...
ROW 1F : ... .. . ... : C#2 0C . ... : ... .. . ... : ... .. . ... : ... .. . ...
ROW 20 : A#2 08 . ... : ... .. . ... : F-2 01 . ... : ... .. . ... : ... .. . ...
ROW 21 : ... .. . ... : ... .. . ... : ... .. . ... : ... .. . ... : ... .. . ...
ROW 22 : ... .. . ... : A#2 09 . ... : ... .. . ... : ... .. . ... : ... .. . ...
ROW 23 : ... .. . ... : ... .. . ... : F-2 01 . ... : ... .. . ... : ... .. . ...
ROW 24 : A-2 08 . ... : ... .. . ... : E-2 01 . ... : ... .. . ... : ... .. . ...
ROW 25 : ... .. . ... : ... .. . ... : ... .. . ... : ... .. . ... : ... .. . ...
ROW 26 : ... .. . ... : A-2 09 . ... : E-2 01 . ... : ... .. . ... : ... .. . ...
ROW 27 : ... .. . ... : ... .. . ... : ... .. . ... : ... .. . ... : ... .. . ...
ROW 28 : C#3 08 . ... : ... .. . ... : G#2 00 . ... : ... .. . ... : ... .. . ...
ROW 29 : ... .. . ... : ... .. . ... : G#2 01 . ... : ... .. . ... : ... .. . ...
ROW 2A : ... .. . ... : C#3 09 . ... : G#2 01 . ... : ... .. . ... : ... .. . ...
ROW 2B : ... .. . ... : ... .. . ... : ... .. . ... : ... .. . ... : ... .. . ...
ROW 2C : ... .. . ... : ... .. . ... : G#2 01 . ... : ... .. . ... : ... .. . ...
ROW 2D : ... .. . ... : ... .. . ... : ... .. . ... : ... .. . ... : ... .. . ...
ROW 2E : ... .. . ... : ... .. . ... : G#2 01 . ... : ... .. . ... : ... .. . ...
ROW 2F : ... .. . ... : ... .. . ... : ... .. . ... : ... .. . ... : ... .. . ...
ROW 30 : A#2 08 . ... : ... .. . ... : F-2 01 . ... : ... .. . ... : ... .. . ...
ROW 31 : ... .. . ... : ... .. . ... : ... .. . ... : ... .. . ... : ... .. . ...
ROW 32 : ... .. . ... : A#2 09 . ... : ... .. . ... : ... .. . ... : ... .. . ...
ROW 33 : ... .. . ... : ... .. . ... : F-2 01 . ... : ... .. . ... : ... .. . ...
ROW 34 : ... .. . ... : ... .. . ... : F-2 01 . ... : ... .. . ... : ... .. . ...
ROW 35 : ... .. . ... : ... .. . ... : ... .. . ... : ... .. . ... : ... .. . ...
ROW 36 : ... .. . ... : ... .. . ... : F-2 01 . ... : ... .. . ... : ... .. . ...
ROW 37 : ... .. . ... : ... .. . ... : ... .. . ... : ... .. . ... : ... .. . ...
ROW 38 : ... .. . ... : ... .. . ... : ... .. . ... : ... .. . ... : ... .. . ...
ROW 39 : ... .. . ... : ... .. . ... : F-2 01 . ... : ... .. . ... : ... .. . ...
ROW 3A : ... .. . ... : ... .. . ... : F-2 01 . ... : ... .. . ... : ... .. . ...
ROW 3B : ... .. . ... : ... .. . ... : ... .. . ... : ... .. . ... : ... .. . ...
ROW 3C : ... .. . ... : ... .. . ... : F-2 01 . ... : ... .. . ... : ... .. . ...
ROW 3D : ... .. . ... : ... .. . ... : ... .. . ... : ... .. . ... : ... .. . ...
ROW 3E : ... .. . ... : ... .. . ... : F-2 01 . ... : ... .. . ... : ... .. . ...
ROW 3F : ... .. . ... : ... .. . ... : ... .. . ... : ... .. . ... : ... .. . ...

# track BOOKMARKS block

# track HEADER block
TRACK  84   7 150 "X Kombat Tomb (SNES)"
COLUMNS : 1 1 1 1 1

# track FRAMES block
ORDER 00 : 00 00 00 00 00
ORDER 01 : 01 01 01 01 00
ORDER 02 : 02 02 02 02 00
ORDER 03 : 01 01 01 01 00
ORDER 04 : 02 02 02 02 01
ORDER 05 : 03 03 03 02 00

# track PATTERNS block
PATTERN 00
ROW 00 : --- .. . ... : ... .. . ... : C-2 02 . ... : 7-# 04 . ... : ... .. . ...
ROW 01 : ... .. . ... : ... .. . ... : --- .. . ... : ... .. . ... : ... .. . ...
ROW 02 : ... .. . ... : --- .. . ... : C-2 00 . ... : ... .. . ... : ... .. . ...
ROW 03 : ... .. . ... : ... .. . ... : --- .. . ... : ... .. . ... : ... .. . ...
ROW 04 : ... .. . ... : ... .. . ... : C-2 01 . ... : 9-# 03 . ... : ... .. . ...
ROW 05 : ... .. . ... : ... .. . ... : --- .. . ... : ... .. . ... : ... .. . ...
ROW 06 : ... .. . ... : ... .. . ... : C-2 00 . ... : ... .. . ... : ... .. . ...
ROW 07 : ... .. . ... : ... .. . ... : --- .. . ... : ... .. . ... : ... .. . ...
ROW 08 : ... .. . ... : ... .. . ... : C-2 01 . ... : 9-# 03 . ... : ... .. . ...
ROW 09 : ... .. . ... : ... .. . ... : --- .. . ... : ... .. . ... : ... .. . ...
ROW 0A : ... .. . ... : ... .. . ... : C-2 00 . ... : ... .. . ... : ... .. . ...
ROW 0B : ... .. . ... : ... .. . ... : --- .. . ... : ... .. . ... : ... .. . ...
ROW 0C : ... .. . ... : ... .. . ... : C-2 02 . ... : 7-# 04 . ... : ... .. . ...
ROW 0D : ... .. . ... : ... .. . ... : --- .. . ... : ... .. . ... : ... .. . ...
ROW 0E : ... .. . ... : ... .. . ... : C-2 00 . ... : ... .. . ... : ... .. . ...
ROW 0F : ... .. . ... : ... .. . ... : --- .. . ... : ... .. . ... : ... .. . ...
ROW 10 : ... .. . ... : ... .. . ... : C-2 01 . ... : 9-# 03 . ... : ... .. . ...
ROW 11 : ... .. . ... : ... .. . ... : --- .. . ... : ... .. . ... : ... .. . ...
ROW 12 : ... .. . ... : ... .. . ... : C-2 00 . ... : ... .. . ... : ... .. . ...
ROW 13 : ... .. . ... : ... .. . D00 : --- .. . ... : ... .. . ... : ... .. . ...
ROW 14 : ... .. . ... : ... .. . ... : ... .. . ... : ... .. . ... : ... .. . ...
ROW 15 : ... .. . ... : ... .. . ... : ... .. . ... : ... .. . ... : ... .. . ...
ROW 16 : ... .. . ... : ... .. . ... : ... .. . ... : ... .. . ... : ... .. . ...
ROW 17 : ... .. . ... : ... .. . ... : ... .. . ... : ... .. . ... : ... .. . ...
ROW 18 : ... .. . ... : ... .. . ... : ... .. . ... : ... .. . ... : ... .. . ...
ROW 19 : ... .. . ... : ... .. . ... : ... .. . ... : ... .. . ... : ... .. . ...
ROW 1A : ... .. . ... : ... .. . ... : ... .. . ... : ... .. . ... : ... .. . ...
ROW 1B : ... .. . ... : ... .. . ... : ... .. . ... : ... .. . ... : ... .. . ...
ROW 1C : ... .. . ... : ... .. . ... : ... .. . ... : ... .. . ... : ... .. . ...
ROW 1D : ... .. . ... : ... .. . ... : ... .. . ... : ... .. . ... : ... .. . ...
ROW 1E : ... .. . ... : ... .. . ... : ... .. . ... : ... .. . ... : ... .. . ...
ROW 1F : ... .. . ... : ... .. . ... : ... .. . ... : ... .. . ... : ... .. . ...
ROW 20 : ... .. . ... : ... .. . ... : ... .. . ... : ... .. . ... : ... .. . ...
ROW 21 : ... .. . ... : ... .. . ... : ... .. . ... : ... .. . ... : ... .. . ...
ROW 22 : ... .. . ... : ... .. . ... : ... .. . ... : ... .. . ... : ... .. . ...
ROW 23 : ... .. . ... : ... .. . ... : ... .. . ... : ... .. . ... : ... .. . ...
ROW 24 : ... .. . ... : ... .. . ... : ... .. . ... : ... .. . ... : ... .. . ...
ROW 25 : ... .. . ... : ... .. . ... : ... .. . ... : ... .. . ... : ... .. . ...
ROW 26 : ... .. . ... : ... .. . ... : ... .. . ... : ... .. . ... : ... .. . ...
ROW 27 : ... .. . ... : ... .. . ... : ... .. . ... : ... .. . ... : ... .. . ...
ROW 28 : ... .. . ... : ... .. . ... : ... .. . ... : ... .. . ... : ... .. . ...
ROW 29 : ... .. . ... : ... .. . ... : ... .. . ... : ... .. . ... : ... .. . ...
ROW 2A : ... .. . ... : ... .. . ... : ... .. . ... : ... .. . ... : ... .. . ...
ROW 2B : ... .. . ... : ... .. . ... : ... .. . ... : ... .. . ... : ... .. . ...
ROW 2C : ... .. . ... : ... .. . ... : ... .. . ... : ... .. . ... : ... .. . ...
ROW 2D : ... .. . ... : ... .. . ... : ... .. . ... : ... .. . ... : ... .. . ...
ROW 2E : ... .. . ... : ... .. . ... : ... .. . ... : ... .. . ... : ... .. . ...
ROW 2F : ... .. . ... : ... .. . ... : ... .. . ... : ... .. . ... : ... .. . ...
ROW 30 : ... .. . ... : ... .. . ... : ... .. . ... : ... .. . ... : ... .. . ...
ROW 31 : ... .. . ... : ... .. . ... : ... .. . ... : ... .. . ... : ... .. . ...
ROW 32 : ... .. . ... : ... .. . ... : ... .. . ... : ... .. . ... : ... .. . ...
ROW 33 : ... .. . ... : ... .. . ... : ... .. . ... : ... .. . ... : ... .. . ...
ROW 34 : ... .. . ... : ... .. . ... : ... .. . ... : ... .. . ... : ... .. . ...
ROW 35 : ... .. . ... : ... .. . ... : ... .. . ... : ... .. . ... : ... .. . ...
ROW 36 : ... .. . ... : ... .. . ... : ... .. . ... : ... .. . ... : ... .. . ...
ROW 37 : ... .. . ... : ... .. . ... : ... .. . ... : ... .. . ... : ... .. . ...
ROW 38 : ... .. . ... : ... .. . ... : ... .. . ... : ... .. . ... : ... .. . ...
ROW 39 : ... .. . ... : ... .. . ... : ... .. . ... : ... .. . ... : ... .. . ...
ROW 3A : ... .. . ... : ... .. . ... : ... .. . ... : ... .. . ... : ... .. . ...
ROW 3B : ... .. . ... : ... .. . ... : ... .. . ... : ... .. . ... : ... .. . ...
ROW 3C : ... .. . ... : ... .. . ... : ... .. . ... : ... .. . ... : ... .. . ...
ROW 3D : ... .. . ... : ... .. . ... : ... .. . ... : ... .. . ... : ... .. . ...
ROW 3E : ... .. . ... : ... .. . ... : ... .. . ... : ... .. . ... : ... .. . ...
ROW 3F : ... .. . ... : ... .. . ... : ... .. . ... : ... .. . ... : ... .. . ...
ROW 40 : ... .. . ... : ... .. . ... : ... .. . ... : ... .. . ... : ... .. . ...
ROW 41 : ... .. . ... : ... .. . ... : ... .. . ... : ... .. . ... : ... .. . ...
ROW 42 : ... .. . ... : ... .. . ... : ... .. . ... : ... .. . ... : ... .. . ...
ROW 43 : ... .. . ... : ... .. . ... : ... .. . ... : ... .. . ... : ... .. . ...
ROW 44 : ... .. . ... : ... .. . ... : ... .. . ... : ... .. . ... : ... .. . ...
ROW 45 : ... .. . ... : ... .. . ... : ... .. . ... : ... .. . ... : ... .. . ...
ROW 46 : ... .. . ... : ... .. . ... : ... .. . ... : ... .. . ... : ... .. . ...
ROW 47 : ... .. . ... : ... .. . ... : ... .. . ... : ... .. . ... : ... .. . ...
ROW 48 : ... .. . ... : ... .. . ... : ... .. . ... : ... .. . ... : ... .. . ...
ROW 49 : ... .. . ... : ... .. . ... : ... .. . ... : ... .. . ... : ... .. . ...
ROW 4A : ... .. . ... : ... .. . ... : ... .. . ... : ... .. . ... : ... .. . ...
ROW 4B : ... .. . ... : ... .. . ... : ... .. . ... : ... .. . ... : ... .. . ...
ROW 4C : ... .. . ... : ... .. . ... : ... .. . ... : ... .. . ... : ... .. . ...
ROW 4D : ... .. . ... : ... .. . ... : ... .. . ... : ... .. . ... : ... .. . ...
ROW 4E : ... .. . ... : ... .. . ... : ... .. . ... : ... .. . ... : ... .. . ...
ROW 4F : ... .. . ... : ... .. . ... : ... .. . ... : ... .. . ... : ... .. . ...
ROW 50 : ... .. . ... : ... .. . ... : ... .. . ... : ... .. . ... : ... .. . ...
ROW 51 : ... .. . ... : ... .. . ... : ... .. . ... : ... .. . ... : ... .. . ...
ROW 52 : ... .. . ... : ... .. . ... : ... .. . ... : ... .. . ... : ... .. . ...
ROW 53 : ... .. . ... : ... .. . ... : ... .. . ... : ... .. . ... : ... .. . ...
PATTERN 01
ROW 00 : C#4 14 . ... : ... .. . ... : C-2 01 . ... : 7-# 04 . ... : ... .. . ...
ROW 01 : ... .. . ... : ... .. . ... : --- .. . ... : ... .. . ... : ... .. . ...
ROW 02 : C-4 14 . ... : C#4 15 . ... : C-2 00 . ... : ... .. . ... : ... .. . ...
ROW 03 : ... .. . ... : ... .. . ... : --- .. . ... : ... .. . ... : ... .. . ...
ROW 04 : E-4 14 . ... : C-4 15 . ... : F#2 01 . ... : 9-# 03 . ... : ... .. . ...
ROW 05 : ... .. . ... : ... .. . ... : --- .. . ... : ... .. . ... : ... .. . ...
ROW 06 : F#4 14 . ... : E-4 15 . ... : F#2 00 . ... : ... .. . ... : ... .. . ...
ROW 07 : ... .. . ... : ... .. . ... : --- .. . ... : ... .. . ... : ... .. . ...
ROW 08 : A-4 14 . ... : F#4 15 . ... : F#2 02 . ... : 7-# 04 . ... : ... .. . ...
ROW 09 : ... .. . ... : ... .. . ... : --- .. . ... : ... .. . ... : ... .. . ...
ROW 0A : ... .. . ... : A-4 15 . ... : F#2 00 . ... : ... .. . ... : ... .. . ...
ROW 0B : ... .. . ... : ... .. . ... : --- .. . ... : ... .. . ... : ... .. . ...
ROW 0C : ... .. . ... : ... .. . ... : F#2 01 . ... : 9-# 03 . ... : ... .. . ...
ROW 0D : ... .. . ... : ... .. . ... : --- .. . ... : ... .. . ... : ... .. . ...
ROW 0E : ... .. . ... : ... .. . ... : F#2 00 . ... : ... .. . ... : ... .. . ...
ROW 0F : ... .. . ... : ... .. . ... : --- .. . ... : ... .. . ... : ... .. . ...
ROW 10 : ... .. . ... : ... .. . ... : F#2 02 . ... : 7-# 04 . ... : ... .. . ...
ROW 11 : ... .. . ... : ... .. . ... : --- .. . ... : ... .. . ... : ... .. . ...
ROW 12 : ... .. . ... : ... .. . ... : F#2 00 . ... : ... .. . ... : ... .. . ...
ROW 13 : ... .. . ... : ... .. . ... : --- .. . ... : ... .. . ... : ... .. . ...
ROW 14 : ... .. . ... : ... .. . ... : F#2 01 . ... : 9-# 03 . ... : ... .. . ...
ROW 15 : ... .. . ... : ... .. . ... : --- .. . ... : ... .. . ... : ... .. . ...
ROW 16 : ... .. . ... : ... .. . ... : F#2 00 . ... : ... .. . ... : ... .. . ...
ROW 17 : ... .. . ... : ... .. . ... : --- .. . ... : ... .. . ... : ... .. . ...
ROW 18 : C#4 14 . ... : ... .. . ... : F#2 02 . ... : 7-# 04 . ... : ... .. . ...
ROW 19 : ... .. . ... : ... .. . ... : --- .. . ... : ... .. . ... : ... .. . ...
ROW 1A : C-4 14 . ... : C#4 15 . ... : F#2 00 . ... : ... .. . ... : ... .. . ...
ROW 1B : ... .. . ... : ... .. . ... : --- .. . ... : ... .. . ... : ... .. . ...
ROW 1C : E-4 14 . ... : C-4 15 . ... : F#2 01 . ... : 9-# 03 . ... : ... .. . ...
ROW 1D : ... .. . ... : ... .. . ... : --- .. . ... : ... .. . ... : ... .. . ...
ROW 1E : F#4 14 . ... : E-4 15 . ... : F#2 00 . ... : ... .. . ... : ... .. . ...
ROW 1F : ... .. . ... : ... .. . ... : --- .. . ... : ... .. . ... : ... .. . D00
ROW 20 : A-4 14 . ... : F#4 15 . ... : F#2 02 . ... : 7-# 04 . ... : ... .. . ...
ROW 21 : ... .. . ... : ... .. . ... : --- .. . ... : ... .. . ... : ... .. . ...
ROW 22 : F#4 14 . ... : A-4 15 . ... : F#2 00 . ... : ... .. . ... : ... .. . ...
ROW 23 : E-4 14 . ... : ... .. . ... : --- .. . ... : ... .. . ... : ... .. . ...
ROW 24 : C#4 14 . ... : F#4 15 . ... : F#2 01 . ... : 9-# 03 . ... : ... .. . ...
ROW 25 : ... .. . ... : E-4 15 . ... : --- .. . ... : ... .. . ... : ... .. . ...
ROW 26 : C-4 14 . ... : C#4 15 . ... : F#2 00 . ... : ... .. . ... : ... .. . ...
ROW 27 : ... .. . ... : ... .. . ... : --- .. . ... : ... .. . ... : ... .. . ...
ROW 28 : ... .. . ... : C-4 15 . ... : F#2 02 . ... : 7-# 04 . ... : ... .. . ...
ROW 29 : ... .. . ... : ... .. . ... : --- .. . ... : ... .. . ... : ... .. . ...
ROW 2A : ... .. . ... : ... .. . ... : F#2 00 . ... : ... .. . ... : ... .. . ...
ROW 2B : ... .. . ... : ... .. . ... : --- .. . ... : ... .. . ... : ... .. . ...
ROW 2C : ... .. . ... : ... .. . ... : F#2 01 . ... : 9-# 03 . ... : ... .. . ...
ROW 2D : ... .. . ... : ... .. . ... : --- .. . ... : ... .. . ... : ... .. . ...
ROW 2E : ... .. . ... : ... .. . ... : F#2 00 . ... : ... .. . ... : ... .. . ...
ROW 2F : ... .. . ... : ... .. . ... : --- .. . ... : ... .. . ... : ... .. . ...
ROW 30 : C#4 14 . ... : ... .. . ... : F#2 02 . ... : 7-# 04 . ... : ... .. . ...
ROW 31 : ... .. . ... : ... .. . ... : --- .. . ... : ... .. . ... : ... .. . ...
ROW 32 : C-4 14 . ... : C#4 15 . ... : F#2 00 . ... : ... .. . ... : ... .. . ...
ROW 33 : ... .. . ... : ... .. . ... : --- .. . ... : ... .. . ... : ... .. . ...
ROW 34 : E-4 14 . ... : C-4 15 . ... : F#2 01 . ... : 9-# 03 . ... : ... .. . ...
ROW 35 : ... .. . ... : ... .. . ... : --- .. . ... : ... .. . ... : ... .. . ...
ROW 36 : F#4 14 . ... : E-4 15 . ... : F#2 00 . ... : ... .. . ... : ... .. . ...
ROW 37 : ... .. . ... : ... .. . ... : --- .. . ... : ... .. . ... : ... .. . ...
ROW 38 : A-4 14 . ... : F#4 15 . ... : F#2 02 . ... : 7-# 04 . ... : ... .. . ...
ROW 39 : ... .. . ... : ... .. . ... : --- .. . ... : ... .. . ... : ... .. . ...
ROW 3A : ... .. . ... : A-4 15 . ... : F#2 00 . ... : ... .. . ... : ... .. . ...
ROW 3B : ... .. . ... : ... .. . ... : --- .. . ... : ... .. . ... : ... .. . ...
ROW 3C : ... .. . ... : ... .. . ... : F#2 01 . ... : 9-# 03 . ... : ... .. . ...
ROW 3D : ... .. . ... : ... .. . ... : --- .. . ... : ... .. . ... : ... .. . ...
ROW 3E : ... .. . ... : ... .. . ... : F#2 00 . ... : ... .. . ... : ... .. . ...
ROW 3F : ... .. . ... : ... .. . ... : --- .. . ... : ... .. . ... : ... .. . ...
ROW 40 : ... .. . ... : ... .. . ... : F#2 02 . ... : 7-# 04 . ... : ... .. . ...
ROW 41 : ... .. . ... : ... .. . ... : --- .. . ... : ... .. . ... : ... .. . ...
ROW 42 : ... .. . ... : ... .. . ... : F#2 00 . ... : ... .. . ... : ... .. . ...
ROW 43 : ... .. . ... : ... .. . ... : --- .. . ... : ... .. . ... : ... .. . ...
ROW 44 : ... .. . ... : ... .. . ... : F#2 01 . ... : 9-# 03 . ... : ... .. . ...
ROW 45 : ... .. . ... : ... .. . ... : --- .. . ... : ... .. . ... : ... .. . ...
ROW 46 : ... .. . ... : ... .. . ... : F#2 00 . ... : ... .. . ... : ... .. . ...
ROW 47 : ... .. . ... : ... .. . ... : --- .. . ... : ... .. . ... : ... .. . ...
ROW 48 : C#4 14 . ... : ... .. . ... : F#2 02 . ... : 7-# 04 . ... : ... .. . ...
ROW 49 : ... .. . ... : ... .. . ... : --- .. . ... : ... .. . ... : ... .. . ...
ROW 4A : C-4 14 . ... : C#4 15 . ... : F#2 00 . ... : ... .. . ... : ... .. . ...
ROW 4B : ... .. . ... : ... .. . ... : --- .. . ... : ... .. . ... : ... .. . ...
ROW 4C : E-4 14 . ... : C-4 15 . ... : F#2 01 . ... : 9-# 03 . ... : ... .. . ...
ROW 4D : ... .. . ... : ... .. . ... : --- .. . ... : ... .. . ... : ... .. . ...
ROW 4E : F#4 14 . ... : E-4 15 . ... : F#2 00 . ... : ... .. . ... : ... .. . ...
ROW 4F : ... .. . ... : ... .. . ... : --- .. . ... : ... .. . ... : ... .. . ...
ROW 50 : A-4 14 . ... : F#4 15 . ... : F#2 02 . ... : 7-# 04 . ... : ... .. . ...
ROW 51 : ... .. . ... : ... .. . ... : --- .. . ... : ... .. . ... : ... .. . ...
ROW 52 : F#4 14 . ... : A-4 15 . ... : F#2 00 . ... : ... .. . ... : ... .. . ...
ROW 53 : E-4 14 . D00 : ... .. . ... : --- .. . ... : ... .. . ... : ... .. . ...
PATTERN 02
ROW 00 : C-4 14 . ... : F#4 15 . ... : F#2 01 . ... : 9-# 03 . ... : ... .. . ...
ROW 01 : ... .. . ... : E-4 15 . ... : --- .. . ... : ... .. . ... : ... .. . ...
ROW 02 : C-5 14 . ... : C-4 15 . ... : G#2 00 . ... : ... .. . ... : ... .. . ...
ROW 03 : ... .. . ... : ... .. . ... : --- .. . ... : ... .. . ... : ... .. . ...
ROW 04 : ... .. . ... : C-5 15 . ... : G#2 02 . ... : 7-# 04 . ... : ... .. . ...
ROW 05 : ... .. . ... : ... .. . ... : --- .. . ... : ... .. . ... : ... .. . ...
ROW 06 : ... .. . ... : ... .. . ... : G#2 00 . ... : ... .. . ... : ... .. . ...
ROW 07 : ... .. . ... : ... .. . ... : --- .. . ... : ... .. . ... : ... .. . ...
ROW 08 : ... .. . ... : ... .. . ... : G#2 01 . ... : 9-# 03 . ... : ... .. . ...
ROW 09 : ... .. . ... : ... .. . ... : --- .. . ... : ... .. . ... : ... .. . ...
ROW 0A : ... .. . ... : ... .. . ... : G#2 00 . ... : ... .. . ... : ... .. . ...
ROW 0B : ... .. . ... : ... .. . ... : --- .. . ... : ... .. . ... : ... .. . ...
ROW 0C : ... .. . ... : ... .. . ... : G#2 02 . ... : 7-# 04 . ... : ... .. . ...
ROW 0D : ... .. . ... : ... .. . ... : --- .. . ... : ... .. . ... : ... .. . ...
ROW 0E : ... .. . ... : ... .. . ... : G#2 00 . ... : ... .. . ... : ... .. . ...
ROW 0F : ... .. . ... : ... .. . ... : --- .. . ... : ... .. . ... : ... .. . ...
ROW 10 : F#5 14 . ... : ... .. . ... : G#2 01 . ... : 9-# 03 . ... : ... .. . ...
ROW 11 : D#5 14 . ... : ... .. . ... : --- .. . ... : ... .. . ... : ... .. . ...
ROW 12 : C-5 14 . ... : F#5 15 . ... : G#2 00 . ... : ... .. . ... : ... .. . ...
ROW 13 : ... .. . ... : D#5 15 . ... : --- .. . ... : ... .. . ... : ... .. . ...
ROW 14 : ... .. . ... : C-5 15 . ... : G#2 02 . ... : 7-# 04 . ... : ... .. . ...
ROW 15 : ... .. . ... : ... .. . ... : --- .. . ... : ... .. . ... : ... .. . ...
ROW 16 : A#4 14 . ... : ... .. . ... : G#2 00 . ... : ... .. . ... : ... .. . ...
ROW 17 : ... .. . ... : ... .. . ... : --- .. . ... : ... .. . ... : ... .. . ...
ROW 18 : D-5 14 . ... : A#4 15 . ... : G#2 01 . ... : 9-# 03 . ... : ... .. . ...
ROW 19 : ... .. . ... : ... .. . ... : --- .. . ... : ... .. . ... : ... .. . ...
ROW 1A : ... .. . ... : D-5 15 . ... : G#2 00 . ... : ... .. . ... : ... .. . ...
ROW 1B : ... .. . ... : ... .. . ... : --- .. . ... : ... .. . ... : ... .. . ...
ROW 1C : ... .. . ... : ... .. . ... : G#2 02 . ... : 7-# 04 . ... : ... .. . ...
ROW 1D : ... .. . ... : ... .. . ... : --- .. . ... : ... .. . ... : ... .. . ...
ROW 1E : A-4 14 . ... : ... .. . ... : G#2 00 . ... : ... .. . ... : ... .. . ...
ROW 1F : F#4 14 . ... : ... .. . ... : --- .. . ... : ... .. . ... : ... .. . ...
ROW 20 : C-4 14 . ... : A-4 15 . ... : F#2 01 . ... : 9-# 03 . ... : ... .. . ...
ROW 21 : ... .. . ... : F#4 15 . ... : --- .. . ... : ... .. . ... : ... .. . ...
ROW 22 : ... .. . ... : C-4 15 . ... : F#2 00 . ... : ... .. . ... : ... .. . ...
ROW 23 : ... .. . ... : ... .. . ... : --- .. . ... : ... .. . ... : ... .. . ...
ROW 24 : ... .. . ... : ... .. . ... : F#2 02 . ... : 7-# 04 . ... : ... .. . ...
ROW 25 : ... .. . ... : ... .. . ... : --- .. . ... : ... .. . ... : ... .. . ...
ROW 26 : ... .. . ... : ... .. . ... : F#2 00 . ... : ... .. . ... : ... .. . ...
ROW 27 : ... .. . ... : ... .. . ... : --- .. . ... : ... .. . ... : ... .. . ...
ROW 28 : ... .. . ... : ... .. . ... : C-2 01 . ... : 9-# 03 . ... : ... .. . ...
ROW 29 : ... .. . ... : ... .. . ... : --- .. . ... : ... .. . ... : ... .. . ...
ROW 2A : ... .. . ... : ... .. . ... : C-2 00 . ... : ... .. . ... : ... .. . ...
ROW 2B : ... .. . ... : ... .. . D00 : --- .. . ... : ... .. . ... : ... .. . ...
ROW 2C : ... .. . ... : ... .. . ... : ... .. . ... : 7-# 04 . ... : ... .. . ...
ROW 2D : ... .. . ... : ... .. . ... : ... .. . ... : ... .. . ... : ... .. . ...
ROW 2E : ... .. . ... : ... .. . ... : ... .. . ... : ... .. . ... : ... .. . ...
ROW 2F : ... .. . ... : ... .. . ... : ... .. . ... : ... .. . ... : ... .. . ...
ROW 30 : ... .. . ... : ... .. . ... : ... .. . ... : 9-# 03 . ... : ... .. . ...
ROW 31 : ... .. . ... : ... .. . ... : ... .. . ... : ... .. . ... : ... .. . ...
ROW 32 : ... .. . ... : ... .. . ... : ... .. . ... : ... .. . ... : ... .. . ...
ROW 33 : ... .. . ... : ... .. . ... : ... .. . ... : ... .. . ... : ... .. . ...
ROW 34 : ... .. . ... : ... .. . ... : ... .. . ... : 7-# 04 . ... : ... .. . ...
ROW 35 : ... .. . ... : ... .. . ... : ... .. . ... : ... .. . ... : ... .. . ...
ROW 36 : ... .. . ... : ... .. . ... : ... .. . ... : ... .. . ... : ... .. . ...
ROW 37 : ... .. . ... : ... .. . ... : ... .. . ... : ... .. . ... : ... .. . ...
ROW 38 : ... .. . ... : ... .. . ... : ... .. . ... : 9-# 03 . ... : ... .. . ...
ROW 39 : ... .. . ... : ... .. . ... : ... .. . ... : ... .. . ... : ... .. . ...
ROW 3A : ... .. . ... : ... .. . ... : ... .. . ... : ... .. . ... : ... .. . ...
ROW 3B : ... .. . ... : ... .. . ... : ... .. . ... : ... .. . ... : ... .. . ...
ROW 3C : ... .. . ... : ... .. . ... : ... .. . ... : 7-# 04 . ... : ... .. . ...
ROW 3D : ... .. . ... : ... .. . ... : ... .. . ... : ... .. . ... : ... .. . ...
ROW 3E : ... .. . ... : ... .. . ... : ... .. . ... : ... .. . ... : ... .. . ...
ROW 3F : ... .. . ... : ... .. . ... : ... .. . ... : ... .. . ... : ... .. . ...
ROW 40 : ... .. . ... : ... .. . ... : ... .. . ... : 9-# 03 . ... : ... .. . ...
ROW 41 : ... .. . ... : ... .. . ... : ... .. . ... : ... .. . ... : ... .. . ...
ROW 42 : ... .. . ... : ... .. . ... : ... .. . ... : ... .. . ... : ... .. . ...
ROW 43 : ... .. . ... : ... .. . ... : ... .. . ... : ... .. . ... : ... .. . ...
ROW 44 : ... .. . ... : ... .. . ... : ... .. . ... : 7-# 04 . ... : ... .. . ...
ROW 45 : ... .. . ... : ... .. . ... : ... .. . ... : ... .. . ... : ... .. . ...
ROW 46 : ... .. . ... : ... .. . ... : ... .. . ... : ... .. . ... : ... .. . ...
ROW 47 : ... .. . ... : ... .. . ... : ... .. . ... : ... .. . ... : ... .. . ...
ROW 48 : ... .. . ... : ... .. . ... : ... .. . ... : 9-# 03 . ... : ... .. . ...
ROW 49 : ... .. . ... : ... .. . ... : ... .. . ... : ... .. . ... : ... .. . ...
ROW 4A : ... .. . ... : ... .. . ... : ... .. . ... : ... .. . ... : ... .. . ...
ROW 4B : ... .. . ... : ... .. . ... : ... .. . ... : ... .. . ... : ... .. . ...
ROW 4C : ... .. . ... : ... .. . ... : ... .. . ... : 7-# 04 . ... : ... .. . ...
ROW 4D : ... .. . ... : ... .. . ... : ... .. . ... : ... .. . ... : ... .. . ...
ROW 4E : ... .. . ... : ... .. . ... : ... .. . ... : ... .. . ... : ... .. . ...
ROW 4F : ... .. . ... : ... .. . ... : ... .. . ... : ... .. . ... : ... .. . ...
ROW 50 : ... .. . ... : ... .. . ... : ... .. . ... : ... .. . ... : ... .. . ...
ROW 51 : ... .. . ... : ... .. . ... : ... .. . ... : ... .. . ... : ... .. . ...
ROW 52 : ... .. . ... : ... .. . ... : ... .. . ... : ... .. . ... : ... .. . ...
ROW 53 : ... .. . ... : ... .. . ... : ... .. . ... : ... .. . ... : ... .. . ...
PATTERN 03
ROW 00 : E-5 14 . ... : A-4 15 . ... : D-2 01 . ... : ... .. . ... : ... .. . ...
ROW 01 : ... .. . ... : F#4 15 . ... : --- .. . ... : ... .. . ... : ... .. . ...
ROW 02 : ... .. . ... : E-5 15 . ... : D-2 00 . ... : ... .. . ... : ... .. . ...
ROW 03 : ... .. . ... : ... .. . ... : --- .. . ... : ... .. . ... : ... .. . ...
ROW 04 : ... .. . ... : ... .. . ... : D-2 02 . ... : ... .. . ... : ... .. . ...
ROW 05 : ... .. . ... : ... .. . ... : --- .. . ... : ... .. . ... : ... .. . ...
ROW 06 : ... .. . ... : ... .. . ... : D-2 00 . ... : ... .. . ... : ... .. . ...
ROW 07 : ... .. . ... : ... .. . ... : --- .. . ... : ... .. . ... : ... .. . ...
ROW 08 : ... .. . ... : ... .. . ... : D-2 01 . ... : ... .. . ... : ... .. . ...
ROW 09 : ... .. . ... : ... .. . ... : --- .. . ... : ... .. . ... : ... .. . ...
ROW 0A : ... .. . ... : ... .. . ... : D-2 00 . ... : ... .. . ... : ... .. . ...
ROW 0B : ... .. . ... : ... .. . ... : --- .. . ... : ... .. . ... : ... .. . ...
ROW 0C : ... .. . ... : ... .. . ... : D-2 02 . ... : ... .. . ... : ... .. . ...
ROW 0D : ... .. . ... : ... .. . ... : --- .. . ... : ... .. . ... : ... .. . ...
ROW 0E : F#5 14 . ... : ... .. . ... : D-2 00 . ... : ... .. . ... : ... .. . ...
ROW 0F : D#5 14 . ... : ... .. . ... : --- .. . ... : ... .. . ... : ... .. . ...
ROW 10 : C-5 14 . ... : F#5 15 . ... : G#2 01 . ... : ... .. . ... : ... .. . ...
ROW 11 : ... .. . ... : D#5 15 . ... : --- .. . ... : ... .. . ... : ... .. . ...
ROW 12 : ... .. . ... : C-5 15 . ... : G#2 00 . ... : ... .. . ... : ... .. . ...
ROW 13 : ... .. . ... : ... .. . ... : --- .. . ... : ... .. . ... : ... .. . ...
ROW 14 : ... .. . ... : ... .. . ... : G#2 02 . ... : ... .. . ... : ... .. . ...
ROW 15 : ... .. . ... : ... .. . ... : --- .. . ... : ... .. . ... : ... .. . ...
ROW 16 : A#4 14 . ... : ... .. . ... : G#2 00 . ... : ... .. . ... : ... .. . ...
ROW 17 : ... .. . ... : ... .. . ... : --- .. . ... : ... .. . ... : ... .. . ...
ROW 18 : D-5 14 . ... : A#4 15 . ... : G#2 01 . ... : ... .. . ... : ... .. . ...
ROW 19 : ... .. . ... : ... .. . ... : --- .. . ... : ... .. . ... : ... .. . ...
ROW 1A : ... .. . ... : D-5 15 . ... : G#2 00 . ... : ... .. . ... : ... .. . ...
ROW 1B : ... .. . ... : ... .. . ... : --- .. . ... : ... .. . ... : ... .. . ...
ROW 1C : ... .. . ... : ... .. . ... : G#2 02 . ... : ... .. . ... : ... .. . ...
ROW 1D : ... .. . ... : ... .. . ... : --- .. . ... : ... .. . ... : ... .. . ...
ROW 1E : A-4 14 . ... : ... .. . ... : G#2 00 . ... : ... .. . ... : ... .. . ...
ROW 1F : F#4 14 . ... : ... .. . ... : --- .. . ... : ... .. . ... : ... .. . ...
ROW 20 : E-5 14 . ... : A-4 15 . ... : D-2 01 . ... : ... .. . ... : ... .. . ...
ROW 21 : ... .. . ... : F#4 15 . ... : --- .. . ... : ... .. . ... : ... .. . ...
ROW 22 : ... .. . ... : E-5 15 . ... : D-2 00 . ... : ... .. . ... : ... .. . ...
ROW 23 : ... .. . ... : ... .. . ... : --- .. . ... : ... .. . ... : ... .. . ...
ROW 24 : ... .. . ... : ... .. . ... : D-2 02 . ... : ... .. . ... : ... .. . ...
ROW 25 : ... .. . ... : ... .. . ... : --- .. . ... : ... .. . ... : ... .. . ...
ROW 26 : ... .. . ... : ... .. . ... : D-2 00 . ... : ... .. . ... : ... .. . ...
ROW 27 : ... .. . ... : ... .. . ... : --- .. . ... : ... .. . ... : ... .. . ...
ROW 28 : ... .. . ... : ... .. . ... : D-2 01 . ... : ... .. . ... : ... .. . ...
ROW 29 : ... .. . ... : ... .. . ... : --- .. . ... : ... .. . ... : ... .. . ...
ROW 2A : ... .. . ... : ... .. . ... : D-2 00 . ... : ... .. . ... : ... .. . ...
ROW 2B : ... .. . ... : ... .. . ... : --- .. . ... : ... .. . ... : ... .. . ...
ROW 2C : ... .. . ... : ... .. . ... : D-2 02 . ... : ... .. . ... : ... .. . ...
ROW 2D : ... .. . ... : ... .. . ... : --- .. . ... : ... .. . ... : ... .. . ...
ROW 2E : F#5 14 . ... : ... .. . ... : D-2 00 . ... : ... .. . ... : ... .. . ...
ROW 2F : E-5 14 . ... : ... .. . ... : --- .. . ... : ... .. . ... : ... .. . ...
ROW 30 : C-5 14 . ... : F#5 15 . ... : G#2 01 . ... : ... .. . ... : ... .. . ...
ROW 31 : ... .. . ... : E-5 15 . ... : --- .. . ... : ... .. . ... : ... .. . ...
ROW 32 : ... .. . ... : C-5 15 . ... : G#2 00 . ... : ... .. . ... : ... .. . ...
ROW 33 : ... .. . ... : ... .. . ... : --- .. . ... : ... .. . ... : ... .. . ...
ROW 34 : ... .. . ... : ... .. . ... : G#2 02 . ... : ... .. . ... : ... .. . ...
ROW 35 : ... .. . ... : ... .. . ... : --- .. . ... : ... .. . ... : ... .. . ...
ROW 36 : A#4 14 . ... : ... .. . ... : G#2 00 . ... : ... .. . ... : ... .. . ...
ROW 37 : ... .. . ... : ... .. . ... : --- .. . ... : ... .. . ... : ... .. . ...
ROW 38 : D-5 14 . ... : A#4 15 . ... : G#2 01 . ... : ... .. . ... : ... .. . ...
ROW 39 : ... .. . ... : ... .. . ... : --- .. . ... : ... .. . ... : ... .. . ...
ROW 3A : ... .. . ... : D-5 15 . ... : G#2 00 . ... : ... .. . ... : ... .. . ...
ROW 3B : ... .. . ... : ... .. . ... : --- .. . ... : ... .. . ... : ... .. . ...
ROW 3C : ... .. . ... : ... .. . ... : G#2 02 . ... : ... .. . ... : ... .. . ...
ROW 3D : ... .. . ... : ... .. . ... : --- .. . ... : ... .. . ... : ... .. . ...
ROW 3E : A-4 14 . ... : ... .. . ... : G#2 00 . ... : ... .. . ... : ... .. . ...
ROW 3F : F#4 14 . ... : ... .. . ... : --- .. . ... : ... .. . ... : ... .. . ...
ROW 40 : C-4 14 . ... : A-4 15 . ... : F#2 01 . ... : ... .. . ... : ... .. . ...
ROW 41 : ... .. . ... : F#4 15 . ... : --- .. . ... : ... .. . ... : ... .. . ...
ROW 42 : ... .. . ... : C-4 15 . ... : F#2 00 . ... : ... .. . ... : ... .. . ...
ROW 43 : ... .. . ... : ... .. . ... : --- .. . ... : ... .. . ... : ... .. . ...
ROW 44 : ... .. . ... : ... .. . ... : F#2 02 . ... : ... .. . ... : ... .. . ...
ROW 45 : ... .. . ... : ... .. . ... : --- .. . ... : ... .. . ... : ... .. . ...
ROW 46 : ... .. . ... : ... .. . ... : F#2 00 . ... : ... .. . ... : ... .. . ...
ROW 47 : ... .. . ... : ... .. . ... : --- .. . ... : ... .. . ... : ... .. . ...
ROW 48 : ... .. . ... : ... .. . ... : F#2 01 . ... : ... .. . ... : ... .. . ...
ROW 49 : ... .. . ... : ... .. . ... : --- .. . ... : ... .. . ... : ... .. . ...
ROW 4A : ... .. . ... : ... .. . ... : F#2 00 . ... : ... .. . ... : ... .. . ...
ROW 4B : ... .. . ... : ... .. . ... : --- .. . ... : ... .. . ... : ... .. . ...
ROW 4C : ... .. . ... : ... .. . ... : F#2 02 . ... : ... .. . ... : ... .. . ...
ROW 4D : ... .. . ... : ... .. . ... : --- .. . ... : ... .. . ... : ... .. . ...
ROW 4E : ... .. . ... : ... .. . ... : F#2 00 . ... : ... .. . ... : ... .. . ...
ROW 4F : ... .. . ... : ... .. . ... : --- .. . D00 : ... .. . ... : ... .. . ...
ROW 50 : ... .. . ... : ... .. . ... : ... .. . ... : ... .. . ... : ... .. . ...
ROW 51 : ... .. . ... : ... .. . ... : ... .. . ... : ... .. . ... : ... .. . ...
ROW 52 : ... .. . ... : ... .. . ... : ... .. . ... : ... .. . ... : ... .. . ...
ROW 53 : ... .. . ... : ... .. . ... : ... .. . ... : ... .. . ... : ... .. . ...

# track BOOKMARKS block

# track HEADER block
TRACK  86   7 150 "X Char Select (Genesis)"
COLUMNS : 1 1 1 1 1

# track FRAMES block
ORDER 00 : 00 00 00 00 00

# track PATTERNS block
PATTERN 00
ROW 00 : --- .. . ... : ... .. . ... : E-2 01 . ... : 9-# 03 . ... : ... .. . ...
ROW 01 : ... .. . ... : ... .. . ... : ... .. . S05 : ... .. . ... : ... .. . ...
ROW 02 : ... .. . ... : --- .. . ... : E-2 00 . ... : ... .. . ... : ... .. . ...
ROW 03 : ... .. . ... : ... .. . ... : --- .. . ... : ... .. . ... : ... .. . ...
ROW 04 : ... .. . ... : ... .. . ... : E-2 01 . ... : 9-# 03 . ... : ... .. . ...
ROW 05 : ... .. . ... : ... .. . ... : ... .. . S05 : ... .. . ... : ... .. . ...
ROW 06 : ... .. . ... : ... .. . ... : E-2 00 . ... : ... .. . ... : ... .. . ...
ROW 07 : ... .. . ... : ... .. . ... : --- .. . ... : ... .. . ... : ... .. . ...
ROW 08 : B-3 14 . ... : ... .. . ... : E-2 01 . ... : 9-# 03 . ... : ... .. . ...
ROW 09 : ... .. . ... : ... .. . ... : ... .. . S05 : ... .. . ... : ... .. . ...
ROW 0A : A#3 14 . ... : B-3 15 . ... : E-2 00 . ... : ... .. . ... : ... .. . ...
ROW 0B : ... .. . ... : ... .. . ... : --- .. . ... : ... .. . ... : ... .. . ...
ROW 0C : D-4 14 . ... : A#3 15 . ... : E-2 01 . ... : 9-# 03 . ... : ... .. . ...
ROW 0D : ... .. . ... : ... .. . ... : --- .. . ... : ... .. . ... : ... .. . ...
ROW 0E : E-4 14 . ... : D-4 15 . ... : E-2 00 . ... : ... .. . ... : ... .. . ...
ROW 0F : ... .. . ... : ... .. . ... : ... .. . S05 : ... .. . ... : ... .. . ...
ROW 10 : G-4 14 . ... : E-4 15 . ... : E-2 01 . ... : 9-# 03 . ... : ... .. . ...
ROW 11 : ... .. . ... : ... .. . ... : --- .. . ... : ... .. . ... : ... .. . ...
ROW 12 : ... .. . ... : G-4 15 . ... : E-2 00 . ... : ... .. . ... : ... .. . ...
ROW 13 : ... .. . ... : ... .. . ... : --- .. . ... : ... .. . ... : ... .. . ...
ROW 14 : ... .. . ... : ... .. . ... : E-2 01 . ... : 9-# 03 . ... : ... .. . ...
ROW 15 : ... .. . ... : ... .. . ... : ... .. . S05 : ... .. . ... : ... .. . ...
ROW 16 : ... .. . ... : ... .. . ... : E-2 00 . ... : ... .. . ... : ... .. . ...
ROW 17 : ... .. . ... : ... .. . ... : --- .. . ... : ... .. . ... : ... .. . ...
ROW 18 : ... .. . ... : ... .. . ... : E-2 01 . ... : 9-# 03 . ... : ... .. . ...
ROW 19 : ... .. . ... : ... .. . ... : ... .. . S05 : ... .. . ... : ... .. . ...
ROW 1A : ... .. . ... : ... .. . ... : E-2 00 . ... : ... .. . ... : ... .. . ...
ROW 1B : ... .. . ... : ... .. . ... : --- .. . ... : ... .. . ... : ... .. . ...
ROW 1C : ... .. . ... : ... .. . ... : E-2 01 . ... : 9-# 03 . ... : ... .. . ...
ROW 1D : ... .. . ... : ... .. . ... : --- .. . ... : ... .. . ... : ... .. . ...
ROW 1E : ... .. . ... : ... .. . ... : E-2 00 . ... : ... .. . ... : ... .. . ...
ROW 1F : ... .. . ... : ... .. . ... : --- .. . ... : ... .. . ... : ... .. . ...
ROW 20 : --- .. . ... : ... .. . ... : E-2 01 . ... : 9-# 03 . ... : ... .. . ...
ROW 21 : ... .. . ... : ... .. . ... : ... .. . S05 : ... .. . ... : ... .. . ...
ROW 22 : ... .. . ... : --- .. . ... : E-2 00 . ... : ... .. . ... : ... .. . ...
ROW 23 : ... .. . ... : ... .. . ... : --- .. . ... : ... .. . ... : ... .. . ...
ROW 24 : ... .. . ... : ... .. . ... : E-2 01 . ... : 9-# 03 . ... : ... .. . ...
ROW 25 : ... .. . ... : ... .. . ... : ... .. . S05 : ... .. . ... : ... .. . ...
ROW 26 : ... .. . ... : ... .. . ... : E-2 00 . ... : ... .. . ... : ... .. . ...
ROW 27 : ... .. . ... : ... .. . ... : --- .. . ... : ... .. . ... : ... .. . ...
ROW 28 : B-3 14 . ... : ... .. . ... : E-2 01 . ... : 9-# 03 . ... : ... .. . ...
ROW 29 : ... .. . ... : ... .. . ... : ... .. . S05 : ... .. . ... : ... .. . ...
ROW 2A : A#3 14 . ... : B-3 15 . ... : E-2 00 . ... : ... .. . ... : ... .. . ...
ROW 2B : ... .. . ... : ... .. . ... : --- .. . ... : ... .. . ... : ... .. . ...
ROW 2C : D-4 14 . ... : A#3 15 . ... : E-2 01 . ... : 9-# 03 . ... : ... .. . ...
ROW 2D : ... .. . ... : ... .. . ... : --- .. . ... : ... .. . ... : ... .. . ...
ROW 2E : E-4 14 . ... : D-4 15 . ... : E-2 00 . ... : ... .. . ... : ... .. . ...
ROW 2F : ... .. . ... : ... .. . ... : ... .. . S05 : ... .. . ... : ... .. . ...
ROW 30 : G-4 14 . ... : E-4 15 . ... : E-2 01 . ... : 9-# 03 . ... : ... .. . ...
ROW 31 : ... .. . ... : ... .. . ... : --- .. . ... : ... .. . ... : ... .. . ...
ROW 32 : E-4 14 . ... : G-4 15 . ... : E-2 00 . ... : ... .. . ... : ... .. . ...
ROW 33 : D-4 14 . ... : ... .. . ... : --- .. . ... : ... .. . ... : ... .. . ...
ROW 34 : B-3 14 . ... : E-4 15 . ... : E-2 01 . ... : 9-# 03 . ... : ... .. . ...
ROW 35 : ... .. . ... : D-4 15 . ... : ... .. . S05 : ... .. . ... : ... .. . ...
ROW 36 : A#3 14 . ... : B-3 15 . ... : F#2 01 . ... : 9-# 03 . ... : ... .. . ...
ROW 37 : ... .. . ... : ... .. . ... : ... .. . S05 : ... .. . ... : ... .. . ...
ROW 38 : ... .. . ... : A#3 15 . ... : F#2 00 . ... : ... .. . ... : ... .. . ...
ROW 39 : ... .. . ... : ... .. . ... : --- .. . ... : ... .. . ... : ... .. . ...
ROW 3A : ... .. . ... : ... .. . ... : F#2 01 . ... : 9-# 03 . ... : ... .. . ...
ROW 3B : ... .. . ... : ... .. . ... : ... .. . S05 : ... .. . ... : ... .. . ...
ROW 3C : ... .. . ... : ... .. . ... : F#2 00 . ... : ... .. . ... : ... .. . ...
ROW 3D : ... .. . ... : ... .. . ... : --- .. . ... : ... .. . ... : ... .. . ...
ROW 3E : ... .. . ... : ... .. . ... : F#2 01 . ... : 9-# 03 . ... : ... .. . ...
ROW 3F : ... .. . ... : ... .. . ... : ... .. . S05 : ... .. . ... : ... .. . ...
ROW 40 : --- .. . ... : ... .. . ... : F#2 00 . ... : ... .. . ... : ... .. . ...
ROW 41 : ... .. . ... : ... .. . ... : --- .. . ... : ... .. . ... : ... .. . ...
ROW 42 : ... .. . ... : --- .. . ... : F#2 01 . ... : 9-# 03 . ... : ... .. . ...
ROW 43 : ... .. . ... : ... .. . ... : --- .. . ... : ... .. . ... : ... .. . ...
ROW 44 : C#5 14 . ... : ... .. . ... : F#2 00 . ... : ... .. . ... : ... .. . ...
ROW 45 : B-4 14 . ... : ... .. . ... : ... .. . S05 : ... .. . ... : ... .. . ...
ROW 46 : G-4 14 . ... : C#5 15 . ... : F#2 01 . ... : 9-# 03 . ... : ... .. . ...
ROW 47 : ... .. . ... : B-4 15 . ... : --- .. . ... : ... .. . ... : ... .. . ...
ROW 48 : ... .. . ... : G-4 15 . ... : F#2 00 . ... : ... .. . ... : ... .. . ...
ROW 49 : ... .. . ... : ... .. . ... : --- .. . ... : ... .. . ... : ... .. . ...
ROW 4A : E-4 14 . ... : ... .. . ... : F#2 01 . ... : 9-# 03 . ... : ... .. . ...
ROW 4B : ... .. . ... : ... .. . ... : ... .. . S05 : ... .. . ... : ... .. . ...
ROW 4C : A#4 14 . ... : E-4 15 . ... : G-2 00 . ... : ... .. . ... : ... .. . ...
ROW 4D : ... .. . ... : ... .. . ... : --- .. . ... : ... .. . ... : ... .. . ...
ROW 4E : ... .. . ... : A#4 15 . ... : G-2 01 . ... : 9-# 03 . ... : ... .. . ...
ROW 4F : ... .. . ... : ... .. . ... : ... .. . S05 : ... .. . ... : ... .. . ...
ROW 50 : ... .. . ... : ... .. . ... : G-2 00 . ... : ... .. . ... : ... .. . ...
ROW 51 : ... .. . ... : ... .. . ... : --- .. . ... : ... .. . ... : ... .. . ...
ROW 52 : ... .. . ... : ... .. . ... : G-2 01 . ... : 9-# 03 . ... : ... .. . ...
ROW 53 : ... .. . ... : ... .. . ... : --- .. . ... : ... .. . ... : ... .. . ...
ROW 54 : ... .. . ... : ... .. . ... : G-2 00 . ... : ... .. . ... : ... .. . ...
ROW 55 : ... .. . ... : ... .. . ... : --- .. . ... : ... .. . ... : ... .. . ...

# track BOOKMARKS block

# track HEADER block
TRACK  32   7 150 "Portal / Khan's Arena"
COLUMNS : 1 1 1 1 1

# track FRAMES block
ORDER 00 : 00 00 00 00 00
ORDER 01 : 01 00 01 01 00
ORDER 02 : 02 00 01 01 00
ORDER 03 : 03 00 01 01 00
ORDER 04 : 02 00 01 01 00
ORDER 05 : 03 00 01 01 00
ORDER 06 : 04 00 01 01 00
ORDER 07 : 05 00 01 01 00
ORDER 08 : 06 00 01 01 00
ORDER 09 : 05 00 01 01 00
ORDER 0A : 07 00 01 01 00

# track PATTERNS block
PATTERN 00
ROW 00 : ... .. . ... : C#1 0C . ... : ... .. . ... : 4-# 06 . ... : ... .. . ...
ROW 01 : ... .. . ... : ... .. . ... : ... .. . ... : ... .. . ... : ... .. . ...
ROW 02 : ... .. . ... : C#2 0C . ... : ... .. . ... : C-# 07 . ... : ... .. . ...
ROW 03 : ... .. . ... : G-1 0C . ... : ... .. . ... : C-# 07 . ... : ... .. . ...
ROW 04 : ... .. . ... : ... .. . ... : D-2 01 . S06 : 9-# 03 . ... : ... .. . ...
ROW 05 : ... .. . ... : G#1 0C . ... : ... .. . ... : ... .. . ... : ... .. . ...
ROW 06 : ... .. . ... : ... .. . ... : ... .. . ... : ... .. . ... : ... .. . ...
ROW 07 : ... .. . ... : B-1 0C . ... : ... .. . ... : 3-# 06 . ... : ... .. . ...
ROW 08 : ... .. . ... : ... .. . ... : ... .. . ... : ... .. . ... : ... .. . ...
ROW 09 : ... .. . ... : A#1 0C . ... : ... .. . ... : 3-# 06 . ... : ... .. . ...
ROW 0A : ... .. . ... : G#1 0C . ... : ... .. . ... : ... .. . ... : ... .. . ...
ROW 0B : ... .. . ... : G-1 0C . ... : ... .. . ... : ... .. . ... : ... .. . ...
ROW 0C : ... .. . ... : ... .. . ... : D-2 01 . S05 : 9-# 03 . ... : ... .. . ...
ROW 0D : ... .. . ... : E-1 0C . ... : ... .. . ... : ... .. . ... : ... .. . ...
ROW 0E : ... .. . ... : B-0 0C . ... : ... .. . ... : ... .. . ... : ... .. . ...
ROW 0F : ... .. . ... : ... .. . ... : ... .. . ... : ... .. . ... : ... .. . ...
ROW 10 : ... .. . ... : C#1 0C . ... : ... .. . ... : 4-# 06 . ... : ... .. . ...
ROW 11 : ... .. . ... : ... .. . ... : ... .. . ... : ... .. . ... : ... .. . ...
ROW 12 : ... .. . ... : C#2 0C . ... : ... .. . ... : C-# 07 . ... : ... .. . ...
ROW 13 : ... .. . ... : G-1 0C . ... : ... .. . ... : C-# 07 . ... : ... .. . ...
ROW 14 : ... .. . ... : ... .. . ... : D-2 01 . S05 : 9-# 03 . ... : ... .. . ...
ROW 15 : ... .. . ... : G#1 0C . ... : ... .. . ... : ... .. . ... : ... .. . ...
ROW 16 : ... .. . ... : ... .. . ... : ... .. . ... : C-# 07 . ... : ... .. . ...
ROW 17 : ... .. . ... : B-1 0C . ... : ... .. . ... : C-# 07 . ... : ... .. . ...
ROW 18 : ... .. . ... : ... .. . ... : D-2 01 . S05 : 9-# 03 . ... : ... .. . ...
ROW 19 : ... .. . ... : A#1 0C . ... : ... .. . ... : ... .. . ... : ... .. . ...
ROW 1A : ... .. . ... : G#1 0C . ... : ... .. . ... : 3-# 06 . ... : ... .. . ...
ROW 1B : ... .. . ... : G-1 0C . ... : D-2 01 . S05 : 9-# 03 . ... : ... .. . ...
ROW 1C : ... .. . ... : ... .. . ... : D-2 02 . S02 : 7-# 04 . ... : ... .. . ...
ROW 1D : ... .. . ... : E-1 0C . ... : ... .. . ... : 3-# 0B . ... : ... .. . ...
ROW 1E : ... .. . ... : B-0 0C . ... : ... .. . ... : 2-# 0B . ... : ... .. . ...
ROW 1F : ... .. . ... : ... .. . ... : ... .. . ... : ... .. . ... : ... .. . ...
PATTERN 01
ROW 00 : F#3 08 . ... : ... .. . ... : C#2 01 . ... : 9-# 03 . ... : ... .. . ...
ROW 01 : ... .. . ... : ... .. . ... : ... .. . ... : ... .. . ... : ... .. . ...
ROW 02 : ... .. . ... : ... .. . ... : --- .. . ... : C-# 07 . ... : ... .. . ...
ROW 03 : ... .. . ... : ... .. . ... : F-2 00 . ... : C-# 07 . ... : ... .. . ...
ROW 04 : ... .. . ... : ... .. . ... : F-2 02 . ... : 7-# 04 . ... : ... .. . ...
ROW 05 : ... .. . ... : ... .. . ... : --- .. . ... : ... .. . ... : ... .. . ...
ROW 06 : ... .. . ... : ... .. . ... : F-2 01 . ... : 9-# 03 . ... : ... .. . ...
ROW 07 : ... .. . ... : ... .. . ... : ... .. . ... : ... .. . ... : ... .. . ...
ROW 08 : ... .. . ... : ... .. . ... : F#2 00 . ... : 4-# 12 . ... : ... .. . ...
ROW 09 : ... .. . ... : ... .. . ... : ... .. . ... : 4-# 12 . ... : ... .. . ...
ROW 0A : ... .. . ... : ... .. . ... : C-2 01 . S05 : 3-# 12 . ... : ... .. . ...
ROW 0B : ... .. . ... : ... .. . ... : G#2 00 . ... : 3-# 12 . ... : ... .. . ...
ROW 0C : ... .. . ... : ... .. . ... : G#2 02 . ... : 7-# 04 . ... : ... .. . ...
ROW 0D : ... .. . ... : ... .. . ... : G#2 02 . S02 : 7-# 04 . ... : ... .. . ...
ROW 0E : ... .. . ... : ... .. . ... : B-1 01 . ... : ... .. . ... : ... .. . ...
ROW 0F : ... .. . ... : ... .. . ... : ... .. . ... : ... .. . ... : ... .. . ...
ROW 10 : ... .. . ... : ... .. . ... : C#2 01 . ... : 9-# 03 . ... : ... .. . ...
ROW 11 : ... .. . ... : ... .. . ... : ... .. . ... : ... .. . ... : ... .. . ...
ROW 12 : ... .. . ... : ... .. . ... : --- .. . ... : C-# 07 . ... : ... .. . ...
ROW 13 : ... .. . ... : ... .. . ... : F-2 00 . ... : C-# 07 . ... : ... .. . ...
ROW 14 : ... .. . ... : ... .. . ... : F-2 02 . ... : 7-# 04 . ... : ... .. . ...
ROW 15 : ... .. . ... : ... .. . ... : --- .. . ... : ... .. . ... : ... .. . ...
ROW 16 : ... .. . ... : ... .. . ... : F-2 01 . ... : 9-# 03 . ... : ... .. . ...
ROW 17 : ... .. . ... : ... .. . ... : ... .. . ... : ... .. . ... : ... .. . ...
ROW 18 : ... .. . ... : ... .. . ... : F#2 00 . ... : 4-# 12 . ... : ... .. . ...
ROW 19 : ... .. . ... : ... .. . ... : ... .. . ... : 4-# 12 . ... : ... .. . ...
ROW 1A : ... .. . ... : ... .. . ... : C-2 01 . S05 : 3-# 12 . ... : ... .. . ...
ROW 1B : ... .. . ... : ... .. . ... : G#2 00 . ... : 3-# 12 . ... : ... .. . ...
ROW 1C : ... .. . ... : ... .. . ... : G#2 02 . ... : 7-# 04 . ... : ... .. . ...
ROW 1D : ... .. . ... : ... .. . ... : G#2 02 . S02 : 7-# 04 . ... : ... .. . ...
ROW 1E : ... .. . ... : ... .. . ... : B-1 01 . ... : ... .. . ... : ... .. . ...
ROW 1F : ... .. . ... : ... .. . ... : ... .. . ... : ... .. . ... : ... .. . ...
PATTERN 02
ROW 00 : ... .. . ... : ... .. . ... : ... .. . ... : ... .. . ... : ... .. . ...
ROW 01 : ... .. . ... : ... .. . ... : ... .. . ... : ... .. . ... : ... .. . ...
ROW 02 : ... .. . ... : ... .. . ... : ... .. . ... : ... .. . ... : ... .. . ...
ROW 03 : ... .. . ... : ... .. . ... : ... .. . ... : ... .. . ... : ... .. . ...
ROW 04 : C#4 08 . ... : ... .. . ... : ... .. . ... : ... .. . ... : ... .. . ...
ROW 05 : B-3 08 . ... : ... .. . ... : ... .. . ... : ... .. . ... : ... .. . ...
ROW 06 : G-3 08 . ... : ... .. . ... : ... .. . ... : ... .. . ... : ... .. . ...
ROW 07 : E-3 08 . ... : ... .. . ... : ... .. . ... : ... .. . ... : ... .. . ...
ROW 08 : A#3 08 . ... : ... .. . ... : ... .. . ... : ... .. . ... : ... .. . ...
ROW 09 : ... .. . ... : ... .. . ... : ... .. . ... : ... .. . ... : ... .. . ...
ROW 0A : ... .. . ... : ... .. . ... : ... .. . ... : ... .. . ... : ... .. . ...
ROW 0B : ... .. . ... : ... .. . ... : ... .. . ... : ... .. . ... : ... .. . ...
ROW 0C : ... .. . ... : ... .. . ... : ... .. . ... : ... .. . ... : ... .. . ...
ROW 0D : ... .. . ... : ... .. . ... : ... .. . ... : ... .. . ... : ... .. . ...
ROW 0E : ... .. . ... : ... .. . ... : ... .. . ... : ... .. . ... : ... .. . ...
ROW 0F : ... .. . ... : ... .. . ... : ... .. . ... : ... .. . ... : ... .. . ...
ROW 10 : ... .. . ... : ... .. . ... : ... .. . ... : ... .. . ... : ... .. . ...
ROW 11 : ... .. . ... : ... .. . ... : ... .. . ... : ... .. . ... : ... .. . ...
ROW 12 : ... .. . ... : ... .. . ... : ... .. . ... : ... .. . ... : ... .. . ...
ROW 13 : ... .. . ... : ... .. . ... : ... .. . ... : ... .. . ... : ... .. . ...
ROW 14 : ... .. . ... : ... .. . ... : ... .. . ... : ... .. . ... : ... .. . ...
ROW 15 : ... .. . ... : ... .. . ... : ... .. . ... : ... .. . ... : ... .. . ...
ROW 16 : ... .. . ... : ... .. . ... : ... .. . ... : ... .. . ... : ... .. . ...
ROW 17 : ... .. . ... : ... .. . ... : ... .. . ... : ... .. . ... : ... .. . ...
ROW 18 : ... .. . ... : ... .. . ... : ... .. . ... : ... .. . ... : ... .. . ...
ROW 19 : ... .. . ... : ... .. . ... : ... .. . ... : ... .. . ... : ... .. . ...
ROW 1A : ... .. . ... : ... .. . ... : ... .. . ... : ... .. . ... : ... .. . ...
ROW 1B : ... .. . ... : ... .. . ... : ... .. . ... : ... .. . ... : ... .. . ...
ROW 1C : ... .. . ... : ... .. . ... : ... .. . ... : ... .. . ... : ... .. . ...
ROW 1D : ... .. . ... : ... .. . ... : ... .. . ... : ... .. . ... : ... .. . ...
ROW 1E : B-2 08 . ... : ... .. . ... : ... .. . ... : ... .. . ... : ... .. . ...
ROW 1F : ... .. . ... : ... .. . ... : ... .. . ... : ... .. . ... : ... .. . ...
PATTERN 03
ROW 00 : C#3 08 . ... : ... .. . ... : ... .. . ... : ... .. . ... : ... .. . ...
ROW 01 : ... .. . ... : ... .. . ... : ... .. . ... : ... .. . ... : ... .. . ...
ROW 02 : ... .. . ... : ... .. . ... : ... .. . ... : ... .. . ... : ... .. . ...
ROW 03 : ... .. . ... : ... .. . ... : ... .. . ... : ... .. . ... : ... .. . ...
ROW 04 : D#3 08 . ... : ... .. . ... : ... .. . ... : ... .. . ... : ... .. . ...
ROW 05 : ... .. . ... : ... .. . ... : ... .. . ... : ... .. . ... : ... .. . ...
ROW 06 : ... .. . ... : ... .. . ... : ... .. . ... : ... .. . ... : ... .. . ...
ROW 07 : ... .. . ... : ... .. . ... : ... .. . ... : ... .. . ... : ... .. . ...
ROW 08 : E-3 08 . ... : ... .. . ... : ... .. . ... : ... .. . ... : ... .. . ...
ROW 09 : ... .. . ... : ... .. . ... : ... .. . ... : ... .. . ... : ... .. . ...
ROW 0A : ... .. . ... : ... .. . ... : ... .. . ... : ... .. . ... : ... .. . ...
ROW 0B : ... .. . ... : ... .. . ... : ... .. . ... : ... .. . ... : ... .. . ...
ROW 0C : F#3 08 . ... : ... .. . ... : ... .. . ... : ... .. . ... : ... .. . ...
ROW 0D : ... .. . ... : ... .. . ... : ... .. . ... : ... .. . ... : ... .. . ...
ROW 0E : G-3 08 . ... : ... .. . ... : ... .. . ... : ... .. . ... : ... .. . ...
ROW 0F : ... .. . ... : ... .. . ... : ... .. . ... : ... .. . ... : ... .. . ...
ROW 10 : ... .. . ... : ... .. . ... : ... .. . ... : ... .. . ... : ... .. . ...
ROW 11 : ... .. . ... : ... .. . ... : ... .. . ... : ... .. . ... : ... .. . ...
ROW 12 : ... .. . ... : ... .. . ... : ... .. . ... : ... .. . ... : ... .. . ...
ROW 13 : ... .. . ... : ... .. . ... : ... .. . ... : ... .. . ... : ... .. . ...
ROW 14 : ... .. . ... : ... .. . ... : ... .. . ... : ... .. . ... : ... .. . ...
ROW 15 : ... .. . ... : ... .. . ... : ... .. . ... : ... .. . ... : ... .. . ...
ROW 16 : ... .. . ... : ... .. . ... : ... .. . ... : ... .. . ... : ... .. . ...
ROW 17 : ... .. . ... : ... .. . ... : ... .. . ... : ... .. . ... : ... .. . ...
ROW 18 : ... .. . ... : ... .. . ... : ... .. . ... : ... .. . ... : ... .. . ...
ROW 19 : ... .. . ... : ... .. . ... : ... .. . ... : ... .. . ... : ... .. . ...
ROW 1A : ... .. . ... : ... .. . ... : ... .. . ... : ... .. . ... : ... .. . ...
ROW 1B : ... .. . ... : ... .. . ... : ... .. . ... : ... .. . ... : ... .. . ...
ROW 1C : ... .. . ... : ... .. . ... : ... .. . ... : ... .. . ... : ... .. . ...
ROW 1D : ... .. . ... : ... .. . ... : ... .. . ... : ... .. . ... : ... .. . ...
ROW 1E : ... .. . ... : ... .. . ... : ... .. . ... : ... .. . ... : ... .. . ...
ROW 1F : ... .. . ... : ... .. . ... : ... .. . ... : ... .. . ... : ... .. . ...
PATTERN 05
ROW 00 : G-3 08 . ... : ... .. . ... : ... .. . ... : ... .. . ... : ... .. . ...
ROW 01 : ... .. . ... : ... .. . ... : ... .. . ... : ... .. . ... : ... .. . ...
ROW 02 : ... .. . ... : ... .. . ... : ... .. . ... : ... .. . ... : ... .. . ...
ROW 03 : ... .. . ... : ... .. . ... : ... .. . ... : ... .. . ... : ... .. . ...
ROW 04 : ... .. . ... : ... .. . ... : ... .. . ... : ... .. . ... : ... .. . ...
ROW 05 : ... .. . ... : ... .. . ... : ... .. . ... : ... .. . ... : ... .. . ...
ROW 06 : ... .. . ... : ... .. . ... : ... .. . ... : ... .. . ... : ... .. . ...
ROW 07 : ... .. . ... : ... .. . ... : ... .. . ... : ... .. . ... : ... .. . ...
ROW 08 : ... .. . ... : ... .. . ... : ... .. . ... : ... .. . ... : ... .. . ...
ROW 09 : ... .. . ... : ... .. . ... : ... .. . ... : ... .. . ... : ... .. . ...
ROW 0A : ... .. . ... : ... .. . ... : ... .. . ... : ... .. . ... : ... .. . ...
ROW 0B : ... .. . ... : ... .. . ... : ... .. . ... : ... .. . ... : ... .. . ...
ROW 0C : ... .. . ... : ... .. . ... : ... .. . ... : ... .. . ... : ... .. . ...
ROW 0D : ... .. . ... : ... .. . ... : ... .. . ... : ... .. . ... : ... .. . ...
ROW 0E : ... .. . ... : ... .. . ... : ... .. . ... : ... .. . ... : ... .. . ...
ROW 0F : ... .. . ... : ... .. . ... : ... .. . ... : ... .. . ... : ... .. . ...
ROW 10 : ... .. . ... : ... .. . ... : ... .. . ... : ... .. . ... : ... .. . ...
ROW 11 : ... .. . ... : ... .. . ... : ... .. . ... : ... .. . ... : ... .. . ...
ROW 12 : ... .. . ... : ... .. . ... : ... .. . ... : ... .. . ... : ... .. . ...
ROW 13 : ... .. . ... : ... .. . ... : ... .. . ... : ... .. . ... : ... .. . ...
ROW 14 : ... .. . ... : ... .. . ... : ... .. . ... : ... .. . ... : ... .. . ...
ROW 15 : ... .. . ... : ... .. . ... : ... .. . ... : ... .. . ... : ... .. . ...
ROW 16 : ... .. . ... : ... .. . ... : ... .. . ... : ... .. . ... : ... .. . ...
ROW 17 : ... .. . ... : ... .. . ... : ... .. . ... : ... .. . ... : ... .. . ...
ROW 18 : ... .. . ... : ... .. . ... : ... .. . ... : ... .. . ... : ... .. . ...
ROW 19 : ... .. . ... : ... .. . ... : ... .. . ... : ... .. . ... : ... .. . ...
ROW 1A : ... .. . ... : ... .. . ... : ... .. . ... : ... .. . ... : ... .. . ...
ROW 1B : ... .. . ... : ... .. . ... : ... .. . ... : ... .. . ... : ... .. . ...
ROW 1C : ... .. . ... : ... .. . ... : ... .. . ... : ... .. . ... : ... .. . ...
ROW 1D : ... .. . ... : ... .. . ... : ... .. . ... : ... .. . ... : ... .. . ...
ROW 1E : ... .. . ... : ... .. . ... : ... .. . ... : ... .. . ... : ... .. . ...
ROW 1F : ... .. . ... : ... .. . ... : ... .. . ... : ... .. . ... : ... .. . ...
PATTERN 06
ROW 00 : A#3 08 . ... : ... .. . ... : ... .. . ... : ... .. . ... : ... .. . ...
ROW 01 : ... .. . ... : ... .. . ... : ... .. . ... : ... .. . ... : ... .. . ...
ROW 02 : ... .. . ... : ... .. . ... : ... .. . ... : ... .. . ... : ... .. . ...
ROW 03 : ... .. . ... : ... .. . ... : ... .. . ... : ... .. . ... : ... .. . ...
ROW 04 : ... .. . ... : ... .. . ... : ... .. . ... : ... .. . ... : ... .. . ...
ROW 05 : ... .. . ... : ... .. . ... : ... .. . ... : ... .. . ... : ... .. . ...
ROW 06 : ... .. . ... : ... .. . ... : ... .. . ... : ... .. . ... : ... .. . ...
ROW 07 : ... .. . ... : ... .. . ... : ... .. . ... : ... .. . ... : ... .. . ...
ROW 08 : ... .. . ... : ... .. . ... : ... .. . ... : ... .. . ... : ... .. . ...
ROW 09 : ... .. . ... : ... .. . ... : ... .. . ... : ... .. . ... : ... .. . ...
ROW 0A : ... .. . ... : ... .. . ... : ... .. . ... : ... .. . ... : ... .. . ...
ROW 0B : ... .. . ... : ... .. . ... : ... .. . ... : ... .. . ... : ... .. . ...
ROW 0C : ... .. . ... : ... .. . ... : ... .. . ... : ... .. . ... : ... .. . ...
ROW 0D : ... .. . ... : ... .. . ... : ... .. . ... : ... .. . ... : ... .. . ...
ROW 0E : ... .. . ... : ... .. . ... : ... .. . ... : ... .. . ... : ... .. . ...
ROW 0F : ... .. . ... : ... .. . ... : ... .. . ... : ... .. . ... : ... .. . ...
ROW 10 : ... .. . ... : ... .. . ... : ... .. . ... : ... .. . ... : ... .. . ...
ROW 11 : ... .. . ... : ... .. . ... : ... .. . ... : ... .. . ... : ... .. . ...
ROW 12 : ... .. . ... : ... .. . ... : ... .. . ... : ... .. . ... : ... .. . ...
ROW 13 : ... .. . ... : ... .. . ... : ... .. . ... : ... .. . ... : ... .. . ...
ROW 14 : ... .. . ... : ... .. . ... : ... .. . ... : ... .. . ... : ... .. . ...
ROW 15 : ... .. . ... : ... .. . ... : ... .. . ... : ... .. . ... : ... .. . ...
ROW 16 : ... .. . ... : ... .. . ... : ... .. . ... : ... .. . ... : ... .. . ...
ROW 17 : ... .. . ... : ... .. . ... : ... .. . ... : ... .. . ... : ... .. . ...
ROW 18 : ... .. . ... : ... .. . ... : ... .. . ... : ... .. . ... : ... .. . ...
ROW 19 : ... .. . ... : ... .. . ... : ... .. . ... : ... .. . ... : ... .. . ...
ROW 1A : ... .. . ... : ... .. . ... : ... .. . ... : ... .. . ... : ... .. . ...
ROW 1B : ... .. . ... : ... .. . ... : ... .. . ... : ... .. . ... : ... .. . ...
ROW 1C : ... .. . ... : ... .. . ... : ... .. . ... : ... .. . ... : ... .. . ...
ROW 1D : ... .. . ... : ... .. . ... : ... .. . ... : ... .. . ... : ... .. . ...
ROW 1E : ... .. . ... : ... .. . ... : ... .. . ... : ... .. . ... : ... .. . ...
ROW 1F : ... .. . ... : ... .. . ... : ... .. . ... : ... .. . ... : ... .. . ...
PATTERN 07
ROW 00 : A#3 08 . ... : ... .. . ... : ... .. . ... : ... .. . ... : ... .. . ...
ROW 01 : B-3 08 . ... : ... .. . ... : ... .. . ... : ... .. . ... : ... .. . ...
ROW 02 : A#3 08 . ... : ... .. . ... : ... .. . ... : ... .. . ... : ... .. . ...
ROW 03 : F#3 08 . ... : ... .. . ... : ... .. . ... : ... .. . ... : ... .. . ...
ROW 04 : G-3 08 . ... : ... .. . ... : ... .. . ... : ... .. . ... : ... .. . ...
ROW 05 : C#3 08 . ... : ... .. . ... : ... .. . ... : ... .. . ... : ... .. . ...
ROW 06 : E-3 08 . ... : ... .. . ... : ... .. . ... : ... .. . ... : ... .. . ...
ROW 07 : A#2 08 . ... : ... .. . ... : ... .. . ... : ... .. . ... : ... .. . ...
ROW 08 : ... .. . ... : ... .. . ... : ... .. . ... : ... .. . ... : ... .. . ...
ROW 09 : ... .. . ... : ... .. . ... : ... .. . ... : ... .. . ... : ... .. . ...
ROW 0A : ... .. . ... : ... .. . ... : ... .. . ... : ... .. . ... : ... .. . ...
ROW 0B : ... .. . ... : ... .. . ... : ... .. . ... : ... .. . ... : ... .. . ...
ROW 0C : ... .. . ... : ... .. . ... : ... .. . ... : ... .. . ... : ... .. . ...
ROW 0D : ... .. . ... : ... .. . ... : ... .. . ... : ... .. . ... : ... .. . ...
ROW 0E : ... .. . ... : ... .. . ... : ... .. . ... : ... .. . ... : ... .. . ...
ROW 0F : ... .. . ... : ... .. . ... : ... .. . ... : ... .. . ... : ... .. . ...
ROW 10 : ... .. . ... : ... .. . ... : ... .. . ... : ... .. . ... : ... .. . ...
ROW 11 : ... .. . ... : ... .. . ... : ... .. . ... : ... .. . ... : ... .. . ...
ROW 12 : ... .. . ... : ... .. . ... : ... .. . ... : ... .. . ... : ... .. . ...
ROW 13 : ... .. . ... : ... .. . ... : ... .. . ... : ... .. . ... : ... .. . ...
ROW 14 : ... .. . ... : ... .. . ... : ... .. . ... : ... .. . ... : ... .. . ...
ROW 15 : ... .. . ... : ... .. . ... : ... .. . ... : ... .. . ... : ... .. . ...
ROW 16 : ... .. . ... : ... .. . ... : ... .. . ... : ... .. . ... : ... .. . ...
ROW 17 : ... .. . ... : ... .. . ... : ... .. . ... : ... .. . ... : ... .. . ...
ROW 18 : ... .. . ... : ... .. . ... : ... .. . ... : ... .. . ... : ... .. . ...
ROW 19 : ... .. . ... : ... .. . ... : ... .. . ... : ... .. . ... : ... .. . ...
ROW 1A : ... .. . ... : ... .. . ... : ... .. . ... : ... .. . ... : ... .. . ...
ROW 1B : ... .. . ... : ... .. . ... : ... .. . ... : ... .. . ... : ... .. . ...
ROW 1C : ... .. . ... : ... .. . ... : ... .. . ... : ... .. . ... : ... .. . ...
ROW 1D : ... .. . ... : ... .. . ... : ... .. . ... : ... .. . ... : ... .. . ...
ROW 1E : ... .. . ... : ... .. . ... : ... .. . ... : ... .. . ... : ... .. . ...
ROW 1F : ... .. . B02 : ... .. . ... : ... .. . ... : ... .. . ... : ... .. . ...

# track BOOKMARKS block

# track HEADER block
TRACK  64   7 150 "Armory"
COLUMNS : 1 1 1 1 1

# track FRAMES block
ORDER 00 : 00 00 00 00 00
ORDER 01 : 00 00 00 00 00
ORDER 02 : 01 01 01 00 00
ORDER 03 : 01 01 01 00 00
ORDER 04 : 02 00 00 01 00
ORDER 05 : 03 00 00 01 00
ORDER 06 : 02 00 00 01 00
ORDER 07 : 03 00 00 01 00
ORDER 08 : 04 01 01 01 00
ORDER 09 : 05 01 01 01 00
ORDER 0A : 04 01 02 02 00
ORDER 0B : 06 01 02 02 00

# track PATTERNS block
PATTERN 00
ROW 00 : ... .. . ... : ... .. . ... : C-2 01 . ... : B-# 07 . ... : ... .. . ...
ROW 01 : ... .. . ... : ... .. . ... : ... .. . ... : ... .. . ... : ... .. . ...
ROW 02 : ... .. . ... : ... .. . ... : ... .. . ... : 1-# 0E . ... : ... .. . ...
ROW 03 : ... .. . ... : ... .. . ... : ... .. . ... : ... .. . ... : ... .. . ...
ROW 04 : ... .. . ... : D#3 16 . ... : C-2 01 . ... : 2-# 06 . ... : ... .. . ...
ROW 05 : ... .. . ... : ... .. . ... : ... .. . ... : ... .. . ... : ... .. . ...
ROW 06 : D#3 17 . ... : A-3 16 . ... : C-2 01 . ... : 9-# 03 . ... : ... .. . ...
ROW 07 : ... .. . ... : ... .. . ... : ... .. . ... : ... .. . ... : ... .. . ...
ROW 08 : A-3 17 . ... : D-3 16 . ... : C-2 02 . ... : 7-# 04 . ... : ... .. . ...
ROW 09 : ... .. . ... : ... .. . ... : ... .. . ... : ... .. . ... : ... .. . ...
ROW 0A : D-3 17 . ... : ... .. . ... : ... .. . ... : 2-# 0E . ... : ... .. . ...
ROW 0B : ... .. . ... : ... .. . ... : ... .. . ... : ... .. . ... : ... .. . ...
ROW 0C : ... .. . ... : ... .. . ... : ... .. . ... : B-# 07 . ... : ... .. . ...
ROW 0D : ... .. . ... : ... .. . ... : ... .. . ... : ... .. . ... : ... .. . ...
ROW 0E : ... .. . ... : ... .. . ... : ... .. . ... : 3-# 0B . ... : ... .. . ...
ROW 0F : ... .. . ... : ... .. . ... : ... .. . ... : 2-# 0B . ... : ... .. . ...
ROW 10 : ... .. . ... : C-3 16 . ... : C-2 01 . ... : B-# 07 . ... : ... .. . ...
ROW 11 : ... .. . ... : ... .. . ... : ... .. . ... : ... .. . ... : ... .. . ...
ROW 12 : C-3 17 . ... : A#3 16 . ... : ... .. . ... : 2-# 0E . ... : ... .. . ...
ROW 13 : ... .. . ... : ... .. . ... : ... .. . ... : ... .. . ... : ... .. . ...
ROW 14 : A#3 17 . ... : ... .. . ... : C-2 01 . ... : B-# 07 . ... : ... .. . ...
ROW 15 : ... .. . ... : ... .. . ... : ... .. . ... : ... .. . ... : ... .. . ...
ROW 16 : ... .. . ... : D-3 16 . ... : ... .. . ... : 1-# 0E . ... : ... .. . ...
ROW 17 : ... .. . ... : ... .. . ... : ... .. . ... : ... .. . ... : ... .. . ...
ROW 18 : D-3 17 . ... : F#3 16 . ... : ... .. . ... : B-# 07 . ... : ... .. . ...
ROW 19 : ... .. . ... : ... .. . ... : ... .. . ... : ... .. . ... : ... .. . ...
ROW 1A : F#3 17 . ... : ... .. . ... : C-2 02 . ... : 7-# 04 . ... : ... .. . ...
ROW 1B : ... .. . ... : ... .. . ... : ... .. . ... : ... .. . ... : ... .. . ...
ROW 1C : ... .. . ... : ... .. . ... : ... .. . ... : B-# 07 . ... : ... .. . ...
ROW 1D : ... .. . ... : ... .. . ... : ... .. . ... : ... .. . ... : ... .. . ...
ROW 1E : ... .. . ... : ... .. . ... : D#2 01 . ... : 2-# 06 . ... : ... .. . ...
ROW 1F : ... .. . ... : ... .. . ... : ... .. . ... : ... .. . ... : ... .. . ...
ROW 20 : ... .. . ... : ... .. . ... : F#2 00 . ... : B-# 07 . ... : ... .. . ...
ROW 21 : ... .. . ... : ... .. . ... : ... .. . ... : ... .. . ... : ... .. . ...
ROW 22 : ... .. . ... : ... .. . ... : ... .. . ... : 1-# 0E . ... : ... .. . ...
ROW 23 : ... .. . ... : ... .. . ... : ... .. . ... : ... .. . ... : ... .. . ...
ROW 24 : ... .. . ... : D#3 16 . ... : ... .. . ... : B-# 07 . ... : ... .. . ...
ROW 25 : ... .. . ... : ... .. . ... : ... .. . ... : ... .. . ... : ... .. . ...
ROW 26 : D#3 17 . ... : A-3 16 . ... : F#2 01 . ... : 9-# 03 . ... : ... .. . ...
ROW 27 : ... .. . ... : ... .. . ... : F#2 01 . ... : 9-# 03 . ... : ... .. . ...
ROW 28 : A-3 17 . ... : D-3 16 . ... : F#2 02 . ... : 7-# 04 . ... : ... .. . ...
ROW 29 : ... .. . ... : ... .. . ... : ... .. . ... : ... .. . ... : ... .. . ...
ROW 2A : D-3 17 . ... : ... .. . ... : ... .. . ... : 2-# 0E . ... : ... .. . ...
ROW 2B : ... .. . ... : ... .. . ... : ... .. . ... : ... .. . ... : ... .. . ...
ROW 2C : ... .. . ... : ... .. . ... : ... .. . ... : B-# 07 . ... : ... .. . ...
ROW 2D : ... .. . ... : ... .. . ... : ... .. . ... : ... .. . ... : ... .. . ...
ROW 2E : ... .. . ... : ... .. . ... : ... .. . ... : ... .. . ... : ... .. . ...
ROW 2F : ... .. . ... : ... .. . ... : ... .. . ... : ... .. . ... : ... .. . ...
ROW 30 : ... .. . ... : F#3 16 . ... : ... .. . ... : B-# 07 . ... : ... .. . ...
ROW 31 : ... .. . ... : ... .. . ... : ... .. . ... : ... .. . ... : ... .. . ...
ROW 32 : F#3 17 . ... : A-2 16 . ... : F#2 02 . ... : 7-# 04 . ... : ... .. . ...
ROW 33 : ... .. . ... : ... .. . ... : ... .. . ... : ... .. . ... : ... .. . ...
ROW 34 : A-2 17 . ... : C-3 16 . ... : ... .. . ... : B-# 07 . ... : ... .. . ...
ROW 35 : ... .. . ... : ... .. . ... : ... .. . ... : ... .. . ... : ... .. . ...
ROW 36 : C-3 17 . ... : ... .. . ... : F#2 02 . ... : 7-# 04 . ... : ... .. . ...
ROW 37 : ... .. . ... : ... .. . ... : ... .. . ... : ... .. . ... : ... .. . ...
ROW 38 : ... .. . ... : ... .. . ... : ... .. . ... : 4-# 06 . ... : ... .. . ...
ROW 39 : ... .. . ... : ... .. . ... : ... .. . ... : 3-# 06 . ... : ... .. . ...
ROW 3A : ... .. . ... : F#2 16 . ... : ... .. . ... : 2-# 06 . ... : ... .. . ...
ROW 3B : ... .. . ... : ... .. . ... : ... .. . ... : ... .. . ... : ... .. . ...
ROW 3C : F#2 17 . ... : A-2 16 . ... : F#2 01 . ... : 2-# 06 . ... : ... .. . ...
ROW 3D : ... .. . ... : ... .. . ... : ... .. . ... : ... .. . ... : ... .. . ...
ROW 3E : A-2 17 . ... : ... .. . ... : ... .. . ... : ... .. . ... : ... .. . ...
ROW 3F : ... .. . ... : ... .. . ... : ... .. . ... : ... .. . ... : ... .. . ...
PATTERN 01
ROW 00 : ... .. . ... : C-3 16 . ... : C-2 01 . ... : B-# 07 . ... : ... .. . ...
ROW 01 : ... .. . ... : ... .. . ... : ... .. . ... : ... .. . ... : ... .. . ...
ROW 02 : C-3 17 . ... : E-3 16 . ... : ... .. . ... : 1-# 0E . ... : ... .. . ...
ROW 03 : ... .. . ... : ... .. . ... : ... .. . ... : 1-# 0E . ... : ... .. . ...
ROW 04 : E-3 17 . ... : A#2 16 . ... : C-2 01 . ... : 2-# 06 . ... : ... .. . ...
ROW 05 : ... .. . ... : ... .. . ... : ... .. . ... : ... .. . ... : ... .. . ...
ROW 06 : A#2 17 . ... : ... .. . ... : C-2 01 . ... : 9-# 03 . ... : ... .. . ...
ROW 07 : ... .. . ... : ... .. . ... : ... .. . ... : ... .. . ... : ... .. . ...
ROW 08 : ... .. . ... : ... .. . ... : E-2 02 . ... : 7-# 04 . ... : ... .. . ...
ROW 09 : ... .. . ... : ... .. . ... : ... .. . ... : ... .. . ... : ... .. . ...
ROW 0A : ... .. . ... : G-3 16 . ... : ... .. . ... : 2-# 0E . ... : ... .. . ...
ROW 0B : ... .. . ... : ... .. . ... : ... .. . ... : 2-# 0E . ... : ... .. . ...
ROW 0C : G-3 17 . ... : A#3 16 . ... : ... .. . ... : B-# 07 . ... : ... .. . ...
ROW 0D : ... .. . ... : ... .. . ... : ... .. . ... : ... .. . ... : ... .. . ...
ROW 0E : A#3 17 . ... : D#3 16 . ... : C#2 00 . ... : 3-# 0B . ... : ... .. . ...
ROW 0F : ... .. . ... : ... .. . ... : ... .. . ... : 2-# 0B . ... : ... .. . ...
ROW 10 : D#3 17 . ... : A-3 16 . ... : C#2 01 . ... : B-# 07 . ... : ... .. . ...
ROW 11 : ... .. . ... : ... .. . ... : ... .. . ... : ... .. . ... : ... .. . ...
ROW 12 : A-3 17 . ... : ... .. . ... : ... .. . ... : 1-# 0E . ... : ... .. . ...
ROW 13 : ... .. . ... : ... .. . ... : ... .. . ... : ... .. . ... : ... .. . ...
ROW 14 : ... .. . ... : ... .. . ... : C#2 01 . ... : B-# 07 . ... : ... .. . ...
ROW 15 : ... .. . ... : ... .. . ... : ... .. . ... : ... .. . ... : ... .. . ...
ROW 16 : ... .. . ... : G-3 16 . ... : ... .. . ... : 1-# 0E . ... : ... .. . ...
ROW 17 : ... .. . ... : ... .. . ... : ... .. . ... : 1-# 0E . ... : ... .. . ...
ROW 18 : G-3 17 . ... : ... .. . ... : ... .. . ... : 2-# 0E . ... : ... .. . ...
ROW 19 : ... .. . ... : ... .. . ... : ... .. . ... : ... .. . ... : ... .. . ...
ROW 1A : ... .. . ... : ... .. . ... : C#2 02 . ... : 7-# 04 . ... : ... .. . ...
ROW 1B : ... .. . ... : ... .. . ... : ... .. . ... : ... .. . ... : ... .. . ...
ROW 1C : ... .. . ... : ... .. . ... : ... .. . ... : 2-# 0E . ... : ... .. . ...
ROW 1D : ... .. . ... : ... .. . ... : ... .. . ... : 1-# 0E . ... : ... .. . ...
ROW 1E : ... .. . ... : ... .. . ... : C#2 01 . ... : 2-# 06 . ... : ... .. . ...
ROW 1F : ... .. . ... : ... .. . ... : ... .. . ... : 1-# 0E . ... : ... .. . ...
ROW 20 : ... .. . ... : C-3 16 . ... : C-2 00 . ... : 1-# 0E . ... : ... .. . ...
ROW 21 : ... .. . ... : ... .. . ... : ... .. . ... : ... .. . ... : ... .. . ...
ROW 22 : C-3 17 . ... : E-3 16 . ... : ... .. . ... : 1-# 0E . ... : ... .. . ...
ROW 23 : ... .. . ... : ... .. . ... : ... .. . ... : 1-# 0E . ... : ... .. . ...
ROW 24 : E-3 17 . ... : A#2 16 . ... : ... .. . ... : 2-# 0E . ... : ... .. . ...
ROW 25 : ... .. . ... : ... .. . ... : ... .. . ... : ... .. . ... : ... .. . ...
ROW 26 : A#2 17 . ... : ... .. . ... : C-2 01 . ... : 9-# 03 . ... : ... .. . ...
ROW 27 : ... .. . ... : ... .. . ... : C-2 01 . ... : 9-# 03 . ... : ... .. . ...
ROW 28 : ... .. . ... : ... .. . ... : E-2 02 . ... : 7-# 04 . ... : ... .. . ...
ROW 29 : ... .. . ... : ... .. . ... : ... .. . ... : ... .. . ... : ... .. . ...
ROW 2A : ... .. . ... : G-3 16 . ... : ... .. . ... : 2-# 0E . ... : ... .. . ...
ROW 2B : ... .. . ... : ... .. . ... : ... .. . ... : 2-# 0E . ... : ... .. . ...
ROW 2C : G-3 17 . ... : A#3 16 . ... : ... .. . ... : 1-# 0E . ... : ... .. . ...
ROW 2D : ... .. . ... : ... .. . ... : ... .. . ... : ... .. . ... : ... .. . ...
ROW 2E : A#3 17 . ... : D#3 16 . ... : A#1 00 . ... : 1-# 0E . ... : ... .. . ...
ROW 2F : ... .. . ... : ... .. . ... : ... .. . ... : ... .. . ... : ... .. . ...
ROW 30 : D#3 17 . ... : A-3 16 . ... : ... .. . ... : 2-# 0E . ... : ... .. . ...
ROW 31 : ... .. . ... : ... .. . ... : ... .. . ... : ... .. . ... : ... .. . ...
ROW 32 : A-3 17 . ... : ... .. . ... : A#1 02 . ... : 7-# 04 . ... : ... .. . ...
ROW 33 : ... .. . ... : ... .. . ... : ... .. . ... : ... .. . ... : ... .. . ...
ROW 34 : ... .. . ... : ... .. . ... : ... .. . ... : 1-# 0E . ... : ... .. . ...
ROW 35 : ... .. . ... : ... .. . ... : ... .. . ... : 1-# 0E . ... : ... .. . ...
ROW 36 : ... .. . ... : F#3 16 . ... : A#1 02 . ... : 7-# 04 . ... : ... .. . ...
ROW 37 : ... .. . ... : ... .. . ... : ... .. . ... : ... .. . ... : ... .. . ...
ROW 38 : F#3 17 . ... : ... .. . ... : ... .. . ... : 4-# 06 . ... : ... .. . ...
ROW 39 : ... .. . ... : ... .. . ... : ... .. . ... : 3-# 06 . ... : ... .. . ...
ROW 3A : ... .. . ... : ... .. . ... : ... .. . ... : 2-# 06 . ... : ... .. . ...
ROW 3B : ... .. . ... : ... .. . ... : ... .. . ... : ... .. . ... : ... .. . ...
ROW 3C : ... .. . ... : G-3 16 . ... : A#1 01 . ... : 2-# 06 . ... : ... .. . ...
ROW 3D : ... .. . ... : ... .. . ... : ... .. . ... : ... .. . ... : ... .. . ...
ROW 3E : G-3 17 . ... : ... .. . ... : ... .. . ... : 2-# 0E . ... : ... .. . ...
ROW 3F : ... .. . ... : ... .. . ... : ... .. . ... : 2-# 0E . ... : ... .. . ...
PATTERN 02
ROW 00 : C-3 09 . ... : ... .. . ... : C-2 01 . ... : B-# 07 . ... : ... .. . ...
ROW 01 : ... .. . ... : ... .. . ... : ... .. . ... : ... .. . ... : ... .. . ...
ROW 02 : ... .. . ... : ... .. . ... : ... .. . ... : 4-# 06 . ... : ... .. . ...
ROW 03 : ... .. . ... : ... .. . ... : ... .. . ... : 3-# 06 . ... : ... .. . ...
ROW 04 : ... .. . ... : ... .. . ... : C-2 01 . ... : 2-# 06 . ... : ... .. . ...
ROW 05 : ... .. . ... : ... .. . ... : ... .. . ... : ... .. . ... : ... .. . ...
ROW 06 : D#3 17 . ... : ... .. . ... : ... .. . ... : 6-# 1B . ... : ... .. . ...
ROW 07 : ... .. . ... : ... .. . ... : ... .. . ... : ... .. . ... : ... .. . ...
ROW 08 : A-3 17 . ... : ... .. . ... : C-2 02 . ... : 7-# 04 . ... : ... .. . ...
ROW 09 : ... .. . ... : ... .. . ... : C-2 02 . ... : 7-# 04 . ... : ... .. . ...
ROW 0A : D-3 17 . ... : ... .. . ... : C-2 01 . ... : ... .. . ... : ... .. . ...
ROW 0B : ... .. . ... : ... .. . ... : ... .. . ... : ... .. . ... : ... .. . ...
ROW 0C : ... .. . ... : ... .. . ... : C-2 02 . ... : 7-# 04 . ... : ... .. . ...
ROW 0D : ... .. . ... : ... .. . ... : ... .. . ... : ... .. . ... : ... .. . ...
ROW 0E : ... .. . ... : ... .. . ... : C-2 01 . ... : 2-# 06 . ... : ... .. . ...
ROW 0F : ... .. . ... : ... .. . ... : ... .. . ... : ... .. . ... : ... .. . ...
ROW 10 : ... .. . ... : ... .. . ... : ... .. . ... : B-# 07 . ... : ... .. . ...
ROW 11 : ... .. . ... : ... .. . ... : ... .. . ... : ... .. . ... : ... .. . ...
ROW 12 : C-3 17 . ... : ... .. . ... : ... .. . ... : 3-# 0B . ... : ... .. . ...
ROW 13 : ... .. . ... : ... .. . ... : ... .. . ... : 2-# 0B . ... : ... .. . ...
ROW 14 : A#3 17 . ... : ... .. . ... : C-2 01 . ... : B-# 07 . ... : ... .. . ...
ROW 15 : ... .. . ... : ... .. . ... : ... .. . ... : ... .. . ... : ... .. . ...
ROW 16 : ... .. . ... : ... .. . ... : ... .. . ... : 6-# 0B . ... : ... .. . ...
ROW 17 : ... .. . ... : ... .. . ... : ... .. . ... : 4-# 07 . ... : ... .. . ...
ROW 18 : D-3 17 . ... : ... .. . ... : ... .. . ... : 6-# 0B . ... : ... .. . ...
ROW 19 : ... .. . ... : ... .. . ... : ... .. . ... : 6-# 0B . ... : ... .. . ...
ROW 1A : F#3 17 . ... : ... .. . ... : C-2 02 . ... : 7-# 04 . ... : ... .. . ...
ROW 1B : ... .. . ... : ... .. . ... : ... .. . ... : ... .. . ... : ... .. . ...
ROW 1C : ... .. . ... : ... .. . ... : ... .. . ... : 3-# 0B . ... : ... .. . ...
ROW 1D : ... .. . ... : ... .. . ... : ... .. . ... : 2-# 0B . ... : ... .. . ...
ROW 1E : ... .. . ... : ... .. . ... : D#2 02 . ... : 7-# 04 . ... : ... .. . ...
ROW 1F : ... .. . ... : ... .. . ... : ... .. . ... : ... .. . ... : ... .. . ...
ROW 20 : C-2 09 . ... : ... .. . ... : F#2 01 . ... : B-# 07 . ... : ... .. . ...
ROW 21 : ... .. . ... : ... .. . ... : ... .. . ... : ... .. . ... : ... .. . ...
ROW 22 : ... .. . ... : ... .. . ... : ... .. . ... : 4-# 06 . ... : ... .. . ...
ROW 23 : ... .. . ... : ... .. . ... : ... .. . ... : 3-# 06 . ... : ... .. . ...
ROW 24 : ... .. . ... : ... .. . ... : F#2 01 . ... : 2-# 06 . ... : ... .. . ...
ROW 25 : ... .. . ... : ... .. . ... : ... .. . ... : ... .. . ... : ... .. . ...
ROW 26 : D#3 17 . ... : ... .. . ... : ... .. . ... : 3-# 0E . ... : ... .. . ...
ROW 27 : ... .. . ... : ... .. . ... : ... .. . ... : 2-# 0E . ... : ... .. . ...
ROW 28 : A-3 17 . ... : ... .. . ... : ... .. . ... : 6-# 1B . ... : ... .. . ...
ROW 29 : ... .. . ... : ... .. . ... : ... .. . ... : 3-# 0E . ... : ... .. . ...
ROW 2A : D-3 17 . ... : ... .. . ... : ... .. . ... : 2-# 0E . ... : ... .. . ...
ROW 2B : ... .. . ... : ... .. . ... : ... .. . ... : 3-# 0E . ... : ... .. . ...
ROW 2C : ... .. . ... : ... .. . ... : F#2 02 . ... : 7-# 04 . ... : ... .. . ...
ROW 2D : ... .. . ... : ... .. . ... : ... .. . ... : ... .. . ... : ... .. . ...
ROW 2E : ... .. . ... : ... .. . ... : F#2 02 . ... : 6-# 0B . ... : ... .. . ...
ROW 2F : ... .. . ... : ... .. . ... : ... .. . ... : ... .. . ... : ... .. . ...
ROW 30 : ... .. . ... : ... .. . ... : F#2 01 . ... : B-# 07 . ... : ... .. . ...
ROW 31 : ... .. . ... : ... .. . ... : ... .. . ... : ... .. . ... : ... .. . ...
ROW 32 : F#3 17 . ... : ... .. . ... : ... .. . ... : 4-# 06 . ... : ... .. . ...
ROW 33 : ... .. . ... : ... .. . ... : ... .. . ... : 3-# 06 . ... : ... .. . ...
ROW 34 : A-2 17 . ... : ... .. . ... : F#2 02 . ... : 7-# 04 . ... : ... .. . ...
ROW 35 : ... .. . ... : ... .. . ... : ... .. . ... : ... .. . ... : ... .. . ...
ROW 36 : C-3 17 . ... : ... .. . ... : F#2 01 . ... : 9-# 03 . ... : ... .. . ...
ROW 37 : ... .. . ... : ... .. . ... : ... .. . ... : ... .. . ... : ... .. . ...
ROW 38 : ... .. . ... : ... .. . ... : ... .. . ... : 4-# 06 . ... : ... .. . ...
ROW 39 : ... .. . ... : ... .. . ... : ... .. . ... : 3-# 06 . ... : ... .. . ...
ROW 3A : ... .. . ... : ... .. . ... : F#2 02 . ... : 7-# 04 . ... : ... .. . ...
ROW 3B : ... .. . ... : ... .. . ... : ... .. . ... : ... .. . ... : ... .. . ...
ROW 3C : F#2 17 . ... : ... .. . ... : ... .. . ... : 4-# 06 . ... : ... .. . ...
ROW 3D : ... .. . ... : ... .. . ... : ... .. . ... : 3-# 06 . ... : ... .. . ...
ROW 3E : A-2 17 . ... : ... .. . ... : F#2 02 . ... : 7-# 04 . ... : ... .. . ...
ROW 3F : ... .. . ... : ... .. . ... : F#2 02 . ... : 7-# 04 . ... : ... .. . ...
PATTERN 03
ROW 00 : G-3 09 . ... : ... .. . ... : ... .. . ... : ... .. . ... : ... .. . ...
ROW 01 : ... .. . ... : ... .. . ... : ... .. . ... : ... .. . ... : ... .. . ...
ROW 02 : ... .. . ... : ... .. . ... : ... .. . ... : ... .. . ... : ... .. . ...
ROW 03 : ... .. . ... : ... .. . ... : ... .. . ... : ... .. . ... : ... .. . ...
ROW 04 : ... .. . ... : ... .. . ... : ... .. . ... : ... .. . ... : ... .. . ...
ROW 05 : ... .. . ... : ... .. . ... : ... .. . ... : ... .. . ... : ... .. . ...
ROW 06 : D#3 17 . ... : ... .. . ... : ... .. . ... : ... .. . ... : ... .. . ...
ROW 07 : ... .. . ... : ... .. . ... : ... .. . ... : ... .. . ... : ... .. . ...
ROW 08 : A-3 17 . ... : ... .. . ... : ... .. . ... : ... .. . ... : ... .. . ...
ROW 09 : ... .. . ... : ... .. . ... : ... .. . ... : ... .. . ... : ... .. . ...
ROW 0A : D-3 17 . ... : ... .. . ... : ... .. . ... : ... .. . ... : ... .. . ...
ROW 0B : ... .. . ... : ... .. . ... : ... .. . ... : ... .. . ... : ... .. . ...
ROW 0C : ... .. . ... : ... .. . ... : ... .. . ... : ... .. . ... : ... .. . ...
ROW 0D : ... .. . ... : ... .. . ... : ... .. . ... : ... .. . ... : ... .. . ...
ROW 0E : ... .. . ... : ... .. . ... : ... .. . ... : ... .. . ... : ... .. . ...
ROW 0F : ... .. . ... : ... .. . ... : ... .. . ... : ... .. . ... : ... .. . ...
ROW 10 : ... .. . ... : ... .. . ... : ... .. . ... : ... .. . ... : ... .. . ...
ROW 11 : ... .. . ... : ... .. . ... : ... .. . ... : ... .. . ... : ... .. . ...
ROW 12 : C-3 17 . ... : ... .. . ... : ... .. . ... : ... .. . ... : ... .. . ...
ROW 13 : ... .. . ... : ... .. . ... : ... .. . ... : ... .. . ... : ... .. . ...
ROW 14 : A#3 17 . ... : ... .. . ... : ... .. . ... : ... .. . ... : ... .. . ...
ROW 15 : ... .. . ... : ... .. . ... : ... .. . ... : ... .. . ... : ... .. . ...
ROW 16 : ... .. . ... : ... .. . ... : ... .. . ... : ... .. . ... : ... .. . ...
ROW 17 : ... .. . ... : ... .. . ... : ... .. . ... : ... .. . ... : ... .. . ...
ROW 18 : D-3 17 . ... : ... .. . ... : ... .. . ... : ... .. . ... : ... .. . ...
ROW 19 : ... .. . ... : ... .. . ... : ... .. . ... : ... .. . ... : ... .. . ...
ROW 1A : F#3 17 . ... : ... .. . ... : ... .. . ... : ... .. . ... : ... .. . ...
ROW 1B : ... .. . ... : ... .. . ... : ... .. . ... : ... .. . ... : ... .. . ...
ROW 1C : ... .. . ... : ... .. . ... : ... .. . ... : ... .. . ... : ... .. . ...
ROW 1D : ... .. . ... : ... .. . ... : ... .. . ... : ... .. . ... : ... .. . ...
ROW 1E : A#2 09 . ... : ... .. . ... : ... .. . ... : ... .. . ... : ... .. . ...
ROW 1F : ... .. . ... : ... .. . ... : ... .. . ... : ... .. . ... : ... .. . ...
ROW 20 : A-2 09 . ... : ... .. . ... : ... .. . ... : ... .. . ... : ... .. . ...
ROW 21 : ... .. . ... : ... .. . ... : ... .. . ... : ... .. . ... : ... .. . ...
ROW 22 : ... .. . ... : ... .. . ... : ... .. . ... : ... .. . ... : ... .. . ...
ROW 23 : ... .. . ... : ... .. . ... : ... .. . ... : ... .. . ... : ... .. . ...
ROW 24 : ... .. . ... : ... .. . ... : ... .. . ... : ... .. . ... : ... .. . ...
ROW 25 : ... .. . ... : ... .. . ... : ... .. . ... : ... .. . ... : ... .. . ...
ROW 26 : D#3 17 . ... : ... .. . ... : ... .. . ... : ... .. . ... : ... .. . ...
ROW 27 : ... .. . ... : ... .. . ... : ... .. . ... : ... .. . ... : ... .. . ...
ROW 28 : A-3 17 . ... : ... .. . ... : ... .. . ... : ... .. . ... : ... .. . ...
ROW 29 : ... .. . ... : ... .. . ... : ... .. . ... : ... .. . ... : ... .. . ...
ROW 2A : D-3 17 . ... : ... .. . ... : ... .. . ... : ... .. . ... : ... .. . ...
ROW 2B : ... .. . ... : ... .. . ... : ... .. . ... : ... .. . ... : ... .. . ...
ROW 2C : ... .. . ... : ... .. . ... : ... .. . ... : ... .. . ... : ... .. . ...
ROW 2D : ... .. . ... : ... .. . ... : ... .. . ... : ... .. . ... : ... .. . ...
ROW 2E : ... .. . ... : ... .. . ... : ... .. . ... : ... .. . ... : ... .. . ...
ROW 2F : ... .. . ... : ... .. . ... : ... .. . ... : ... .. . ... : ... .. . ...
ROW 30 : ... .. . ... : ... .. . ... : ... .. . ... : ... .. . ... : ... .. . ...
ROW 31 : ... .. . ... : ... .. . ... : ... .. . ... : ... .. . ... : ... .. . ...
ROW 32 : F#3 17 . ... : ... .. . ... : ... .. . ... : ... .. . ... : ... .. . ...
ROW 33 : ... .. . ... : ... .. . ... : ... .. . ... : ... .. . ... : ... .. . ...
ROW 34 : A-2 17 . ... : ... .. . ... : ... .. . ... : ... .. . ... : ... .. . ...
ROW 35 : ... .. . ... : ... .. . ... : ... .. . ... : ... .. . ... : ... .. . ...
ROW 36 : C-3 17 . ... : ... .. . ... : ... .. . ... : ... .. . ... : ... .. . ...
ROW 37 : ... .. . ... : ... .. . ... : ... .. . ... : ... .. . ... : ... .. . ...
ROW 38 : ... .. . ... : ... .. . ... : ... .. . ... : ... .. . ... : ... .. . ...
ROW 39 : ... .. . ... : ... .. . ... : ... .. . ... : ... .. . ... : ... .. . ...
ROW 3A : ... .. . ... : ... .. . ... : ... .. . ... : ... .. . ... : ... .. . ...
ROW 3B : ... .. . ... : ... .. . ... : ... .. . ... : ... .. . ... : ... .. . ...
ROW 3C : F#2 17 . ... : ... .. . ... : ... .. . ... : ... .. . ... : ... .. . ...
ROW 3D : ... .. . ... : ... .. . ... : ... .. . ... : ... .. . ... : ... .. . ...
ROW 3E : A-2 17 . ... : ... .. . ... : ... .. . ... : ... .. . ... : ... .. . ...
ROW 3F : ... .. . ... : ... .. . ... : ... .. . ... : ... .. . ... : ... .. . ...
PATTERN 04
ROW 00 : C-3 09 . ... : ... .. . ... : ... .. . ... : ... .. . ... : ... .. . ...
ROW 01 : ... .. . ... : ... .. . ... : ... .. . ... : ... .. . ... : ... .. . ...
ROW 02 : ... .. . ... : ... .. . ... : ... .. . ... : ... .. . ... : ... .. . ...
ROW 03 : ... .. . ... : ... .. . ... : ... .. . ... : ... .. . ... : ... .. . ...
ROW 04 : E-3 17 . ... : ... .. . ... : ... .. . ... : ... .. . ... : ... .. . ...
ROW 05 : ... .. . ... : ... .. . ... : ... .. . ... : ... .. . ... : ... .. . ...
ROW 06 : A#2 17 . ... : ... .. . ... : ... .. . ... : ... .. . ... : ... .. . ...
ROW 07 : ... .. . ... : ... .. . ... : ... .. . ... : ... .. . ... : ... .. . ...
ROW 08 : ... .. . ... : ... .. . ... : ... .. . ... : ... .. . ... : ... .. . ...
ROW 09 : ... .. . ... : ... .. . ... : ... .. . ... : ... .. . ... : ... .. . ...
ROW 0A : ... .. . ... : ... .. . ... : ... .. . ... : ... .. . ... : ... .. . ...
ROW 0B : ... .. . ... : ... .. . ... : ... .. . ... : ... .. . ... : ... .. . ...
ROW 0C : G-3 17 . ... : ... .. . ... : ... .. . ... : ... .. . ... : ... .. . ...
ROW 0D : ... .. . ... : ... .. . ... : ... .. . ... : ... .. . ... : ... .. . ...
ROW 0E : A#3 17 . ... : ... .. . ... : ... .. . ... : ... .. . ... : ... .. . ...
ROW 0F : ... .. . ... : ... .. . ... : ... .. . ... : ... .. . ... : ... .. . ...
ROW 10 : D#3 17 . ... : ... .. . ... : ... .. . ... : ... .. . ... : ... .. . ...
ROW 11 : ... .. . ... : ... .. . ... : ... .. . ... : ... .. . ... : ... .. . ...
ROW 12 : A-3 17 . ... : ... .. . ... : ... .. . ... : ... .. . ... : ... .. . ...
ROW 13 : ... .. . ... : ... .. . ... : ... .. . ... : ... .. . ... : ... .. . ...
ROW 14 : ... .. . ... : ... .. . ... : ... .. . ... : ... .. . ... : ... .. . ...
ROW 15 : ... .. . ... : ... .. . ... : ... .. . ... : ... .. . ... : ... .. . ...
ROW 16 : ... .. . ... : ... .. . ... : ... .. . ... : ... .. . ... : ... .. . ...
ROW 17 : ... .. . ... : ... .. . ... : ... .. . ... : ... .. . ... : ... .. . ...
ROW 18 : G-3 17 . ... : ... .. . ... : ... .. . ... : ... .. . ... : ... .. . ...
ROW 19 : ... .. . ... : ... .. . ... : ... .. . ... : ... .. . ... : ... .. . ...
ROW 1A : ... .. . ... : ... .. . ... : ... .. . ... : ... .. . ... : ... .. . ...
ROW 1B : ... .. . ... : ... .. . ... : ... .. . ... : ... .. . ... : ... .. . ...
ROW 1C : ... .. . ... : ... .. . ... : ... .. . ... : ... .. . ... : ... .. . ...
ROW 1D : ... .. . ... : ... .. . ... : ... .. . ... : ... .. . ... : ... .. . ...
ROW 1E : ... .. . ... : ... .. . ... : ... .. . ... : ... .. . ... : ... .. . ...
ROW 1F : ... .. . ... : ... .. . ... : ... .. . ... : ... .. . ... : ... .. . ...
ROW 20 : C-2 09 . ... : ... .. . ... : ... .. . ... : ... .. . ... : ... .. . ...
ROW 21 : ... .. . ... : ... .. . ... : ... .. . ... : ... .. . ... : ... .. . ...
ROW 22 : ... .. . ... : ... .. . ... : ... .. . ... : ... .. . ... : ... .. . ...
ROW 23 : ... .. . ... : ... .. . ... : ... .. . ... : ... .. . ... : ... .. . ...
ROW 24 : E-3 17 . ... : ... .. . ... : ... .. . ... : ... .. . ... : ... .. . ...
ROW 25 : ... .. . ... : ... .. . ... : ... .. . ... : ... .. . ... : ... .. . ...
ROW 26 : A#2 17 . ... : ... .. . ... : ... .. . ... : ... .. . ... : ... .. . ...
ROW 27 : ... .. . ... : ... .. . ... : ... .. . ... : ... .. . ... : ... .. . ...
ROW 28 : ... .. . ... : ... .. . ... : ... .. . ... : ... .. . ... : ... .. . ...
ROW 29 : ... .. . ... : ... .. . ... : ... .. . ... : ... .. . ... : ... .. . ...
ROW 2A : ... .. . ... : ... .. . ... : ... .. . ... : ... .. . ... : ... .. . ...
ROW 2B : ... .. . ... : ... .. . ... : ... .. . ... : ... .. . ... : ... .. . ...
ROW 2C : G-3 17 . ... : ... .. . ... : ... .. . ... : ... .. . ... : ... .. . ...
ROW 2D : ... .. . ... : ... .. . ... : ... .. . ... : ... .. . ... : ... .. . ...
ROW 2E : A#3 17 . ... : ... .. . ... : ... .. . ... : ... .. . ... : ... .. . ...
ROW 2F : ... .. . ... : ... .. . ... : ... .. . ... : ... .. . ... : ... .. . ...
ROW 30 : D#3 17 . ... : ... .. . ... : ... .. . ... : ... .. . ... : ... .. . ...
ROW 31 : ... .. . ... : ... .. . ... : ... .. . ... : ... .. . ... : ... .. . ...
ROW 32 : A-3 17 . ... : ... .. . ... : ... .. . ... : ... .. . ... : ... .. . ...
ROW 33 : ... .. . ... : ... .. . ... : ... .. . ... : ... .. . ... : ... .. . ...
ROW 34 : ... .. . ... : ... .. . ... : ... .. . ... : ... .. . ... : ... .. . ...
ROW 35 : ... .. . ... : ... .. . ... : ... .. . ... : ... .. . ... : ... .. . ...
ROW 36 : ... .. . ... : ... .. . ... : ... .. . ... : ... .. . ... : ... .. . ...
ROW 37 : ... .. . ... : ... .. . ... : ... .. . ... : ... .. . ... : ... .. . ...
ROW 38 : F#3 17 . ... : ... .. . ... : ... .. . ... : ... .. . ... : ... .. . ...
ROW 39 : ... .. . ... : ... .. . ... : ... .. . ... : ... .. . ... : ... .. . ...
ROW 3A : ... .. . ... : ... .. . ... : ... .. . ... : ... .. . ... : ... .. . ...
ROW 3B : ... .. . ... : ... .. . ... : ... .. . ... : ... .. . ... : ... .. . ...
ROW 3C : ... .. . ... : ... .. . ... : ... .. . ... : ... .. . ... : ... .. . ...
ROW 3D : ... .. . ... : ... .. . ... : ... .. . ... : ... .. . ... : ... .. . ...
ROW 3E : G-3 17 . ... : ... .. . ... : ... .. . ... : ... .. . ... : ... .. . ...
ROW 3F : ... .. . ... : ... .. . ... : ... .. . ... : ... .. . ... : ... .. . ...
PATTERN 05
ROW 00 : C-3 09 . ... : ... .. . ... : ... .. . ... : ... .. . ... : ... .. . ...
ROW 01 : ... .. . ... : ... .. . ... : ... .. . ... : ... .. . ... : ... .. . ...
ROW 02 : ... .. . ... : ... .. . ... : ... .. . ... : ... .. . ... : ... .. . ...
ROW 03 : ... .. . ... : ... .. . ... : ... .. . ... : ... .. . ... : ... .. . ...
ROW 04 : E-3 17 . ... : ... .. . ... : ... .. . ... : ... .. . ... : ... .. . ...
ROW 05 : ... .. . ... : ... .. . ... : ... .. . ... : ... .. . ... : ... .. . ...
ROW 06 : A#2 17 . ... : ... .. . ... : ... .. . ... : ... .. . ... : ... .. . ...
ROW 07 : ... .. . ... : ... .. . ... : ... .. . ... : ... .. . ... : ... .. . ...
ROW 08 : ... .. . ... : ... .. . ... : ... .. . ... : ... .. . ... : ... .. . ...
ROW 09 : ... .. . ... : ... .. . ... : ... .. . ... : ... .. . ... : ... .. . ...
ROW 0A : ... .. . ... : ... .. . ... : ... .. . ... : ... .. . ... : ... .. . ...
ROW 0B : ... .. . ... : ... .. . ... : ... .. . ... : ... .. . ... : ... .. . ...
ROW 0C : G-3 17 . ... : ... .. . ... : ... .. . ... : ... .. . ... : ... .. . ...
ROW 0D : ... .. . ... : ... .. . ... : ... .. . ... : ... .. . ... : ... .. . ...
ROW 0E : A#3 17 . ... : ... .. . ... : ... .. . ... : ... .. . ... : ... .. . ...
ROW 0F : ... .. . ... : ... .. . ... : ... .. . ... : ... .. . ... : ... .. . ...
ROW 10 : D#3 17 . ... : ... .. . ... : ... .. . ... : ... .. . ... : ... .. . ...
ROW 11 : ... .. . ... : ... .. . ... : ... .. . ... : ... .. . ... : ... .. . ...
ROW 12 : A-3 17 . ... : ... .. . ... : ... .. . ... : ... .. . ... : ... .. . ...
ROW 13 : ... .. . ... : ... .. . ... : ... .. . ... : ... .. . ... : ... .. . ...
ROW 14 : ... .. . ... : ... .. . ... : ... .. . ... : ... .. . ... : ... .. . ...
ROW 15 : ... .. . ... : ... .. . ... : ... .. . ... : ... .. . ... : ... .. . ...
ROW 16 : ... .. . ... : ... .. . ... : ... .. . ... : ... .. . ... : ... .. . ...
ROW 17 : ... .. . ... : ... .. . ... : ... .. . ... : ... .. . ... : ... .. . ...
ROW 18 : G-3 17 . ... : ... .. . ... : ... .. . ... : ... .. . ... : ... .. . ...
ROW 19 : ... .. . ... : ... .. . ... : ... .. . ... : ... .. . ... : ... .. . ...
ROW 1A : ... .. . ... : ... .. . ... : ... .. . ... : ... .. . ... : ... .. . ...
ROW 1B : ... .. . ... : ... .. . ... : ... .. . ... : ... .. . ... : ... .. . ...
ROW 1C : ... .. . ... : ... .. . ... : ... .. . ... : ... .. . ... : ... .. . ...
ROW 1D : ... .. . ... : ... .. . ... : ... .. . ... : ... .. . ... : ... .. . ...
ROW 1E : ... .. . ... : ... .. . ... : ... .. . ... : ... .. . ... : ... .. . ...
ROW 1F : ... .. . ... : ... .. . ... : ... .. . ... : ... .. . ... : ... .. . ...
ROW 20 : G-3 09 . ... : ... .. . ... : ... .. . ... : ... .. . ... : ... .. . ...
ROW 21 : ... .. . ... : ... .. . ... : ... .. . ... : ... .. . ... : ... .. . ...
ROW 22 : ... .. . ... : ... .. . ... : ... .. . ... : ... .. . ... : ... .. . ...
ROW 23 : ... .. . ... : ... .. . ... : ... .. . ... : ... .. . ... : ... .. . ...
ROW 24 : E-3 17 . ... : ... .. . ... : ... .. . ... : ... .. . ... : ... .. . ...
ROW 25 : ... .. . ... : ... .. . ... : ... .. . ... : ... .. . ... : ... .. . ...
ROW 26 : A#2 17 . ... : ... .. . ... : ... .. . ... : ... .. . ... : ... .. . ...
ROW 27 : ... .. . ... : ... .. . ... : ... .. . ... : ... .. . ... : ... .. . ...
ROW 28 : ... .. . ... : ... .. . ... : ... .. . ... : ... .. . ... : ... .. . ...
ROW 29 : ... .. . ... : ... .. . ... : ... .. . ... : ... .. . ... : ... .. . ...
ROW 2A : ... .. . ... : ... .. . ... : ... .. . ... : ... .. . ... : ... .. . ...
ROW 2B : ... .. . ... : ... .. . ... : ... .. . ... : ... .. . ... : ... .. . ...
ROW 2C : G-3 17 . ... : ... .. . ... : ... .. . ... : ... .. . ... : ... .. . ...
ROW 2D : ... .. . ... : ... .. . ... : ... .. . ... : ... .. . ... : ... .. . ...
ROW 2E : A#3 17 . ... : ... .. . ... : ... .. . ... : ... .. . ... : ... .. . ...
ROW 2F : ... .. . ... : ... .. . ... : ... .. . ... : ... .. . ... : ... .. . ...
ROW 30 : D#3 17 . ... : ... .. . ... : ... .. . ... : ... .. . ... : ... .. . ...
ROW 31 : ... .. . ... : ... .. . ... : ... .. . ... : ... .. . ... : ... .. . ...
ROW 32 : A-3 17 . ... : ... .. . ... : ... .. . ... : ... .. . ... : ... .. . ...
ROW 33 : ... .. . ... : ... .. . ... : ... .. . ... : ... .. . ... : ... .. . ...
ROW 34 : ... .. . ... : ... .. . ... : ... .. . ... : ... .. . ... : ... .. . ...
ROW 35 : ... .. . ... : ... .. . ... : ... .. . ... : ... .. . ... : ... .. . ...
ROW 36 : ... .. . ... : ... .. . ... : ... .. . ... : ... .. . ... : ... .. . ...
ROW 37 : ... .. . ... : ... .. . ... : ... .. . ... : ... .. . ... : ... .. . ...
ROW 38 : F#3 17 . ... : ... .. . ... : ... .. . ... : ... .. . ... : ... .. . ...
ROW 39 : ... .. . ... : ... .. . ... : ... .. . ... : ... .. . ... : ... .. . ...
ROW 3A : ... .. . ... : ... .. . ... : ... .. . ... : ... .. . ... : ... .. . ...
ROW 3B : ... .. . ... : ... .. . ... : ... .. . ... : ... .. . ... : ... .. . ...
ROW 3C : ... .. . ... : ... .. . ... : ... .. . ... : ... .. . ... : ... .. . ...
ROW 3D : ... .. . ... : ... .. . ... : ... .. . ... : ... .. . ... : ... .. . ...
ROW 3E : G-3 17 . ... : ... .. . ... : ... .. . ... : ... .. . ... : ... .. . ...
ROW 3F : ... .. . ... : ... .. . ... : ... .. . ... : ... .. . ... : ... .. . ...
PATTERN 06
ROW 00 : C-2 09 . ... : ... .. . ... : ... .. . ... : ... .. . ... : ... .. . ...
ROW 01 : ... .. . ... : ... .. . ... : ... .. . ... : ... .. . ... : ... .. . ...
ROW 02 : ... .. . ... : ... .. . ... : ... .. . ... : ... .. . ... : ... .. . ...
ROW 03 : ... .. . ... : ... .. . ... : ... .. . ... : ... .. . ... : ... .. . ...
ROW 04 : E-3 17 . ... : ... .. . ... : ... .. . ... : ... .. . ... : ... .. . ...
ROW 05 : ... .. . ... : ... .. . ... : ... .. . ... : ... .. . ... : ... .. . ...
ROW 06 : A#2 17 . ... : ... .. . ... : ... .. . ... : ... .. . ... : ... .. . ...
ROW 07 : ... .. . ... : ... .. . ... : ... .. . ... : ... .. . ... : ... .. . ...
ROW 08 : ... .. . ... : ... .. . ... : ... .. . ... : ... .. . ... : ... .. . ...
ROW 09 : ... .. . ... : ... .. . ... : ... .. . ... : ... .. . ... : ... .. . ...
ROW 0A : ... .. . ... : ... .. . ... : ... .. . ... : ... .. . ... : ... .. . ...
ROW 0B : ... .. . ... : ... .. . ... : ... .. . ... : ... .. . ... : ... .. . ...
ROW 0C : G-3 17 . ... : ... .. . ... : ... .. . ... : ... .. . ... : ... .. . ...
ROW 0D : ... .. . ... : ... .. . ... : ... .. . ... : ... .. . ... : ... .. . ...
ROW 0E : A#3 17 . ... : ... .. . ... : ... .. . ... : ... .. . ... : ... .. . ...
ROW 0F : ... .. . ... : ... .. . ... : ... .. . ... : ... .. . ... : ... .. . ...
ROW 10 : D#3 17 . ... : ... .. . ... : ... .. . ... : ... .. . ... : ... .. . ...
ROW 11 : ... .. . ... : ... .. . ... : ... .. . ... : ... .. . ... : ... .. . ...
ROW 12 : A-3 17 . ... : ... .. . ... : ... .. . ... : ... .. . ... : ... .. . ...
ROW 13 : ... .. . ... : ... .. . ... : ... .. . ... : ... .. . ... : ... .. . ...
ROW 14 : ... .. . ... : ... .. . ... : ... .. . ... : ... .. . ... : ... .. . ...
ROW 15 : ... .. . ... : ... .. . ... : ... .. . ... : ... .. . ... : ... .. . ...
ROW 16 : ... .. . ... : ... .. . ... : ... .. . ... : ... .. . ... : ... .. . ...
ROW 17 : ... .. . ... : ... .. . ... : ... .. . ... : ... .. . ... : ... .. . ...
ROW 18 : G-3 17 . ... : ... .. . ... : ... .. . ... : ... .. . ... : ... .. . ...
ROW 19 : ... .. . ... : ... .. . ... : ... .. . ... : ... .. . ... : ... .. . ...
ROW 1A : ... .. . ... : ... .. . ... : ... .. . ... : ... .. . ... : ... .. . ...
ROW 1B : ... .. . ... : ... .. . ... : ... .. . ... : ... .. . ... : ... .. . ...
ROW 1C : ... .. . ... : ... .. . ... : ... .. . ... : ... .. . ... : ... .. . ...
ROW 1D : ... .. . ... : ... .. . ... : ... .. . ... : ... .. . ... : ... .. . ...
ROW 1E : ... .. . ... : ... .. . ... : ... .. . ... : ... .. . ... : ... .. . ...
ROW 1F : ... .. . ... : ... .. . ... : ... .. . ... : ... .. . ... : ... .. . ...
ROW 20 : G-3 09 . ... : ... .. . ... : ... .. . ... : ... .. . ... : ... .. . ...
ROW 21 : ... .. . ... : ... .. . ... : ... .. . ... : ... .. . ... : ... .. . ...
ROW 22 : ... .. . ... : ... .. . ... : ... .. . ... : ... .. . ... : ... .. . ...
ROW 23 : ... .. . ... : ... .. . ... : ... .. . ... : ... .. . ... : ... .. . ...
ROW 24 : E-3 17 . ... : ... .. . ... : ... .. . ... : ... .. . ... : ... .. . ...
ROW 25 : ... .. . ... : ... .. . ... : ... .. . ... : ... .. . ... : ... .. . ...
ROW 26 : A#2 17 . ... : ... .. . ... : ... .. . ... : ... .. . ... : ... .. . ...
ROW 27 : ... .. . ... : ... .. . ... : ... .. . ... : ... .. . ... : ... .. . ...
ROW 28 : ... .. . ... : ... .. . ... : ... .. . ... : ... .. . ... : ... .. . ...
ROW 29 : ... .. . ... : ... .. . ... : ... .. . ... : ... .. . ... : ... .. . ...
ROW 2A : ... .. . ... : ... .. . ... : ... .. . ... : ... .. . ... : ... .. . ...
ROW 2B : ... .. . ... : ... .. . ... : ... .. . ... : ... .. . ... : ... .. . ...
ROW 2C : G-3 17 . ... : ... .. . ... : ... .. . ... : ... .. . ... : ... .. . ...
ROW 2D : ... .. . ... : ... .. . ... : ... .. . ... : ... .. . ... : ... .. . ...
ROW 2E : A#3 17 . ... : ... .. . ... : ... .. . ... : ... .. . ... : ... .. . ...
ROW 2F : ... .. . ... : ... .. . ... : ... .. . ... : ... .. . ... : ... .. . ...
ROW 30 : D#3 17 . ... : ... .. . ... : ... .. . ... : ... .. . ... : ... .. . ...
ROW 31 : ... .. . ... : ... .. . ... : ... .. . ... : ... .. . ... : ... .. . ...
ROW 32 : A-3 17 . ... : ... .. . ... : ... .. . ... : ... .. . ... : ... .. . ...
ROW 33 : ... .. . ... : ... .. . ... : ... .. . ... : ... .. . ... : ... .. . ...
ROW 34 : ... .. . ... : ... .. . ... : ... .. . ... : ... .. . ... : ... .. . ...
ROW 35 : ... .. . ... : ... .. . ... : ... .. . ... : ... .. . ... : ... .. . ...
ROW 36 : ... .. . ... : ... .. . ... : ... .. . ... : ... .. . ... : ... .. . ...
ROW 37 : ... .. . ... : ... .. . ... : ... .. . ... : ... .. . ... : ... .. . ...
ROW 38 : F#3 17 . ... : ... .. . ... : ... .. . ... : ... .. . ... : ... .. . ...
ROW 39 : ... .. . ... : ... .. . ... : ... .. . ... : ... .. . ... : ... .. . ...
ROW 3A : ... .. . ... : ... .. . ... : ... .. . ... : ... .. . ... : ... .. . ...
ROW 3B : ... .. . ... : ... .. . ... : ... .. . ... : ... .. . ... : ... .. . ...
ROW 3C : ... .. . ... : ... .. . ... : ... .. . ... : ... .. . ... : ... .. . ...
ROW 3D : ... .. . ... : ... .. . ... : ... .. . ... : ... .. . ... : ... .. . ...
ROW 3E : G-3 17 . ... : ... .. . ... : ... .. . ... : ... .. . ... : ... .. . ...
ROW 3F : ... .. . ... : ... .. . ... : ... .. . ... : ... .. . ... : ... .. . ...

# track BOOKMARKS block

# track HEADER block
TRACK  64   3 150 "Tree Roar"
COLUMNS : 1 1 1 1 2

# track FRAMES block
ORDER 00 : 00 00 00 00 00

# track PATTERNS block
PATTERN 00
ROW 00 : ... .. . ... : ... .. . ... : ... .. . ... : ... .. . ... : C-3 11 0 W0E ...
ROW 01 : ... .. . ... : ... .. . ... : ... .. . ... : ... .. . ... : ... .. . ... ...
ROW 02 : ... .. . ... : ... .. . ... : ... .. . ... : ... .. . ... : ... .. . ... ...
ROW 03 : ... .. . ... : ... .. . ... : ... .. . ... : ... .. . ... : ... .. . ... ...
ROW 04 : ... .. . ... : ... .. . ... : ... .. . ... : ... .. . ... : ... .. . ... ...
ROW 05 : ... .. . ... : ... .. . ... : ... .. . ... : ... .. . ... : ... .. . ... ...
ROW 06 : ... .. . ... : ... .. . ... : ... .. . ... : ... .. . ... : ... .. . ... ...
ROW 07 : ... .. . ... : ... .. . ... : ... .. . ... : ... .. . ... : ... .. . ... ...
ROW 08 : ... .. . ... : ... .. . ... : ... .. . ... : ... .. . ... : ... .. . ... ...
ROW 09 : ... .. . ... : ... .. . ... : ... .. . ... : ... .. . ... : ... .. . ... ...
ROW 0A : ... .. . ... : ... .. . ... : ... .. . ... : ... .. . ... : ... .. . ... ...
ROW 0B : ... .. . ... : ... .. . ... : ... .. . ... : ... .. . ... : ... .. . ... ...
ROW 0C : ... .. . ... : ... .. . ... : ... .. . ... : ... .. . ... : ... .. . ... ...
ROW 0D : ... .. . ... : ... .. . ... : ... .. . ... : ... .. . ... : ... .. . ... ...
ROW 0E : ... .. . ... : ... .. . ... : ... .. . ... : ... .. . ... : ... .. . ... ...
ROW 0F : ... .. . ... : ... .. . ... : ... .. . ... : ... .. . ... : ... .. . ... ...
ROW 10 : ... .. . ... : ... .. . ... : ... .. . ... : ... .. . ... : ... .. . ... ...
ROW 11 : ... .. . ... : ... .. . ... : ... .. . ... : ... .. . ... : ... .. . ... ...
ROW 12 : ... .. . ... : ... .. . ... : ... .. . ... : ... .. . ... : ... .. . ... ...
ROW 13 : ... .. . ... : ... .. . ... : ... .. . ... : ... .. . ... : ... .. . ... ...
ROW 14 : ... .. . ... : ... .. . ... : ... .. . ... : ... .. . ... : ... .. . ... ...
ROW 15 : ... .. . ... : ... .. . ... : ... .. . ... : ... .. . ... : ... .. . ... ...
ROW 16 : ... .. . ... : ... .. . ... : ... .. . ... : ... .. . ... : ... .. . ... ...
ROW 17 : ... .. . ... : ... .. . ... : ... .. . ... : ... .. . ... : ... .. . ... ...
ROW 18 : ... .. . ... : ... .. . ... : ... .. . ... : ... .. . ... : ... .. . ... ...
ROW 19 : ... .. . ... : ... .. . ... : ... .. . ... : ... .. . ... : ... .. . ... ...
ROW 1A : ... .. . ... : ... .. . ... : ... .. . ... : ... .. . ... : ... .. . ... ...
ROW 1B : ... .. . ... : ... .. . ... : ... .. . ... : ... .. . ... : ... .. . ... ...
ROW 1C : ... .. . ... : ... .. . ... : ... .. . ... : ... .. . ... : ... .. . ... ...
ROW 1D : ... .. . ... : ... .. . ... : ... .. . ... : ... .. . ... : ... .. . ... ...
ROW 1E : ... .. . ... : ... .. . ... : ... .. . ... : ... .. . ... : ... .. . ... ...
ROW 1F : ... .. . ... : ... .. . ... : ... .. . ... : ... .. . ... : ... .. . ... ...
ROW 20 : ... .. . ... : ... .. . ... : ... .. . ... : 0-# 11 7 V00 : ... .. . ... ...
ROW 21 : ... .. . ... : ... .. . ... : ... .. . ... : ... .. 8 ... : ... .. . ... ...
ROW 22 : ... .. . ... : ... .. . ... : ... .. . ... : ... .. 9 ... : ... .. . ... ...
ROW 23 : ... .. . ... : ... .. . ... : ... .. . ... : ... .. . ... : ... .. . ... ...
ROW 24 : ... .. . ... : ... .. . ... : ... .. . ... : 1-# 11 A ... : ... .. . ... ...
ROW 25 : ... .. . ... : ... .. . ... : ... .. . ... : ... .. . ... : ... .. . ... ...
ROW 26 : ... .. . ... : ... .. . ... : ... .. . ... : ... .. B ... : ... .. . ... ...
ROW 27 : ... .. . ... : ... .. . ... : ... .. . ... : ... .. . ... : ... .. . ... ...
ROW 28 : ... .. . ... : ... .. . ... : ... .. . ... : ... .. A ... : ... .. . ... ...
ROW 29 : ... .. . ... : ... .. . ... : ... .. . ... : ... .. . ... : ... .. . ... ...
ROW 2A : ... .. . ... : ... .. . ... : ... .. . ... : ... .. C ... : ... .. . ... ...
ROW 2B : ... .. . ... : ... .. . ... : ... .. . ... : ... .. . ... : ... .. . ... ...
ROW 2C : ... .. . ... : ... .. . ... : ... .. . ... : 1-# 11 C ... : ... .. . ... ...
ROW 2D : ... .. . ... : ... .. . ... : ... .. . ... : ... .. . ... : ... .. . ... ...
ROW 2E : ... .. . ... : ... .. . ... : ... .. . ... : ... .. C ... : ... .. . ... ...
ROW 2F : ... .. . ... : ... .. . ... : ... .. . ... : ... .. . ... : ... .. . ... ...
ROW 30 : ... .. . ... : ... .. . ... : ... .. . ... : ... .. B ... : ... .. . ... ...
ROW 31 : ... .. . ... : ... .. . ... : ... .. . ... : ... .. . ... : ... .. . ... ...
ROW 32 : ... .. . ... : ... .. . ... : ... .. . ... : ... .. A ... : ... .. . ... ...
ROW 33 : ... .. . ... : ... .. . ... : ... .. . ... : ... .. . ... : ... .. . ... ...
ROW 34 : ... .. . ... : ... .. . ... : ... .. . ... : 1-# 11 9 ... : ... .. . ... ...
ROW 35 : ... .. . ... : ... .. . ... : ... .. . ... : ... .. . ... : ... .. . ... ...
ROW 36 : ... .. . ... : ... .. . ... : ... .. . ... : ... .. 8 ... : ... .. . ... ...
ROW 37 : ... .. . ... : ... .. . ... : ... .. . ... : ... .. . ... : ... .. . ... ...
ROW 38 : ... .. . ... : ... .. . ... : ... .. . ... : 0-# 11 7 ... : ... .. . ... ...
ROW 39 : ... .. . ... : ... .. . ... : ... .. . ... : ... .. . ... : ... .. . ... ...
ROW 3A : ... .. . ... : ... .. . ... : ... .. . ... : ... .. 6 ... : ... .. . ... ...
ROW 3B : ... .. . ... : ... .. . ... : ... .. . ... : ... .. 5 ... : ... .. . ... ...
ROW 3C : ... .. . ... : ... .. . ... : ... .. . ... : --- .. . ... : ... .. . ... ...
ROW 3D : ... .. . ... : ... .. . ... : ... .. . ... : ... .. . ... : ... .. . ... ...
ROW 3E : ... .. . ... : ... .. . ... : ... .. . ... : ... .. . ... : ... .. . ... ...
ROW 3F : ... .. . ... : ... .. . ... : ... .. . ... : ... .. . ... : ... .. . ... ...

# track BOOKMARKS block

# track HEADER block
TRACK  32   7 150 "Opening"
COLUMNS : 2 2 1 1 1

# track FRAMES block
ORDER 00 : 00 00 00 00 00
ORDER 01 : 01 01 01 01 01
ORDER 02 : 02 02 01 01 01
ORDER 03 : 03 03 01 01 01
ORDER 04 : 01 01 01 01 01
ORDER 05 : 01 01 01 01 01
ORDER 06 : 02 02 01 01 01
ORDER 07 : 03 03 01 01 02

# track PATTERNS block
PATTERN 00
ROW 00 : D#3 0D F ... F03 : ... .. . ... ... : C-3 01 . S05 : 9-# 03 . ... : ... .. . ...
ROW 01 : F-3 0D . ... F04 : ... .. . ... ... : ... .. . ... : ... .. . ... : ... .. . ...
ROW 02 : G#3 0D . ... F03 : ... .. . ... ... : ... .. . ... : ... .. . ... : ... .. . ...
ROW 03 : A#3 0D . ... F04 : --- .. . ... ... : ... .. . ... : ... .. . ... : ... .. . ...
ROW 04 : C-4 0D . ... F03 : ... .. . ... ... : D-3 02 . S02 : 7-# 04 . ... : ... .. . ...
ROW 05 : D#4 0D . ... F04 : ... .. . ... ... : ... .. . ... : ... .. . ... : ... .. . ...
ROW 06 : F-4 0D . ... F03 : ... .. . ... ... : ... .. . ... : ... .. . ... : ... .. . ...
ROW 07 : G#4 0D . ... F04 : ... .. . ... ... : ... .. . ... : ... .. . ... : ... .. . ...
ROW 08 : F-4 0D . ... F03 : ... .. . ... ... : C-3 01 . S05 : 9-# 03 . ... : ... .. . ...
ROW 09 : D#4 0D . ... F04 : ... .. . ... ... : ... .. . ... : ... .. . ... : ... .. . ...
ROW 0A : C-4 0D . ... F03 : ... .. . ... ... : ... .. . ... : ... .. . ... : ... .. . ...
ROW 0B : A#3 0D . ... F04 : ... .. . ... ... : ... .. . ... : ... .. . ... : ... .. . ...
ROW 0C : G#3 0D . ... F03 : ... .. . ... ... : D-3 02 . S02 : 7-# 04 . ... : ... .. . ...
ROW 0D : F-3 0D . ... F04 : ... .. . ... ... : ... .. . ... : ... .. . ... : ... .. . ...
ROW 0E : D#3 0D . ... F03 : ... .. . ... ... : ... .. . ... : ... .. . ... : ... .. . ...
ROW 0F : C-3 0D . ... F04 : ... .. . ... ... : ... .. . ... : ... .. . ... : ... .. . ...
ROW 10 : D#3 0D . ... F03 : ... .. . ... ... : C-3 01 . S05 : 9-# 03 . ... : ... .. . ...
ROW 11 : F-3 0D . ... F04 : ... .. . ... ... : ... .. . ... : ... .. . ... : ... .. . ...
ROW 12 : G#3 0D . ... F03 : ... .. . ... ... : ... .. . ... : ... .. . ... : ... .. . ...
ROW 13 : A#3 0D . ... F04 : ... .. . ... ... : ... .. . ... : ... .. . ... : ... .. . ...
ROW 14 : C-4 0D . ... F03 : ... .. . ... ... : D-3 02 . S02 : 7-# 04 . ... : ... .. . ...
ROW 15 : D#4 0D . ... F04 : ... .. . ... ... : ... .. . ... : ... .. . ... : ... .. . ...
ROW 16 : F-4 0D . ... F03 : ... .. . ... ... : ... .. . ... : ... .. . ... : ... .. . ...
ROW 17 : G#4 0D . ... F04 : ... .. . ... ... : ... .. . ... : ... .. . ... : ... .. . ...
ROW 18 : F-4 0D . ... F03 : ... .. . ... ... : C-3 01 . S05 : 9-# 03 . ... : ... .. . ...
ROW 19 : D#4 0D . ... F04 : ... .. . ... ... : ... .. . ... : ... .. . ... : ... .. . ...
ROW 1A : C-4 0D . ... F03 : ... .. . ... ... : ... .. . ... : ... .. . ... : ... .. . ...
ROW 1B : A#3 0D . ... F04 : ... .. . ... ... : ... .. . ... : ... .. . ... : ... .. . ...
ROW 1C : G#3 0D . ... F03 : ... .. . ... ... : C-3 01 . S05 : 9-# 03 . ... : ... .. . ...
ROW 1D : F-3 0D . ... F04 : ... .. . ... ... : ... .. . ... : ... .. . ... : ... .. . ...
ROW 1E : D#3 0D . ... F03 : ... .. . ... ... : ... .. . ... : 9-# 03 . ... : ... .. . ...
ROW 1F : C-3 0D . ... F04 : ... .. . ... ... : ... .. . ... : ... .. . ... : ... .. . ...
PATTERN 01
ROW 00 : F-2 08 . ... F07 : ... .. . ... ... : F-2 01 . ... : 9-# 03 . ... : ... .. . ...
ROW 01 : ... .. . ... ... : ... .. . ... ... : ... .. . ... : ... .. . ... : ... .. . ...
ROW 02 : ... .. . ... ... : F-1 0C . ... ... : F-2 02 . S02 : 7-# 04 . ... : ... .. . ...
ROW 03 : ... .. . ... ... : F-1 0C . ... ... : ... .. . ... : ... .. . ... : ... .. . ...
ROW 04 : F-2 09 . ... ... : G#1 0C . ... ... : F-2 01 . ... : 9-# 03 . ... : ... .. . ...
ROW 05 : ... .. . ... ... : ... .. . ... ... : ... .. . ... : ... .. . ... : ... .. . ...
ROW 06 : ... .. . ... ... : F-1 0C . ... ... : F-2 02 . S02 : 7-# 04 . ... : ... .. . ...
ROW 07 : ... .. . ... ... : ... .. . ... ... : ... .. . ... : ... .. . ... : ... .. . ...
ROW 08 : ... .. . ... ... : ... .. . ... ... : F-2 01 . ... : 9-# 03 . ... : ... .. . ...
ROW 09 : ... .. . ... ... : ... .. . ... ... : ... .. . ... : ... .. . ... : ... .. . ...
ROW 0A : ... .. . ... ... : F-2 0C . ... ... : F-2 02 . S02 : 7-# 04 . ... : ... .. . ...
ROW 0B : ... .. . ... ... : F-2 0C . ... ... : ... .. . ... : ... .. . ... : ... .. . ...
ROW 0C : ... .. . ... ... : G#2 0C . ... ... : F-2 01 . ... : 9-# 03 . ... : ... .. . ...
ROW 0D : ... .. . ... ... : ... .. . ... ... : ... .. . ... : ... .. . ... : ... .. . ...
ROW 0E : ... .. . ... ... : F-2 0C . ... ... : F-2 01 . S05 : 9-# 03 . ... : ... .. . ...
ROW 0F : ... .. . ... ... : ... .. . ... ... : F-2 01 . S05 : 9-# 03 . ... : ... .. . ...
ROW 10 : ... .. . ... ... : ... .. . ... ... : F-2 01 . ... : 9-# 03 . ... : ... .. . ...
ROW 11 : ... .. . ... ... : ... .. . ... ... : ... .. . ... : ... .. . ... : ... .. . ...
ROW 12 : ... .. . ... ... : F-1 0C . ... ... : F-2 02 . S02 : 7-# 04 . ... : ... .. . ...
ROW 13 : ... .. . ... ... : F-1 0C . ... ... : ... .. . ... : ... .. . ... : ... .. . ...
ROW 14 : ... .. . ... ... : G#1 0C . ... ... : F-2 01 . ... : 9-# 03 . ... : ... .. . ...
ROW 15 : ... .. . ... ... : ... .. . ... ... : ... .. . ... : ... .. . ... : ... .. . ...
ROW 16 : ... .. . ... ... : F-1 0C . ... ... : F-2 02 . S02 : 7-# 04 . ... : ... .. . ...
ROW 17 : ... .. . ... ... : ... .. . ... ... : ... .. . ... : ... .. . ... : ... .. . ...
ROW 18 : ... .. . ... ... : ... .. . ... ... : F-2 01 . ... : 9-# 03 . ... : ... .. . ...
ROW 19 : ... .. . ... ... : ... .. . ... ... : ... .. . ... : ... .. . ... : ... .. . ...
ROW 1A : ... .. . ... ... : F-2 0C . ... ... : F-2 02 . S02 : 7-# 04 . ... : ... .. . ...
ROW 1B : ... .. . ... ... : F-2 0C . ... ... : ... .. . ... : ... .. . ... : ... .. . ...
ROW 1C : ... .. . ... ... : G#2 0C . ... ... : F-2 01 . ... : 9-# 03 . ... : ... .. . ...
ROW 1D : ... .. . ... ... : ... .. . ... ... : ... .. . ... : ... .. . ... : ... .. . ...
ROW 1E : ... .. . ... ... : F-2 0C . ... ... : D#2 01 . ... : 9-# 03 . ... : ... .. . ...
ROW 1F : ... .. . ... ... : ... .. . ... ... : ... .. . ... : 9-# 03 . ... : ... .. . ...
PATTERN 02
ROW 00 : ... .. . ... ... : ... .. . ... ... : ... .. . ... : ... .. . ... : ... .. . ...
ROW 01 : ... .. . ... ... : ... .. . ... ... : ... .. . ... : ... .. . ... : ... .. . ...
ROW 02 : C-3 1C . ... ... : F-1 0C . ... ... : ... .. . ... : ... .. . ... : ... .. . ...
ROW 03 : ... .. . ... ... : F-1 0C . ... ... : ... .. . ... : ... .. . ... : ... .. . ...
ROW 04 : D#3 1C . ... ... : G#1 0C . ... ... : ... .. . ... : ... .. . ... : ... .. . ...
ROW 05 : ... .. . ... ... : C-3 1D . ... ... : ... .. . ... : ... .. . ... : ... .. . ...
ROW 06 : F-3 1C . ... ... : ... .. . ... ... : ... .. . ... : ... .. . ... : ... .. . ...
ROW 07 : ... .. . ... ... : D#3 1D . ... ... : ... .. . ... : ... .. . ... : ... .. . ...
ROW 08 : G#3 1C . ... ... : ... .. . ... ... : ... .. . ... : ... .. . ... : ... .. . ...
ROW 09 : F-3 1C . G07 ... : F-3 1D . ... ... : ... .. . ... : ... .. . ... : ... .. . ...
ROW 0A : G#3 1C . G03 ... : ... .. . ... ... : ... .. . ... : ... .. . ... : ... .. . ...
ROW 0B : F-3 1C . ... ... : G#3 1D . ... ... : ... .. . ... : ... .. . ... : ... .. . ...
ROW 0C : D#3 1C . ... ... : F-3 1D . G07 ... : ... .. . ... : ... .. . ... : ... .. . ...
ROW 0D : ... .. . ... ... : G#3 1D . G03 ... : ... .. . ... : ... .. . ... : ... .. . ...
ROW 0E : C-3 1C . ... ... : F-3 1D . ... ... : ... .. . ... : ... .. . ... : ... .. . ...
ROW 0F : A#2 1C . G07 ... : D#3 1D . ... ... : ... .. . ... : ... .. . ... : ... .. . ...
ROW 10 : C-3 1C . G03 ... : ... .. . ... ... : ... .. . ... : ... .. . ... : ... .. . ...
ROW 11 : A#2 1C . ... ... : C-3 1D . ... ... : ... .. . ... : ... .. . ... : ... .. . ...
ROW 12 : G#2 1C . ... ... : A#2 1D . G07 ... : ... .. . ... : ... .. . ... : ... .. . ...
ROW 13 : ... .. . ... ... : C-3 1D . G03 ... : ... .. . ... : ... .. . ... : ... .. . ...
ROW 14 : G#2 1C . Q24 ... : A#2 1D . ... ... : ... .. . ... : ... .. . ... : ... .. . ...
ROW 15 : ... .. . ... ... : G#2 1D . ... ... : ... .. . ... : ... .. . ... : ... .. . ...
ROW 16 : ... .. . ... ... : ... .. . ... ... : ... .. . ... : ... .. . ... : ... .. . ...
ROW 17 : ... .. . ... ... : G#2 1D . Q24 ... : ... .. . ... : ... .. . ... : ... .. . ...
ROW 18 : C-3 26 . ... ... : ... .. . ... ... : ... .. . ... : ... .. . ... : ... .. . ...
ROW 19 : ... .. . ... ... : ... .. . ... ... : ... .. . ... : ... .. . ... : ... .. . ...
ROW 1A : ... .. . ... ... : ... .. . ... ... : ... .. . ... : ... .. . ... : ... .. . ...
ROW 1B : ... .. . ... ... : C-3 27 . ... ... : ... .. . ... : ... .. . ... : ... .. . ...
ROW 1C : ... .. . ... ... : ... .. . ... ... : ... .. . ... : ... .. . ... : ... .. . ...
ROW 1D : ... .. . ... ... : ... .. . ... ... : ... .. . ... : ... .. . ... : ... .. . ...
ROW 1E : ... .. . ... ... : ... .. . ... ... : ... .. . ... : ... .. . ... : ... .. . ...
ROW 1F : ... .. . ... ... : ... .. . ... ... : ... .. . ... : ... .. . ... : ... .. . ...
PATTERN 03
ROW 00 : A#3 1C . ... ... : ... .. . ... ... : ... .. . ... : ... .. . ... : ... .. . ...
ROW 01 : ... .. . ... ... : ... .. . ... ... : ... .. . ... : ... .. . ... : ... .. . ...
ROW 02 : G#3 1C . ... ... : ... .. . ... ... : ... .. . ... : ... .. . ... : ... .. . ...
ROW 03 : ... .. . ... ... : A#3 1D . ... ... : ... .. . ... : ... .. . ... : ... .. . ...
ROW 04 : F-3 1C . ... ... : ... .. . ... ... : ... .. . ... : ... .. . ... : ... .. . ...
ROW 05 : ... .. . ... ... : G#3 1D . ... ... : ... .. . ... : ... .. . ... : ... .. . ...
ROW 06 : D#3 1C . ... ... : ... .. . ... ... : ... .. . ... : ... .. . ... : ... .. . ...
ROW 07 : ... .. . ... ... : F-3 1D . ... ... : ... .. . ... : ... .. . ... : ... .. . ...
ROW 08 : D#3 1C . Q22 ... : ... .. . ... ... : ... .. . ... : ... .. . ... : ... .. . ...
ROW 09 : ... .. . ... ... : D#3 1D . ... ... : ... .. . ... : ... .. . ... : ... .. . ...
ROW 0A : F-3 25 . ... ... : ... .. . ... ... : ... .. . ... : ... .. . ... : ... .. . ...
ROW 0B : ... .. . ... ... : D#3 1D . Q22 ... : ... .. . ... : ... .. . ... : ... .. . ...
ROW 0C : ... .. . ... ... : ... .. . ... ... : ... .. . ... : ... .. . ... : ... .. . ...
ROW 0D : G#3 1C . G07 ... : F-3 28 . ... ... : ... .. . ... : ... .. . ... : ... .. . ...
ROW 0E : A#3 1C . G03 ... : ... .. . ... ... : ... .. . ... : ... .. . ... : ... .. . ...
ROW 0F : D#3 1C . ... ... : ... .. . ... ... : ... .. . ... : ... .. . ... : ... .. . ...
ROW 10 : F-3 1C . ... ... : G#3 1D . G07 ... : ... .. . ... : ... .. . ... : ... .. . ...
ROW 11 : ... .. . ... ... : A#3 1D . G03 ... : ... .. . ... : ... .. . ... : ... .. . ...
ROW 12 : ... .. . ... ... : D#3 1D . ... ... : ... .. . ... : ... .. . ... : ... .. . ...
ROW 13 : ... .. . ... ... : F-3 1D . ... ... : ... .. . ... : ... .. . ... : ... .. . ...
ROW 14 : ... .. . ... ... : ... .. . ... ... : ... .. . ... : ... .. . ... : ... .. . ...
ROW 15 : ... .. . ... ... : ... .. . ... ... : ... .. . ... : ... .. . ... : ... .. . ...
ROW 16 : F-3 26 . ... ... : ... .. . ... ... : ... .. . ... : ... .. . ... : ... .. . ...
ROW 17 : ... .. . ... ... : ... .. . ... ... : ... .. . ... : ... .. . ... : ... .. . ...
ROW 18 : ... .. . ... ... : ... .. . ... ... : ... .. . ... : ... .. . ... : ... .. . ...
ROW 19 : ... .. . ... ... : F-3 27 . ... ... : ... .. . ... : ... .. . ... : ... .. . ...
ROW 1A : ... .. . ... ... : ... .. . ... ... : ... .. . ... : ... .. . ... : ... .. . ...
ROW 1B : ... .. . ... ... : ... .. . ... ... : ... .. . ... : ... .. . ... : ... .. . ...
ROW 1C : F-3 24 . G06 ... : ... .. . ... ... : ... .. . ... : ... .. . ... : ... .. . ...
ROW 1D : ... .. . ... ... : ... .. . ... ... : ... .. . ... : ... .. . ... : ... .. . ...
ROW 1E : ... .. . ... ... : ... .. . ... ... : ... .. . ... : ... .. . ... : ... .. . ...
ROW 1F : ... .. . ... ... : ... .. . ... ... : ... .. . ... : ... .. . ... : ... .. . ...

# track BOOKMARKS block

# track HEADER block
TRACK  64   7 150 "Courtyard"
COLUMNS : 1 1 1 1 1

# track FRAMES block
ORDER 00 : 00 00 00 00 00
ORDER 01 : 01 01 01 01 00
ORDER 02 : 01 01 01 01 00
ORDER 03 : 02 02 01 01 00
ORDER 04 : 03 01 01 01 00
ORDER 05 : 02 02 01 01 00
ORDER 06 : 03 01 01 01 00
ORDER 07 : 04 03 02 02 01
ORDER 08 : 05 04 01 01 00

# track PATTERNS block
PATTERN 00
ROW 00 : ... .. . F07 : D-1 0A . ... : D-2 01 . S05 : 9-# 03 . ... : ... .. . ...
ROW 01 : ... .. . ... : ... .. . ... : ... .. . ... : ... .. . ... : ... .. . ...
ROW 02 : ... .. . ... : ... .. . ... : ... .. . ... : ... .. . ... : ... .. . ...
ROW 03 : ... .. . ... : ... .. . ... : ... .. . ... : 3-# 0E . ... : ... .. . ...
ROW 04 : ... .. . ... : ... .. . ... : D-2 01 . S05 : 9-# 03 . ... : ... .. . ...
ROW 05 : ... .. . ... : ... .. . ... : ... .. . ... : ... .. . ... : ... .. . ...
ROW 06 : ... .. . ... : ... .. . ... : ... .. . ... : 2-# 0E . ... : ... .. . ...
ROW 07 : ... .. . ... : ... .. . ... : ... .. . ... : 2-# 0E . ... : ... .. . ...
ROW 08 : ... .. . ... : ... .. . ... : D-2 01 . S05 : 9-# 03 . ... : ... .. . ...
ROW 09 : ... .. . ... : ... .. . ... : ... .. . ... : ... .. . ... : ... .. . ...
ROW 0A : ... .. . ... : ... .. . ... : ... .. . ... : ... .. . ... : ... .. . ...
ROW 0B : ... .. . ... : ... .. . ... : ... .. . ... : 3-# 0E . ... : ... .. . ...
ROW 0C : ... .. . ... : ... .. . ... : D-2 01 . S05 : 9-# 03 . ... : ... .. . ...
ROW 0D : ... .. . ... : ... .. . ... : ... .. . ... : ... .. . ... : ... .. . ...
ROW 0E : ... .. . ... : ... .. . ... : ... .. . ... : 2-# 0E . ... : ... .. . ...
ROW 0F : ... .. . ... : ... .. . ... : ... .. . ... : 2-# 0E . ... : ... .. . ...
ROW 10 : ... .. . ... : ... .. . ... : D-2 01 . S05 : 9-# 03 . ... : ... .. . ...
ROW 11 : ... .. . ... : ... .. . ... : ... .. . ... : ... .. . ... : ... .. . ...
ROW 12 : ... .. . ... : ... .. . ... : ... .. . ... : ... .. . ... : ... .. . ...
ROW 13 : ... .. . ... : ... .. . ... : ... .. . ... : 3-# 0E . ... : ... .. . ...
ROW 14 : ... .. . ... : ... .. . ... : D-2 01 . S05 : 9-# 03 . ... : ... .. . ...
ROW 15 : ... .. . ... : ... .. . ... : ... .. . ... : ... .. . ... : ... .. . ...
ROW 16 : ... .. . ... : ... .. . ... : ... .. . ... : 2-# 0E . ... : ... .. . ...
ROW 17 : ... .. . ... : ... .. . ... : ... .. . ... : 2-# 0E . ... : ... .. . ...
ROW 18 : ... .. . ... : ... .. . ... : D-2 01 . S05 : 9-# 03 . ... : ... .. . ...
ROW 19 : ... .. . ... : ... .. . ... : ... .. . ... : ... .. . ... : ... .. . ...
ROW 1A : ... .. . ... : ... .. . ... : ... .. . ... : 3-# 0E . ... : ... .. . ...
ROW 1B : ... .. . ... : ... .. . ... : ... .. . ... : ... .. . ... : ... .. . ...
ROW 1C : ... .. . ... : ... .. . ... : D-2 01 . S05 : 9-# 03 . ... : ... .. . ...
ROW 1D : ... .. . ... : ... .. . ... : ... .. . ... : 3-# 0E . ... : ... .. . ...
ROW 1E : ... .. . ... : ... .. . ... : ... .. . ... : 2-# 0E . ... : ... .. . ...
ROW 1F : ... .. . ... : ... .. . ... : ... .. . ... : 2-# 0E . ... : ... .. . ...
ROW 20 : ... .. . ... : ... .. . ... : D-2 01 . S05 : 9-# 03 . ... : ... .. . ...
ROW 21 : ... .. . ... : ... .. . ... : ... .. . ... : ... .. . ... : ... .. . ...
ROW 22 : ... .. . ... : ... .. . ... : ... .. . ... : ... .. . ... : ... .. . ...
ROW 23 : ... .. . ... : ... .. . ... : ... .. . ... : 3-# 0E . ... : ... .. . ...
ROW 24 : ... .. . ... : ... .. . ... : D-2 01 . S05 : 9-# 03 . ... : ... .. . ...
ROW 25 : ... .. . ... : ... .. . ... : ... .. . ... : ... .. . ... : ... .. . ...
ROW 26 : ... .. . ... : ... .. . ... : ... .. . ... : 2-# 0E . ... : ... .. . ...
ROW 27 : ... .. . ... : ... .. . ... : ... .. . ... : 2-# 0E . ... : ... .. . ...
ROW 28 : ... .. . ... : ... .. . ... : D-2 01 . S05 : 9-# 03 . ... : ... .. . ...
ROW 29 : ... .. . ... : ... .. . ... : ... .. . ... : ... .. . ... : ... .. . ...
ROW 2A : ... .. . ... : ... .. . ... : ... .. . ... : ... .. . ... : ... .. . ...
ROW 2B : ... .. . ... : ... .. . ... : ... .. . ... : 3-# 0E . ... : ... .. . ...
ROW 2C : ... .. . ... : ... .. . ... : D-2 01 . S05 : 9-# 03 . ... : ... .. . ...
ROW 2D : ... .. . ... : ... .. . ... : ... .. . ... : ... .. . ... : ... .. . ...
ROW 2E : ... .. . ... : ... .. . ... : ... .. . ... : 2-# 0E . ... : ... .. . ...
ROW 2F : ... .. . ... : ... .. . ... : ... .. . ... : 2-# 0E . ... : ... .. . ...
ROW 30 : ... .. . ... : ... .. . ... : D-2 01 . S05 : 9-# 03 . ... : ... .. . ...
ROW 31 : ... .. . ... : ... .. . ... : ... .. . ... : ... .. . ... : ... .. . ...
ROW 32 : ... .. . ... : ... .. . ... : ... .. . ... : ... .. . ... : ... .. . ...
ROW 33 : ... .. . ... : ... .. . ... : ... .. . ... : 3-# 0E . ... : ... .. . ...
ROW 34 : ... .. . ... : ... .. . ... : D-2 01 . S05 : 9-# 03 . ... : ... .. . ...
ROW 35 : ... .. . ... : ... .. . ... : ... .. . ... : ... .. . ... : ... .. . ...
ROW 36 : ... .. . ... : ... .. . ... : ... .. . ... : 2-# 0E . ... : ... .. . ...
ROW 37 : ... .. . ... : ... .. . ... : ... .. . ... : 2-# 0E . ... : ... .. . ...
ROW 38 : ... .. . ... : ... .. . ... : D-2 01 . S05 : 9-# 03 . ... : ... .. . ...
ROW 39 : ... .. . ... : ... .. . ... : ... .. . ... : ... .. . ... : ... .. . ...
ROW 3A : ... .. . ... : ... .. . ... : ... .. . ... : 3-# 0E . ... : ... .. . ...
ROW 3B : ... .. . ... : ... .. . ... : ... .. . ... : 9-# 03 . G07 : ... .. . ...
ROW 3C : ... .. . ... : ... .. . ... : D-2 01 . S05 : 3-# 0E . G07 : ... .. . ...
ROW 3D : ... .. . ... : ... .. . ... : ... .. . ... : 2-# 0E . G07 : ... .. . ...
ROW 3E : ... .. . ... : ... .. . ... : ... .. . ... : 2-# 0E . G07 : ... .. . ...
ROW 3F : ... .. . ... : ... .. . ... : ... .. . ... : 9-# 03 . G07 : ... .. . ...
PATTERN 01
ROW 00 : --- .. . ... : D-2 08 . ... : D-2 01 . ... : ... .. . ... : ... .. . ...
ROW 01 : ... .. . ... : ... .. . ... : ... .. . ... : ... .. . ... : ... .. . ...
ROW 02 : ... .. . ... : ... .. . ... : ... .. . ... : ... .. . ... : ... .. . ...
ROW 03 : ... .. . ... : ... .. . ... : ... .. . ... : 3-# 0E . ... : ... .. . ...
ROW 04 : ... .. . ... : F-2 08 . ... : F-2 01 . ... : 9-# 03 . ... : ... .. . ...
ROW 05 : ... .. . ... : ... .. . ... : ... .. . ... : ... .. . ... : ... .. . ...
ROW 06 : ... .. . ... : ... .. . ... : ... .. . ... : 2-# 0E . ... : ... .. . ...
ROW 07 : ... .. . ... : ... .. . ... : ... .. . ... : 2-# 0E . ... : ... .. . ...
ROW 08 : ... .. . ... : F#2 08 . ... : F#2 01 . ... : 9-# 03 . ... : ... .. . ...
ROW 09 : ... .. . ... : ... .. . ... : ... .. . ... : ... .. . ... : ... .. . ...
ROW 0A : ... .. . ... : ... .. . ... : ... .. . ... : ... .. . ... : ... .. . ...
ROW 0B : ... .. . ... : ... .. . ... : ... .. . ... : 3-# 0E . ... : ... .. . ...
ROW 0C : ... .. . ... : F-2 08 . ... : F-2 01 . ... : 9-# 03 . ... : ... .. . ...
ROW 0D : ... .. . ... : ... .. . ... : ... .. . ... : ... .. . ... : ... .. . ...
ROW 0E : ... .. . ... : ... .. . ... : ... .. . ... : 2-# 0E . ... : ... .. . ...
ROW 0F : ... .. . ... : ... .. . ... : ... .. . ... : 2-# 0E . ... : ... .. . ...
ROW 10 : ... .. . ... : D-2 08 . ... : D-2 01 . ... : 9-# 03 . ... : ... .. . ...
ROW 11 : ... .. . ... : ... .. . ... : ... .. . ... : ... .. . ... : ... .. . ...
ROW 12 : A-3 0C . ... : D-4 0C . ... : --- .. . ... : ... .. . ... : ... .. . ...
ROW 13 : ... .. . ... : ... .. . ... : ... .. . ... : 3-# 0E . ... : ... .. . ...
ROW 14 : ... .. . ... : ... .. . ... : C-2 01 . S05 : 9-# 03 . ... : ... .. . ...
ROW 15 : ... .. . ... : ... .. . ... : ... .. . ... : ... .. . ... : ... .. . ...
ROW 16 : A-3 0D . ... : D-4 0D . ... : ... .. . ... : 2-# 0E . ... : ... .. . ...
ROW 17 : ... .. . ... : ... .. . ... : ... .. . ... : 2-# 0E . ... : ... .. . ...
ROW 18 : ... .. . ... : ... .. . ... : C-2 01 . S05 : 9-# 03 . ... : ... .. . ...
ROW 19 : ... .. . ... : ... .. . ... : ... .. . ... : ... .. . ... : ... .. . ...
ROW 1A : ... .. . ... : ... .. . ... : D-2 02 . S02 : 7-# 04 . ... : ... .. . ...
ROW 1B : ... .. . ... : ... .. . ... : ... .. . ... : ... .. . ... : ... .. . ...
ROW 1C : ... .. . ... : ... .. . ... : C-2 01 . S05 : 9-# 03 . ... : ... .. . ...
ROW 1D : ... .. . ... : ... .. . ... : ... .. . ... : 3-# 0E . ... : ... .. . ...
ROW 1E : ... .. . ... : ... .. . ... : D-2 02 . S02 : 7-# 04 . ... : ... .. . ...
ROW 1F : ... .. . ... : ... .. . ... : D-2 02 . S02 : 7-# 04 . ... : ... .. . ...
ROW 20 : ... .. . ... : D-2 08 . ... : D-2 01 . ... : ... .. . ... : ... .. . ...
ROW 21 : ... .. . ... : ... .. . ... : ... .. . ... : ... .. . ... : ... .. . ...
ROW 22 : ... .. . ... : ... .. . ... : ... .. . ... : ... .. . ... : ... .. . ...
ROW 23 : ... .. . ... : ... .. . ... : ... .. . ... : 3-# 0E . ... : ... .. . ...
ROW 24 : ... .. . ... : F-2 08 . ... : F-2 01 . ... : 9-# 03 . ... : ... .. . ...
ROW 25 : ... .. . ... : ... .. . ... : ... .. . ... : ... .. . ... : ... .. . ...
ROW 26 : ... .. . ... : ... .. . ... : ... .. . ... : 2-# 0E . ... : ... .. . ...
ROW 27 : ... .. . ... : ... .. . ... : ... .. . ... : 2-# 0E . ... : ... .. . ...
ROW 28 : ... .. . ... : F#2 08 . ... : F#2 01 . ... : 9-# 03 . ... : ... .. . ...
ROW 29 : ... .. . ... : ... .. . ... : ... .. . ... : ... .. . ... : ... .. . ...
ROW 2A : ... .. . ... : ... .. . ... : ... .. . ... : ... .. . ... : ... .. . ...
ROW 2B : ... .. . ... : ... .. . ... : ... .. . ... : 3-# 0E . ... : ... .. . ...
ROW 2C : ... .. . ... : F-2 08 . ... : F-2 01 . ... : 9-# 03 . ... : ... .. . ...
ROW 2D : ... .. . ... : ... .. . ... : ... .. . ... : ... .. . ... : ... .. . ...
ROW 2E : ... .. . ... : ... .. . ... : ... .. . ... : 2-# 0E . ... : ... .. . ...
ROW 2F : ... .. . ... : ... .. . ... : ... .. . ... : 2-# 0E . ... : ... .. . ...
ROW 30 : ... .. . ... : D-2 08 . ... : D-2 01 . ... : 9-# 03 . ... : ... .. . ...
ROW 31 : ... .. . ... : ... .. . ... : ... .. . ... : ... .. . ... : ... .. . ...
ROW 32 : A-3 0C . ... : D-4 0C . ... : --- .. . ... : ... .. . ... : ... .. . ...
ROW 33 : ... .. . ... : ... .. . ... : ... .. . ... : 3-# 0E . ... : ... .. . ...
ROW 34 : ... .. . ... : ... .. . ... : C-2 01 . S05 : 9-# 03 . ... : ... .. . ...
ROW 35 : ... .. . ... : ... .. . ... : ... .. . ... : ... .. . ... : ... .. . ...
ROW 36 : A-3 0D . ... : D-4 0D . ... : ... .. . ... : 2-# 0E . ... : ... .. . ...
ROW 37 : ... .. . ... : ... .. . ... : ... .. . ... : 2-# 0E . ... : ... .. . ...
ROW 38 : ... .. . ... : ... .. . ... : C-2 01 . S05 : 9-# 03 . ... : ... .. . ...
ROW 39 : ... .. . ... : ... .. . ... : ... .. . ... : ... .. . ... : ... .. . ...
ROW 3A : ... .. . ... : ... .. . ... : D-2 02 . S02 : 7-# 04 . ... : ... .. . ...
ROW 3B : ... .. . ... : ... .. . ... : ... .. . ... : ... .. . ... : ... .. . ...
ROW 3C : ... .. . ... : ... .. . ... : C-2 01 . S05 : 9-# 03 . ... : ... .. . ...
ROW 3D : ... .. . ... : ... .. . ... : ... .. . ... : 3-# 0E . ... : ... .. . ...
ROW 3E : ... .. . ... : ... .. . ... : D-2 02 . S02 : 7-# 04 . ... : ... .. . ...
ROW 3F : ... .. . ... : ... .. . ... : D-2 02 . S02 : 7-# 04 . ... : ... .. . ...
PATTERN 02
ROW 00 : A-2 14 . ... : D-3 15 . ... : D-2 01 . ... : ... .. . ... : ... .. . ...
ROW 01 : ... .. . ... : ... .. . ... : ... .. . ... : ... .. . ... : ... .. . ...
ROW 02 : ... .. . ... : ... .. . ... : ... .. . ... : ... .. . ... : ... .. . ...
ROW 03 : ... .. . ... : ... .. . ... : ... .. . ... : ... .. . ... : ... .. . ...
ROW 04 : C-3 14 . ... : F-3 15 . ... : ... .. . ... : ... .. . ... : ... .. . ...
ROW 05 : ... .. . ... : ... .. . ... : ... .. . ... : ... .. . ... : ... .. . ...
ROW 06 : ... .. . ... : ... .. . ... : ... .. . ... : 3-# 0E . ... : ... .. . ...
ROW 07 : ... .. . ... : ... .. . ... : ... .. . ... : ... .. . ... : ... .. . ...
ROW 08 : C#3 14 . ... : F#3 15 . ... : F-2 01 . ... : 9-# 03 . ... : ... .. . ...
ROW 09 : ... .. . ... : ... .. . ... : ... .. . ... : ... .. . ... : ... .. . ...
ROW 0A : ... .. . ... : ... .. . ... : ... .. . ... : ... .. . ... : ... .. . ...
ROW 0B : ... .. . ... : ... .. . ... : ... .. . ... : ... .. . ... : ... .. . ...
ROW 0C : D#3 14 . ... : G#3 15 . ... : ... .. . ... : 2-# 0E . ... : ... .. . ...
ROW 0D : ... .. . ... : ... .. . ... : ... .. . ... : ... .. . ... : ... .. . ...
ROW 0E : ... .. . ... : ... .. . ... : ... .. . ... : 2-# 0E . ... : ... .. . ...
ROW 0F : ... .. . ... : ... .. . ... : ... .. . ... : ... .. . ... : ... .. . ...
ROW 10 : E-3 14 . ... : A-3 15 . ... : F#2 01 . ... : 9-# 03 . ... : ... .. . ...
ROW 11 : ... .. . ... : ... .. . ... : ... .. . ... : ... .. . ... : ... .. . ...
ROW 12 : G-3 14 . ... : C-4 15 . ... : ... .. . ... : ... .. . ... : ... .. . ...
ROW 13 : E-3 14 . G07 : A-3 15 . G07 : ... .. . ... : ... .. . ... : ... .. . ...
ROW 14 : F#3 14 . G03 : B-3 15 . G03 : ... .. . ... : ... .. . ... : ... .. . ...
ROW 15 : ... .. . ... : ... .. . ... : ... .. . ... : ... .. . ... : ... .. . ...
ROW 16 : ... .. . ... : ... .. . ... : ... .. . ... : 3-# 0E . ... : ... .. . ...
ROW 17 : ... .. . ... : ... .. . ... : ... .. . ... : ... .. . ... : ... .. . ...
ROW 18 : ... .. . ... : ... .. . ... : F-2 01 . ... : 9-# 03 . ... : ... .. . ...
ROW 19 : ... .. . ... : ... .. . ... : ... .. . ... : ... .. . ... : ... .. . ...
ROW 1A : ... .. . ... : ... .. . ... : ... .. . ... : ... .. . ... : ... .. . ...
ROW 1B : ... .. . ... : ... .. . ... : ... .. . ... : ... .. . ... : ... .. . ...
ROW 1C : ... .. . ... : ... .. . ... : ... .. . ... : 2-# 0E . ... : ... .. . ...
ROW 1D : ... .. . ... : ... .. . ... : ... .. . ... : ... .. . ... : ... .. . ...
ROW 1E : ... .. . ... : ... .. . ... : ... .. . ... : 2-# 0E . ... : ... .. . ...
ROW 1F : ... .. . ... : ... .. . ... : ... .. . ... : ... .. . ... : ... .. . ...
ROW 20 : G#3 14 . ... : B-3 15 . ... : D-2 01 . ... : 9-# 03 . ... : ... .. . ...
ROW 21 : ... .. . ... : ... .. . ... : ... .. . ... : ... .. . ... : ... .. . ...
ROW 22 : ... .. . ... : ... .. . ... : ... .. . ... : ... .. . ... : ... .. . ...
ROW 23 : ... .. . ... : ... .. . ... : ... .. . ... : ... .. . ... : ... .. . ...
ROW 24 : F#3 14 . ... : A-3 15 . ... : --- .. . ... : ... .. . ... : ... .. . ...
ROW 25 : F-3 14 . ... : G#3 15 . ... : ... .. . ... : ... .. . ... : ... .. . ...
ROW 26 : G#3 14 . ... : B-3 15 . ... : ... .. . ... : 3-# 0E . ... : ... .. . ...
ROW 27 : ... .. . ... : ... .. . ... : ... .. . ... : ... .. . ... : ... .. . ...
ROW 28 : ... .. . ... : ... .. . ... : C-2 01 . S05 : 9-# 03 . ... : ... .. . ...
ROW 29 : ... .. . ... : ... .. . ... : ... .. . ... : ... .. . ... : ... .. . ...
ROW 2A : F#3 14 . ... : A-3 15 . ... : ... .. . ... : ... .. . ... : ... .. . ...
ROW 2B : F-3 14 . ... : G#3 15 . ... : ... .. . ... : ... .. . ... : ... .. . ...
ROW 2C : G#3 14 . ... : B-3 15 . ... : ... .. . ... : 2-# 0E . ... : ... .. . ...
ROW 2D : A-3 14 . ... : C-4 15 . ... : ... .. . ... : ... .. . ... : ... .. . ...
ROW 2E : C-4 14 . ... : D#4 15 . ... : ... .. . ... : 2-# 0E . ... : ... .. . ...
ROW 2F : D#4 14 . ... : F#4 15 . ... : ... .. . ... : ... .. . ... : ... .. . ...
ROW 30 : ... .. . ... : ... .. . ... : C-2 01 . S05 : 9-# 03 . ... : ... .. . ...
ROW 31 : ... .. . ... : ... .. . ... : ... .. . ... : ... .. . ... : ... .. . ...
ROW 32 : ... .. . ... : ... .. . ... : ... .. . ... : ... .. . ... : ... .. . ...
ROW 33 : ... .. . ... : ... .. . ... : ... .. . ... : ... .. . ... : ... .. . ...
ROW 34 : ... .. . ... : ... .. . ... : D-2 02 . S02 : 7-# 04 . ... : ... .. . ...
ROW 35 : ... .. . ... : ... .. . ... : ... .. . ... : ... .. . ... : ... .. . ...
ROW 36 : ... .. . ... : ... .. . ... : ... .. . ... : ... .. . ... : ... .. . ...
ROW 37 : ... .. . ... : ... .. . ... : ... .. . ... : ... .. . ... : ... .. . ...
ROW 38 : ... .. . ... : ... .. . ... : C-2 01 . S05 : 9-# 03 . ... : ... .. . ...
ROW 39 : ... .. . ... : ... .. . ... : ... .. . ... : ... .. . ... : ... .. . ...
ROW 3A : ... .. . ... : --- .. . ... : ... .. . ... : 3-# 0E . ... : ... .. . ...
ROW 3B : ... .. . ... : ... .. . ... : ... .. . ... : ... .. . ... : ... .. . ...
ROW 3C : --- .. . ... : ... .. . ... : D-2 02 . S02 : 7-# 04 . ... : ... .. . ...
ROW 3D : ... .. . ... : ... .. . ... : ... .. . ... : ... .. . ... : ... .. . ...
ROW 3E : ... .. . ... : ... .. . ... : D-2 02 . S02 : 7-# 04 . ... : ... .. . ...
ROW 3F : ... .. . ... : ... .. . ... : ... .. . ... : ... .. . ... : ... .. . ...
PATTERN 03
ROW 00 : D-2 17 . ... : ... .. . ... : ... .. . ... : ... .. . ... : ... .. . ...
ROW 01 : ... .. . ... : ... .. . ... : ... .. . ... : ... .. . ... : ... .. . ...
ROW 02 : ... .. . ... : ... .. . ... : ... .. . ... : ... .. . ... : ... .. . ...
ROW 03 : ... .. . ... : D-4 15 . ... : ... .. . ... : ... .. . ... : ... .. . ...
ROW 04 : D-3 17 . ... : D#4 15 . ... : ... .. . ... : ... .. . ... : ... .. . ...
ROW 05 : C#3 17 . ... : D-4 15 . ... : ... .. . ... : ... .. . ... : ... .. . ...
ROW 06 : A-2 17 . ... : D#4 15 . ... : ... .. . ... : ... .. . ... : ... .. . ...
ROW 07 : ... .. . ... : D-4 15 . ... : ... .. . ... : ... .. . ... : ... .. . ...
ROW 08 : C-3 17 . ... : D#4 15 . ... : ... .. . ... : ... .. . ... : ... .. . ...
ROW 09 : B-2 17 . ... : D-4 15 . ... : ... .. . ... : ... .. . ... : ... .. . ...
ROW 0A : G-2 17 . ... : D#4 15 . ... : ... .. . ... : ... .. . ... : ... .. . ...
ROW 0B : ... .. . ... : D-4 15 . ... : ... .. . ... : ... .. . ... : ... .. . ...
ROW 0C : B-2 17 . ... : C#4 15 . ... : ... .. . ... : ... .. . ... : ... .. . ...
ROW 0D : A#2 17 . ... : C-4 15 . ... : ... .. . ... : ... .. . ... : ... .. . ...
ROW 0E : F#2 17 . ... : B-3 15 . ... : ... .. . ... : ... .. . ... : ... .. . ...
ROW 0F : A-2 17 . ... : A#3 15 . ... : ... .. . ... : ... .. . ... : ... .. . ...
ROW 10 : ... .. . ... : A-3 15 . ... : ... .. . ... : ... .. . ... : ... .. . ...
ROW 11 : ... .. . ... : G#3 15 . ... : ... .. . ... : ... .. . ... : ... .. . ...
ROW 12 : A-3 0C . ... : G-3 15 . ... : ... .. . ... : ... .. . ... : ... .. . ...
ROW 13 : ... .. . ... : F#3 15 . ... : ... .. . ... : ... .. . ... : ... .. . ...
ROW 14 : ... .. . ... : G-3 15 . ... : ... .. . ... : ... .. . ... : ... .. . ...
ROW 15 : ... .. . ... : F#3 15 . ... : ... .. . ... : ... .. . ... : ... .. . ...
ROW 16 : A-3 0D . ... : G-3 15 . ... : ... .. . ... : ... .. . ... : ... .. . ...
ROW 17 : ... .. . ... : F#3 15 . ... : ... .. . ... : ... .. . ... : ... .. . ...
ROW 18 : ... .. . ... : G-3 15 . ... : ... .. . ... : ... .. . ... : ... .. . ...
ROW 19 : ... .. . ... : F#3 15 . ... : ... .. . ... : ... .. . ... : ... .. . ...
ROW 1A : ... .. . ... : G-3 15 . ... : ... .. . ... : ... .. . ... : ... .. . ...
ROW 1B : ... .. . ... : F#3 15 . ... : ... .. . ... : ... .. . ... : ... .. . ...
ROW 1C : ... .. . ... : F-3 15 . ... : ... .. . ... : ... .. . ... : ... .. . ...
ROW 1D : ... .. . ... : E-3 15 . ... : ... .. . ... : ... .. . ... : ... .. . ...
ROW 1E : ... .. . ... : D#3 15 . ... : ... .. . ... : ... .. . ... : ... .. . ...
ROW 1F : ... .. . D00 : D-3 15 . ... : ... .. . ... : ... .. . ... : ... .. . ...
ROW 20 : ... .. . ... : C#3 15 . ... : ... .. . ... : ... .. . ... : ... .. . ...
ROW 21 : ... .. . ... : C-3 15 . ... : ... .. . ... : ... .. . ... : ... .. . ...
ROW 22 : ... .. . ... : B-2 15 . ... : ... .. . ... : ... .. . ... : ... .. . ...
ROW 23 : ... .. . ... : A#2 15 . ... : ... .. . ... : ... .. . ... : ... .. . ...
ROW 24 : ... .. . ... : A-2 15 . ... : ... .. . ... : ... .. . ... : ... .. . ...
ROW 25 : ... .. . ... : G#2 15 . ... : ... .. . ... : ... .. . ... : ... .. . ...
ROW 26 : ... .. . ... : ... .. . ... : ... .. . ... : ... .. . ... : ... .. . ...
ROW 27 : ... .. . ... : ... .. . ... : ... .. . ... : ... .. . ... : ... .. . ...
ROW 28 : ... .. . ... : ... .. . ... : ... .. . ... : ... .. . ... : ... .. . ...
ROW 29 : ... .. . ... : ... .. . ... : ... .. . ... : ... .. . ... : ... .. . ...
ROW 2A : ... .. . ... : ... .. . ... : ... .. . ... : ... .. . ... : ... .. . ...
ROW 2B : ... .. . ... : ... .. . ... : ... .. . ... : ... .. . ... : ... .. . ...
ROW 2C : ... .. . ... : ... .. . ... : ... .. . ... : ... .. . ... : ... .. . ...
ROW 2D : ... .. . ... : ... .. . ... : ... .. . ... : ... .. . ... : ... .. . ...
ROW 2E : ... .. . ... : ... .. . ... : ... .. . ... : ... .. . ... : ... .. . ...
ROW 2F : ... .. . ... : ... .. . ... : ... .. . ... : ... .. . ... : ... .. . ...
ROW 30 : ... .. . ... : ... .. . ... : ... .. . ... : ... .. . ... : ... .. . ...
ROW 31 : ... .. . ... : ... .. . ... : ... .. . ... : ... .. . ... : ... .. . ...
ROW 32 : ... .. . ... : ... .. . ... : ... .. . ... : ... .. . ... : ... .. . ...
ROW 33 : ... .. . ... : ... .. . ... : ... .. . ... : ... .. . ... : ... .. . ...
ROW 34 : ... .. . ... : ... .. . ... : ... .. . ... : ... .. . ... : ... .. . ...
ROW 35 : ... .. . ... : ... .. . ... : ... .. . ... : ... .. . ... : ... .. . ...
ROW 36 : ... .. . ... : ... .. . ... : ... .. . ... : ... .. . ... : ... .. . ...
ROW 37 : ... .. . ... : ... .. . ... : ... .. . ... : ... .. . ... : ... .. . ...
ROW 38 : ... .. . ... : ... .. . ... : ... .. . ... : ... .. . ... : ... .. . ...
ROW 39 : ... .. . ... : ... .. . ... : ... .. . ... : ... .. . ... : ... .. . ...
ROW 3A : ... .. . ... : ... .. . ... : ... .. . ... : ... .. . ... : ... .. . ...
ROW 3B : ... .. . ... : ... .. . ... : ... .. . ... : ... .. . ... : ... .. . ...
ROW 3C : ... .. . ... : ... .. . ... : ... .. . ... : ... .. . ... : ... .. . ...
ROW 3D : ... .. . ... : ... .. . ... : ... .. . ... : ... .. . ... : ... .. . ...
ROW 3E : ... .. . ... : ... .. . ... : ... .. . ... : ... .. . ... : ... .. . ...
ROW 3F : ... .. . ... : ... .. . ... : ... .. . ... : ... .. . ... : ... .. . ...
PATTERN 04
ROW 00 : D-4 14 . F03 : ... .. . ... : ... .. . ... : ... .. . ... : ... .. . ...
ROW 01 : D#4 14 . F04 : ... .. . ... : ... .. . ... : ... .. . ... : ... .. . ...
ROW 02 : D-4 14 . F03 : ... .. . ... : ... .. . ... : ... .. . ... : ... .. . ...
ROW 03 : D#4 14 . F04 : F#2 15 . ... : ... .. . ... : ... .. . ... : ... .. . ...
ROW 04 : D-4 14 . F03 : ... .. . ... : ... .. . ... : ... .. . ... : ... .. . ...
ROW 05 : D#4 14 . F04 : ... .. . ... : ... .. . ... : ... .. . ... : ... .. . ...
ROW 06 : D-4 14 . F03 : ... .. . ... : ... .. . ... : ... .. . ... : ... .. . ...
ROW 07 : D#4 14 . F04 : ... .. . ... : ... .. . ... : ... .. . ... : ... .. . ...
ROW 08 : D-4 14 . F03 : ... .. . ... : ... .. . ... : ... .. . ... : ... .. . ...
ROW 09 : C#4 14 . F04 : ... .. . ... : ... .. . ... : ... .. . ... : ... .. . ...
ROW 0A : C-4 14 . F03 : ... .. . ... : ... .. . ... : ... .. . ... : ... .. . ...
ROW 0B : B-3 14 . F04 : ... .. . ... : ... .. . ... : ... .. . ... : ... .. . ...
ROW 0C : A#3 14 . F03 : ... .. . ... : ... .. . ... : ... .. . ... : ... .. . ...
ROW 0D : A-3 14 . F04 : ... .. . ... : ... .. . ... : ... .. . ... : ... .. . ...
ROW 0E : G#3 14 . F03 : ... .. . ... : ... .. . ... : ... .. . ... : ... .. . ...
ROW 0F : G-3 14 . F04 : ... .. . ... : ... .. . ... : ... .. . ... : ... .. . ...
ROW 10 : F#3 14 . F03 : ... .. . ... : ... .. . ... : ... .. . ... : ... .. . ...
ROW 11 : G-3 14 . F04 : ... .. . ... : ... .. . ... : ... .. . ... : ... .. . ...
ROW 12 : F#3 14 . F03 : D-4 0C . ... : ... .. . ... : ... .. . ... : ... .. . ...
ROW 13 : G-3 14 . F04 : ... .. . ... : ... .. . ... : ... .. . ... : ... .. . ...
ROW 14 : F#3 14 . F03 : ... .. . ... : ... .. . ... : ... .. . ... : ... .. . ...
ROW 15 : G-3 14 . F04 : ... .. . ... : ... .. . ... : ... .. . ... : ... .. . ...
ROW 16 : F#3 14 . F03 : D-4 0D . ... : ... .. . ... : ... .. . ... : ... .. . ...
ROW 17 : G-3 14 . F04 : ... .. . ... : ... .. . ... : ... .. . ... : ... .. . ...
ROW 18 : F#3 14 . F03 : ... .. . ... : ... .. . ... : ... .. . ... : ... .. . ...
ROW 19 : F-3 14 . F04 : ... .. . ... : ... .. . ... : ... .. . ... : ... .. . ...
ROW 1A : E-3 14 . F03 : ... .. . ... : ... .. . ... : ... .. . ... : ... .. . ...
ROW 1B : D#3 14 . F04 : ... .. . ... : ... .. . ... : ... .. . ... : ... .. . ...
ROW 1C : D-3 14 . F03 : ... .. . ... : ... .. . ... : ... .. . ... : ... .. . ...
ROW 1D : C#3 14 . F04 : ... .. . ... : ... .. . ... : ... .. . ... : ... .. . ...
ROW 1E : C-3 14 . F03 : ... .. . ... : ... .. . ... : ... .. . ... : ... .. . ...
ROW 1F : B-2 14 . F04 : ... .. . ... : ... .. . ... : ... .. . ... : ... .. . ...
ROW 20 : A#2 14 . F03 : ... .. . ... : ... .. . ... : ... .. . ... : ... .. . ...
ROW 21 : A-2 14 . F04 : ... .. . ... : ... .. . ... : ... .. . ... : ... .. . ...
ROW 22 : G#2 14 . F03 : ... .. . ... : ... .. . ... : ... .. . ... : ... .. . ...
ROW 23 : ... .. . F04 : ... .. . ... : ... .. . ... : ... .. . ... : ... .. . ...
ROW 24 : ... .. . F03 : ... .. . ... : ... .. . ... : ... .. . ... : ... .. . ...
ROW 25 : ... .. . F04 : ... .. . ... : ... .. . ... : ... .. . ... : ... .. . ...
ROW 26 : ... .. . F03 : ... .. . ... : ... .. . ... : ... .. . ... : ... .. . ...
ROW 27 : ... .. . F04 : ... .. . ... : ... .. . ... : ... .. . ... : ... .. . ...
ROW 28 : ... .. . F03 : ... .. . ... : ... .. . ... : ... .. . ... : ... .. . ...
ROW 29 : ... .. . F04 : ... .. . ... : ... .. . ... : ... .. . ... : ... .. . ...
ROW 2A : ... .. . F03 : ... .. . ... : ... .. . ... : ... .. . ... : ... .. . ...
ROW 2B : ... .. . F04 : ... .. . ... : ... .. . ... : ... .. . ... : ... .. . ...
ROW 2C : ... .. . F03 : ... .. . ... : ... .. . ... : ... .. . ... : ... .. . ...
ROW 2D : ... .. . F04 : ... .. . ... : ... .. . ... : ... .. . ... : ... .. . ...
ROW 2E : ... .. . F03 : ... .. . ... : ... .. . ... : ... .. . ... : ... .. . ...
ROW 2F : ... .. . F04 : ... .. . ... : ... .. . ... : ... .. . ... : ... .. . ...
ROW 30 : ... .. . F03 : ... .. . ... : ... .. . ... : ... .. . ... : ... .. . ...
ROW 31 : ... .. . F04 : ... .. . ... : ... .. . ... : ... .. . ... : ... .. . ...
ROW 32 : ... .. . F03 : ... .. . ... : ... .. . ... : ... .. . ... : ... .. . ...
ROW 33 : ... .. . F04 : ... .. . ... : ... .. . ... : ... .. . ... : ... .. . ...
ROW 34 : ... .. . F03 : ... .. . ... : ... .. . ... : ... .. . ... : ... .. . ...
ROW 35 : ... .. . F04 : ... .. . ... : ... .. . ... : ... .. . ... : ... .. . ...
ROW 36 : ... .. . F03 : ... .. . ... : ... .. . ... : ... .. . ... : ... .. . ...
ROW 37 : ... .. . F04 : ... .. . ... : ... .. . ... : ... .. . ... : ... .. . ...
ROW 38 : ... .. . F03 : ... .. . ... : ... .. . ... : ... .. . ... : ... .. . ...
ROW 39 : ... .. . F04 : ... .. . ... : ... .. . ... : ... .. . ... : ... .. . ...
ROW 3A : ... .. . F03 : ... .. . ... : ... .. . ... : ... .. . ... : ... .. . ...
ROW 3B : ... .. . F04 : ... .. . ... : ... .. . ... : ... .. . ... : ... .. . ...
ROW 3C : ... .. . F03 : ... .. . ... : ... .. . ... : ... .. . ... : ... .. . ...
ROW 3D : ... .. . F04 : ... .. . ... : ... .. . ... : ... .. . ... : ... .. . ...
ROW 3E : ... .. . F03 : ... .. . ... : ... .. . ... : ... .. . ... : ... .. . ...
ROW 3F : ... .. . F04 : ... .. . ... : ... .. . ... : ... .. . ... : ... .. . ...
PATTERN 05
ROW 00 : F#2 14 . F07 : ... .. . ... : ... .. . ... : ... .. . ... : ... .. . ...
ROW 01 : ... .. . ... : ... .. . ... : ... .. . ... : ... .. . ... : ... .. . ...
ROW 02 : ... .. . ... : ... .. . ... : ... .. . ... : ... .. . ... : ... .. . ...
ROW 03 : ... .. . ... : ... .. . ... : ... .. . ... : ... .. . ... : ... .. . ...
ROW 04 : ... .. . ... : ... .. . ... : ... .. . ... : ... .. . ... : ... .. . ...
ROW 05 : ... .. . ... : ... .. . ... : ... .. . ... : ... .. . ... : ... .. . ...
ROW 06 : ... .. . ... : ... .. . ... : ... .. . ... : ... .. . ... : ... .. . ...
ROW 07 : ... .. . ... : ... .. . ... : ... .. . ... : ... .. . ... : ... .. . ...
ROW 08 : ... .. . ... : ... .. . ... : ... .. . ... : ... .. . ... : ... .. . ...
ROW 09 : ... .. . ... : ... .. . ... : ... .. . ... : ... .. . ... : ... .. . ...
ROW 0A : ... .. . ... : ... .. . ... : ... .. . ... : ... .. . ... : ... .. . ...
ROW 0B : ... .. . ... : ... .. . ... : ... .. . ... : ... .. . ... : ... .. . ...
ROW 0C : ... .. . ... : ... .. . ... : ... .. . ... : ... .. . ... : ... .. . ...
ROW 0D : ... .. . ... : ... .. . ... : ... .. . ... : ... .. . ... : ... .. . ...
ROW 0E : ... .. . ... : ... .. . ... : ... .. . ... : ... .. . ... : ... .. . ...
ROW 0F : ... .. . ... : ... .. . ... : ... .. . ... : ... .. . ... : ... .. . ...
ROW 10 : ... .. . ... : ... .. . ... : ... .. . ... : ... .. . ... : ... .. . ...
ROW 11 : ... .. . ... : ... .. . ... : ... .. . ... : ... .. . ... : ... .. . ...
ROW 12 : A-3 0C . ... : ... .. . ... : ... .. . ... : ... .. . ... : ... .. . ...
ROW 13 : ... .. . ... : ... .. . ... : ... .. . ... : ... .. . ... : ... .. . ...
ROW 14 : ... .. . ... : ... .. . ... : ... .. . ... : ... .. . ... : ... .. . ...
ROW 15 : ... .. . ... : ... .. . ... : ... .. . ... : ... .. . ... : ... .. . ...
ROW 16 : A-3 0D . ... : ... .. . ... : ... .. . ... : ... .. . ... : ... .. . ...
ROW 17 : ... .. . ... : ... .. . ... : ... .. . ... : ... .. . ... : ... .. . ...
ROW 18 : ... .. . ... : ... .. . ... : ... .. . ... : ... .. . ... : ... .. . ...
ROW 19 : ... .. . ... : ... .. . ... : ... .. . ... : ... .. . ... : ... .. . ...
ROW 1A : ... .. . ... : ... .. . ... : ... .. . ... : ... .. . ... : ... .. . ...
ROW 1B : ... .. . ... : ... .. . ... : ... .. . ... : ... .. . ... : ... .. . ...
ROW 1C : ... .. . ... : ... .. . ... : ... .. . ... : ... .. . ... : ... .. . ...
ROW 1D : ... .. . ... : ... .. . ... : ... .. . ... : ... .. . ... : ... .. . ...
ROW 1E : ... .. . ... : ... .. . ... : ... .. . ... : ... .. . ... : ... .. . ...
ROW 1F : ... .. . B01 : ... .. . ... : ... .. . ... : ... .. . ... : ... .. . ...
ROW 20 : ... .. . ... : ... .. . ... : ... .. . ... : ... .. . ... : ... .. . ...
ROW 21 : ... .. . ... : ... .. . ... : ... .. . ... : ... .. . ... : ... .. . ...
ROW 22 : ... .. . ... : ... .. . ... : ... .. . ... : ... .. . ... : ... .. . ...
ROW 23 : ... .. . ... : ... .. . ... : ... .. . ... : ... .. . ... : ... .. . ...
ROW 24 : ... .. . ... : ... .. . ... : ... .. . ... : ... .. . ... : ... .. . ...
ROW 25 : ... .. . ... : ... .. . ... : ... .. . ... : ... .. . ... : ... .. . ...
ROW 26 : ... .. . ... : ... .. . ... : ... .. . ... : ... .. . ... : ... .. . ...
ROW 27 : ... .. . ... : ... .. . ... : ... .. . ... : ... .. . ... : ... .. . ...
ROW 28 : ... .. . ... : ... .. . ... : ... .. . ... : ... .. . ... : ... .. . ...
ROW 29 : ... .. . ... : ... .. . ... : ... .. . ... : ... .. . ... : ... .. . ...
ROW 2A : ... .. . ... : ... .. . ... : ... .. . ... : ... .. . ... : ... .. . ...
ROW 2B : ... .. . ... : ... .. . ... : ... .. . ... : ... .. . ... : ... .. . ...
ROW 2C : ... .. . ... : ... .. . ... : ... .. . ... : ... .. . ... : ... .. . ...
ROW 2D : ... .. . ... : ... .. . ... : ... .. . ... : ... .. . ... : ... .. . ...
ROW 2E : ... .. . ... : ... .. . ... : ... .. . ... : ... .. . ... : ... .. . ...
ROW 2F : ... .. . ... : ... .. . ... : ... .. . ... : ... .. . ... : ... .. . ...
ROW 30 : ... .. . ... : ... .. . ... : ... .. . ... : ... .. . ... : ... .. . ...
ROW 31 : ... .. . ... : ... .. . ... : ... .. . ... : ... .. . ... : ... .. . ...
ROW 32 : ... .. . ... : ... .. . ... : ... .. . ... : ... .. . ... : ... .. . ...
ROW 33 : ... .. . ... : ... .. . ... : ... .. . ... : ... .. . ... : ... .. . ...
ROW 34 : ... .. . ... : ... .. . ... : ... .. . ... : ... .. . ... : ... .. . ...
ROW 35 : ... .. . ... : ... .. . ... : ... .. . ... : ... .. . ... : ... .. . ...
ROW 36 : ... .. . ... : ... .. . ... : ... .. . ... : ... .. . ... : ... .. . ...
ROW 37 : ... .. . ... : ... .. . ... : ... .. . ... : ... .. . ... : ... .. . ...
ROW 38 : ... .. . ... : ... .. . ... : ... .. . ... : ... .. . ... : ... .. . ...
ROW 39 : ... .. . ... : ... .. . ... : ... .. . ... : ... .. . ... : ... .. . ...
ROW 3A : ... .. . ... : ... .. . ... : ... .. . ... : ... .. . ... : ... .. . ...
ROW 3B : ... .. . ... : ... .. . ... : ... .. . ... : ... .. . ... : ... .. . ...
ROW 3C : ... .. . ... : ... .. . ... : ... .. . ... : ... .. . ... : ... .. . ...
ROW 3D : ... .. . ... : ... .. . ... : ... .. . ... : ... .. . ... : ... .. . ...
ROW 3E : ... .. . ... : ... .. . ... : ... .. . ... : ... .. . ... : ... .. . ...
ROW 3F : ... .. . ... : ... .. . ... : ... .. . ... : ... .. . ... : ... .. . ...

# track BOOKMARKS block

# track HEADER block
TRACK  64   7 150 "Warrior's Shrine"
COLUMNS : 1 1 1 1 1

# track FRAMES block
ORDER 00 : 00 00 00 00 00
ORDER 01 : 01 01 01 01 00
ORDER 02 : 02 02 02 01 00
ORDER 03 : 02 02 01 01 00
ORDER 04 : 01 01 02 01 00
ORDER 05 : 02 02 01 01 00
ORDER 06 : 02 02 01 01 00
ORDER 07 : 03 03 03 05 00
ORDER 08 : 04 04 03 05 00
ORDER 09 : 05 05 04 05 00
ORDER 0A : 06 06 05 04 00
ORDER 0B : 07 07 05 04 00

# track PATTERNS block
PATTERN 00
ROW 00 : A-4 1E . ... : E-4 1F . ... : D-2 00 . ... : 1-# 0B . ... : ... .. . ...
ROW 01 : ... .. . ... : ... .. . ... : ... .. . ... : ... .. . ... : ... .. . ...
ROW 02 : ... .. . ... : ... .. . ... : ... .. . ... : 1-# 0B . G07 : ... .. . ...
ROW 03 : ... .. . ... : ... .. . ... : ... .. . ... : 1-# 0B . G03 : ... .. . ...
ROW 04 : ... .. . ... : ... .. . ... : ... .. . ... : 1-# 0B . ... : ... .. . ...
ROW 05 : ... .. . ... : ... .. . ... : ... .. . ... : ... .. . ... : ... .. . ...
ROW 06 : ... .. . ... : ... .. . ... : ... .. . ... : 1-# 0B . ... : ... .. . ...
ROW 07 : ... .. . ... : ... .. . ... : ... .. . ... : ... .. . ... : ... .. . ...
ROW 08 : ... .. . ... : ... .. . ... : ... .. . ... : 1-# 0B . G07 : ... .. . ...
ROW 09 : ... .. . ... : ... .. . ... : ... .. . ... : 1-# 0B . G03 : ... .. . ...
ROW 0A : ... .. . ... : ... .. . ... : ... .. . ... : 1-# 0B . ... : ... .. . ...
ROW 0B : ... .. . ... : ... .. . ... : ... .. . ... : ... .. . ... : ... .. . ...
ROW 0C : ... .. . ... : ... .. . ... : ... .. . ... : 1-# 0B . ... : ... .. . ...
ROW 0D : ... .. . ... : ... .. . ... : ... .. . ... : ... .. . ... : ... .. . ...
ROW 0E : ... .. . ... : ... .. . ... : ... .. . ... : 1-# 0B . ... : ... .. . ...
ROW 0F : ... .. . ... : ... .. . ... : ... .. . ... : ... .. . ... : ... .. . ...
ROW 10 : ... .. . ... : ... .. . ... : ... .. . ... : 1-# 0B . ... : ... .. . ...
ROW 11 : ... .. . ... : ... .. . ... : ... .. . ... : ... .. . ... : ... .. . ...
ROW 12 : ... .. . ... : ... .. . ... : ... .. . ... : 1-# 0B . G07 : ... .. . ...
ROW 13 : ... .. . ... : ... .. . ... : ... .. . ... : 1-# 0B . G03 : ... .. . ...
ROW 14 : ... .. . ... : ... .. . ... : ... .. . ... : 1-# 0B . ... : ... .. . ...
ROW 15 : ... .. . ... : ... .. . ... : ... .. . ... : ... .. . ... : ... .. . ...
ROW 16 : ... .. . ... : ... .. . ... : ... .. . ... : 1-# 0B . ... : ... .. . ...
ROW 17 : ... .. . ... : ... .. . ... : ... .. . ... : ... .. . ... : ... .. . ...
ROW 18 : ... .. . ... : ... .. . ... : ... .. . ... : 1-# 0B . G07 : ... .. . ...
ROW 19 : ... .. . ... : ... .. . ... : ... .. . ... : 1-# 0B . G03 : ... .. . ...
ROW 1A : ... .. . ... : ... .. . ... : ... .. . ... : 1-# 0B . ... : ... .. . ...
ROW 1B : ... .. . ... : ... .. . ... : ... .. . ... : ... .. . ... : ... .. . ...
ROW 1C : ... .. . ... : ... .. . ... : ... .. . ... : 1-# 0B . ... : ... .. . ...
ROW 1D : ... .. . ... : ... .. . ... : ... .. . ... : 1-# 0B . ... : ... .. . ...
ROW 1E : G#4 1E . ... : D#4 1F . ... : C#2 00 . ... : 1-# 0B . ... : ... .. . ...
ROW 1F : G#4 1E . ... : D#4 1F . ... : ... .. . ... : ... .. . ... : ... .. . ...
ROW 20 : A-4 1E . ... : E-4 1F . ... : D-2 00 . ... : 1-# 0B . ... : ... .. . ...
ROW 21 : ... .. . ... : ... .. . ... : ... .. . ... : ... .. . ... : ... .. . ...
ROW 22 : ... .. . ... : ... .. . ... : ... .. . ... : 1-# 0B . G07 : ... .. . ...
ROW 23 : ... .. . ... : ... .. . ... : ... .. . ... : 1-# 0B . G03 : ... .. . ...
ROW 24 : ... .. . ... : ... .. . ... : ... .. . ... : 1-# 0B . ... : ... .. . ...
ROW 25 : ... .. . ... : ... .. . ... : ... .. . ... : ... .. . ... : ... .. . ...
ROW 26 : ... .. . ... : ... .. . ... : ... .. . ... : 1-# 0B . ... : ... .. . ...
ROW 27 : ... .. . ... : ... .. . ... : ... .. . ... : ... .. . ... : ... .. . ...
ROW 28 : ... .. . ... : ... .. . ... : ... .. . ... : 1-# 0B . G07 : ... .. . ...
ROW 29 : ... .. . ... : ... .. . ... : ... .. . ... : 1-# 0B . G03 : ... .. . ...
ROW 2A : ... .. . ... : ... .. . ... : ... .. . ... : 1-# 0B . ... : ... .. . ...
ROW 2B : ... .. . ... : ... .. . ... : ... .. . ... : ... .. . ... : ... .. . ...
ROW 2C : ... .. . ... : ... .. . ... : ... .. . ... : 1-# 0B . ... : ... .. . ...
ROW 2D : ... .. . ... : ... .. . ... : ... .. . ... : ... .. . ... : ... .. . ...
ROW 2E : ... .. . ... : ... .. . ... : ... .. . ... : 1-# 0B . ... : ... .. . ...
ROW 2F : ... .. . ... : ... .. . ... : ... .. . ... : ... .. . ... : ... .. . ...
ROW 30 : ... .. . ... : ... .. . ... : ... .. . ... : 1-# 0B . ... : ... .. . ...
ROW 31 : ... .. . ... : ... .. . ... : ... .. . ... : ... .. . ... : ... .. . ...
ROW 32 : ... .. . ... : ... .. . ... : ... .. . ... : 1-# 0B . G07 : ... .. . ...
ROW 33 : ... .. . ... : ... .. . ... : ... .. . ... : 1-# 0B . G03 : ... .. . ...
ROW 34 : ... .. . ... : ... .. . ... : ... .. . ... : 1-# 0B . ... : ... .. . ...
ROW 35 : ... .. . ... : ... .. . ... : ... .. . ... : ... .. . ... : ... .. . ...
ROW 36 : ... .. . ... : ... .. . ... : ... .. . ... : 1-# 0B . ... : ... .. . ...
ROW 37 : ... .. . ... : ... .. . ... : ... .. . ... : ... .. . ... : ... .. . ...
ROW 38 : ... .. . ... : ... .. . ... : ... .. . ... : 1-# 0B . G07 : ... .. . ...
ROW 39 : ... .. . ... : ... .. . ... : ... .. . ... : 1-# 0B . G03 : ... .. . ...
ROW 3A : ... .. . ... : ... .. . ... : ... .. . ... : 1-# 0B . ... : ... .. . ...
ROW 3B : ... .. . ... : ... .. . ... : ... .. . ... : ... .. . ... : ... .. . ...
ROW 3C : ... .. . ... : ... .. . ... : ... .. . ... : 1-# 0B . ... : ... .. . ...
ROW 3D : ... .. . ... : ... .. . ... : ... .. . ... : 1-# 0B . ... : ... .. . ...
ROW 3E : G#4 1E . ... : D#4 1F . ... : C#2 00 . ... : 1-# 0B . ... : ... .. . ...
ROW 3F : G#4 1E . ... : D#4 1F . ... : ... .. . ... : ... .. . ... : ... .. . ...
PATTERN 01
ROW 00 : A-3 1E . ... : F-3 1F . ... : D-2 01 . ... : 9-# 03 . ... : ... .. . ...
ROW 01 : ... .. . ... : ... .. . ... : ... .. . ... : ... .. . ... : ... .. . ...
ROW 02 : ... .. . ... : ... .. . ... : ... .. . ... : 1-# 0B . ... : ... .. . ...
ROW 03 : ... .. . ... : ... .. . ... : ... .. . ... : ... .. . ... : ... .. . ...
ROW 04 : ... .. . ... : ... .. . ... : D-2 02 . ... : 6-# 13 . ... : ... .. . ...
ROW 05 : ... .. . ... : ... .. . ... : ... .. . ... : ... .. . ... : ... .. . ...
ROW 06 : ... .. . ... : ... .. . ... : F-2 00 . ... : C-# 07 . ... : ... .. . ...
ROW 07 : ... .. . ... : ... .. . ... : ... .. . ... : ... .. . ... : ... .. . ...
ROW 08 : ... .. . ... : ... .. . ... : ... .. . ... : 1-# 0B . ... : ... .. . ...
ROW 09 : ... .. . ... : ... .. . ... : ... .. . ... : ... .. . ... : ... .. . ...
ROW 0A : ... .. . ... : ... .. . ... : F-2 01 . ... : 9-# 03 . ... : ... .. . ...
ROW 0B : ... .. . ... : ... .. . ... : ... .. . X00 : 9-# 03 . ... : ... .. . ...
ROW 0C : ... .. . ... : ... .. . ... : F#2 02 . ... : 6-# 13 . ... : ... .. . ...
ROW 0D : ... .. . ... : ... .. . ... : ... .. . ... : ... .. . ... : ... .. . ...
ROW 0E : ... .. . ... : ... .. . ... : ... .. . ... : 4-# 20 . X00 : ... .. . ...
ROW 0F : ... .. . ... : ... .. . ... : ... .. . ... : ... .. . ... : ... .. . ...
ROW 10 : G#3 1E . ... : E-3 1F . ... : F#2 01 . ... : 9-# 03 . ... : ... .. . ...
ROW 11 : ... .. . ... : ... .. . ... : ... .. . ... : ... .. . ... : ... .. . ...
ROW 12 : ... .. . ... : ... .. . ... : F-2 00 . ... : 1-# 0B . ... : ... .. . ...
ROW 13 : ... .. . ... : ... .. . ... : ... .. . ... : ... .. . ... : ... .. . ...
ROW 14 : ... .. . ... : ... .. . ... : F-2 02 . ... : 6-# 13 . ... : ... .. . ...
ROW 15 : ... .. . ... : ... .. . ... : ... .. . ... : ... .. . ... : ... .. . ...
ROW 16 : ... .. . ... : ... .. . ... : ... .. . ... : C-# 07 . ... : ... .. . ...
ROW 17 : ... .. . ... : ... .. . ... : ... .. . ... : ... .. . ... : ... .. . ...
ROW 18 : E-3 1E . ... : C#3 1F . ... : D-2 00 . ... : 1-# 0B . ... : ... .. . ...
ROW 19 : ... .. . ... : ... .. . ... : ... .. . ... : ... .. . ... : ... .. . ...
ROW 1A : ... .. . ... : ... .. . ... : D-2 01 . ... : 9-# 03 . ... : ... .. . ...
ROW 1B : ... .. . ... : ... .. . ... : ... .. . X00 : 9-# 03 . ... : ... .. . ...
ROW 1C : ... .. . ... : ... .. . ... : C-2 02 . ... : 6-# 13 . ... : ... .. . ...
ROW 1D : ... .. . ... : ... .. . ... : ... .. . ... : ... .. . ... : ... .. . ...
ROW 1E : ... .. . ... : ... .. . ... : ... .. . ... : 2-# 20 . X00 : ... .. . ...
ROW 1F : ... .. . ... : ... .. . D00 : C-2 02 . ... : 6-# 13 . ... : ... .. . ...
ROW 20 : ... .. . ... : ... .. . ... : ... .. . ... : 9-# 03 . ... : ... .. . ...
ROW 21 : ... .. . ... : ... .. . ... : ... .. . ... : ... .. . ... : ... .. . ...
ROW 22 : ... .. . ... : ... .. . ... : ... .. . ... : 1-# 0B . ... : ... .. . ...
ROW 23 : ... .. . ... : ... .. . ... : ... .. . ... : ... .. . ... : ... .. . ...
ROW 24 : ... .. . ... : ... .. . ... : ... .. . ... : 6-# 13 . ... : ... .. . ...
ROW 25 : ... .. . ... : ... .. . ... : ... .. . ... : ... .. . ... : ... .. . ...
ROW 26 : ... .. . ... : ... .. . ... : ... .. . ... : C-# 07 . ... : ... .. . ...
ROW 27 : ... .. . ... : ... .. . ... : ... .. . ... : ... .. . ... : ... .. . ...
ROW 28 : ... .. . ... : ... .. . ... : ... .. . ... : 1-# 0B . ... : ... .. . ...
ROW 29 : ... .. . ... : ... .. . ... : ... .. . ... : ... .. . ... : ... .. . ...
ROW 2A : ... .. . ... : ... .. . ... : ... .. . ... : 9-# 03 . ... : ... .. . ...
ROW 2B : ... .. . ... : ... .. . ... : ... .. . ... : 9-# 03 . ... : ... .. . ...
ROW 2C : ... .. . ... : ... .. . ... : ... .. . ... : 6-# 13 . ... : ... .. . ...
ROW 2D : ... .. . ... : ... .. . ... : ... .. . ... : ... .. . ... : ... .. . ...
ROW 2E : ... .. . ... : ... .. . ... : ... .. . ... : 4-# 20 . X00 : ... .. . ...
ROW 2F : ... .. . ... : ... .. . ... : ... .. . ... : ... .. . ... : ... .. . ...
ROW 30 : ... .. . ... : ... .. . ... : ... .. . ... : 9-# 03 . ... : ... .. . ...
ROW 31 : ... .. . ... : ... .. . ... : ... .. . ... : ... .. . ... : ... .. . ...
ROW 32 : ... .. . ... : ... .. . ... : ... .. . ... : 1-# 0B . ... : ... .. . ...
ROW 33 : ... .. . ... : ... .. . ... : ... .. . ... : ... .. . ... : ... .. . ...
ROW 34 : ... .. . ... : ... .. . ... : ... .. . ... : 6-# 13 . ... : ... .. . ...
ROW 35 : ... .. . ... : ... .. . ... : ... .. . ... : ... .. . ... : ... .. . ...
ROW 36 : ... .. . ... : ... .. . ... : ... .. . ... : C-# 07 . ... : ... .. . ...
ROW 37 : ... .. . ... : ... .. . ... : ... .. . ... : ... .. . ... : ... .. . ...
ROW 38 : ... .. . ... : ... .. . ... : ... .. . ... : 1-# 0B . ... : ... .. . ...
ROW 39 : ... .. . ... : ... .. . ... : ... .. . ... : ... .. . ... : ... .. . ...
ROW 3A : ... .. . ... : ... .. . ... : ... .. . ... : 9-# 03 . ... : ... .. . ...
ROW 3B : ... .. . ... : ... .. . ... : ... .. . ... : 9-# 03 . ... : ... .. . ...
ROW 3C : ... .. . ... : ... .. . ... : ... .. . ... : 6-# 13 . ... : ... .. . ...
ROW 3D : ... .. . ... : ... .. . ... : ... .. . ... : ... .. . ... : ... .. . ...
ROW 3E : ... .. . ... : ... .. . ... : ... .. . ... : 2-# 20 . X00 : ... .. . ...
ROW 3F : ... .. . ... : ... .. . ... : ... .. . ... : 6-# 13 . ... : ... .. . ...
PATTERN 02
ROW 00 : D-3 1E . ... : A-2 1F . ... : D-2 01 . ... : 6-# 13 . ... : ... .. . ...
ROW 01 : ... .. . ... : ... .. . ... : ... .. . ... : 6-# 13 . ... : ... .. . ...
ROW 02 : ... .. . ... : ... .. . ... : D-3 00 . ... : 6-# 13 . ... : ... .. . ...
ROW 03 : ... .. . ... : ... .. . ... : ... .. . ... : ... .. . ... : ... .. . ...
ROW 04 : ... .. . ... : ... .. . ... : D-3 02 . ... : ... .. . ... : ... .. . ...
ROW 05 : ... .. . ... : ... .. . ... : ... .. . ... : ... .. . ... : ... .. . ...
ROW 06 : ... .. . ... : ... .. . ... : F-2 00 . ... : 6-# 13 . ... : ... .. . ...
ROW 07 : ... .. . ... : ... .. . ... : ... .. . ... : 6-# 13 . ... : ... .. . ...
ROW 08 : ... .. . ... : ... .. . ... : F-3 00 . ... : 6-# 13 . ... : ... .. . ...
ROW 09 : ... .. . ... : ... .. . ... : ... .. . ... : ... .. . ... : ... .. . ...
ROW 0A : ... .. . ... : ... .. . ... : ... .. . X00 : ... .. . ... : ... .. . ...
ROW 0B : ... .. . ... : ... .. . ... : ... .. . X00 : ... .. . ... : ... .. . ...
ROW 0C : ... .. . ... : ... .. . ... : F#2 02 . ... : ... .. . ... : ... .. . ...
ROW 0D : ... .. . ... : ... .. . ... : ... .. . ... : ... .. . ... : ... .. . ...
ROW 0E : ... .. . ... : ... .. . ... : F#3 00 . ... : ... .. . ... : ... .. . ...
ROW 0F : ... .. . ... : ... .. . ... : ... .. . ... : ... .. . ... : ... .. . ...
ROW 10 : ... .. . ... : ... .. . ... : ... .. . X00 : ... .. . ... : ... .. . ...
ROW 11 : ... .. . ... : ... .. . ... : ... .. . ... : ... .. . ... : ... .. . ...
ROW 12 : ... .. . ... : ... .. . ... : F-2 00 . ... : 6-# 13 . ... : ... .. . ...
ROW 13 : ... .. . ... : ... .. . ... : ... .. . ... : 6-# 13 . ... : ... .. . ...
ROW 14 : ... .. . ... : ... .. . ... : F-3 02 . ... : 6-# 13 . ... : ... .. . ...
ROW 15 : ... .. . ... : ... .. . ... : ... .. . ... : ... .. . ... : ... .. . ...
ROW 16 : ... .. . ... : ... .. . ... : ... .. . ... : ... .. . ... : ... .. . ...
ROW 17 : ... .. . ... : ... .. . ... : ... .. . ... : ... .. . ... : ... .. . ...
ROW 18 : A-3 1E . ... : E-3 1F . ... : D-2 00 . ... : 6-# 13 . ... : ... .. . ...
ROW 19 : G#3 1E . ... : D#3 1F . ... : ... .. . ... : 6-# 13 . ... : ... .. . ...
ROW 1A : E-3 1E . ... : C#3 1F . ... : D-3 00 . ... : 6-# 13 . ... : ... .. . ...
ROW 1B : C#3 1E . ... : B-2 1F . ... : ... .. . X00 : ... .. . ... : ... .. . ...
ROW 1C : G#3 1E . ... : D#3 1F . ... : C-2 02 . ... : 6-# 13 . ... : ... .. . ...
ROW 1D : G-3 1E . ... : D-3 1F . ... : ... .. . ... : 6-# 13 . ... : ... .. . ...
ROW 1E : D#3 1E . ... : A#2 1F . ... : C-3 00 . ... : 6-# 13 . ... : ... .. . ...
ROW 1F : C#3 1E . ... : G#2 1F . D00 : C-3 02 . ... : ... .. . ... : ... .. . ...
ROW 20 : ... .. . ... : ... .. . ... : ... .. . ... : 6-# 13 . ... : ... .. . ...
ROW 21 : ... .. . ... : ... .. . ... : ... .. . ... : 6-# 13 . ... : ... .. . ...
ROW 22 : ... .. . ... : ... .. . ... : ... .. . ... : 6-# 13 . ... : ... .. . ...
ROW 23 : ... .. . ... : ... .. . ... : ... .. . ... : ... .. . ... : ... .. . ...
ROW 24 : ... .. . ... : ... .. . ... : ... .. . ... : ... .. . ... : ... .. . ...
ROW 25 : ... .. . ... : ... .. . ... : ... .. . ... : ... .. . ... : ... .. . ...
ROW 26 : ... .. . ... : ... .. . ... : ... .. . ... : 6-# 13 . ... : ... .. . ...
ROW 27 : ... .. . ... : ... .. . ... : ... .. . ... : 6-# 13 . ... : ... .. . ...
ROW 28 : ... .. . ... : ... .. . ... : ... .. . ... : 6-# 13 . ... : ... .. . ...
ROW 29 : ... .. . ... : ... .. . ... : ... .. . ... : ... .. . ... : ... .. . ...
ROW 2A : ... .. . ... : ... .. . ... : ... .. . ... : ... .. . ... : ... .. . ...
ROW 2B : ... .. . ... : ... .. . ... : ... .. . ... : ... .. . ... : ... .. . ...
ROW 2C : ... .. . ... : ... .. . ... : ... .. . ... : ... .. . ... : ... .. . ...
ROW 2D : ... .. . ... : ... .. . ... : ... .. . ... : ... .. . ... : ... .. . ...
ROW 2E : ... .. . ... : ... .. . ... : ... .. . ... : ... .. . ... : ... .. . ...
ROW 2F : ... .. . ... : ... .. . ... : ... .. . ... : ... .. . ... : ... .. . ...
ROW 30 : ... .. . ... : ... .. . ... : ... .. . ... : ... .. . ... : ... .. . ...
ROW 31 : ... .. . ... : ... .. . ... : ... .. . ... : ... .. . ... : ... .. . ...
ROW 32 : ... .. . ... : ... .. . ... : ... .. . ... : 6-# 13 . ... : ... .. . ...
ROW 33 : ... .. . ... : ... .. . ... : ... .. . ... : 6-# 13 . ... : ... .. . ...
ROW 34 : ... .. . ... : ... .. . ... : ... .. . ... : 6-# 13 . ... : ... .. . ...
ROW 35 : ... .. . ... : ... .. . ... : ... .. . ... : ... .. . ... : ... .. . ...
ROW 36 : ... .. . ... : ... .. . ... : ... .. . ... : ... .. . ... : ... .. . ...
ROW 37 : ... .. . ... : ... .. . ... : ... .. . ... : ... .. . ... : ... .. . ...
ROW 38 : ... .. . ... : ... .. . ... : ... .. . ... : 6-# 13 . ... : ... .. . ...
ROW 39 : ... .. . ... : ... .. . ... : ... .. . ... : 6-# 13 . ... : ... .. . ...
ROW 3A : ... .. . ... : ... .. . ... : ... .. . ... : 6-# 13 . ... : ... .. . ...
ROW 3B : ... .. . ... : ... .. . ... : ... .. . ... : ... .. . ... : ... .. . ...
ROW 3C : ... .. . ... : ... .. . ... : ... .. . ... : 6-# 13 . ... : ... .. . ...
ROW 3D : ... .. . ... : ... .. . ... : ... .. . ... : 6-# 13 . ... : ... .. . ...
ROW 3E : ... .. . ... : ... .. . ... : ... .. . ... : 6-# 13 . ... : ... .. . ...
ROW 3F : ... .. . ... : ... .. . ... : ... .. . ... : ... .. . ... : ... .. . ...
PATTERN 03
ROW 00 : A-2 1E . ... : D-3 1F . ... : D-2 01 . ... : 5-# 23 . ... : ... .. . ...
ROW 01 : ... .. . ... : ... .. . ... : ... .. . ... : 4-# 23 . ... : ... .. . ...
ROW 02 : ... .. . ... : ... .. . ... : D-3 00 . ... : 3-# 23 . ... : ... .. . ...
ROW 03 : ... .. . ... : ... .. . ... : D-2 00 . ... : 2-# 23 . ... : ... .. . ...
ROW 04 : ... .. . ... : ... .. . ... : D-2 02 . S02 : 3-# 23 . ... : ... .. . ...
ROW 05 : ... .. . ... : ... .. . ... : D-2 00 . ... : 2-# 23 . ... : ... .. . ...
ROW 06 : ... .. . ... : ... .. . ... : D-3 00 . ... : 5-# 23 . ... : ... .. . ...
ROW 07 : ... .. . ... : ... .. . ... : D-2 00 . ... : 4-# 23 . ... : ... .. . ...
ROW 08 : A-3 1E . ... : F-3 1F . ... : F-2 00 . ... : 3-# 23 . ... : ... .. . ...
ROW 09 : ... .. . ... : ... .. . ... : ... .. . ... : 2-# 23 . ... : ... .. . ...
ROW 0A : ... .. . ... : ... .. . ... : F-3 00 . ... : 3-# 23 . ... : ... .. . ...
ROW 0B : ... .. . ... : ... .. . ... : F-2 01 . ... : 2-# 23 . ... : ... .. . ...
ROW 0C : ... .. . ... : ... .. . ... : F-2 02 . S02 : 5-# 23 . ... : ... .. . ...
ROW 0D : ... .. . ... : ... .. . ... : F-2 00 . ... : 4-# 23 . ... : ... .. . ...
ROW 0E : ... .. . ... : ... .. . ... : F-3 00 . ... : 3-# 23 . ... : ... .. . ...
ROW 0F : ... .. . ... : ... .. . ... : F-2 00 . ... : 2-# 23 . ... : ... .. . ...
ROW 10 : A#2 1E . ... : D#3 1F . ... : F#2 01 . ... : 3-# 23 . ... : ... .. . ...
ROW 11 : ... .. . ... : ... .. . ... : ... .. . ... : 2-# 23 . ... : ... .. . ...
ROW 12 : ... .. . ... : ... .. . ... : F#3 00 . ... : 5-# 23 . ... : ... .. . ...
ROW 13 : ... .. . ... : ... .. . ... : F#2 00 . ... : 4-# 23 . ... : ... .. . ...
ROW 14 : ... .. . ... : ... .. . ... : F#2 02 . S02 : 3-# 23 . ... : ... .. . ...
ROW 15 : ... .. . ... : ... .. . ... : F#2 00 . ... : 4-# 23 . ... : ... .. . ...
ROW 16 : ... .. . ... : ... .. . ... : F#3 00 . ... : 3-# 23 . ... : ... .. . ...
ROW 17 : ... .. . ... : ... .. . ... : D#2 00 . ... : 4-# 23 . ... : ... .. . ...
ROW 18 : G-3 1E . ... : A#3 1F . ... : F-2 00 . ... : 5-# 23 . ... : ... .. . ...
ROW 19 : ... .. . ... : ... .. . ... : ... .. . ... : 4-# 23 . ... : ... .. . ...
ROW 1A : ... .. . ... : ... .. . ... : F-3 00 . ... : 3-# 23 . ... : ... .. . ...
ROW 1B : ... .. . ... : ... .. . ... : F-2 01 . ... : 2-# 23 . ... : ... .. . ...
ROW 1C : C-3 1E . ... : D#3 1F . ... : F-2 02 . S02 : 1-# 23 . ... : ... .. . ...
ROW 1D : A-2 1E . ... : D-3 1F . ... : F-2 00 . ... : 3-# 23 . ... : ... .. . ...
ROW 1E : G-2 1E . ... : C-3 1F . ... : F-3 00 . ... : 2-# 23 . ... : ... .. . ...
ROW 1F : F-2 1E . ... : A-2 1F . ... : C-2 02 . ... : 1-# 23 . ... : ... .. . ...
ROW 20 : A-3 1E . ... : D-4 1F . ... : D-2 01 . ... : 5-# 23 . ... : ... .. . ...
ROW 21 : ... .. . ... : ... .. . ... : ... .. . ... : 4-# 23 . ... : ... .. . ...
ROW 22 : ... .. . ... : ... .. . ... : D-3 00 . ... : 3-# 23 . ... : ... .. . ...
ROW 23 : ... .. . ... : ... .. . ... : D-2 00 . ... : 2-# 23 . ... : ... .. . ...
ROW 24 : ... .. . ... : ... .. . ... : D-2 02 . S02 : 3-# 23 . ... : ... .. . ...
ROW 25 : ... .. . ... : ... .. . ... : D-2 00 . ... : 2-# 23 . ... : ... .. . ...
ROW 26 : ... .. . ... : ... .. . ... : D-3 00 . ... : 5-# 23 . ... : ... .. . ...
ROW 27 : ... .. . ... : ... .. . ... : D-2 00 . ... : 4-# 23 . ... : ... .. . ...
ROW 28 : A-2 21 . T41 : ... .. . ... : F-2 00 . ... : 3-# 23 . ... : ... .. . ...
ROW 29 : A-2 21 . T41 : ... .. . ... : ... .. . ... : 2-# 23 . ... : ... .. . ...
ROW 2A : A-2 21 . T41 : ... .. . ... : F-3 00 . ... : 3-# 23 . ... : ... .. . ...
ROW 2B : A-2 21 . T41 : A-2 22 . T41 : F-2 01 . ... : 2-# 23 . ... : ... .. . ...
ROW 2C : D-3 21 . T41 : A-2 22 . T41 : F-2 02 . S02 : 5-# 23 . ... : ... .. . ...
ROW 2D : D-3 21 . T41 : A-2 22 . T41 : F-2 00 . ... : 4-# 23 . ... : ... .. . ...
ROW 2E : D-3 21 . T41 : A-2 22 . T41 : F-3 00 . ... : 3-# 23 . ... : ... .. . ...
ROW 2F : D-3 21 . T41 : D-3 22 . T41 : F-2 00 . ... : 2-# 23 . ... : ... .. . ...
ROW 30 : G-3 21 . T42 : D-3 22 . T41 : F#2 01 . ... : 3-# 23 . ... : ... .. . ...
ROW 31 : G-3 21 . T42 : D-3 22 . T41 : ... .. . ... : 2-# 23 . ... : ... .. . ...
ROW 32 : G-3 21 . T42 : D-3 22 . T41 : F#3 00 . ... : 5-# 23 . ... : ... .. . ...
ROW 33 : G-3 21 . T42 : G-3 22 . T42 : F#2 00 . ... : 4-# 23 . ... : ... .. . ...
ROW 34 : A-3 21 . T41 : G-3 22 . T42 : F#2 02 . S02 : 3-# 23 . ... : ... .. . ...
ROW 35 : A-3 21 . T41 : G-3 22 . T42 : F#2 00 . ... : 4-# 23 . ... : ... .. . ...
ROW 36 : A-3 21 . T41 : G-3 22 . T42 : F#3 00 . ... : 3-# 23 . ... : ... .. . ...
ROW 37 : A-3 21 . T41 : A-3 22 . T41 : D#2 00 . ... : 4-# 23 . ... : ... .. . ...
ROW 38 : D-4 21 . T41 : A-3 22 . T41 : F-2 00 . ... : 5-# 23 . ... : ... .. . ...
ROW 39 : D-4 21 . T41 : A-3 22 . T41 : ... .. . ... : 4-# 23 . ... : ... .. . ...
ROW 3A : D-4 21 . T41 : A-3 22 . T41 : F-3 00 . ... : 3-# 23 . ... : ... .. . ...
ROW 3B : D-4 21 . T41 : D-4 22 . T41 : F-2 01 . ... : 2-# 23 . ... : ... .. . ...
ROW 3C : D-4 21 . TB2 : D-4 22 . T41 : F-2 02 . S02 : 1-# 23 . ... : ... .. . ...
ROW 3D : A#3 21 . TB1 : D-4 22 . T41 : F-2 00 . ... : 3-# 23 . ... : ... .. . ...
ROW 3E : G-3 21 . TB2 : D-4 22 . T41 : F-3 00 . ... : 2-# 23 . ... : ... .. . ...
ROW 3F : D#3 21 . TB1 : D-4 22 . TB2 : C-2 02 . ... : 1-# 23 . ... : ... .. . ...
PATTERN 04
ROW 00 : D-3 0C . ... : A#3 0D . TB1 : D-2 01 . ... : 6-# 13 . ... : ... .. . ...
ROW 01 : D#3 0C . ... : G-3 0D . TB2 : ... .. . ... : 6-# 13 . ... : ... .. . ...
ROW 02 : D-3 0C . ... : D#3 0D . TB1 : ... .. . ... : 6-# 13 . ... : ... .. . ...
ROW 03 : A#3 0C . ... : D-3 0D . ... : ... .. . ... : 2-# 23 . ... : ... .. . ...
ROW 04 : A-3 0C . ... : D#3 0D . ... : D-2 02 . ... : 3-# 23 . ... : ... .. . ...
ROW 05 : G-3 0C . ... : D-3 0D . ... : ... .. . ... : 2-# 23 . ... : ... .. . ...
ROW 06 : F-3 0C . ... : A#3 0D . ... : ... .. . ... : 6-# 13 . ... : ... .. . ...
ROW 07 : D#3 0C . ... : A-3 0D . ... : ... .. . ... : 6-# 13 . ... : ... .. . ...
ROW 08 : C-3 0C . ... : G-3 0D . ... : ... .. . ... : 6-# 13 . ... : ... .. . ...
ROW 09 : C#3 0C . ... : F-3 0D . ... : ... .. . ... : 2-# 23 . ... : ... .. . ...
ROW 0A : C-3 0C . ... : D#3 0D . ... : D-2 01 . ... : 3-# 23 . ... : ... .. . ...
ROW 0B : G#3 0C . ... : C-3 0D . ... : D-2 01 . ... : 2-# 23 . ... : ... .. . ...
ROW 0C : G-3 0C . ... : C#3 0D . ... : D-2 02 . ... : 5-# 23 . ... : ... .. . ...
ROW 0D : F-3 0C . ... : C-3 0D . ... : ... .. . ... : 4-# 23 . ... : ... .. . ...
ROW 0E : D#3 0C . ... : G#3 0D . ... : ... .. . ... : 3-# 23 . ... : ... .. . ...
ROW 0F : C#3 0C . ... : G-3 0D . ... : ... .. . ... : 2-# 23 . ... : ... .. . ...
ROW 10 : D-3 0C . ... : F-3 0D . ... : D-2 01 . ... : 3-# 23 . ... : ... .. . ...
ROW 11 : ... .. . ... : D#3 0D . ... : ... .. . ... : 2-# 23 . ... : ... .. . ...
ROW 12 : ... .. . ... : C#3 0D . ... : ... .. . ... : 6-# 13 . ... : ... .. . ...
ROW 13 : ... .. . ... : D-3 0D . ... : ... .. . ... : 6-# 13 . ... : ... .. . ...
ROW 14 : G-2 14 . T42 : C-3 15 . T42 : D-2 02 . ... : 6-# 13 . ... : ... .. . ...
ROW 15 : ... .. . ... : ... .. . ... : ... .. . ... : 4-# 23 . ... : ... .. . ...
ROW 16 : ... .. . ... : ... .. . ... : ... .. . ... : 3-# 23 . ... : ... .. . ...
ROW 17 : ... .. . ... : ... .. . ... : ... .. . ... : 4-# 23 . ... : ... .. . ...
ROW 18 : ... .. . ... : ... .. . ... : D#2 00 . ... : 6-# 13 . ... : ... .. . ...
ROW 19 : ... .. . ... : ... .. . ... : ... .. . ... : 6-# 13 . ... : ... .. . ...
ROW 1A : ... .. . ... : ... .. . ... : D#2 01 . ... : 6-# 13 . ... : ... .. . ...
ROW 1B : ... .. . ... : ... .. . ... : D#2 01 . ... : 2-# 23 . ... : ... .. . ...
ROW 1C : G-3 14 . ... : A#3 15 . ... : G-2 00 . ... : 6-# 13 . ... : ... .. . ...
ROW 1D : ... .. . ... : ... .. . ... : ... .. . ... : 6-# 13 . ... : ... .. . ...
ROW 1E : ... .. . ... : ... .. . ... : ... .. . ... : 6-# 13 . ... : ... .. . ...
ROW 1F : ... .. . ... : ... .. . ... : G-2 02 . ... : 1-# 23 . ... : ... .. . ...
ROW 20 : D-4 14 . ... : G#3 15 . T41 : ... .. . ... : 6-# 13 . ... : ... .. . ...
ROW 21 : ... .. . ... : ... .. . ... : ... .. . ... : 6-# 13 . ... : ... .. . ...
ROW 22 : ... .. . ... : ... .. . ... : ... .. . ... : 6-# 13 . ... : ... .. . ...
ROW 23 : ... .. . ... : ... .. . ... : ... .. . ... : 2-# 23 . ... : ... .. . ...
ROW 24 : ... .. . ... : ... .. . ... : ... .. . ... : 3-# 23 . ... : ... .. . ...
ROW 25 : ... .. . ... : ... .. . ... : ... .. . ... : 2-# 23 . ... : ... .. . ...
ROW 26 : ... .. . ... : ... .. . ... : ... .. . ... : 6-# 13 . ... : ... .. . ...
ROW 27 : ... .. . ... : ... .. . ... : ... .. . ... : 6-# 13 . ... : ... .. . ...
ROW 28 : ... .. . ... : ... .. . ... : ... .. . ... : 6-# 13 . ... : ... .. . ...
ROW 29 : ... .. . ... : ... .. . ... : ... .. . ... : 2-# 23 . ... : ... .. . ...
ROW 2A : ... .. . ... : ... .. . ... : ... .. . ... : 3-# 23 . ... : ... .. . ...
ROW 2B : ... .. . ... : ... .. . ... : ... .. . ... : 2-# 23 . ... : ... .. . ...
ROW 2C : ... .. . ... : ... .. . ... : ... .. . ... : 5-# 23 . ... : ... .. . ...
ROW 2D : ... .. . ... : ... .. . ... : ... .. . ... : 4-# 23 . ... : ... .. . ...
ROW 2E : ... .. . ... : ... .. . ... : ... .. . ... : 3-# 23 . ... : ... .. . ...
ROW 2F : ... .. . ... : ... .. . ... : ... .. . ... : 2-# 23 . ... : ... .. . ...
ROW 30 : ... .. . ... : ... .. . ... : ... .. . ... : 3-# 23 . ... : ... .. . ...
ROW 31 : ... .. . ... : ... .. . ... : ... .. . ... : 2-# 23 . ... : ... .. . ...
ROW 32 : ... .. . ... : ... .. . ... : ... .. . ... : 6-# 13 . ... : ... .. . ...
ROW 33 : ... .. . ... : ... .. . ... : ... .. . ... : 6-# 13 . ... : ... .. . ...
ROW 34 : ... .. . ... : ... .. . ... : ... .. . ... : 6-# 13 . ... : ... .. . ...
ROW 35 : ... .. . ... : ... .. . ... : ... .. . ... : 4-# 23 . ... : ... .. . ...
ROW 36 : ... .. . ... : ... .. . ... : ... .. . ... : 3-# 23 . ... : ... .. . ...
ROW 37 : ... .. . ... : ... .. . ... : ... .. . ... : 4-# 23 . ... : ... .. . ...
ROW 38 : ... .. . ... : ... .. . ... : ... .. . ... : 6-# 13 . ... : ... .. . ...
ROW 39 : ... .. . ... : ... .. . ... : ... .. . ... : 6-# 13 . ... : ... .. . ...
ROW 3A : ... .. . ... : ... .. . ... : ... .. . ... : 6-# 13 . ... : ... .. . ...
ROW 3B : ... .. . ... : ... .. . ... : ... .. . ... : 2-# 23 . ... : ... .. . ...
ROW 3C : ... .. . ... : ... .. . ... : ... .. . ... : 6-# 13 . ... : ... .. . ...
ROW 3D : ... .. . ... : ... .. . ... : ... .. . ... : 6-# 13 . ... : ... .. . ...
ROW 3E : ... .. . ... : ... .. . ... : ... .. . ... : 6-# 13 . ... : ... .. . ...
ROW 3F : ... .. . ... : ... .. . ... : ... .. . ... : 1-# 23 . ... : ... .. . ...
PATTERN 05
ROW 00 : D-1 0A . ... : --- .. . ... : D-2 02 . ... : 9-# 03 . ... : ... .. . ...
ROW 01 : ... .. . ... : ... .. . ... : D-2 02 . S02 : 4-# 23 . ... : ... .. . ...
ROW 02 : ... .. . ... : ... .. . ... : D-2 02 . ... : 1-# 0B . ... : ... .. . ...
ROW 03 : ... .. . ... : ... .. . ... : --- 00 . ... : 2-# 23 . ... : ... .. . ...
ROW 04 : ... .. . ... : ... .. . ... : ... .. . ... : 6-# 13 . ... : ... .. . ...
ROW 05 : ... .. . ... : ... .. . ... : ... .. . ... : ... .. . ... : ... .. . ...
ROW 06 : ... .. . ... : ... .. . ... : D-2 02 . ... : C-# 07 . ... : ... .. . ...
ROW 07 : ... .. . ... : ... .. . ... : D-2 02 . S02 : 4-# 23 . ... : ... .. . ...
ROW 08 : ... .. . ... : ... .. . ... : D-2 02 . ... : 1-# 0B . ... : ... .. . ...
ROW 09 : ... .. . ... : ... .. . ... : --- 00 . ... : 2-# 23 . ... : ... .. . ...
ROW 0A : ... .. . ... : ... .. . ... : ... .. . ... : 9-# 03 . ... : ... .. . ...
ROW 0B : ... .. . ... : ... .. . ... : ... .. . ... : 9-# 03 . ... : ... .. . ...
ROW 0C : ... .. . ... : ... .. . ... : ... .. . ... : 6-# 13 . ... : ... .. . ...
ROW 0D : ... .. . ... : ... .. . ... : ... .. . ... : ... .. . ... : ... .. . ...
ROW 0E : ... .. . ... : ... .. . ... : ... .. . ... : 4-# 20 . X00 : ... .. . ...
ROW 0F : ... .. . ... : ... .. . ... : ... .. . ... : 2-# 23 . ... : ... .. . ...
ROW 10 : ... .. . ... : ... .. . ... : ... .. . ... : 9-# 03 . ... : ... .. . ...
ROW 11 : ... .. . ... : ... .. . ... : ... .. . ... : 2-# 23 . ... : ... .. . ...
ROW 12 : ... .. . ... : ... .. . ... : D-2 02 . ... : 1-# 0B . ... : ... .. . ...
ROW 13 : ... .. . ... : ... .. . ... : D-2 02 . S02 : 4-# 23 . ... : ... .. . ...
ROW 14 : ... .. . ... : ... .. . ... : D-2 02 . ... : 6-# 13 . ... : ... .. . ...
ROW 15 : ... .. . ... : ... .. . ... : --- 00 . ... : ... .. . ... : ... .. . ...
ROW 16 : ... .. . ... : ... .. . ... : ... .. . ... : C-# 07 . ... : ... .. . ...
ROW 17 : ... .. . ... : ... .. . ... : ... .. . ... : 4-# 23 . ... : ... .. . ...
ROW 18 : D#1 0A . ... : ... .. . ... : C-2 02 . ... : 1-# 0B . ... : ... .. . ...
ROW 19 : ... .. . ... : ... .. . ... : ... .. . ... : 4-# 23 . ... : ... .. . ...
ROW 1A : ... .. . ... : ... .. . ... : A#2 02 . ... : 9-# 03 . ... : ... .. . ...
ROW 1B : ... .. . ... : ... .. . ... : D#2 00 . ... : 9-# 03 . ... : ... .. . ...
ROW 1C : G-1 0A . ... : ... .. . ... : ... .. . ... : 6-# 13 . ... : ... .. . ...
ROW 1D : ... .. . ... : ... .. . ... : A#2 00 . ... : ... .. . ... : ... .. . ...
ROW 1E : ... .. . ... : ... .. . ... : C-2 02 . ... : 2-# 20 . X00 : ... .. . ...
ROW 1F : ... .. . D00 : ... .. . ... : ... .. . ... : 6-# 13 . ... : ... .. . ...
ROW 20 : ... .. . ... : ... .. . ... : D-2 02 . ... : 9-# 03 . ... : ... .. . ...
ROW 21 : ... .. . ... : ... .. . ... : D-2 02 . S02 : 4-# 23 . ... : ... .. . ...
ROW 22 : ... .. . ... : ... .. . ... : D-2 02 . ... : 1-# 0B . ... : ... .. . ...
ROW 23 : ... .. . ... : ... .. . ... : --- 00 . ... : 2-# 23 . ... : ... .. . ...
ROW 24 : ... .. . ... : ... .. . ... : ... .. . ... : 6-# 13 . ... : ... .. . ...
ROW 25 : ... .. . ... : ... .. . ... : ... .. . ... : ... .. . ... : ... .. . ...
ROW 26 : ... .. . ... : ... .. . ... : D-2 02 . ... : C-# 07 . ... : ... .. . ...
ROW 27 : ... .. . ... : ... .. . ... : D-2 02 . S02 : 4-# 23 . ... : ... .. . ...
ROW 28 : ... .. . ... : ... .. . ... : D-2 02 . ... : 1-# 0B . ... : ... .. . ...
ROW 29 : ... .. . ... : ... .. . ... : --- 00 . ... : 2-# 23 . ... : ... .. . ...
ROW 2A : ... .. . ... : ... .. . ... : ... .. . ... : 9-# 03 . ... : ... .. . ...
ROW 2B : ... .. . ... : ... .. . ... : ... .. . ... : 9-# 03 . ... : ... .. . ...
ROW 2C : ... .. . ... : ... .. . ... : ... .. . ... : 6-# 13 . ... : ... .. . ...
ROW 2D : ... .. . ... : ... .. . ... : ... .. . ... : ... .. . ... : ... .. . ...
ROW 2E : ... .. . ... : ... .. . ... : ... .. . ... : 4-# 20 . X00 : ... .. . ...
ROW 2F : ... .. . ... : ... .. . ... : ... .. . ... : 2-# 23 . ... : ... .. . ...
ROW 30 : ... .. . ... : ... .. . ... : ... .. . ... : 9-# 03 . ... : ... .. . ...
ROW 31 : ... .. . ... : ... .. . ... : ... .. . ... : 2-# 23 . ... : ... .. . ...
ROW 32 : ... .. . ... : ... .. . ... : D-2 02 . ... : 1-# 0B . ... : ... .. . ...
ROW 33 : ... .. . ... : ... .. . ... : D-2 02 . S02 : 4-# 23 . ... : ... .. . ...
ROW 34 : ... .. . ... : ... .. . ... : D-2 02 . ... : 6-# 13 . ... : ... .. . ...
ROW 35 : ... .. . ... : ... .. . ... : --- 00 . ... : ... .. . ... : ... .. . ...
ROW 36 : ... .. . ... : ... .. . ... : ... .. . ... : C-# 07 . ... : ... .. . ...
ROW 37 : ... .. . ... : ... .. . ... : ... .. . ... : 4-# 23 . ... : ... .. . ...
ROW 38 : ... .. . ... : ... .. . ... : C-2 02 . ... : 1-# 0B . ... : ... .. . ...
ROW 39 : ... .. . ... : ... .. . ... : ... .. . ... : 4-# 23 . ... : ... .. . ...
ROW 3A : ... .. . ... : ... .. . ... : A#2 02 . ... : 9-# 03 . ... : ... .. . ...
ROW 3B : ... .. . ... : ... .. . ... : D#2 00 . ... : 9-# 03 . ... : ... .. . ...
ROW 3C : ... .. . ... : ... .. . ... : ... .. . ... : 6-# 13 . ... : ... .. . ...
ROW 3D : ... .. . ... : ... .. . ... : A#2 00 . ... : ... .. . ... : ... .. . ...
ROW 3E : ... .. . ... : ... .. . ... : C-2 02 . ... : 2-# 20 . X00 : ... .. . ...
ROW 3F : ... .. . ... : ... .. . ... : ... .. . ... : 6-# 13 . ... : ... .. . ...
PATTERN 06
ROW 00 : A-3 0C . ... : D-3 0C . ... : ... .. . ... : ... .. . ... : ... .. . ...
ROW 01 : ... .. . ... : ... .. . ... : ... .. . ... : ... .. . ... : ... .. . ...
ROW 02 : A-3 0C . ... : D-3 0C . ... : ... .. . ... : ... .. . ... : ... .. . ...
ROW 03 : ... .. . ... : ... .. . ... : ... .. . ... : ... .. . ... : ... .. . ...
ROW 04 : ... .. . ... : ... .. . ... : ... .. . ... : ... .. . ... : ... .. . ...
ROW 05 : ... .. . ... : ... .. . ... : ... .. . ... : ... .. . ... : ... .. . ...
ROW 06 : A-3 0C . ... : D-3 0C . ... : ... .. . ... : ... .. . ... : ... .. . ...
ROW 07 : ... .. . ... : ... .. . ... : ... .. . ... : ... .. . ... : ... .. . ...
ROW 08 : A-3 0C . ... : D-3 0C . ... : ... .. . ... : ... .. . ... : ... .. . ...
ROW 09 : ... .. . ... : ... .. . ... : ... .. . ... : ... .. . ... : ... .. . ...
ROW 0A : ... .. . ... : ... .. . ... : ... .. . ... : ... .. . ... : ... .. . ...
ROW 0B : ... .. . ... : ... .. . ... : ... .. . ... : ... .. . ... : ... .. . ...
ROW 0C : ... .. . ... : ... .. . ... : ... .. . ... : ... .. . ... : ... .. . ...
ROW 0D : ... .. . ... : ... .. . ... : ... .. . ... : ... .. . ... : ... .. . ...
ROW 0E : ... .. . ... : ... .. . ... : ... .. . ... : ... .. . ... : ... .. . ...
ROW 0F : ... .. . ... : ... .. . ... : ... .. . ... : ... .. . ... : ... .. . ...
ROW 10 : ... .. . ... : ... .. . ... : ... .. . ... : ... .. . ... : ... .. . ...
ROW 11 : ... .. . ... : ... .. . ... : ... .. . ... : ... .. . ... : ... .. . ...
ROW 12 : A-3 0C . ... : D-3 0C . ... : ... .. . ... : ... .. . ... : ... .. . ...
ROW 13 : ... .. . ... : ... .. . ... : ... .. . ... : ... .. . ... : ... .. . ...
ROW 14 : A-3 0C . ... : D-3 0C . ... : ... .. . ... : ... .. . ... : ... .. . ...
ROW 15 : ... .. . ... : ... .. . ... : ... .. . ... : ... .. . ... : ... .. . ...
ROW 16 : ... .. . ... : ... .. . ... : ... .. . ... : ... .. . ... : ... .. . ...
ROW 17 : ... .. . ... : ... .. . ... : ... .. . ... : ... .. . ... : ... .. . ...
ROW 18 : A#3 0C . ... : D#3 0C . ... : ... .. . ... : ... .. . ... : ... .. . ...
ROW 19 : A-3 0C . ... : D-3 0C . ... : ... .. . ... : ... .. . ... : ... .. . ...
ROW 1A : G-3 0C . ... : C-3 0C . ... : ... .. . ... : ... .. . ... : ... .. . ...
ROW 1B : ... .. . ... : ... .. . ... : ... .. . ... : ... .. . ... : ... .. . ...
ROW 1C : B-3 0C . ... : G-3 0C . ... : ... .. . ... : ... .. . ... : ... .. . ...
ROW 1D : A#3 0C . ... : F-3 0C . ... : ... .. . ... : ... .. . ... : ... .. . ...
ROW 1E : F#3 0C . ... : D#3 0C . ... : ... .. . ... : ... .. . ... : ... .. . ...
ROW 1F : ... .. . ... : ... .. . ... : ... .. . ... : ... .. . ... : ... .. . ...
ROW 20 : A-3 0C . ... : D-3 0C . ... : ... .. . ... : ... .. . ... : ... .. . ...
ROW 21 : ... .. . ... : ... .. . ... : ... .. . ... : ... .. . ... : ... .. . ...
ROW 22 : A-3 0C . ... : D-3 0C . ... : ... .. . ... : ... .. . ... : ... .. . ...
ROW 23 : ... .. . ... : ... .. . ... : ... .. . ... : ... .. . ... : ... .. . ...
ROW 24 : ... .. . ... : ... .. . ... : ... .. . ... : ... .. . ... : ... .. . ...
ROW 25 : ... .. . ... : ... .. . ... : ... .. . ... : ... .. . ... : ... .. . ...
ROW 26 : A-3 0C . ... : D-3 0C . ... : ... .. . ... : ... .. . ... : ... .. . ...
ROW 27 : ... .. . ... : ... .. . ... : ... .. . ... : ... .. . ... : ... .. . ...
ROW 28 : A-3 0C . ... : D-3 0C . ... : ... .. . ... : ... .. . ... : ... .. . ...
ROW 29 : ... .. . ... : ... .. . ... : ... .. . ... : ... .. . ... : ... .. . ...
ROW 2A : ... .. . ... : ... .. . ... : ... .. . ... : ... .. . ... : ... .. . ...
ROW 2B : ... .. . ... : ... .. . ... : ... .. . ... : ... .. . ... : ... .. . ...
ROW 2C : ... .. . ... : ... .. . ... : ... .. . ... : ... .. . ... : ... .. . ...
ROW 2D : ... .. . ... : ... .. . ... : ... .. . ... : ... .. . ... : ... .. . ...
ROW 2E : ... .. . ... : ... .. . ... : ... .. . ... : ... .. . ... : ... .. . ...
ROW 2F : ... .. . ... : ... .. . ... : ... .. . ... : ... .. . ... : ... .. . ...
ROW 30 : ... .. . ... : ... .. . ... : ... .. . ... : ... .. . ... : ... .. . ...
ROW 31 : ... .. . ... : ... .. . ... : ... .. . ... : ... .. . ... : ... .. . ...
ROW 32 : A-3 0C . ... : D-3 0C . ... : ... .. . ... : ... .. . ... : ... .. . ...
ROW 33 : ... .. . ... : ... .. . ... : ... .. . ... : ... .. . ... : ... .. . ...
ROW 34 : A-3 0C . ... : D-3 0C . ... : ... .. . ... : ... .. . ... : ... .. . ...
ROW 35 : ... .. . ... : ... .. . ... : ... .. . ... : ... .. . ... : ... .. . ...
ROW 36 : ... .. . ... : ... .. . ... : ... .. . ... : ... .. . ... : ... .. . ...
ROW 37 : ... .. . ... : ... .. . ... : ... .. . ... : ... .. . ... : ... .. . ...
ROW 38 : A#3 0C . ... : D#3 0C . ... : ... .. . ... : ... .. . ... : ... .. . ...
ROW 39 : A-3 0C . ... : D-3 0C . ... : ... .. . ... : ... .. . ... : ... .. . ...
ROW 3A : G-3 0C . ... : C-3 0C . ... : ... .. . ... : ... .. . ... : ... .. . ...
ROW 3B : ... .. . ... : ... .. . ... : ... .. . ... : ... .. . ... : ... .. . ...
ROW 3C : B-3 0C . ... : G-3 0C . ... : ... .. . ... : ... .. . ... : ... .. . ...
ROW 3D : A#3 0C . ... : F-3 0C . ... : ... .. . ... : ... .. . ... : ... .. . ...
ROW 3E : F#3 0C . ... : D#3 0C . ... : ... .. . ... : ... .. . ... : ... .. . ...
ROW 3F : ... .. . ... : ... .. . ... : ... .. . ... : ... .. . ... : ... .. . ...
PATTERN 07
ROW 00 : A-3 0C . ... : D-4 0C . ... : ... .. . ... : ... .. . ... : ... .. . ...
ROW 01 : ... .. . ... : ... .. . ... : ... .. . ... : ... .. . ... : ... .. . ...
ROW 02 : A-3 0C . ... : D-4 0C . ... : ... .. . ... : ... .. . ... : ... .. . ...
ROW 03 : ... .. . ... : ... .. . ... : ... .. . ... : ... .. . ... : ... .. . ...
ROW 04 : ... .. . ... : ... .. . ... : ... .. . ... : ... .. . ... : ... .. . ...
ROW 05 : ... .. . ... : ... .. . ... : ... .. . ... : ... .. . ... : ... .. . ...
ROW 06 : A-3 0C . ... : D-4 0C . ... : ... .. . ... : ... .. . ... : ... .. . ...
ROW 07 : ... .. . ... : ... .. . ... : ... .. . ... : ... .. . ... : ... .. . ...
ROW 08 : A-3 0C . ... : D-4 0C . ... : ... .. . ... : ... .. . ... : ... .. . ...
ROW 09 : ... .. . ... : ... .. . ... : ... .. . ... : ... .. . ... : ... .. . ...
ROW 0A : ... .. . ... : ... .. . ... : ... .. . ... : ... .. . ... : ... .. . ...
ROW 0B : ... .. . ... : ... .. . ... : ... .. . ... : ... .. . ... : ... .. . ...
ROW 0C : ... .. . ... : ... .. . ... : ... .. . ... : ... .. . ... : ... .. . ...
ROW 0D : ... .. . ... : ... .. . ... : ... .. . ... : ... .. . ... : ... .. . ...
ROW 0E : ... .. . ... : ... .. . ... : ... .. . ... : ... .. . ... : ... .. . ...
ROW 0F : ... .. . ... : ... .. . ... : ... .. . ... : ... .. . ... : ... .. . ...
ROW 10 : ... .. . ... : ... .. . ... : ... .. . ... : ... .. . ... : ... .. . ...
ROW 11 : ... .. . ... : ... .. . ... : ... .. . ... : ... .. . ... : ... .. . ...
ROW 12 : A-3 0C . ... : D-4 0C . ... : ... .. . ... : ... .. . ... : ... .. . ...
ROW 13 : ... .. . ... : ... .. . ... : ... .. . ... : ... .. . ... : ... .. . ...
ROW 14 : A-3 0C . ... : D-4 0C . ... : ... .. . ... : ... .. . ... : ... .. . ...
ROW 15 : ... .. . ... : ... .. . ... : ... .. . ... : ... .. . ... : ... .. . ...
ROW 16 : ... .. . ... : ... .. . ... : ... .. . ... : ... .. . ... : ... .. . ...
ROW 17 : ... .. . ... : ... .. . ... : ... .. . ... : ... .. . ... : ... .. . ...
ROW 18 : A#3 0C . ... : D#4 0C . ... : ... .. . ... : ... .. . ... : ... .. . ...
ROW 19 : A-3 0C . ... : D-4 0C . ... : ... .. . ... : ... .. . ... : ... .. . ...
ROW 1A : G-3 0C . ... : C-4 0C . ... : ... .. . ... : ... .. . ... : ... .. . ...
ROW 1B : ... .. . ... : ... .. . ... : ... .. . ... : ... .. . ... : ... .. . ...
ROW 1C : B-3 0C . ... : G-4 0C . ... : ... .. . ... : ... .. . ... : ... .. . ...
ROW 1D : A#3 0C . ... : F-4 0C . ... : ... .. . ... : ... .. . ... : ... .. . ...
ROW 1E : F#3 0C . ... : D#4 0C . ... : ... .. . ... : ... .. . ... : ... .. . ...
ROW 1F : ... .. . ... : ... .. . ... : ... .. . ... : ... .. . ... : ... .. . ...
ROW 20 : A-4 0C . ... : D-4 0C . ... : ... .. . ... : ... .. . ... : ... .. . ...
ROW 21 : ... .. . ... : ... .. . ... : ... .. . ... : ... .. . ... : ... .. . ...
ROW 22 : A-4 0C . ... : D-4 0C . ... : ... .. . ... : ... .. . ... : ... .. . ...
ROW 23 : ... .. . ... : ... .. . ... : ... .. . ... : ... .. . ... : ... .. . ...
ROW 24 : ... .. . ... : ... .. . ... : ... .. . ... : ... .. . ... : ... .. . ...
ROW 25 : ... .. . ... : ... .. . ... : ... .. . ... : ... .. . ... : ... .. . ...
ROW 26 : A-4 0C . ... : D-4 0C . ... : ... .. . ... : ... .. . ... : ... .. . ...
ROW 27 : ... .. . ... : ... .. . ... : ... .. . ... : ... .. . ... : ... .. . ...
ROW 28 : A-4 0C . ... : D-4 0C . ... : ... .. . ... : ... .. . ... : ... .. . ...
ROW 29 : ... .. . ... : ... .. . ... : ... .. . ... : ... .. . ... : ... .. . ...
ROW 2A : ... .. . ... : ... .. . ... : ... .. . ... : ... .. . ... : ... .. . ...
ROW 2B : ... .. . ... : ... .. . ... : ... .. . ... : ... .. . ... : ... .. . ...
ROW 2C : ... .. . ... : ... .. . ... : ... .. . ... : ... .. . ... : ... .. . ...
ROW 2D : ... .. . ... : ... .. . ... : ... .. . ... : ... .. . ... : ... .. . ...
ROW 2E : ... .. . ... : ... .. . ... : ... .. . ... : ... .. . ... : ... .. . ...
ROW 2F : ... .. . ... : ... .. . ... : ... .. . ... : ... .. . ... : ... .. . ...
ROW 30 : ... .. . ... : ... .. . ... : ... .. . ... : ... .. . ... : ... .. . ...
ROW 31 : ... .. . ... : ... .. . ... : ... .. . ... : ... .. . ... : ... .. . ...
ROW 32 : A-4 0C . ... : D-4 0C . ... : ... .. . ... : ... .. . ... : ... .. . ...
ROW 33 : ... .. . ... : ... .. . ... : ... .. . ... : ... .. . ... : ... .. . ...
ROW 34 : A-4 0C . ... : D-4 0C . ... : ... .. . ... : ... .. . ... : ... .. . ...
ROW 35 : ... .. . ... : ... .. . ... : ... .. . ... : ... .. . ... : ... .. . ...
ROW 36 : ... .. . ... : ... .. . ... : ... .. . ... : ... .. . ... : ... .. . ...
ROW 37 : ... .. . ... : ... .. . ... : ... .. . ... : ... .. . ... : ... .. . ...
ROW 38 : A#4 0C . ... : D#4 0C . ... : ... .. . ... : ... .. . ... : ... .. . ...
ROW 39 : A-4 0C . ... : D-4 0C . ... : ... .. . ... : ... .. . ... : ... .. . ...
ROW 3A : G-4 0C . ... : C-4 0C . ... : ... .. . ... : ... .. . ... : ... .. . ...
ROW 3B : ... .. . ... : ... .. . ... : ... .. . ... : ... .. . ... : ... .. . ...
ROW 3C : B-4 0C . ... : G-4 0C . ... : ... .. . ... : ... .. . ... : ... .. . ...
ROW 3D : A#4 0C . ... : F-4 0C . ... : ... .. . ... : ... .. . ... : ... .. . ...
ROW 3E : F#4 0C . ... : D#4 0C . ... : ... .. . ... : ... .. . ... : ... .. . ...
ROW 3F : ... .. . B01 : ... .. . ... : ... .. . ... : ... .. . ... : ... .. . ...

# track BOOKMARKS block

# track HEADER block
TRACK  64   7 150 "Pit"
COLUMNS : 1 1 1 1 1

# track FRAMES block
ORDER 00 : 00 00 00 00 00
ORDER 01 : 00 00 00 00 00
ORDER 02 : 01 01 01 01 01
ORDER 03 : 01 02 01 01 01
ORDER 04 : 02 03 02 02 02
ORDER 05 : 03 04 03 03 03
ORDER 06 : 04 05 04 02 04

# track PATTERNS block
PATTERN 00
ROW 00 : G#4 14 . ... : ... .. . ... : C#2 01 . ... : 9-# 03 . ... : ... .. . ...
ROW 01 : ... .. . ... : ... .. . ... : ... .. . ... : ... .. . ... : ... .. . ...
ROW 02 : ... .. . ... : G#4 15 . ... : ... .. . ... : B-# 07 . ... : ... .. . ...
ROW 03 : ... .. . ... : ... .. . ... : ... .. . ... : ... .. . ... : ... .. . ...
ROW 04 : ... .. . ... : ... .. . ... : C#2 02 . ... : 7-# 04 . ... : ... .. . ...
ROW 05 : ... .. . ... : ... .. . ... : ... .. . ... : ... .. . ... : ... .. . ...
ROW 06 : ... .. . ... : ... .. . ... : C#2 01 . ... : 9-# 03 . ... : ... .. . ...
ROW 07 : ... .. . ... : ... .. . ... : ... .. . ... : ... .. . ... : ... .. . ...
ROW 08 : ... .. . ... : ... .. . ... : ... .. . ... : ... .. . ... : ... .. . ...
ROW 09 : ... .. . ... : ... .. . ... : ... .. . ... : ... .. . ... : ... .. . ...
ROW 0A : ... .. . ... : ... .. . ... : ... .. . ... : B-# 07 . ... : ... .. . ...
ROW 0B : ... .. . ... : ... .. . ... : ... .. . ... : ... .. . ... : ... .. . ...
ROW 0C : ... .. . ... : ... .. . ... : C#2 02 . ... : 7-# 04 . ... : ... .. . ...
ROW 0D : ... .. . ... : ... .. . ... : ... .. . ... : ... .. . ... : ... .. . ...
ROW 0E : ... .. . ... : ... .. . ... : ... .. . ... : B-# 07 . ... : ... .. . ...
ROW 0F : ... .. . ... : ... .. . ... : ... .. . ... : ... .. . ... : ... .. . ...
ROW 10 : G-4 14 . ... : ... .. . ... : C#2 01 . ... : 9-# 03 . ... : ... .. . ...
ROW 11 : ... .. . ... : ... .. . ... : ... .. . ... : ... .. . ... : ... .. . ...
ROW 12 : ... .. . ... : G-4 15 . ... : ... .. . ... : B-# 07 . ... : ... .. . ...
ROW 13 : ... .. . ... : ... .. . ... : ... .. . ... : ... .. . ... : ... .. . ...
ROW 14 : ... .. . ... : ... .. . ... : C#2 02 . ... : 7-# 04 . ... : ... .. . ...
ROW 15 : ... .. . ... : ... .. . ... : ... .. . ... : ... .. . ... : ... .. . ...
ROW 16 : ... .. . ... : ... .. . ... : E-2 01 . ... : 9-# 03 . ... : ... .. . ...
ROW 17 : ... .. . ... : ... .. . ... : ... .. . ... : ... .. . ... : ... .. . ...
ROW 18 : ... .. . ... : ... .. . ... : F#2 00 . ... : ... .. . ... : ... .. . ...
ROW 19 : ... .. . ... : ... .. . ... : ... .. . ... : ... .. . ... : ... .. . ...
ROW 1A : ... .. . ... : ... .. . ... : G-2 00 . ... : B-# 07 . ... : ... .. . ...
ROW 1B : ... .. . ... : ... .. . ... : ... .. . ... : ... .. . ... : ... .. . ...
ROW 1C : ... .. . ... : ... .. . ... : G-2 02 . ... : 7-# 04 . ... : ... .. . ...
ROW 1D : ... .. . ... : ... .. . ... : ... .. . ... : ... .. . ... : ... .. . ...
ROW 1E : ... .. . ... : ... .. . ... : D-2 00 . ... : B-# 07 . ... : ... .. . ...
ROW 1F : ... .. . ... : ... .. . ... : ... .. . ... : ... .. . ... : ... .. . ...
ROW 20 : E-4 14 . ... : ... .. . ... : C#2 01 . ... : 9-# 03 . ... : ... .. . ...
ROW 21 : ... .. . ... : ... .. . ... : ... .. . ... : ... .. . ... : ... .. . ...
ROW 22 : ... .. . ... : E-4 15 . ... : ... .. . ... : B-# 07 . ... : ... .. . ...
ROW 23 : ... .. . ... : ... .. . ... : ... .. . ... : ... .. . ... : ... .. . ...
ROW 24 : ... .. . ... : ... .. . ... : C#2 02 . ... : 7-# 04 . ... : ... .. . ...
ROW 25 : ... .. . ... : ... .. . ... : ... .. . ... : ... .. . ... : ... .. . ...
ROW 26 : ... .. . ... : ... .. . ... : C#2 01 . ... : 9-# 03 . ... : ... .. . ...
ROW 27 : ... .. . ... : ... .. . ... : ... .. . ... : ... .. . ... : ... .. . ...
ROW 28 : ... .. . ... : ... .. . ... : ... .. . ... : ... .. . ... : ... .. . ...
ROW 29 : ... .. . ... : ... .. . ... : ... .. . ... : ... .. . ... : ... .. . ...
ROW 2A : ... .. . ... : ... .. . ... : ... .. . ... : B-# 07 . ... : ... .. . ...
ROW 2B : ... .. . ... : ... .. . ... : ... .. . ... : ... .. . ... : ... .. . ...
ROW 2C : ... .. . ... : ... .. . ... : C#2 02 . ... : 7-# 04 . ... : ... .. . ...
ROW 2D : ... .. . ... : ... .. . ... : ... .. . ... : ... .. . ... : ... .. . ...
ROW 2E : ... .. . ... : ... .. . ... : ... .. . ... : B-# 07 . ... : ... .. . ...
ROW 2F : ... .. . ... : ... .. . ... : ... .. . ... : ... .. . ... : ... .. . ...
ROW 30 : C#4 14 . ... : ... .. . ... : C#2 01 . ... : 9-# 03 . ... : ... .. . ...
ROW 31 : ... .. . ... : ... .. . ... : ... .. . ... : ... .. . ... : ... .. . ...
ROW 32 : ... .. . ... : C#4 15 . ... : ... .. . ... : B-# 07 . ... : ... .. . ...
ROW 33 : ... .. . ... : ... .. . ... : ... .. . ... : ... .. . ... : ... .. . ...
ROW 34 : ... .. . ... : ... .. . ... : C#2 02 . ... : 7-# 04 . ... : ... .. . ...
ROW 35 : ... .. . ... : ... .. . ... : ... .. . ... : ... .. . ... : ... .. . ...
ROW 36 : ... .. . ... : ... .. . ... : E-2 01 . ... : 9-# 03 . ... : ... .. . ...
ROW 37 : ... .. . ... : ... .. . ... : ... .. . ... : ... .. . ... : ... .. . ...
ROW 38 : ... .. . ... : ... .. . ... : F#2 00 . ... : ... .. . ... : ... .. . ...
ROW 39 : ... .. . ... : ... .. . ... : ... .. . ... : ... .. . ... : ... .. . ...
ROW 3A : ... .. . ... : ... .. . ... : G-2 00 . ... : B-# 07 . ... : ... .. . ...
ROW 3B : ... .. . ... : ... .. . ... : ... .. . ... : ... .. . ... : ... .. . ...
ROW 3C : ... .. . ... : ... .. . ... : G-2 02 . ... : 7-# 04 . ... : ... .. . ...
ROW 3D : ... .. . ... : ... .. . ... : ... .. . ... : ... .. . ... : ... .. . ...
ROW 3E : ... .. . ... : ... .. . ... : D-2 00 . ... : B-# 07 . ... : ... .. . ...
ROW 3F : ... .. . ... : ... .. . ... : ... .. . ... : ... .. . ... : ... .. . ...
PATTERN 01
ROW 00 : B-1 0C . ... : ... .. . ... : C#2 01 . ... : 9-# 03 . ... : ... .. . ...
ROW 01 : C#2 0C . ... : ... .. . ... : ... .. . ... : ... .. . ... : ... .. . ...
ROW 02 : B-2 0C . ... : --- .. . ... : ... .. . ... : ... .. . ... : ... .. . ...
ROW 03 : C#3 0C . ... : ... .. . ... : C#3 00 . ... : ... .. . ... : ... .. . ...
ROW 04 : ... .. . ... : ... .. . ... : C#3 02 . ... : 7-# 04 . ... : ... .. . ...
ROW 05 : ... .. . ... : ... .. . ... : ... .. . ... : ... .. . ... : ... .. . ...
ROW 06 : B-1 0C . ... : ... .. . ... : C#2 01 . ... : 9-# 03 . ... : ... .. . ...
ROW 07 : C#2 0C . ... : ... .. . ... : ... .. . ... : ... .. . ... : ... .. . ...
ROW 08 : B-2 0C . ... : ... .. . ... : ... .. . ... : ... .. . ... : ... .. . ...
ROW 09 : C#3 0C . ... : ... .. . ... : ... .. . ... : ... .. . ... : ... .. . ...
ROW 0A : ... .. . ... : ... .. . ... : E-2 00 . ... : ... .. . ... : ... .. . ...
ROW 0B : ... .. . ... : ... .. . ... : F#2 00 . ... : ... .. . ... : ... .. . ...
ROW 0C : B-1 0C . ... : ... .. . ... : F#2 02 . ... : 7-# 04 . ... : ... .. . ...
ROW 0D : C#2 0C . ... : ... .. . ... : G-2 00 . ... : ... .. . ... : ... .. . ...
ROW 0E : B-2 0C . ... : ... .. . ... : ... .. . ... : ... .. . ... : ... .. . ...
ROW 0F : C#3 0C . ... : ... .. . ... : E-2 00 . ... : ... .. . ... : ... .. . ...
ROW 10 : B-1 0C . ... : ... .. . ... : C#2 01 . ... : 9-# 03 . ... : ... .. . ...
ROW 11 : C#2 0C . ... : ... .. . ... : ... .. . ... : ... .. . ... : ... .. . ...
ROW 12 : B-2 0C . ... : ... .. . ... : ... .. . ... : ... .. . ... : ... .. . ...
ROW 13 : C#3 0C . ... : ... .. . ... : C#3 00 . ... : ... .. . ... : ... .. . ...
ROW 14 : ... .. . ... : ... .. . ... : C#3 02 . ... : 7-# 04 . ... : ... .. . ...
ROW 15 : ... .. . ... : ... .. . ... : ... .. . ... : ... .. . ... : ... .. . ...
ROW 16 : B-1 0C . ... : ... .. . ... : C#2 01 . ... : 9-# 03 . ... : ... .. . ...
ROW 17 : C#2 0C . ... : ... .. . ... : ... .. . ... : ... .. . ... : ... .. . ...
ROW 18 : B-2 0C . ... : ... .. . ... : ... .. . ... : ... .. . ... : ... .. . ...
ROW 19 : C#3 0C . ... : ... .. . ... : ... .. . ... : ... .. . ... : ... .. . ...
ROW 1A : ... .. . ... : ... .. . ... : F#2 00 . ... : ... .. . ... : ... .. . ...
ROW 1B : ... .. . ... : ... .. . ... : G-2 00 . ... : ... .. . ... : ... .. . ...
ROW 1C : B-1 0C . ... : ... .. . ... : G-2 02 . ... : 7-# 04 . ... : ... .. . ...
ROW 1D : C#2 0C . ... : ... .. . ... : B-2 00 . ... : ... .. . ... : ... .. . ...
ROW 1E : B-2 0C . ... : ... .. . ... : ... .. . ... : ... .. . ... : ... .. . ...
ROW 1F : C#3 0C . ... : ... .. . ... : G-2 00 . ... : ... .. . ... : ... .. . ...
ROW 20 : B-1 0C . ... : ... .. . ... : C#2 01 . ... : 9-# 03 . ... : ... .. . ...
ROW 21 : C#2 0C . ... : ... .. . ... : ... .. . ... : ... .. . ... : ... .. . ...
ROW 22 : B-2 0C . ... : ... .. . ... : ... .. . ... : ... .. . ... : ... .. . ...
ROW 23 : C#3 0C . ... : ... .. . ... : C#3 00 . ... : ... .. . ... : ... .. . ...
ROW 24 : ... .. . ... : ... .. . ... : C#3 02 . ... : 7-# 04 . ... : ... .. . ...
ROW 25 : ... .. . ... : ... .. . ... : ... .. . ... : ... .. . ... : ... .. . ...
ROW 26 : B-1 0C . ... : ... .. . ... : C#2 01 . ... : 9-# 03 . ... : ... .. . ...
ROW 27 : C#2 0C . ... : ... .. . ... : ... .. . ... : ... .. . ... : ... .. . ...
ROW 28 : B-2 0C . ... : ... .. . ... : ... .. . ... : ... .. . ... : ... .. . ...
ROW 29 : C#3 0C . ... : ... .. . ... : ... .. . ... : ... .. . ... : ... .. . ...
ROW 2A : ... .. . ... : ... .. . ... : E-2 00 . ... : ... .. . ... : ... .. . ...
ROW 2B : ... .. . ... : ... .. . ... : F#2 00 . ... : ... .. . ... : ... .. . ...
ROW 2C : B-1 0C . ... : ... .. . ... : F#2 02 . ... : 7-# 04 . ... : ... .. . ...
ROW 2D : C#2 0C . ... : ... .. . ... : G-2 00 . ... : ... .. . ... : ... .. . ...
ROW 2E : B-2 0C . ... : ... .. . ... : ... .. . ... : ... .. . ... : ... .. . ...
ROW 2F : C#3 0C . ... : ... .. . ... : E-2 00 . ... : ... .. . ... : ... .. . ...
ROW 30 : B-1 0C . ... : ... .. . ... : C#2 01 . ... : 9-# 03 . ... : ... .. . ...
ROW 31 : C#2 0C . ... : ... .. . ... : ... .. . ... : ... .. . ... : ... .. . ...
ROW 32 : B-2 0C . ... : ... .. . ... : ... .. . ... : ... .. . ... : ... .. . ...
ROW 33 : C#3 0C . ... : ... .. . ... : C#3 00 . ... : ... .. . ... : ... .. . ...
ROW 34 : ... .. . ... : ... .. . ... : C#3 02 . ... : 7-# 04 . ... : ... .. . ...
ROW 35 : ... .. . ... : ... .. . ... : ... .. . ... : ... .. . ... : ... .. . ...
ROW 36 : B-1 0C . ... : ... .. . ... : C#2 01 . ... : 9-# 03 . ... : ... .. . ...
ROW 37 : C#2 0C . ... : ... .. . ... : ... .. . ... : ... .. . ... : ... .. . ...
ROW 38 : B-2 0C . ... : ... .. . ... : ... .. . ... : ... .. . ... : ... .. . ...
ROW 39 : C#3 0C . ... : ... .. . ... : ... .. . ... : ... .. . ... : ... .. . ...
ROW 3A : ... .. . ... : ... .. . ... : F#2 00 . ... : ... .. . ... : ... .. . ...
ROW 3B : ... .. . ... : ... .. . ... : G-2 00 . ... : ... .. . ... : ... .. . ...
ROW 3C : B-1 0C . ... : ... .. . ... : G-2 02 . ... : 7-# 04 . ... : ... .. . ...
ROW 3D : C#2 0C . ... : ... .. . ... : B-2 00 . ... : ... .. . ... : ... .. . ...
ROW 3E : B-2 0C . ... : ... .. . ... : ... .. . ... : ... .. . ... : ... .. . ...
ROW 3F : C#3 0C . ... : ... .. . ... : G-2 00 . ... : ... .. . ... : ... .. . ...
PATTERN 02
ROW 00 : C#4 14 . ... : F#2 0C . ... : C#2 01 . ... : 9-# 03 . ... : ... .. . ...
ROW 01 : ... .. . ... : G#2 0C . ... : ... .. . ... : ... .. . ... : ... .. . ...
ROW 02 : ... .. . ... : F#3 0C . ... : ... .. . ... : ... .. . ... : ... .. . ...
ROW 03 : ... .. . ... : G#3 0C . ... : C#3 00 . ... : ... .. . ... : ... .. . ...
ROW 04 : ... .. . ... : ... .. . ... : C#3 02 . ... : 7-# 04 . ... : ... .. . ...
ROW 05 : ... .. . ... : ... .. . ... : ... .. . ... : ... .. . ... : ... .. . ...
ROW 06 : ... .. . ... : F#2 0C . ... : C#2 01 . ... : 9-# 03 . ... : ... .. . ...
ROW 07 : ... .. . ... : G#2 0C . ... : ... .. . ... : ... .. . ... : ... .. . ...
ROW 08 : ... .. . ... : F#3 0C . ... : ... .. . ... : ... .. . ... : ... .. . ...
ROW 09 : ... .. . ... : G#3 0C . ... : ... .. . ... : ... .. . ... : ... .. . ...
ROW 0A : ... .. . ... : ... .. . ... : E-2 00 . ... : ... .. . ... : ... .. . ...
ROW 0B : ... .. . ... : ... .. . ... : F#2 00 . ... : ... .. . ... : ... .. . ...
ROW 0C : ... .. . ... : F#2 0C . ... : F#2 02 . ... : 7-# 04 . ... : ... .. . ...
ROW 0D : ... .. . ... : G#2 0C . ... : G-2 00 . ... : ... .. . ... : ... .. . ...
ROW 0E : ... .. . ... : F#3 0C . ... : ... .. . ... : ... .. . ... : ... .. . ...
ROW 0F : ... .. . ... : G#3 0C . ... : E-2 00 . ... : ... .. . ... : ... .. . ...
ROW 10 : ... .. . ... : F#2 0C . ... : C#2 01 . ... : 9-# 03 . ... : ... .. . ...
ROW 11 : ... .. . ... : G#2 0C . ... : ... .. . ... : ... .. . ... : ... .. . ...
ROW 12 : ... .. . ... : F#3 0C . ... : ... .. . ... : ... .. . ... : ... .. . ...
ROW 13 : ... .. . ... : G#3 0C . ... : C#3 00 . ... : ... .. . ... : ... .. . ...
ROW 14 : ... .. . ... : ... .. . ... : C#3 02 . ... : 7-# 04 . ... : ... .. . ...
ROW 15 : ... .. . ... : ... .. . ... : ... .. . ... : ... .. . ... : ... .. . ...
ROW 16 : ... .. . ... : F#2 0C . ... : C#2 01 . ... : 9-# 03 . ... : ... .. . ...
ROW 17 : ... .. . ... : G#2 0C . ... : ... .. . ... : ... .. . ... : ... .. . ...
ROW 18 : ... .. . ... : F#3 0C . ... : ... .. . ... : ... .. . ... : ... .. . ...
ROW 19 : ... .. . ... : G#3 0C . ... : ... .. . ... : ... .. . ... : ... .. . ...
ROW 1A : ... .. . ... : ... .. . ... : F#2 00 . ... : ... .. . ... : ... .. . ...
ROW 1B : ... .. . ... : ... .. . ... : G-2 00 . ... : ... .. . ... : ... .. . ...
ROW 1C : ... .. . ... : F#2 0C . ... : G-2 02 . ... : 7-# 04 . ... : ... .. . ...
ROW 1D : ... .. . ... : G#2 0C . ... : B-2 00 . ... : ... .. . ... : ... .. . ...
ROW 1E : ... .. . ... : F#3 0C . ... : ... .. . ... : ... .. . ... : ... .. . ...
ROW 1F : ... .. . ... : G#3 0C . ... : G-2 00 . ... : ... .. . ... : ... .. . ...
ROW 20 : --- .. . ... : F#2 0C . ... : C#2 01 . ... : 9-# 03 . ... : ... .. . ...
ROW 21 : ... .. . ... : G#2 0C . ... : ... .. . ... : ... .. . ... : ... .. . ...
ROW 22 : ... .. . ... : F#3 0C . ... : ... .. . ... : ... .. . ... : ... .. . ...
ROW 23 : ... .. . ... : G#3 0C . ... : C#3 00 . ... : ... .. . ... : ... .. . ...
ROW 24 : ... .. . ... : ... .. . ... : C#3 02 . ... : 7-# 04 . ... : ... .. . ...
ROW 25 : ... .. . ... : ... .. . ... : ... .. . ... : ... .. . ... : ... .. . ...
ROW 26 : ... .. . ... : F#2 0C . ... : C#2 01 . ... : 9-# 03 . ... : ... .. . ...
ROW 27 : ... .. . ... : G#2 0C . ... : ... .. . ... : ... .. . ... : ... .. . ...
ROW 28 : ... .. . ... : F#3 0C . ... : ... .. . ... : ... .. . ... : ... .. . ...
ROW 29 : ... .. . ... : G#3 0C . ... : ... .. . ... : ... .. . ... : ... .. . ...
ROW 2A : ... .. . ... : ... .. . ... : E-2 00 . ... : ... .. . ... : ... .. . ...
ROW 2B : ... .. . ... : ... .. . ... : F#2 00 . ... : ... .. . ... : ... .. . ...
ROW 2C : ... .. . ... : F#2 0C . ... : F#2 02 . ... : 7-# 04 . ... : ... .. . ...
ROW 2D : ... .. . ... : G#2 0C . ... : G-2 00 . ... : ... .. . ... : ... .. . ...
ROW 2E : ... .. . ... : F#3 0C . ... : ... .. . ... : ... .. . ... : ... .. . ...
ROW 2F : ... .. . ... : G#3 0C . ... : E-2 00 . ... : ... .. . ... : ... .. . ...
ROW 30 : ... .. . ... : F#2 0C . ... : C#2 01 . ... : 9-# 03 . ... : ... .. . ...
ROW 31 : ... .. . ... : G#2 0C . ... : ... .. . ... : ... .. . ... : ... .. . ...
ROW 32 : ... .. . ... : F#3 0C . ... : ... .. . ... : ... .. . ... : ... .. . ...
ROW 33 : ... .. . ... : G#3 0C . ... : C#3 00 . ... : ... .. . ... : ... .. . ...
ROW 34 : ... .. . ... : ... .. . ... : C#3 02 . ... : 7-# 04 . ... : ... .. . ...
ROW 35 : ... .. . ... : ... .. . ... : ... .. . ... : ... .. . ... : ... .. . ...
ROW 36 : ... .. . ... : F#2 0C . ... : C#2 01 . ... : 9-# 03 . ... : ... .. . ...
ROW 37 : ... .. . ... : G#2 0C . ... : ... .. . ... : ... .. . ... : ... .. . ...
ROW 38 : ... .. . ... : F#3 0C . ... : ... .. . ... : ... .. . ... : ... .. . ...
ROW 39 : ... .. . ... : G#3 0C . ... : ... .. . ... : ... .. . ... : ... .. . ...
ROW 3A : ... .. . ... : ... .. . ... : F#2 01 . ... : 9-# 03 . ... : ... .. . ...
ROW 3B : ... .. . ... : ... .. . ... : G-2 00 . ... : ... .. . ... : ... .. . ...
ROW 3C : ... .. . ... : F#2 0C . ... : G-2 02 . ... : 7-# 04 . ... : ... .. . ...
ROW 3D : ... .. . ... : G#2 0C . ... : B-2 02 . ... : 7-# 04 . ... : ... .. . ...
ROW 3E : ... .. . ... : F#3 0C . ... : ... .. . ... : ... .. . ... : ... .. . ...
ROW 3F : ... .. . ... : G#3 0C . ... : G-2 02 . ... : 7-# 04 . ... : ... .. . ...
PATTERN 03
ROW 00 : A#2 14 . ... : G#3 15 . ... : E-2 01 . ... : 9-# 03 . ... : ... .. . ...
ROW 01 : ... .. . ... : ... .. . ... : ... .. . ... : ... .. . ... : ... .. . ...
ROW 02 : ... .. . ... : ... .. . ... : ... .. . ... : ... .. . ... : ... .. . ...
ROW 03 : ... .. . ... : ... .. . ... : E-3 00 . ... : ... .. . ... : ... .. . ...
ROW 04 : A-2 14 . ... : ... .. . ... : E-3 02 . ... : 7-# 04 . ... : ... .. . ...
ROW 05 : G-2 14 . ... : ... .. . ... : ... .. . ... : ... .. . ... : ... .. . ...
ROW 06 : A#2 14 . ... : ... .. . ... : E-2 01 . ... : 9-# 03 . ... : ... .. . ...
ROW 07 : ... .. . ... : ... .. . ... : ... .. . ... : ... .. . ... : ... .. . ...
ROW 08 : ... .. . ... : ... .. . ... : ... .. . ... : ... .. . ... : ... .. . ...
ROW 09 : ... .. . ... : ... .. . ... : ... .. . ... : ... .. . ... : ... .. . ...
ROW 0A : ... .. . ... : ... .. . ... : G-2 00 . ... : ... .. . ... : ... .. . ...
ROW 0B : ... .. . ... : ... .. . ... : A-2 00 . ... : ... .. . ... : ... .. . ...
ROW 0C : ... .. . ... : ... .. . ... : A-2 02 . ... : 7-# 04 . ... : ... .. . ...
ROW 0D : ... .. . ... : ... .. . ... : A#2 00 . ... : ... .. . ... : ... .. . ...
ROW 0E : ... .. . ... : ... .. . ... : ... .. . ... : ... .. . ... : ... .. . ...
ROW 0F : ... .. . ... : ... .. . ... : G-2 00 . ... : ... .. . ... : ... .. . ...
ROW 10 : ... .. . ... : ... .. . ... : E-2 01 . ... : 9-# 03 . ... : ... .. . ...
ROW 11 : ... .. . ... : ... .. . ... : ... .. . ... : ... .. . ... : ... .. . ...
ROW 12 : G-2 14 . ... : ... .. . ... : ... .. . ... : ... .. . ... : ... .. . ...
ROW 13 : A-2 14 . ... : ... .. . ... : E-3 00 . ... : ... .. . ... : ... .. . ...
ROW 14 : ... .. . ... : ... .. . ... : E-3 02 . ... : 7-# 04 . ... : ... .. . ...
ROW 15 : A#2 14 . ... : ... .. . ... : ... .. . ... : ... .. . ... : ... .. . ...
ROW 16 : ... .. . ... : ... .. . ... : E-2 01 . ... : 9-# 03 . ... : ... .. . ...
ROW 17 : E-3 14 . ... : ... .. . ... : ... .. . ... : ... .. . ... : ... .. . ...
ROW 18 : ... .. . ... : ... .. . ... : ... .. . ... : ... .. . ... : ... .. . ...
ROW 19 : F#3 14 . ... : ... .. . ... : ... .. . ... : ... .. . ... : ... .. . ...
ROW 1A : G-3 14 . ... : ... .. . ... : A-2 00 . ... : ... .. . ... : ... .. . ...
ROW 1B : A-3 14 . ... : ... .. . ... : A#2 00 . ... : ... .. . ... : ... .. . ...
ROW 1C : A#3 14 . ... : ... .. . ... : A#2 02 . ... : 7-# 04 . ... : ... .. . ...
ROW 1D : G-3 14 . ... : ... .. . ... : D-3 00 . ... : ... .. . ... : ... .. . ...
ROW 1E : D#3 14 . ... : ... .. . ... : ... .. . ... : ... .. . ... : ... .. . ...
ROW 1F : ... .. . ... : ... .. . ... : A#2 00 . ... : ... .. . ... : ... .. . ...
ROW 20 : E-3 14 . ... : --- .. . ... : E-2 01 . ... : 9-# 03 . ... : ... .. . ...
ROW 21 : ... .. . ... : ... .. . ... : ... .. . ... : ... .. . ... : ... .. . ...
ROW 22 : ... .. . ... : ... .. . ... : ... .. . ... : ... .. . ... : ... .. . ...
ROW 23 : ... .. . ... : ... .. . ... : E-3 00 . ... : ... .. . ... : ... .. . ...
ROW 24 : ... .. . ... : ... .. . ... : E-3 02 . ... : 7-# 04 . ... : ... .. . ...
ROW 25 : ... .. . ... : ... .. . ... : ... .. . ... : ... .. . ... : ... .. . ...
ROW 26 : G-3 14 . G05 : ... .. . ... : E-2 01 . ... : 9-# 03 . ... : ... .. . ...
ROW 27 : A-3 14 . G03 : ... .. . ... : ... .. . ... : ... .. . ... : ... .. . ...
ROW 28 : A#3 14 . ... : ... .. . ... : ... .. . ... : ... .. . ... : ... .. . ...
ROW 29 : ... .. . ... : ... .. . ... : ... .. . ... : ... .. . ... : ... .. . ...
ROW 2A : D#4 14 . ... : ... .. . ... : G-2 00 . ... : ... .. . ... : ... .. . ...
ROW 2B : ... .. . ... : ... .. . ... : A-2 00 . ... : ... .. . ... : ... .. . ...
ROW 2C : A#3 14 . ... : ... .. . ... : A-2 02 . ... : 7-# 04 . ... : ... .. . ...
ROW 2D : ... .. . ... : ... .. . ... : A#2 00 . ... : ... .. . ... : ... .. . ...
ROW 2E : A-3 14 . ... : ... .. . ... : ... .. . ... : ... .. . ... : ... .. . ...
ROW 2F : ... .. . ... : ... .. . ... : G-2 00 . ... : ... .. . ... : ... .. . ...
ROW 30 : G-3 14 . ... : ... .. . ... : E-2 01 . ... : 9-# 03 . ... : ... .. . ...
ROW 31 : ... .. . ... : ... .. . ... : ... .. . ... : ... .. . ... : ... .. . ...
ROW 32 : ... .. . ... : ... .. . ... : ... .. . ... : ... .. . ... : ... .. . ...
ROW 33 : ... .. . ... : ... .. . ... : E-3 00 . ... : ... .. . ... : ... .. . ...
ROW 34 : ... .. . ... : ... .. . ... : E-3 02 . ... : 7-# 04 . ... : ... .. . ...
ROW 35 : ... .. . ... : ... .. . ... : ... .. . ... : ... .. . ... : ... .. . ...
ROW 36 : ... .. . ... : ... .. . ... : E-2 01 . ... : 9-# 03 . ... : ... .. . ...
ROW 37 : ... .. . ... : ... .. . ... : ... .. . ... : ... .. . ... : ... .. . ...
ROW 38 : ... .. . ... : ... .. . ... : ... .. . ... : ... .. . ... : ... .. . ...
ROW 39 : ... .. . ... : ... .. . ... : ... .. . ... : ... .. . ... : ... .. . ...
ROW 3A : ... .. . ... : ... .. . ... : A-2 00 . ... : ... .. . ... : ... .. . ...
ROW 3B : ... .. . ... : ... .. . ... : A#2 00 . ... : ... .. . ... : ... .. . ...
ROW 3C : ... .. . ... : ... .. . ... : A#2 02 . ... : 7-# 04 . ... : ... .. . ...
ROW 3D : ... .. . ... : ... .. . ... : D-3 00 . ... : ... .. . ... : ... .. . ...
ROW 3E : ... .. . ... : ... .. . ... : ... .. . ... : ... .. . ... : ... .. . ...
ROW 3F : ... .. . ... : ... .. . ... : A#2 00 . ... : ... .. . ... : ... .. . ...
PATTERN 04
ROW 00 : F#2 08 . ... : ... .. . ... : E-2 01 . ... : ... .. . ... : ... .. . ...
ROW 01 : ... .. . ... : ... .. . ... : ... .. . ... : ... .. . ... : ... .. . ...
ROW 02 : --- .. . ... : A#2 15 . ... : ... .. . ... : ... .. . ... : ... .. . ...
ROW 03 : F#2 08 . ... : ... .. . ... : E-3 00 . ... : ... .. . ... : ... .. . ...
ROW 04 : ... .. . ... : ... .. . ... : E-3 02 . ... : ... .. . ... : ... .. . ...
ROW 05 : ... .. . ... : ... .. . ... : ... .. . ... : ... .. . ... : ... .. . ...
ROW 06 : G-2 08 . ... : A-2 15 . ... : E-2 01 . ... : ... .. . ... : ... .. . ...
ROW 07 : ... .. . ... : G-2 15 . ... : ... .. . ... : ... .. . ... : ... .. . ...
ROW 08 : A#2 08 . ... : A#2 15 . ... : ... .. . ... : ... .. . ... : ... .. . ...
ROW 09 : B-2 08 . ... : ... .. . ... : ... .. . ... : ... .. . ... : ... .. . ...
ROW 0A : D#3 08 . ... : ... .. . ... : G-2 00 . ... : ... .. . ... : ... .. . ...
ROW 0B : ... .. . ... : ... .. . ... : A-2 00 . ... : ... .. . ... : ... .. . ...
ROW 0C : ... .. . ... : ... .. . ... : A-2 02 . ... : ... .. . ... : ... .. . ...
ROW 0D : ... .. . ... : ... .. . ... : A#2 00 . ... : ... .. . ... : ... .. . ...
ROW 0E : ... .. . ... : ... .. . ... : ... .. . ... : ... .. . ... : ... .. . ...
ROW 0F : ... .. . ... : ... .. . ... : G-2 00 . ... : ... .. . ... : ... .. . ...
ROW 10 : ... .. . ... : ... .. . ... : E-2 01 . ... : ... .. . ... : ... .. . ...
ROW 11 : ... .. . ... : ... .. . ... : ... .. . ... : ... .. . ... : ... .. . ...
ROW 12 : ... .. . ... : ... .. . ... : ... .. . ... : ... .. . ... : ... .. . ...
ROW 13 : ... .. . ... : ... .. . ... : E-3 00 . ... : ... .. . ... : ... .. . ...
ROW 14 : ... .. . ... : G-2 15 . ... : E-3 02 . ... : ... .. . ... : ... .. . ...
ROW 15 : ... .. . ... : A-2 15 . ... : ... .. . ... : ... .. . ... : ... .. . ...
ROW 16 : ... .. . ... : ... .. . ... : E-2 01 . ... : ... .. . ... : ... .. . ...
ROW 17 : ... .. . ... : A#2 15 . ... : ... .. . ... : ... .. . ... : ... .. . ...
ROW 18 : ... .. . ... : ... .. . ... : ... .. . ... : ... .. . ... : ... .. . ...
ROW 19 : ... .. . ... : E-3 15 . ... : ... .. . ... : ... .. . ... : ... .. . ...
ROW 1A : ... .. . ... : ... .. . ... : A-2 00 . ... : ... .. . ... : ... .. . ...
ROW 1B : ... .. . ... : F#3 15 . ... : A#2 00 . ... : ... .. . ... : ... .. . ...
ROW 1C : ... .. . ... : G-3 15 . ... : A#2 02 . ... : ... .. . ... : ... .. . ...
ROW 1D : ... .. . ... : A-3 15 . ... : D-3 00 . ... : ... .. . ... : ... .. . ...
ROW 1E : ... .. . ... : A#3 15 . ... : ... .. . ... : ... .. . ... : ... .. . ...
ROW 1F : ... .. . ... : G-3 15 . ... : A#2 00 . ... : ... .. . ... : ... .. . ...
ROW 20 : E-1 08 . ... : D#3 15 . ... : E-2 01 . ... : ... .. . ... : ... .. . ...
ROW 21 : ... .. . ... : ... .. . ... : ... .. . ... : ... .. . ... : ... .. . ...
ROW 22 : ... .. . ... : E-3 15 . ... : ... .. . ... : ... .. . ... : ... .. . ...
ROW 23 : ... .. . ... : ... .. . ... : E-3 00 . ... : ... .. . ... : ... .. . ...
ROW 24 : ... .. . ... : ... .. . ... : E-3 02 . ... : ... .. . ... : ... .. . ...
ROW 25 : ... .. . ... : ... .. . ... : ... .. . ... : ... .. . ... : ... .. . ...
ROW 26 : ... .. . ... : ... .. . ... : E-2 01 . ... : ... .. . ... : ... .. . ...
ROW 27 : ... .. . ... : ... .. . ... : ... .. . ... : ... .. . ... : ... .. . ...
ROW 28 : ... .. . ... : G-3 15 . ... : ... .. . ... : ... .. . ... : ... .. . ...
ROW 29 : ... .. . ... : A-3 15 . ... : ... .. . ... : ... .. . ... : ... .. . ...
ROW 2A : ... .. . ... : A#3 15 . ... : G-2 00 . ... : ... .. . ... : ... .. . ...
ROW 2B : ... .. . ... : ... .. . ... : A-2 00 . ... : ... .. . ... : ... .. . ...
ROW 2C : ... .. . ... : D#4 15 . ... : A-2 02 . ... : ... .. . ... : ... .. . ...
ROW 2D : ... .. . ... : ... .. . ... : A#2 00 . ... : ... .. . ... : ... .. . ...
ROW 2E : ... .. . ... : A#3 15 . ... : ... .. . ... : ... .. . ... : ... .. . ...
ROW 2F : ... .. . ... : ... .. . ... : G-2 00 . ... : ... .. . ... : ... .. . ...
ROW 30 : ... .. . ... : A-3 15 . ... : E-2 01 . ... : ... .. . ... : ... .. . ...
ROW 31 : ... .. . ... : ... .. . ... : ... .. . ... : ... .. . ... : ... .. . ...
ROW 32 : ... .. . ... : G-3 15 . ... : ... .. . ... : ... .. . ... : ... .. . ...
ROW 33 : ... .. . ... : ... .. . ... : E-3 00 . ... : ... .. . ... : ... .. . ...
ROW 34 : ... .. . ... : ... .. . ... : E-3 02 . ... : ... .. . ... : ... .. . ...
ROW 35 : ... .. . ... : ... .. . ... : ... .. . ... : ... .. . ... : ... .. . ...
ROW 36 : ... .. . ... : ... .. . ... : E-2 01 . ... : ... .. . ... : ... .. . ...
ROW 37 : ... .. . ... : ... .. . ... : ... .. . ... : ... .. . ... : ... .. . ...
ROW 38 : ... .. . ... : ... .. . ... : ... .. . ... : ... .. . ... : ... .. . ...
ROW 39 : ... .. . ... : ... .. . ... : ... .. . ... : ... .. . ... : ... .. . ...
ROW 3A : ... .. . ... : ... .. . ... : A-2 01 . ... : ... .. . ... : ... .. . ...
ROW 3B : ... .. . ... : ... .. . ... : A#2 00 . ... : ... .. . ... : ... .. . ...
ROW 3C : ... .. . ... : ... .. . ... : A#2 02 . ... : ... .. . ... : ... .. . ...
ROW 3D : ... .. . ... : ... .. . ... : D-3 02 . ... : ... .. . ... : ... .. . ...
ROW 3E : ... .. . ... : ... .. . ... : ... .. . ... : ... .. . ... : ... .. . ...
ROW 3F : ... .. . B02 : ... .. . ... : A#2 02 . ... : ... .. . ... : ... .. . ...
PATTERN 05
ROW 00 : ... .. . ... : ... .. . ... : ... .. . ... : ... .. . ... : ... .. . ...
ROW 01 : ... .. . ... : ... .. . ... : ... .. . ... : ... .. . ... : ... .. . ...
ROW 02 : ... .. . ... : F#2 09 . ... : ... .. . ... : ... .. . ... : ... .. . ...
ROW 03 : ... .. . ... : ... .. . ... : ... .. . ... : ... .. . ... : ... .. . ...
ROW 04 : ... .. . ... : --- .. . ... : ... .. . ... : ... .. . ... : ... .. . ...
ROW 05 : ... .. . ... : F#2 09 . ... : ... .. . ... : ... .. . ... : ... .. . ...
ROW 06 : ... .. . ... : ... .. . ... : ... .. . ... : ... .. . ... : ... .. . ...
ROW 07 : ... .. . ... : ... .. . ... : ... .. . ... : ... .. . ... : ... .. . ...
ROW 08 : ... .. . ... : G-2 09 . ... : ... .. . ... : ... .. . ... : ... .. . ...
ROW 09 : ... .. . ... : ... .. . ... : ... .. . ... : ... .. . ... : ... .. . ...
ROW 0A : ... .. . ... : A#2 09 . ... : ... .. . ... : ... .. . ... : ... .. . ...
ROW 0B : ... .. . ... : B-2 09 . ... : ... .. . ... : ... .. . ... : ... .. . ...
ROW 0C : ... .. . ... : D#3 09 . ... : ... .. . ... : ... .. . ... : ... .. . ...
ROW 0D : ... .. . ... : ... .. . ... : ... .. . ... : ... .. . ... : ... .. . ...
ROW 0E : ... .. . ... : ... .. . ... : ... .. . ... : ... .. . ... : ... .. . ...
ROW 0F : ... .. . ... : ... .. . ... : ... .. . ... : ... .. . ... : ... .. . ...
ROW 10 : ... .. . ... : ... .. . ... : ... .. . ... : ... .. . ... : ... .. . ...
ROW 11 : ... .. . ... : ... .. . ... : ... .. . ... : ... .. . ... : ... .. . ...
ROW 12 : ... .. . ... : ... .. . ... : ... .. . ... : ... .. . ... : ... .. . ...
ROW 13 : ... .. . ... : ... .. . ... : ... .. . ... : ... .. . ... : ... .. . ...
ROW 14 : ... .. . ... : ... .. . ... : ... .. . ... : ... .. . ... : ... .. . ...
ROW 15 : ... .. . ... : ... .. . ... : ... .. . ... : ... .. . ... : ... .. . ...
ROW 16 : ... .. . ... : ... .. . ... : ... .. . ... : ... .. . ... : ... .. . ...
ROW 17 : ... .. . ... : ... .. . ... : ... .. . ... : ... .. . ... : ... .. . ...
ROW 18 : ... .. . ... : ... .. . ... : ... .. . ... : ... .. . ... : ... .. . ...
ROW 19 : ... .. . ... : ... .. . ... : ... .. . ... : ... .. . ... : ... .. . ...
ROW 1A : ... .. . ... : ... .. . ... : ... .. . ... : ... .. . ... : ... .. . ...
ROW 1B : ... .. . ... : ... .. . ... : ... .. . ... : ... .. . ... : ... .. . ...
ROW 1C : ... .. . ... : ... .. . ... : ... .. . ... : ... .. . ... : ... .. . ...
ROW 1D : ... .. . ... : ... .. . ... : ... .. . ... : ... .. . ... : ... .. . ...
ROW 1E : ... .. . ... : ... .. . ... : ... .. . ... : ... .. . ... : ... .. . ...
ROW 1F : ... .. . ... : ... .. . ... : ... .. . ... : ... .. . ... : ... .. . ...
ROW 20 : ... .. . ... : ... .. . ... : ... .. . ... : ... .. . ... : ... .. . ...
ROW 21 : ... .. . ... : ... .. . ... : ... .. . ... : ... .. . ... : ... .. . ...
ROW 22 : ... .. . ... : E-1 09 . ... : ... .. . ... : ... .. . ... : ... .. . ...
ROW 23 : ... .. . ... : ... .. . ... : ... .. . ... : ... .. . ... : ... .. . ...
ROW 24 : ... .. . ... : ... .. . ... : ... .. . ... : ... .. . ... : ... .. . ...
ROW 25 : ... .. . ... : ... .. . ... : ... .. . ... : ... .. . ... : ... .. . ...
ROW 26 : ... .. . ... : ... .. . ... : ... .. . ... : ... .. . ... : ... .. . ...
ROW 27 : ... .. . ... : ... .. . ... : ... .. . ... : ... .. . ... : ... .. . ...
ROW 28 : ... .. . ... : ... .. . ... : ... .. . ... : ... .. . ... : ... .. . ...
ROW 29 : ... .. . ... : ... .. . ... : ... .. . ... : ... .. . ... : ... .. . ...
ROW 2A : ... .. . ... : ... .. . ... : ... .. . ... : ... .. . ... : ... .. . ...
ROW 2B : ... .. . ... : ... .. . ... : ... .. . ... : ... .. . ... : ... .. . ...
ROW 2C : ... .. . ... : ... .. . ... : ... .. . ... : ... .. . ... : ... .. . ...
ROW 2D : ... .. . ... : ... .. . ... : ... .. . ... : ... .. . ... : ... .. . ...
ROW 2E : ... .. . ... : ... .. . ... : ... .. . ... : ... .. . ... : ... .. . ...
ROW 2F : ... .. . ... : ... .. . ... : ... .. . ... : ... .. . ... : ... .. . ...
ROW 30 : ... .. . ... : ... .. . ... : ... .. . ... : ... .. . ... : ... .. . ...
ROW 31 : ... .. . ... : ... .. . ... : ... .. . ... : ... .. . ... : ... .. . ...
ROW 32 : ... .. . ... : ... .. . ... : ... .. . ... : ... .. . ... : ... .. . ...
ROW 33 : ... .. . ... : ... .. . ... : ... .. . ... : ... .. . ... : ... .. . ...
ROW 34 : ... .. . ... : ... .. . ... : ... .. . ... : ... .. . ... : ... .. . ...
ROW 35 : ... .. . ... : ... .. . ... : ... .. . ... : ... .. . ... : ... .. . ...
ROW 36 : ... .. . ... : ... .. . ... : ... .. . ... : ... .. . ... : ... .. . ...
ROW 37 : ... .. . ... : ... .. . ... : ... .. . ... : ... .. . ... : ... .. . ...
ROW 38 : ... .. . ... : ... .. . ... : ... .. . ... : ... .. . ... : ... .. . ...
ROW 39 : ... .. . ... : ... .. . ... : ... .. . ... : ... .. . ... : ... .. . ...
ROW 3A : ... .. . ... : ... .. . ... : ... .. . ... : ... .. . ... : ... .. . ...
ROW 3B : ... .. . ... : ... .. . ... : ... .. . ... : ... .. . ... : ... .. . ...
ROW 3C : ... .. . ... : ... .. . ... : ... .. . ... : ... .. . ... : ... .. . ...
ROW 3D : ... .. . ... : ... .. . ... : ... .. . ... : ... .. . ... : ... .. . ...
ROW 3E : ... .. . ... : ... .. . ... : ... .. . ... : ... .. . ... : ... .. . ...
ROW 3F : ... .. . ... : ... .. . ... : ... .. . ... : ... .. . ... : ... .. . ...

# track BOOKMARKS block

# track HEADER block
TRACK  48   7 150 "Hall"
COLUMNS : 1 1 1 1 1

# track FRAMES block
ORDER 00 : 03 00 00 00 00
ORDER 01 : 00 00 01 01 00
ORDER 02 : 01 00 01 01 00
ORDER 03 : 01 00 01 01 00
ORDER 04 : 02 00 02 02 00
ORDER 05 : 04 00 02 02 00
ORDER 06 : 02 00 02 02 00
ORDER 07 : 04 00 02 02 00
ORDER 08 : 05 01 03 02 00
ORDER 09 : 06 01 03 02 00

# track PATTERNS block
PATTERN 00
ROW 00 : ... .. . ... : G#3 0C . ... : ... .. . ... : ... .. . ... : ... .. . ...
ROW 01 : ... .. . ... : A-3 0C . ... : ... .. . ... : ... .. . ... : ... .. . ...
ROW 02 : G#3 0D . ... : D#4 0C . ... : ... .. . ... : ... .. . ... : ... .. . ...
ROW 03 : A-3 0D . ... : C#4 0C . ... : ... .. . ... : ... .. . ... : ... .. . ...
ROW 04 : D#4 0D . ... : G#3 0C . ... : ... .. . ... : ... .. . ... : ... .. . ...
ROW 05 : C#4 0D . ... : A-3 0C . ... : ... .. . ... : ... .. . ... : ... .. . ...
ROW 06 : G#3 0D . ... : F#3 0C . ... : ... .. . ... : ... .. . ... : ... .. . ...
ROW 07 : A-3 0D . ... : D#3 0C . ... : ... .. . ... : ... .. . ... : ... .. . ...
ROW 08 : F#3 0D . ... : G#3 0C . ... : ... .. . ... : ... .. . ... : ... .. . ...
ROW 09 : D#3 0D . ... : A-3 0C . ... : ... .. . ... : ... .. . ... : ... .. . ...
ROW 0A : G#3 0D . ... : F#4 0C . ... : ... .. . ... : ... .. . ... : ... .. . ...
ROW 0B : A-3 0D . ... : D#4 0C . ... : ... .. . ... : ... .. . ... : ... .. . ...
ROW 0C : F#4 0D . ... : G#3 0C . ... : ... .. . ... : ... .. . ... : ... .. . ...
ROW 0D : D#4 0D . ... : A-3 0C . ... : ... .. . ... : ... .. . ... : ... .. . ...
ROW 0E : G#3 0D . ... : F#3 0C . ... : ... .. . ... : ... .. . ... : ... .. . ...
ROW 0F : A-3 0D . ... : D#3 0C . ... : ... .. . ... : ... .. . ... : ... .. . ...
ROW 10 : F#3 0D . ... : G#3 0C . ... : ... .. . ... : ... .. . ... : ... .. . ...
ROW 11 : D#3 0D . ... : A-3 0C . ... : ... .. . ... : ... .. . ... : ... .. . ...
ROW 12 : G#3 0D . ... : D#4 0C . ... : ... .. . ... : ... .. . ... : ... .. . ...
ROW 13 : A-3 0D . ... : C#4 0C . ... : ... .. . ... : ... .. . ... : ... .. . ...
ROW 14 : D#4 0D . ... : G#3 0C . ... : ... .. . ... : ... .. . ... : ... .. . ...
ROW 15 : C#4 0D . ... : A-3 0C . ... : ... .. . ... : ... .. . ... : ... .. . ...
ROW 16 : G#3 0D . ... : F#3 0C . ... : ... .. . ... : ... .. . ... : ... .. . ...
ROW 17 : A-3 0D . ... : D#3 0C . ... : ... .. . D00 : ... .. . ... : ... .. . ...
ROW 18 : F#3 0D . ... : G#3 0C . ... : ... .. . ... : ... .. . ... : ... .. . ...
ROW 19 : D#3 0D . ... : A-3 0C . ... : ... .. . ... : ... .. . ... : ... .. . ...
ROW 1A : G#3 0D . ... : D#4 0C . ... : ... .. . ... : ... .. . ... : ... .. . ...
ROW 1B : A-3 0D . ... : C#4 0C . ... : ... .. . ... : ... .. . ... : ... .. . ...
ROW 1C : D#4 0D . ... : G#3 0C . ... : ... .. . ... : ... .. . ... : ... .. . ...
ROW 1D : C#4 0D . ... : A-3 0C . ... : ... .. . ... : ... .. . ... : ... .. . ...
ROW 1E : G#3 0D . ... : F#3 0C . ... : ... .. . ... : ... .. . ... : ... .. . ...
ROW 1F : A-3 0D . ... : D#3 0C . ... : ... .. . ... : ... .. . ... : ... .. . ...
ROW 20 : F#3 0D . ... : G#3 0C . ... : ... .. . ... : ... .. . ... : ... .. . ...
ROW 21 : D#3 0D . ... : A-3 0C . ... : ... .. . ... : ... .. . ... : ... .. . ...
ROW 22 : G#3 0D . ... : F#4 0C . ... : ... .. . ... : ... .. . ... : ... .. . ...
ROW 23 : A-3 0D . ... : D#4 0C . ... : ... .. . ... : ... .. . ... : ... .. . ...
ROW 24 : F#4 0D . ... : G#3 0C . ... : ... .. . ... : ... .. . ... : ... .. . ...
ROW 25 : D#4 0D . ... : A-3 0C . ... : ... .. . ... : ... .. . ... : ... .. . ...
ROW 26 : G#3 0D . ... : F#3 0C . ... : ... .. . ... : ... .. . ... : ... .. . ...
ROW 27 : A-3 0D . ... : D#3 0C . ... : ... .. . ... : ... .. . ... : ... .. . ...
ROW 28 : F#3 0D . ... : G#3 0C . ... : ... .. . ... : ... .. . ... : ... .. . ...
ROW 29 : D#3 0D . ... : A-3 0C . ... : ... .. . ... : ... .. . ... : ... .. . ...
ROW 2A : G#3 0D . ... : D#4 0C . ... : ... .. . ... : ... .. . ... : ... .. . ...
ROW 2B : A-3 0D . ... : C#4 0C . ... : ... .. . ... : ... .. . ... : ... .. . ...
ROW 2C : D#4 0D . ... : G#3 0C . ... : ... .. . ... : ... .. . ... : ... .. . ...
ROW 2D : C#4 0D . ... : A-3 0C . ... : ... .. . ... : ... .. . ... : ... .. . ...
ROW 2E : G#3 0D . ... : F#3 0C . ... : ... .. . ... : ... .. . ... : ... .. . ...
ROW 2F : A-3 0D . ... : D#3 0C . ... : ... .. . ... : ... .. . ... : ... .. . ...
PATTERN 01
ROW 00 : D#3 14 . ... : B-3 0C . ... : G#2 01 . ... : 9-# 03 . ... : ... .. . ...
ROW 01 : F#3 14 . ... : C-4 0C . ... : ... .. . ... : ... .. . ... : ... .. . ...
ROW 02 : G#3 14 . ... : F#4 0C . ... : ... .. . ... : ... .. . ... : ... .. . ...
ROW 03 : F#3 14 . ... : E-4 0C . ... : ... .. . ... : ... .. . ... : ... .. . ...
ROW 04 : F#4 14 . ... : B-3 0C . ... : ... .. . ... : ... .. . ... : ... .. . ...
ROW 05 : D#4 14 . ... : C-4 0C . ... : ... .. . ... : ... .. . ... : ... .. . ...
ROW 06 : A-3 14 . ... : A-3 0C . ... : A-2 01 . ... : 9-# 03 . ... : ... .. . ...
ROW 07 : F#3 14 . ... : F#3 0C . ... : ... .. . ... : ... .. . ... : ... .. . ...
ROW 08 : D#3 14 . ... : B-3 0C . ... : --- 00 . ... : ... .. . ... : ... .. . ...
ROW 09 : ... .. . ... : C-4 0C . ... : ... .. . ... : ... .. . ... : ... .. . ...
ROW 0A : ... .. . ... : A-4 0C . ... : ... .. . ... : ... .. . ... : ... .. . ...
ROW 0B : ... .. . ... : F#4 0C . ... : ... .. . ... : ... .. . ... : ... .. . ...
ROW 0C : ... .. . ... : B-3 0C . ... : ... .. . ... : ... .. . ... : ... .. . ...
ROW 0D : ... .. . ... : C-4 0C . ... : ... .. . ... : ... .. . ... : ... .. . ...
ROW 0E : ... .. . ... : A-3 0C . ... : ... .. . ... : ... .. . ... : ... .. . ...
ROW 0F : ... .. . ... : F#3 0C . ... : ... .. . ... : ... .. . ... : ... .. . ...
ROW 10 : E-4 15 . ... : B-3 0C . ... : ... .. . ... : ... .. . ... : ... .. . ...
ROW 11 : ... .. . ... : C-4 0C . ... : ... .. . ... : ... .. . ... : ... .. . ...
ROW 12 : ... .. . ... : F#4 0C . ... : G#2 01 . ... : 9-# 03 . ... : ... .. . ...
ROW 13 : ... .. . ... : E-4 0C . ... : ... .. . ... : ... .. . ... : ... .. . ...
ROW 14 : ... .. . ... : B-3 0C . ... : G#2 01 . ... : 9-# 03 . ... : ... .. . ...
ROW 15 : ... .. . ... : C-4 0C . ... : G#2 01 . ... : 9-# 03 . ... : ... .. . ...
ROW 16 : ... .. . ... : A-3 0C . ... : F#2 00 . ... : ... .. . ... : ... .. . ...
ROW 17 : ... .. . ... : F#3 0C . ... : F#2 01 . ... : 9-# 03 . ... : ... .. . ...
ROW 18 : C#4 15 . ... : B-3 0C . ... : G#2 01 . ... : 9-# 03 . ... : ... .. . ...
ROW 19 : ... .. . ... : C-4 0C . ... : ... .. . ... : ... .. . ... : ... .. . ...
ROW 1A : ... .. . ... : F#4 0C . ... : ... .. . ... : ... .. . ... : ... .. . ...
ROW 1B : ... .. . ... : E-4 0C . ... : ... .. . ... : ... .. . ... : ... .. . ...
ROW 1C : ... .. . ... : B-3 0C . ... : ... .. . ... : ... .. . ... : ... .. . ...
ROW 1D : ... .. . ... : C-4 0C . ... : ... .. . ... : ... .. . ... : ... .. . ...
ROW 1E : ... .. . ... : A-3 0C . ... : A-2 01 . ... : 9-# 03 . ... : ... .. . ...
ROW 1F : ... .. . ... : F#3 0C . ... : ... .. . ... : ... .. . ... : ... .. . ...
ROW 20 : D#4 15 . T41 : B-3 0C . ... : --- 00 . ... : ... .. . ... : ... .. . ...
ROW 21 : D#4 15 . T41 : C-4 0C . ... : ... .. . ... : ... .. . ... : ... .. . ...
ROW 22 : D#4 15 . T41 : A-4 0C . ... : ... .. . ... : ... .. . ... : ... .. . ...
ROW 23 : D#4 15 . T41 : F#4 0C . ... : ... .. . ... : ... .. . ... : ... .. . ...
ROW 24 : D#4 15 . T41 : B-3 0C . ... : ... .. . ... : ... .. . ... : ... .. . ...
ROW 25 : D#4 15 . T41 : C-4 0C . ... : ... .. . ... : ... .. . ... : ... .. . ...
ROW 26 : D#4 15 . T41 : A-3 0C . ... : ... .. . ... : ... .. . ... : ... .. . ...
ROW 27 : D#4 15 . T41 : F#3 0C . ... : ... .. . ... : ... .. . ... : ... .. . ...
ROW 28 : D#4 15 . ... : B-3 0C . ... : ... .. . ... : ... .. . ... : ... .. . ...
ROW 29 : ... .. . ... : C-4 0C . ... : ... .. . ... : ... .. . ... : ... .. . ...
ROW 2A : ... .. . ... : F#4 0C . ... : G#2 01 . ... : 9-# 03 . ... : ... .. . ...
ROW 2B : ... .. . ... : E-4 0C . ... : ... .. . ... : ... .. . ... : ... .. . ...
ROW 2C : ... .. . ... : B-3 0C . ... : G#2 01 . ... : 9-# 03 . ... : ... .. . ...
ROW 2D : ... .. . ... : C-4 0C . ... : G#2 01 . ... : 9-# 03 . ... : ... .. . ...
ROW 2E : ... .. . ... : A-3 0C . ... : F#2 00 . ... : ... .. . ... : ... .. . ...
ROW 2F : ... .. . ... : F#3 0C . ... : F#2 01 . ... : 9-# 03 . ... : ... .. . ...
PATTERN 02
ROW 00 : G#3 08 . ... : ... .. . ... : G#2 01 . ... : 9-# 03 . ... : ... .. . ...
ROW 01 : F#3 08 . ... : ... .. . ... : ... .. . ... : ... .. . ... : ... .. . ...
ROW 02 : G#3 08 . ... : ... .. . ... : ... .. . ... : 4-# 20 . ... : ... .. . ...
ROW 03 : F#4 08 . ... : ... .. . ... : ... .. . ... : ... .. . ... : ... .. . ...
ROW 04 : ... .. . ... : ... .. . ... : G#2 02 . ... : 6-# 13 . ... : ... .. . ...
ROW 05 : D#4 08 . ... : ... .. . ... : ... .. . ... : ... .. . ... : ... .. . ...
ROW 06 : C#4 08 . ... : ... .. . ... : A-2 01 . ... : 9-# 03 . ... : ... .. . ...
ROW 07 : A-3 08 . ... : ... .. . ... : ... .. . ... : ... .. . ... : ... .. . ...
ROW 08 : G#3 08 . ... : ... .. . ... : --- 00 . ... : 4-# 20 . ... : ... .. . ...
ROW 09 : F#3 08 . ... : ... .. . ... : ... .. . ... : ... .. . ... : ... .. . ...
ROW 0A : G#3 08 . ... : ... .. . ... : ... .. . ... : ... .. . ... : ... .. . ...
ROW 0B : A-4 08 . ... : ... .. . ... : ... .. . ... : 6-# 05 . ... : ... .. . ...
ROW 0C : ... .. . ... : ... .. . ... : G#2 02 . S02 : 6-# 13 . ... : ... .. . ...
ROW 0D : F#4 08 . ... : ... .. . ... : ... .. . ... : ... .. . ... : ... .. . ...
ROW 0E : D#4 08 . ... : ... .. . ... : ... .. . ... : 5-# 12 . ... : ... .. . ...
ROW 0F : A-3 08 . ... : ... .. . ... : ... .. . ... : 5-# 12 . ... : ... .. . ...
ROW 10 : F#3 08 . ... : ... .. . ... : ... .. . ... : 4-# 12 . ... : ... .. . ...
ROW 11 : ... .. . ... : ... .. . ... : ... .. . ... : ... .. . ... : ... .. . ...
ROW 12 : ... .. . ... : ... .. . ... : G#2 01 . ... : 9-# 03 . ... : ... .. . ...
ROW 13 : ... .. . ... : ... .. . ... : ... .. . ... : ... .. . ... : ... .. . ...
ROW 14 : ... .. . ... : ... .. . ... : G#2 02 . ... : 6-# 13 . ... : ... .. . ...
ROW 15 : ... .. . ... : ... .. . ... : G#2 01 . ... : 9-# 03 . ... : ... .. . ...
ROW 16 : ... .. . ... : ... .. . ... : F#2 00 . ... : 5-# 0B . ... : ... .. . ...
ROW 17 : ... .. . ... : ... .. . ... : F#2 01 . ... : 9-# 03 . ... : ... .. . ...
ROW 18 : G#3 14 . ... : ... .. . ... : G#2 01 . ... : 9-# 03 . ... : ... .. . ...
ROW 19 : A-3 14 . ... : ... .. . ... : ... .. . ... : ... .. . ... : ... .. . ...
ROW 1A : G#3 14 . ... : ... .. . ... : ... .. . ... : 4-# 20 . ... : ... .. . ...
ROW 1B : G#4 14 . ... : ... .. . ... : ... .. . ... : ... .. . ... : ... .. . ...
ROW 1C : F#4 14 . ... : ... .. . ... : G#2 02 . ... : 6-# 13 . ... : ... .. . ...
ROW 1D : B-3 14 . ... : ... .. . ... : ... .. . ... : ... .. . ... : ... .. . ...
ROW 1E : C-4 14 . ... : ... .. . ... : A-2 01 . ... : 9-# 03 . ... : ... .. . ...
ROW 1F : F-4 14 . ... : ... .. . ... : ... .. . ... : ... .. . ... : ... .. . ...
ROW 20 : ... .. . ... : ... .. . ... : --- 00 . ... : 4-# 20 . ... : ... .. . ...
ROW 21 : ... .. . ... : ... .. . ... : ... .. . ... : ... .. . ... : ... .. . ...
ROW 22 : D#4 14 . ... : ... .. . ... : ... .. . ... : ... .. . ... : ... .. . ...
ROW 23 : ... .. . ... : ... .. . ... : ... .. . ... : 6-# 05 . ... : ... .. . ...
ROW 24 : ... .. . ... : ... .. . ... : G#2 02 . S02 : 6-# 13 . ... : ... .. . ...
ROW 25 : ... .. . ... : ... .. . ... : ... .. . ... : ... .. . ... : ... .. . ...
ROW 26 : ... .. . ... : ... .. . ... : ... .. . ... : 5-# 12 . ... : ... .. . ...
ROW 27 : ... .. . ... : ... .. . ... : ... .. . ... : 5-# 12 . ... : ... .. . ...
ROW 28 : ... .. . ... : ... .. . ... : ... .. . ... : 4-# 12 . ... : ... .. . ...
ROW 29 : ... .. . ... : ... .. . ... : ... .. . ... : ... .. . ... : ... .. . ...
ROW 2A : ... .. . ... : ... .. . ... : G#2 01 . ... : 9-# 03 . ... : ... .. . ...
ROW 2B : ... .. . ... : ... .. . ... : ... .. . ... : ... .. . ... : ... .. . ...
ROW 2C : ... .. . ... : ... .. . ... : G#2 02 . ... : 6-# 13 . ... : ... .. . ...
ROW 2D : ... .. . ... : ... .. . ... : G#2 01 . ... : 9-# 03 . ... : ... .. . ...
ROW 2E : ... .. . ... : ... .. . ... : F#2 00 . ... : 5-# 0B . ... : ... .. . ...
ROW 2F : ... .. . ... : ... .. . ... : F#2 01 . ... : 9-# 03 . ... : ... .. . ...
PATTERN 03
ROW 00 : G#1 0A . ... : ... .. . ... : B-2 01 . ... : ... .. . ... : ... .. . ...
ROW 01 : ... .. . ... : ... .. . ... : ... .. . ... : ... .. . ... : ... .. . ...
ROW 02 : ... .. . ... : ... .. . ... : --- .. . ... : ... .. . ... : ... .. . ...
ROW 03 : ... .. . ... : ... .. . ... : B-2 00 . ... : ... .. . ... : ... .. . ...
ROW 04 : ... .. . ... : ... .. . ... : B-2 02 . ... : ... .. . ... : ... .. . ...
ROW 05 : ... .. . ... : ... .. . ... : ... .. . ... : ... .. . ... : ... .. . ...
ROW 06 : ... .. . ... : ... .. . ... : C-3 01 . ... : ... .. . ... : ... .. . ...
ROW 07 : ... .. . ... : ... .. . ... : ... .. . ... : ... .. . ... : ... .. . ...
ROW 08 : ... .. . ... : ... .. . ... : --- .. . ... : ... .. . ... : ... .. . ...
ROW 09 : ... .. . ... : ... .. . ... : ... .. . ... : ... .. . ... : ... .. . ...
ROW 0A : ... .. . ... : ... .. . ... : ... .. . ... : ... .. . ... : ... .. . ...
ROW 0B : ... .. . ... : ... .. . ... : ... .. . ... : ... .. . ... : ... .. . ...
ROW 0C : ... .. . ... : ... .. . ... : C#3 02 . S02 : ... .. . ... : ... .. . ...
ROW 0D : ... .. . ... : ... .. . ... : ... .. . ... : ... .. . ... : ... .. . ...
ROW 0E : ... .. . ... : ... .. . ... : ... .. . ... : ... .. . ... : ... .. . ...
ROW 0F : ... .. . ... : ... .. . ... : ... .. . ... : ... .. . ... : ... .. . ...
ROW 10 : ... .. . ... : ... .. . ... : A-2 01 . ... : ... .. . ... : ... .. . ...
ROW 11 : ... .. . ... : ... .. . ... : ... .. . ... : ... .. . ... : ... .. . ...
ROW 12 : ... .. . ... : ... .. . ... : B-2 01 . ... : ... .. . ... : ... .. . ...
ROW 13 : ... .. . ... : ... .. . ... : ... .. . ... : ... .. . ... : ... .. . ...
ROW 14 : ... .. . ... : ... .. . ... : B-3 02 . ... : ... .. . ... : ... .. . ...
ROW 15 : ... .. . ... : ... .. . ... : ... .. . ... : ... .. . ... : ... .. . ...
ROW 16 : ... .. . ... : ... .. . ... : B-2 00 . ... : ... .. . ... : ... .. . ...
ROW 17 : ... .. . ... : ... .. . ... : B-2 01 . S05 : ... .. . ... : ... .. . ...
ROW 18 : ... .. . ... : ... .. . ... : B-2 01 . ... : ... .. . ... : ... .. . ...
ROW 19 : ... .. . ... : ... .. . ... : ... .. . ... : ... .. . ... : ... .. . ...
ROW 1A : ... .. . ... : ... .. . ... : --- .. . ... : ... .. . ... : ... .. . ...
ROW 1B : ... .. . ... : ... .. . ... : B-2 00 . ... : ... .. . ... : ... .. . ...
ROW 1C : ... .. . ... : ... .. . ... : B-2 02 . ... : ... .. . ... : ... .. . ...
ROW 1D : ... .. . ... : ... .. . ... : ... .. . ... : ... .. . ... : ... .. . ...
ROW 1E : ... .. . ... : ... .. . ... : C-3 01 . ... : ... .. . ... : ... .. . ...
ROW 1F : ... .. . ... : ... .. . ... : ... .. . ... : ... .. . ... : ... .. . ...
ROW 20 : ... .. . ... : ... .. . ... : --- .. . ... : ... .. . ... : ... .. . ...
ROW 21 : ... .. . ... : ... .. . ... : ... .. . ... : ... .. . ... : ... .. . ...
ROW 22 : ... .. . ... : ... .. . ... : ... .. . ... : ... .. . ... : ... .. . ...
ROW 23 : ... .. . ... : ... .. . ... : ... .. . ... : ... .. . ... : ... .. . ...
ROW 24 : ... .. . ... : ... .. . ... : C#3 02 . S02 : ... .. . ... : ... .. . ...
ROW 25 : ... .. . ... : ... .. . ... : ... .. . ... : ... .. . ... : ... .. . ...
ROW 26 : ... .. . ... : ... .. . ... : ... .. . ... : ... .. . ... : ... .. . ...
ROW 27 : ... .. . ... : ... .. . ... : ... .. . ... : ... .. . ... : ... .. . ...
ROW 28 : ... .. . ... : ... .. . ... : A-2 01 . ... : ... .. . ... : ... .. . ...
ROW 29 : ... .. . ... : ... .. . ... : ... .. . ... : ... .. . ... : ... .. . ...
ROW 2A : ... .. . ... : ... .. . ... : B-2 01 . ... : ... .. . ... : ... .. . ...
ROW 2B : ... .. . ... : ... .. . ... : ... .. . ... : ... .. . ... : ... .. . ...
ROW 2C : ... .. . ... : ... .. . ... : B-3 02 . ... : ... .. . ... : ... .. . ...
ROW 2D : ... .. . ... : ... .. . ... : ... .. . ... : ... .. . ... : ... .. . ...
ROW 2E : ... .. . ... : ... .. . ... : B-2 00 . ... : ... .. . ... : ... .. . ...
ROW 2F : ... .. . ... : ... .. . ... : B-2 01 . S05 : ... .. . ... : ... .. . ...
PATTERN 04
ROW 00 : --- .. . ... : ... .. . ... : ... .. . ... : ... .. . ... : ... .. . ...
ROW 01 : ... .. . ... : ... .. . ... : ... .. . ... : ... .. . ... : ... .. . ...
ROW 02 : ... .. . ... : ... .. . ... : ... .. . ... : ... .. . ... : ... .. . ...
ROW 03 : ... .. . ... : ... .. . ... : ... .. . ... : ... .. . ... : ... .. . ...
ROW 04 : ... .. . ... : ... .. . ... : ... .. . ... : ... .. . ... : ... .. . ...
ROW 05 : ... .. . ... : ... .. . ... : ... .. . ... : ... .. . ... : ... .. . ...
ROW 06 : ... .. . ... : ... .. . ... : ... .. . ... : ... .. . ... : ... .. . ...
ROW 07 : ... .. . ... : ... .. . ... : ... .. . ... : ... .. . ... : ... .. . ...
ROW 08 : ... .. . ... : ... .. . ... : ... .. . ... : ... .. . ... : ... .. . ...
ROW 09 : ... .. . ... : ... .. . ... : ... .. . ... : ... .. . ... : ... .. . ...
ROW 0A : ... .. . ... : ... .. . ... : ... .. . ... : ... .. . ... : ... .. . ...
ROW 0B : ... .. . ... : ... .. . ... : ... .. . ... : ... .. . ... : ... .. . ...
ROW 0C : ... .. . ... : ... .. . ... : ... .. . ... : ... .. . ... : ... .. . ...
ROW 0D : ... .. . ... : ... .. . ... : ... .. . ... : ... .. . ... : ... .. . ...
ROW 0E : ... .. . ... : ... .. . ... : ... .. . ... : ... .. . ... : ... .. . ...
ROW 0F : ... .. . ... : ... .. . ... : ... .. . ... : ... .. . ... : ... .. . ...
ROW 10 : ... .. . ... : ... .. . ... : ... .. . ... : ... .. . ... : ... .. . ...
ROW 11 : ... .. . ... : ... .. . ... : ... .. . ... : ... .. . ... : ... .. . ...
ROW 12 : ... .. . ... : ... .. . ... : ... .. . ... : ... .. . ... : ... .. . ...
ROW 13 : ... .. . ... : ... .. . ... : ... .. . ... : ... .. . ... : ... .. . ...
ROW 14 : ... .. . ... : ... .. . ... : ... .. . ... : ... .. . ... : ... .. . ...
ROW 15 : ... .. . ... : ... .. . ... : ... .. . ... : ... .. . ... : ... .. . ...
ROW 16 : ... .. . ... : ... .. . ... : ... .. . ... : ... .. . ... : ... .. . ...
ROW 17 : ... .. . D00 : ... .. . ... : ... .. . ... : ... .. . ... : ... .. . ...
ROW 18 : ... .. . ... : ... .. . ... : ... .. . ... : ... .. . ... : ... .. . ...
ROW 19 : ... .. . ... : ... .. . ... : ... .. . ... : ... .. . ... : ... .. . ...
ROW 1A : ... .. . ... : ... .. . ... : ... .. . ... : ... .. . ... : ... .. . ...
ROW 1B : ... .. . ... : ... .. . ... : ... .. . ... : ... .. . ... : ... .. . ...
ROW 1C : ... .. . ... : ... .. . ... : ... .. . ... : ... .. . ... : ... .. . ...
ROW 1D : ... .. . ... : ... .. . ... : ... .. . ... : ... .. . ... : ... .. . ...
ROW 1E : ... .. . ... : ... .. . ... : ... .. . ... : ... .. . ... : ... .. . ...
ROW 1F : ... .. . ... : ... .. . ... : ... .. . ... : ... .. . ... : ... .. . ...
ROW 20 : ... .. . ... : ... .. . ... : ... .. . ... : ... .. . ... : ... .. . ...
ROW 21 : ... .. . ... : ... .. . ... : ... .. . ... : ... .. . ... : ... .. . ...
ROW 22 : ... .. . ... : ... .. . ... : ... .. . ... : ... .. . ... : ... .. . ...
ROW 23 : ... .. . ... : ... .. . ... : ... .. . ... : ... .. . ... : ... .. . ...
ROW 24 : ... .. . ... : ... .. . ... : ... .. . ... : ... .. . ... : ... .. . ...
ROW 25 : ... .. . ... : ... .. . ... : ... .. . ... : ... .. . ... : ... .. . ...
ROW 26 : ... .. . ... : ... .. . ... : ... .. . ... : ... .. . ... : ... .. . ...
ROW 27 : ... .. . ... : ... .. . ... : ... .. . ... : ... .. . ... : ... .. . ...
ROW 28 : ... .. . ... : ... .. . ... : ... .. . ... : ... .. . ... : ... .. . ...
ROW 29 : ... .. . ... : ... .. . ... : ... .. . ... : ... .. . ... : ... .. . ...
ROW 2A : ... .. . ... : ... .. . ... : ... .. . ... : ... .. . ... : ... .. . ...
ROW 2B : ... .. . ... : ... .. . ... : ... .. . ... : ... .. . ... : ... .. . ...
ROW 2C : ... .. . ... : ... .. . ... : ... .. . ... : ... .. . ... : ... .. . ...
ROW 2D : ... .. . ... : ... .. . ... : ... .. . ... : ... .. . ... : ... .. . ...
ROW 2E : ... .. . ... : ... .. . ... : ... .. . ... : ... .. . ... : ... .. . ...
ROW 2F : ... .. . ... : ... .. . ... : ... .. . ... : ... .. . ... : ... .. . ...
PATTERN 05
ROW 00 : F#2 08 . ... : ... .. . ... : ... .. . ... : ... .. . ... : ... .. . ...
ROW 01 : ... .. . ... : ... .. . ... : ... .. . ... : ... .. . ... : ... .. . ...
ROW 02 : ... .. . ... : ... .. . ... : ... .. . ... : ... .. . ... : ... .. . ...
ROW 03 : ... .. . ... : ... .. . ... : ... .. . ... : ... .. . ... : ... .. . ...
ROW 04 : ... .. . ... : ... .. . ... : ... .. . ... : ... .. . ... : ... .. . ...
ROW 05 : ... .. . ... : ... .. . ... : ... .. . ... : ... .. . ... : ... .. . ...
ROW 06 : E-2 08 . ... : ... .. . ... : ... .. . ... : ... .. . ... : ... .. . ...
ROW 07 : ... .. . ... : ... .. . ... : ... .. . ... : ... .. . ... : ... .. . ...
ROW 08 : B-2 08 . ... : ... .. . ... : ... .. . ... : ... .. . ... : ... .. . ...
ROW 09 : C-3 08 . ... : ... .. . ... : ... .. . ... : ... .. . ... : ... .. . ...
ROW 0A : D#3 08 . ... : ... .. . ... : ... .. . ... : ... .. . ... : ... .. . ...
ROW 0B : ... .. . ... : ... .. . ... : ... .. . ... : ... .. . ... : ... .. . ...
ROW 0C : ... .. . ... : ... .. . ... : ... .. . ... : ... .. . ... : ... .. . ...
ROW 0D : ... .. . ... : ... .. . ... : ... .. . ... : ... .. . ... : ... .. . ...
ROW 0E : F#3 08 . ... : ... .. . ... : ... .. . ... : ... .. . ... : ... .. . ...
ROW 0F : ... .. . ... : ... .. . ... : ... .. . ... : ... .. . ... : ... .. . ...
ROW 10 : G-3 08 . ... : ... .. . ... : ... .. . ... : ... .. . ... : ... .. . ...
ROW 11 : ... .. . ... : ... .. . ... : ... .. . ... : ... .. . ... : ... .. . ...
ROW 12 : ... .. . ... : ... .. . ... : ... .. . ... : ... .. . ... : ... .. . ...
ROW 13 : ... .. . ... : ... .. . ... : ... .. . ... : ... .. . ... : ... .. . ...
ROW 14 : ... .. . ... : ... .. . ... : ... .. . ... : ... .. . ... : ... .. . ...
ROW 15 : ... .. . ... : ... .. . ... : ... .. . ... : ... .. . ... : ... .. . ...
ROW 16 : ... .. . ... : ... .. . ... : ... .. . ... : ... .. . ... : ... .. . ...
ROW 17 : ... .. . ... : ... .. . ... : ... .. . ... : ... .. . ... : ... .. . ...
ROW 18 : F#4 14 . ... : ... .. . ... : ... .. . ... : ... .. . ... : ... .. . ...
ROW 19 : ... .. . ... : ... .. . ... : ... .. . ... : ... .. . ... : ... .. . ...
ROW 1A : E-4 14 . ... : ... .. . ... : ... .. . ... : ... .. . ... : ... .. . ...
ROW 1B : F#4 14 . ... : ... .. . ... : ... .. . ... : ... .. . ... : ... .. . ...
ROW 1C : B-3 14 . ... : ... .. . ... : ... .. . ... : ... .. . ... : ... .. . ...
ROW 1D : ... .. . ... : ... .. . ... : ... .. . ... : ... .. . ... : ... .. . ...
ROW 1E : A-3 14 . ... : ... .. . ... : ... .. . ... : ... .. . ... : ... .. . ...
ROW 1F : B-3 14 . ... : ... .. . ... : ... .. . ... : ... .. . ... : ... .. . ...
ROW 20 : F#3 14 . ... : ... .. . ... : ... .. . ... : ... .. . ... : ... .. . ...
ROW 21 : ... .. . ... : ... .. . ... : ... .. . ... : ... .. . ... : ... .. . ...
ROW 22 : E-3 14 . ... : ... .. . ... : ... .. . ... : ... .. . ... : ... .. . ...
ROW 23 : F#3 14 . ... : ... .. . ... : ... .. . ... : ... .. . ... : ... .. . ...
ROW 24 : B-2 14 . ... : ... .. . ... : ... .. . ... : ... .. . ... : ... .. . ...
ROW 25 : ... .. . ... : ... .. . ... : ... .. . ... : ... .. . ... : ... .. . ...
ROW 26 : A-2 14 . ... : ... .. . ... : ... .. . ... : ... .. . ... : ... .. . ...
ROW 27 : B-2 14 . ... : ... .. . ... : ... .. . ... : ... .. . ... : ... .. . ...
ROW 28 : F#2 14 . ... : ... .. . ... : ... .. . ... : ... .. . ... : ... .. . ...
ROW 29 : ... .. . ... : ... .. . ... : ... .. . ... : ... .. . ... : ... .. . ...
ROW 2A : ... .. . ... : ... .. . ... : ... .. . ... : ... .. . ... : ... .. . ...
ROW 2B : ... .. . ... : ... .. . ... : ... .. . ... : ... .. . ... : ... .. . ...
ROW 2C : ... .. . ... : ... .. . ... : ... .. . ... : ... .. . ... : ... .. . ...
ROW 2D : ... .. . ... : ... .. . ... : ... .. . ... : ... .. . ... : ... .. . ...
ROW 2E : ... .. . ... : ... .. . ... : ... .. . ... : ... .. . ... : ... .. . ...
ROW 2F : ... .. . ... : ... .. . ... : ... .. . ... : ... .. . ... : ... .. . ...
PATTERN 06
ROW 00 : ... .. . ... : ... .. . ... : ... .. . ... : ... .. . ... : ... .. . ...
ROW 01 : ... .. . ... : ... .. . ... : ... .. . ... : ... .. . ... : ... .. . ...
ROW 02 : ... .. . ... : ... .. . ... : ... .. . ... : ... .. . ... : ... .. . ...
ROW 03 : ... .. . ... : ... .. . ... : ... .. . ... : ... .. . ... : ... .. . ...
ROW 04 : ... .. . ... : ... .. . ... : ... .. . ... : ... .. . ... : ... .. . ...
ROW 05 : ... .. . ... : ... .. . ... : ... .. . ... : ... .. . ... : ... .. . ...
ROW 06 : ... .. . ... : ... .. . ... : ... .. . ... : ... .. . ... : ... .. . ...
ROW 07 : ... .. . ... : ... .. . ... : ... .. . ... : ... .. . ... : ... .. . ...
ROW 08 : ... .. . ... : ... .. . ... : ... .. . ... : ... .. . ... : ... .. . ...
ROW 09 : ... .. . ... : ... .. . ... : ... .. . ... : ... .. . ... : ... .. . ...
ROW 0A : ... .. . ... : ... .. . ... : ... .. . ... : ... .. . ... : ... .. . ...
ROW 0B : ... .. . ... : ... .. . ... : ... .. . ... : ... .. . ... : ... .. . ...
ROW 0C : --- .. . ... : ... .. . ... : ... .. . ... : ... .. . ... : ... .. . ...
ROW 0D : ... .. . ... : ... .. . ... : ... .. . ... : ... .. . ... : ... .. . ...
ROW 0E : ... .. . ... : ... .. . ... : ... .. . ... : ... .. . ... : ... .. . ...
ROW 0F : ... .. . ... : ... .. . ... : ... .. . ... : ... .. . ... : ... .. . ...
ROW 10 : ... .. . ... : ... .. . ... : ... .. . ... : ... .. . ... : ... .. . ...
ROW 11 : ... .. . ... : ... .. . ... : ... .. . ... : ... .. . ... : ... .. . ...
ROW 12 : ... .. . ... : ... .. . ... : ... .. . ... : ... .. . ... : ... .. . ...
ROW 13 : ... .. . ... : ... .. . ... : ... .. . ... : ... .. . ... : ... .. . ...
ROW 14 : ... .. . ... : ... .. . ... : ... .. . ... : ... .. . ... : ... .. . ...
ROW 15 : ... .. . ... : ... .. . ... : ... .. . ... : ... .. . ... : ... .. . ...
ROW 16 : ... .. . ... : ... .. . ... : ... .. . ... : ... .. . ... : ... .. . ...
ROW 17 : ... .. . B01 : ... .. . ... : ... .. . ... : ... .. . ... : ... .. . ...
ROW 18 : ... .. . ... : ... .. . ... : ... .. . ... : ... .. . ... : ... .. . ...
ROW 19 : ... .. . ... : ... .. . ... : ... .. . ... : ... .. . ... : ... .. . ...
ROW 1A : ... .. . ... : ... .. . ... : ... .. . ... : ... .. . ... : ... .. . ...
ROW 1B : ... .. . ... : ... .. . ... : ... .. . ... : ... .. . ... : ... .. . ...
ROW 1C : ... .. . ... : ... .. . ... : ... .. . ... : ... .. . ... : ... .. . ...
ROW 1D : ... .. . ... : ... .. . ... : ... .. . ... : ... .. . ... : ... .. . ...
ROW 1E : ... .. . ... : ... .. . ... : ... .. . ... : ... .. . ... : ... .. . ...
ROW 1F : ... .. . ... : ... .. . ... : ... .. . ... : ... .. . ... : ... .. . ...
ROW 20 : ... .. . ... : ... .. . ... : ... .. . ... : ... .. . ... : ... .. . ...
ROW 21 : ... .. . ... : ... .. . ... : ... .. . ... : ... .. . ... : ... .. . ...
ROW 22 : ... .. . ... : ... .. . ... : ... .. . ... : ... .. . ... : ... .. . ...
ROW 23 : ... .. . ... : ... .. . ... : ... .. . ... : ... .. . ... : ... .. . ...
ROW 24 : ... .. . ... : ... .. . ... : ... .. . ... : ... .. . ... : ... .. . ...
ROW 25 : ... .. . ... : ... .. . ... : ... .. . ... : ... .. . ... : ... .. . ...
ROW 26 : ... .. . ... : ... .. . ... : ... .. . ... : ... .. . ... : ... .. . ...
ROW 27 : ... .. . ... : ... .. . ... : ... .. . ... : ... .. . ... : ... .. . ...
ROW 28 : ... .. . ... : ... .. . ... : ... .. . ... : ... .. . ... : ... .. . ...
ROW 29 : ... .. . ... : ... .. . ... : ... .. . ... : ... .. . ... : ... .. . ...
ROW 2A : ... .. . ... : ... .. . ... : ... .. . ... : ... .. . ... : ... .. . ...
ROW 2B : ... .. . ... : ... .. . ... : ... .. . ... : ... .. . ... : ... .. . ...
ROW 2C : ... .. . ... : ... .. . ... : ... .. . ... : ... .. . ... : ... .. . ...
ROW 2D : ... .. . ... : ... .. . ... : ... .. . ... : ... .. . ... : ... .. . ...
ROW 2E : ... .. . ... : ... .. . ... : ... .. . ... : ... .. . ... : ... .. . ...
ROW 2F : ... .. . ... : ... .. . ... : ... .. . ... : ... .. . ... : ... .. . ...

# track BOOKMARKS block

# track HEADER block
TRACK  32  10 150 "Goro's Lair"
COLUMNS : 2 2 1 1 1

# track FRAMES block
ORDER 00 : 00 00 00 00 00
ORDER 01 : 01 01 00 00 00
ORDER 02 : 02 02 00 00 00
ORDER 03 : 03 03 00 00 01

# track PATTERNS block
PATTERN 00
ROW 00 : ... .. . ... ... : C-2 0C . ... ... : C-2 01 . ... : 9-# 03 . ... : ... .. . ...
ROW 01 : ... .. . ... ... : ... .. . ... ... : ... .. . ... : ... .. . ... : ... .. . ...
ROW 02 : ... .. . ... ... : ... .. . ... ... : C-2 01 . ... : 9-# 03 . ... : ... .. . ...
ROW 03 : ... .. . ... ... : ... .. . ... ... : ... .. . ... : ... .. . ... : ... .. . ...
ROW 04 : ... .. . ... ... : ... .. . ... ... : ... .. . ... : ... .. . ... : ... .. . ...
ROW 05 : ... .. . ... ... : ... .. . ... ... : ... .. . ... : ... .. . ... : ... .. . ...
ROW 06 : ... .. . ... ... : ... .. . ... ... : C-2 01 . ... : 9-# 03 . ... : ... .. . ...
ROW 07 : ... .. . ... ... : ... .. . ... ... : ... .. . ... : ... .. . ... : ... .. . ...
ROW 08 : ... .. . ... ... : G-2 16 . ... ... : C-2 02 . ... : 6-# 13 . ... : ... .. . ...
ROW 09 : G-2 17 . ... ... : F-2 16 . ... ... : C-2 02 . ... : 6-# 13 . ... : ... .. . ...
ROW 0A : F-2 17 . ... ... : G-2 16 . ... ... : C-2 02 . ... : 6-# 13 . ... : ... .. . ...
ROW 0B : G-2 17 . ... ... : ... .. . ... ... : C-2 02 . ... : 6-# 13 . ... : ... .. . ...
ROW 0C : ... .. . ... ... : ... .. . ... ... : C-2 01 . ... : 2-# 12 . ... : ... .. . ...
ROW 0D : ... .. . ... ... : ... .. . ... ... : ... .. . ... : ... .. . ... : ... .. . ...
ROW 0E : ... .. . ... ... : ... .. . ... ... : ... .. . ... : ... .. . ... : ... .. . ...
ROW 0F : ... .. . ... ... : ... .. . ... ... : ... .. . ... : ... .. . ... : ... .. . ...
ROW 10 : ... .. . ... ... : ... .. . ... ... : C-2 01 . ... : 9-# 03 . ... : ... .. . ...
ROW 11 : ... .. . ... ... : ... .. . ... ... : ... .. . ... : ... .. . ... : ... .. . ...
ROW 12 : ... .. . ... ... : ... .. . ... ... : C-2 01 . ... : 9-# 03 . ... : ... .. . ...
ROW 13 : ... .. . ... ... : G-2 19 . ... ... : ... .. . ... : ... .. . ... : ... .. . ...
ROW 14 : G-2 19 . ... ... : G-2 19 . ... ... : ... .. . ... : ... .. . ... : ... .. . ...
ROW 15 : G-2 19 . ... ... : G-2 18 . ... ... : ... .. . ... : ... .. . ... : ... .. . ...
ROW 16 : G-2 19 . ... ... : G#2 16 . ... ... : C-2 01 . ... : 9-# 03 . ... : ... .. . ...
ROW 17 : G#2 17 . ... ... : ... .. . ... ... : ... .. . ... : ... .. . ... : ... .. . ...
ROW 18 : ... .. . ... ... : ... .. . ... ... : C-2 02 . ... : 6-# 13 . ... : ... .. . ...
ROW 19 : ... .. . ... ... : ... .. . ... ... : C-2 02 . ... : 6-# 13 . ... : ... .. . ...
ROW 1A : ... .. . ... ... : G#2 16 . ... ... : C-2 02 . ... : 6-# 13 . ... : ... .. . ...
ROW 1B : G#2 17 . ... ... : ... .. . ... ... : C-2 02 . ... : 6-# 13 . ... : ... .. . ...
ROW 1C : ... .. . ... ... : F-2 16 . ... ... : C-2 01 . ... : 2-# 12 . ... : ... .. . ...
ROW 1D : F-2 17 . ... ... : ... .. . ... ... : ... .. . ... : ... .. . ... : ... .. . ...
ROW 1E : ... .. . ... ... : C#2 16 . ... ... : C#2 00 . ... : ... .. . ... : ... .. . ...
ROW 1F : C#2 17 . ... ... : ... .. . ... ... : ... .. . ... : ... .. . ... : ... .. . ...
PATTERN 01
ROW 00 : C-2 16 . ... ... : G-3 14 . ... ... : ... .. . ... : ... .. . ... : ... .. . ...
ROW 01 : ... .. . ... ... : G#3 14 . ... ... : ... .. . ... : ... .. . ... : ... .. . ...
ROW 02 : ... .. . ... ... : G-3 14 . ... ... : ... .. . ... : ... .. . ... : ... .. . ...
ROW 03 : G-3 15 . ... ... : C-4 14 . ... ... : ... .. . ... : ... .. . ... : ... .. . ...
ROW 04 : C-4 15 . ... ... : ... .. . ... ... : ... .. . ... : ... .. . ... : ... .. . ...
ROW 05 : ... .. . ... ... : ... .. . ... ... : ... .. . ... : ... .. . ... : ... .. . ...
ROW 06 : ... .. . ... ... : ... .. . ... ... : ... .. . ... : ... .. . ... : ... .. . ...
ROW 07 : ... .. . ... ... : ... .. . ... ... : ... .. . ... : ... .. . ... : ... .. . ...
ROW 08 : ... .. . ... ... : ... .. . ... ... : ... .. . ... : ... .. . ... : ... .. . ...
ROW 09 : ... .. . ... ... : ... .. . ... ... : ... .. . ... : ... .. . ... : ... .. . ...
ROW 0A : ... .. . ... ... : ... .. . ... ... : ... .. . ... : ... .. . ... : ... .. . ...
ROW 0B : ... .. . ... ... : ... .. . ... ... : ... .. . ... : ... .. . ... : ... .. . ...
ROW 0C : ... .. . ... ... : ... .. . ... ... : ... .. . ... : ... .. . ... : ... .. . ...
ROW 0D : ... .. . ... ... : ... .. . ... ... : ... .. . ... : ... .. . ... : ... .. . ...
ROW 0E : ... .. . ... ... : ... .. . ... ... : ... .. . ... : ... .. . ... : ... .. . ...
ROW 0F : ... .. . ... ... : C#4 14 . G0A ... : ... .. . ... : ... .. . ... : ... .. . ...
ROW 10 : C#4 15 . G0A ... : A#3 14 . G05 ... : ... .. . ... : ... .. . ... : ... .. . ...
ROW 11 : A#3 15 . G05 ... : F-3 14 . ... ... : ... .. . ... : ... .. . ... : ... .. . ...
ROW 12 : F-3 15 . ... ... : F-3 2A . Q22 ... : ... .. . ... : ... .. . ... : ... .. . ...
ROW 13 : F-3 2C . Q22 ... : G-3 2B . G05 ... : ... .. . ... : ... .. . ... : ... .. . ...
ROW 14 : G-3 2D . G05 ... : ... .. . ... ... : ... .. . ... : ... .. . ... : ... .. . ...
ROW 15 : ... .. . ... ... : ... .. . ... ... : ... .. . ... : ... .. . ... : ... .. . ...
ROW 16 : ... .. . ... ... : ... .. . ... ... : ... .. . ... : ... .. . ... : ... .. . ...
ROW 17 : ... .. . ... ... : ... .. . ... ... : ... .. . ... : ... .. . ... : ... .. . ...
ROW 18 : ... .. . ... ... : ... .. . ... ... : ... .. . ... : ... .. . ... : ... .. . ...
ROW 19 : ... .. . ... ... : F-3 14 . G05 ... : ... .. . ... : ... .. . ... : ... .. . ...
ROW 1A : F-3 15 . G05 ... : ... .. . ... ... : ... .. . ... : ... .. . ... : ... .. . ...
ROW 1B : ... .. . ... ... : ... .. . ... ... : ... .. . ... : ... .. . ... : ... .. . ...
ROW 1C : ... .. . ... ... : C#3 14 . ... ... : ... .. . ... : ... .. . ... : ... .. . ...
ROW 1D : C#3 15 . ... ... : ... .. . ... ... : ... .. . ... : ... .. . ... : ... .. . ...
ROW 1E : ... .. . ... ... : ... .. . ... ... : ... .. . ... : ... .. . ... : ... .. . ...
ROW 1F : ... .. . ... ... : ... .. . ... ... : ... .. . ... : ... .. . ... : ... .. . ...
PATTERN 02
ROW 00 : ... .. . ... ... : C-3 14 . ... ... : ... .. . ... : ... .. . ... : ... .. . ...
ROW 01 : C-3 15 . ... ... : ... .. . ... ... : ... .. . ... : ... .. . ... : ... .. . ...
ROW 02 : ... .. . ... ... : ... .. . ... ... : ... .. . ... : ... .. . ... : ... .. . ...
ROW 03 : ... .. . ... ... : ... .. . ... ... : ... .. . ... : ... .. . ... : ... .. . ...
ROW 04 : ... .. . ... ... : ... .. . ... ... : ... .. . ... : ... .. . ... : ... .. . ...
ROW 05 : ... .. . ... ... : ... .. . ... ... : ... .. . ... : ... .. . ... : ... .. . ...
ROW 06 : ... .. . ... ... : ... .. . ... ... : ... .. . ... : ... .. . ... : ... .. . ...
ROW 07 : ... .. . ... ... : ... .. . ... ... : ... .. . ... : ... .. . ... : ... .. . ...
ROW 08 : ... .. . ... ... : C#3 14 . ... ... : ... .. . ... : ... .. . ... : ... .. . ...
ROW 09 : C#3 15 . ... ... : A#2 14 . ... ... : ... .. . ... : ... .. . ... : ... .. . ...
ROW 0A : A#2 15 . ... ... : F-2 14 . ... ... : ... .. . ... : ... .. . ... : ... .. . ...
ROW 0B : F-2 15 . ... ... : ... .. . ... ... : ... .. . ... : ... .. . ... : ... .. . ...
ROW 0C : ... .. . ... ... : ... .. . ... ... : ... .. . ... : ... .. . ... : ... .. . ...
ROW 0D : ... .. . ... ... : ... .. . ... ... : ... .. . ... : ... .. . ... : ... .. . ...
ROW 0E : ... .. . ... ... : ... .. . ... ... : ... .. . ... : ... .. . ... : ... .. . ...
ROW 0F : ... .. . ... ... : ... .. . ... ... : ... .. . ... : ... .. . ... : ... .. . ...
ROW 10 : ... .. . ... ... : ... .. . ... ... : ... .. . ... : ... .. . ... : ... .. . ...
ROW 11 : ... .. . ... ... : ... .. . ... ... : ... .. . ... : ... .. . ... : ... .. . ...
ROW 12 : ... .. . ... ... : ... .. . ... ... : ... .. . ... : ... .. . ... : ... .. . ...
ROW 13 : ... .. . ... ... : ... .. . ... ... : ... .. . ... : ... .. . ... : ... .. . ...
ROW 14 : ... .. . ... ... : ... .. . ... ... : ... .. . ... : ... .. . ... : ... .. . ...
ROW 15 : ... .. . ... ... : ... .. . ... ... : ... .. . ... : ... .. . ... : ... .. . ...
ROW 16 : ... .. . ... ... : ... .. . ... ... : ... .. . ... : ... .. . ... : ... .. . ...
ROW 17 : ... .. . ... ... : ... .. . ... ... : ... .. . ... : ... .. . ... : ... .. . ...
ROW 18 : ... .. . ... ... : C#2 14 . ... ... : ... .. . ... : ... .. . ... : ... .. . ...
ROW 19 : C#2 15 . ... ... : ... .. . ... ... : ... .. . ... : ... .. . ... : ... .. . ...
ROW 1A : ... .. . ... ... : ... .. . ... ... : ... .. . ... : ... .. . ... : ... .. . ...
ROW 1B : ... .. . ... ... : ... .. . ... ... : ... .. . ... : ... .. . ... : ... .. . ...
ROW 1C : ... .. . ... ... : A#1 14 . ... ... : ... .. . ... : ... .. . ... : ... .. . ...
ROW 1D : A#1 15 . ... ... : ... .. . ... ... : ... .. . ... : ... .. . ... : ... .. . ...
ROW 1E : ... .. . ... ... : ... .. . ... ... : ... .. . ... : ... .. . ... : ... .. . ...
ROW 1F : ... .. . ... ... : ... .. . ... ... : ... .. . ... : ... .. . ... : ... .. . ...
PATTERN 03
ROW 00 : ... .. . ... ... : C-2 14 . ... ... : ... .. . ... : ... .. . ... : ... .. . ...
ROW 01 : C-2 15 . ... ... : ... .. . ... ... : ... .. . ... : ... .. . ... : ... .. . ...
ROW 02 : ... .. . ... ... : ... .. . ... ... : ... .. . ... : ... .. . ... : ... .. . ...
ROW 03 : ... .. . ... ... : ... .. . ... ... : ... .. . ... : ... .. . ... : ... .. . ...
ROW 04 : ... .. . ... ... : ... .. . ... ... : ... .. . ... : ... .. . ... : ... .. . ...
ROW 05 : ... .. . ... ... : ... .. . ... ... : ... .. . ... : ... .. . ... : ... .. . ...
ROW 06 : ... .. . ... ... : ... .. . ... ... : ... .. . ... : ... .. . ... : ... .. . ...
ROW 07 : ... .. . ... ... : ... .. . ... ... : ... .. . ... : ... .. . ... : ... .. . ...
ROW 08 : ... .. . ... ... : ... .. . ... ... : ... .. . ... : ... .. . ... : ... .. . ...
ROW 09 : ... .. . ... ... : ... .. . ... ... : ... .. . ... : ... .. . ... : ... .. . ...
ROW 0A : ... .. . ... ... : ... .. . ... ... : ... .. . ... : ... .. . ... : ... .. . ...
ROW 0B : ... .. . ... ... : ... .. . ... ... : ... .. . ... : ... .. . ... : ... .. . ...
ROW 0C : ... .. . ... ... : --- .. . ... ... : ... .. . ... : ... .. . ... : ... .. . ...
ROW 0D : --- .. . ... ... : ... .. . ... ... : ... .. . ... : ... .. . ... : ... .. . ...
ROW 0E : ... .. . ... ... : ... .. . ... ... : ... .. . ... : ... .. . ... : ... .. . ...
ROW 0F : ... .. . ... ... : ... .. . ... ... : ... .. . ... : ... .. . ... : ... .. . ...
ROW 10 : ... .. . ... ... : ... .. . ... ... : ... .. . ... : ... .. . ... : ... .. . ...
ROW 11 : ... .. . ... ... : ... .. . ... ... : ... .. . ... : ... .. . ... : ... .. . ...
ROW 12 : ... .. . ... ... : ... .. . ... ... : ... .. . ... : ... .. . ... : ... .. . ...
ROW 13 : ... .. . ... ... : ... .. . ... ... : ... .. . ... : ... .. . ... : ... .. . ...
ROW 14 : ... .. . ... ... : ... .. . ... ... : ... .. . ... : ... .. . ... : ... .. . ...
ROW 15 : ... .. . ... ... : ... .. . ... ... : ... .. . ... : ... .. . ... : ... .. . ...
ROW 16 : ... .. . ... ... : ... .. . ... ... : ... .. . ... : ... .. . ... : ... .. . ...
ROW 17 : ... .. . ... ... : ... .. . ... ... : ... .. . ... : ... .. . ... : ... .. . ...
ROW 18 : ... .. . ... ... : ... .. . ... ... : ... .. . ... : ... .. . ... : ... .. . ...
ROW 19 : ... .. . ... ... : ... .. . ... ... : ... .. . ... : ... .. . ... : ... .. . ...
ROW 1A : ... .. . ... ... : A#1 0C . ... ... : ... .. . ... : ... .. . ... : ... .. . ...
ROW 1B : ... .. . ... ... : C-2 0C . ... ... : ... .. . ... : ... .. . ... : ... .. . ...
ROW 1C : ... .. . ... ... : G-2 0C . ... ... : ... .. . ... : ... .. . ... : ... .. . ...
ROW 1D : ... .. . ... ... : F-2 0C . ... ... : ... .. . ... : ... .. . ... : ... .. . ...
ROW 1E : ... .. . ... ... : C#2 0C . ... ... : ... .. . ... : ... .. . ... : ... .. . ...
ROW 1F : ... .. . ... ... : A#1 0C . ... ... : ... .. . ... : ... .. . ... : ... .. . ...

# track BOOKMARKS block

# track HEADER block
TRACK  64   6 150 "Entrance"
COLUMNS : 1 1 1 1 1

# track FRAMES block
ORDER 00 : 00 00 00 00 00
ORDER 01 : 01 01 00 00 00

# track PATTERNS block
PATTERN 00
ROW 00 : A-3 14 . ... : E-3 08 . ... : E-2 00 . ... : 2-# 06 . ... : ... .. . ...
ROW 01 : B-3 14 . ... : ... .. . ... : ... .. . ... : ... .. . ... : ... .. . ...
ROW 02 : ... .. . ... : ... .. . ... : ... .. . ... : ... .. . ... : ... .. . ...
ROW 03 : ... .. . ... : ... .. . ... : ... .. . ... : ... .. . ... : ... .. . ...
ROW 04 : D-4 14 . ... : ... .. . ... : ... .. . ... : ... .. . ... : ... .. . ...
ROW 05 : ... .. . ... : ... .. . ... : ... .. . ... : ... .. . ... : ... .. . ...
ROW 06 : A-3 14 . ... : B-1 0C . ... : ... .. . ... : 2-# 06 . ... : ... .. . ...
ROW 07 : B-3 14 . ... : ... .. . ... : ... .. . ... : ... .. . ... : ... .. . ...
ROW 08 : ... .. . ... : F-2 0C . ... : ... .. . ... : 2-# 06 . ... : ... .. . ...
ROW 09 : ... .. . ... : ... .. . ... : ... .. . ... : ... .. . ... : ... .. . ...
ROW 0A : ... .. . ... : ... .. . ... : ... .. . ... : ... .. . ... : ... .. . ...
ROW 0B : ... .. . ... : ... .. . ... : ... .. . ... : ... .. . ... : ... .. . ...
ROW 0C : ... .. . ... : D-2 0C . ... : ... .. . ... : ... .. . ... : ... .. . ...
ROW 0D : ... .. . ... : ... .. . ... : ... .. . ... : ... .. . ... : ... .. . ...
ROW 0E : ... .. . ... : B-1 0C . ... : ... .. . ... : ... .. . ... : ... .. . ...
ROW 0F : ... .. . ... : ... .. . ... : ... .. . ... : ... .. . ... : ... .. . ...
ROW 10 : ... .. . ... : E-1 0C . ... : ... .. . ... : 2-# 06 . ... : ... .. . ...
ROW 11 : ... .. . ... : ... .. . ... : ... .. . ... : ... .. . ... : ... .. . ...
ROW 12 : ... .. . ... : ... .. . ... : ... .. . ... : ... .. . ... : ... .. . ...
ROW 13 : ... .. . ... : ... .. . ... : ... .. . ... : ... .. . ... : ... .. . ...
ROW 14 : ... .. . ... : A#1 0C . ... : ... .. . ... : ... .. . ... : ... .. . ...
ROW 15 : ... .. . ... : ... .. . ... : ... .. . ... : ... .. . ... : ... .. . ...
ROW 16 : A-3 14 . ... : B-1 0C . ... : ... .. . ... : 2-# 06 . ... : ... .. . ...
ROW 17 : B-3 14 . ... : ... .. . ... : ... .. . ... : ... .. . ... : ... .. . ...
ROW 18 : F-4 14 . ... : F-2 0C . ... : ... .. . ... : 2-# 06 . ... : ... .. . ...
ROW 19 : ... .. . ... : ... .. . ... : ... .. . ... : ... .. . ... : ... .. . ...
ROW 1A : D-4 14 . ... : ... .. . ... : ... .. . ... : ... .. . ... : ... .. . ...
ROW 1B : ... .. . ... : ... .. . ... : ... .. . ... : ... .. . ... : ... .. . ...
ROW 1C : B-3 14 . ... : D-2 0C . ... : ... .. . ... : ... .. . ... : ... .. . ...
ROW 1D : ... .. . ... : ... .. . ... : ... .. . ... : ... .. . ... : ... .. . ...
ROW 1E : G-3 14 . ... : B-1 0C . ... : ... .. . ... : ... .. . ... : ... .. . ...
ROW 1F : ... .. . ... : ... .. . ... : ... .. . ... : ... .. . ... : ... .. . ...
ROW 20 : F-3 14 . ... : F-1 0C . ... : D#2 00 . Q42 : 2-# 06 . ... : ... .. . ...
ROW 21 : ... .. . ... : ... .. . ... : ... .. . ... : ... .. . ... : ... .. . ...
ROW 22 : ... .. . ... : ... .. . ... : ... .. . ... : ... .. . ... : ... .. . ...
ROW 23 : ... .. . ... : ... .. . ... : ... .. . ... : ... .. . ... : ... .. . ...
ROW 24 : ... .. . ... : B-1 0C . ... : ... .. . ... : ... .. . ... : ... .. . ...
ROW 25 : ... .. . ... : ... .. . ... : ... .. . ... : ... .. . ... : ... .. . ...
ROW 26 : ... .. . ... : C-2 0C . ... : ... .. . ... : 2-# 06 . ... : ... .. . ...
ROW 27 : ... .. . ... : ... .. . ... : ... .. . ... : ... .. . ... : ... .. . ...
ROW 28 : ... .. . ... : F-2 0C . ... : ... .. . ... : 2-# 06 . ... : ... .. . ...
ROW 29 : ... .. . ... : ... .. . ... : ... .. . ... : ... .. . ... : ... .. . ...
ROW 2A : ... .. . ... : ... .. . ... : ... .. . ... : ... .. . ... : ... .. . ...
ROW 2B : ... .. . ... : ... .. . ... : ... .. . ... : ... .. . ... : ... .. . ...
ROW 2C : ... .. . ... : D-2 0C . ... : ... .. . ... : ... .. . ... : ... .. . ...
ROW 2D : ... .. . ... : ... .. . ... : ... .. . ... : ... .. . ... : ... .. . ...
ROW 2E : ... .. . ... : B-1 0C . ... : ... .. . ... : ... .. . ... : ... .. . ...
ROW 2F : ... .. . ... : ... .. . ... : ... .. . ... : ... .. . ... : ... .. . ...
ROW 30 : B-3 14 . ... : F-1 0C . ... : ... .. . ... : 2-# 06 . ... : ... .. . ...
ROW 31 : C-4 14 . ... : ... .. . ... : ... .. . ... : ... .. . ... : ... .. . ...
ROW 32 : B-3 14 . ... : ... .. . ... : ... .. . ... : ... .. . ... : ... .. . ...
ROW 33 : ... .. . ... : ... .. . ... : ... .. . ... : ... .. . ... : ... .. . ...
ROW 34 : ... .. . ... : B-1 0C . ... : ... .. . ... : ... .. . ... : ... .. . ...
ROW 35 : ... .. . ... : ... .. . ... : ... .. . ... : ... .. . ... : ... .. . ...
ROW 36 : A-3 14 . ... : C-2 0C . ... : ... .. . ... : 2-# 06 . ... : ... .. . ...
ROW 37 : ... .. . ... : ... .. . ... : ... .. . ... : ... .. . ... : ... .. . ...
ROW 38 : G#3 14 . ... : F-2 0C . ... : ... .. . ... : 2-# 06 . ... : ... .. . ...
ROW 39 : ... .. . ... : ... .. . ... : ... .. . ... : ... .. . ... : ... .. . ...
ROW 3A : E-3 14 . ... : ... .. . ... : ... .. . ... : ... .. . ... : ... .. . ...
ROW 3B : ... .. . ... : ... .. . ... : ... .. . ... : ... .. . ... : ... .. . ...
ROW 3C : D-3 14 . ... : D-2 0C . ... : ... .. . ... : ... .. . ... : ... .. . ...
ROW 3D : ... .. . ... : ... .. . ... : ... .. . ... : ... .. . ... : ... .. . ...
ROW 3E : B-2 14 . ... : B-1 0C . ... : ... .. . ... : ... .. . ... : ... .. . ...
ROW 3F : ... .. . ... : ... .. . ... : ... .. . ... : ... .. . ... : ... .. . ...
PATTERN 01
ROW 00 : E-3 14 . ... : E-1 0C . ... : ... .. . ... : ... .. . ... : ... .. . ...
ROW 01 : ... .. . ... : ... .. . ... : ... .. . ... : ... .. . ... : ... .. . ...
ROW 02 : ... .. . ... : ... .. . ... : ... .. . ... : ... .. . ... : ... .. . ...
ROW 03 : ... .. . ... : ... .. . ... : ... .. . ... : ... .. . ... : ... .. . ...
ROW 04 : ... .. . ... : A#1 0C . ... : ... .. . ... : ... .. . ... : ... .. . ...
ROW 05 : ... .. . ... : ... .. . ... : ... .. . ... : ... .. . ... : ... .. . ...
ROW 06 : ... .. . ... : B-1 0C . ... : ... .. . ... : ... .. . ... : ... .. . ...
ROW 07 : ... .. . ... : ... .. . ... : ... .. . ... : ... .. . ... : ... .. . ...
ROW 08 : ... .. . ... : F-2 0C . ... : ... .. . ... : ... .. . ... : ... .. . ...
ROW 09 : ... .. . ... : ... .. . ... : ... .. . ... : ... .. . ... : ... .. . ...
ROW 0A : ... .. . ... : ... .. . ... : ... .. . ... : ... .. . ... : ... .. . ...
ROW 0B : ... .. . ... : ... .. . ... : ... .. . ... : ... .. . ... : ... .. . ...
ROW 0C : ... .. . ... : D-2 0C . ... : ... .. . ... : ... .. . ... : ... .. . ...
ROW 0D : ... .. . ... : ... .. . ... : ... .. . ... : ... .. . ... : ... .. . ...
ROW 0E : ... .. . ... : B-1 0C . ... : ... .. . ... : ... .. . ... : ... .. . ...
ROW 0F : ... .. . ... : ... .. . ... : ... .. . ... : ... .. . ... : ... .. . ...
ROW 10 : B-3 14 . ... : E-1 0C . ... : ... .. . ... : ... .. . ... : ... .. . ...
ROW 11 : A-3 14 . ... : ... .. . ... : ... .. . ... : ... .. . ... : ... .. . ...
ROW 12 : B-3 14 . ... : ... .. . ... : ... .. . ... : ... .. . ... : ... .. . ...
ROW 13 : ... .. . ... : ... .. . ... : ... .. . ... : ... .. . ... : ... .. . ...
ROW 14 : ... .. . ... : A#1 0C . ... : ... .. . ... : ... .. . ... : ... .. . ...
ROW 15 : ... .. . ... : ... .. . ... : ... .. . ... : ... .. . ... : ... .. . ...
ROW 16 : ... .. . ... : B-1 0C . ... : ... .. . ... : ... .. . ... : ... .. . ...
ROW 17 : ... .. . ... : ... .. . ... : ... .. . ... : ... .. . ... : ... .. . ...
ROW 18 : ... .. . ... : F-2 0C . ... : ... .. . ... : ... .. . ... : ... .. . ...
ROW 19 : ... .. . ... : ... .. . ... : ... .. . ... : ... .. . ... : ... .. . ...
ROW 1A : ... .. . ... : ... .. . ... : ... .. . ... : ... .. . ... : ... .. . ...
ROW 1B : ... .. . ... : ... .. . ... : ... .. . ... : ... .. . ... : ... .. . ...
ROW 1C : ... .. . ... : D-2 0C . ... : ... .. . ... : ... .. . ... : ... .. . ...
ROW 1D : ... .. . ... : ... .. . ... : ... .. . ... : ... .. . ... : ... .. . ...
ROW 1E : ... .. . ... : B-1 0C . ... : ... .. . ... : ... .. . ... : ... .. . ...
ROW 1F : ... .. . ... : ... .. . ... : ... .. . ... : ... .. . ... : ... .. . ...
ROW 20 : E-4 14 . ... : F-1 0C . ... : ... .. . ... : ... .. . ... : ... .. . ...
ROW 21 : D-4 14 . ... : ... .. . ... : ... .. . ... : ... .. . ... : ... .. . ...
ROW 22 : E-4 14 . ... : ... .. . ... : ... .. . ... : ... .. . ... : ... .. . ...
ROW 23 : ... .. . ... : ... .. . ... : ... .. . ... : ... .. . ... : ... .. . ...
ROW 24 : ... .. . ... : B-1 0C . ... : ... .. . ... : ... .. . ... : ... .. . ...
ROW 25 : ... .. . ... : ... .. . ... : ... .. . ... : ... .. . ... : ... .. . ...
ROW 26 : ... .. . ... : C-2 0C . ... : ... .. . ... : ... .. . ... : ... .. . ...
ROW 27 : ... .. . ... : ... .. . ... : ... .. . ... : ... .. . ... : ... .. . ...
ROW 28 : ... .. . ... : F-2 0C . ... : ... .. . ... : ... .. . ... : ... .. . ...
ROW 29 : ... .. . ... : ... .. . ... : ... .. . ... : ... .. . ... : ... .. . ...
ROW 2A : ... .. . ... : ... .. . ... : ... .. . ... : ... .. . ... : ... .. . ...
ROW 2B : ... .. . ... : ... .. . ... : ... .. . ... : ... .. . ... : ... .. . ...
ROW 2C : ... .. . ... : D-2 0C . ... : ... .. . ... : ... .. . ... : ... .. . ...
ROW 2D : ... .. . ... : ... .. . ... : ... .. . ... : ... .. . ... : ... .. . ...
ROW 2E : ... .. . ... : B-1 0C . ... : ... .. . ... : ... .. . ... : ... .. . ...
ROW 2F : ... .. . ... : ... .. . ... : ... .. . ... : ... .. . ... : ... .. . ...
ROW 30 : F-4 14 . ... : F-1 0C . ... : ... .. . ... : ... .. . ... : ... .. . ...
ROW 31 : ... .. . ... : ... .. . ... : ... .. . ... : ... .. . ... : ... .. . ...
ROW 32 : ... .. . ... : ... .. . ... : ... .. . ... : ... .. . ... : ... .. . ...
ROW 33 : ... .. . ... : ... .. . ... : ... .. . ... : ... .. . ... : ... .. . ...
ROW 34 : ... .. . ... : B-1 0C . ... : ... .. . ... : ... .. . ... : ... .. . ...
ROW 35 : ... .. . ... : ... .. . ... : ... .. . ... : ... .. . ... : ... .. . ...
ROW 36 : ... .. . ... : C-2 0C . ... : ... .. . ... : ... .. . ... : ... .. . ...
ROW 37 : ... .. . ... : ... .. . ... : ... .. . ... : ... .. . ... : ... .. . ...
ROW 38 : D-4 14 . ... : F-2 0C . ... : ... .. . ... : ... .. . ... : ... .. . ...
ROW 39 : ... .. . ... : ... .. . ... : ... .. . ... : ... .. . ... : ... .. . ...
ROW 3A : ... .. . ... : ... .. . ... : ... .. . ... : ... .. . ... : ... .. . ...
ROW 3B : ... .. . ... : ... .. . ... : ... .. . ... : ... .. . ... : ... .. . ...
ROW 3C : ... .. . ... : D-2 0C . ... : ... .. . ... : ... .. . ... : ... .. . ...
ROW 3D : ... .. . ... : ... .. . ... : ... .. . ... : ... .. . ... : ... .. . ...
ROW 3E : ... .. . ... : B-1 0C . ... : ... .. . ... : ... .. . ... : ... .. . ...
ROW 3F : ... .. . ... : ... .. . ... : ... .. . ... : ... .. . ... : ... .. . ...

# track BOOKMARKS block

# track HEADER block
TRACK  64   6 150 "Game Over [RKK]"
COLUMNS : 1 1 1 1 1

# track FRAMES block
ORDER 00 : 00 00 00 00 00

# track PATTERNS block
PATTERN 00
ROW 00 : B-4 14 . ... : ... .. . ... : B-2 01 . ... : 2-# 04 . ... : ... .. . ...
ROW 01 : A-4 14 . ... : ... .. . ... : ... .. . ... : 2-# 04 . ... : ... .. . ...
ROW 02 : F#4 14 . ... : B-4 15 . ... : B-2 02 . ... : 6-# 04 . ... : ... .. . ...
ROW 03 : E-4 14 . ... : A-4 15 . ... : ... .. . ... : 6-# 04 . ... : ... .. . ...
ROW 04 : C-4 14 . ... : F#4 15 . ... : --- .. . ... : B-# 04 . ... : ... .. . ...
ROW 05 : A-3 14 . ... : E-4 15 . ... : ... .. . ... : ... .. . ... : ... .. . ...
ROW 06 : F#3 14 . ... : C-4 15 . ... : B-2 01 . ... : B-# 04 . ... : ... .. . ...
ROW 07 : E-3 14 . ... : A-3 15 . ... : ... .. . ... : ... .. . ... : ... .. . ...
ROW 08 : B-2 14 . ... : F#3 15 . ... : B-2 01 . ... : 6-# 04 . ... : ... .. . ...
ROW 09 : ... .. . ... : E-3 15 . ... : --- .. . ... : ... .. . ... : ... .. . ...
ROW 0A : ... .. . ... : B-2 15 . ... : B-2 02 . ... : ... .. . ... : ... .. . ...
ROW 0B : ... .. . ... : ... .. . ... : B-2 02 . ... : ... .. . ... : ... .. . ...
ROW 0C : A-3 14 . ... : ... .. . ... : B-2 01 . ... : 2-# 04 . ... : ... .. . ...
ROW 0D : ... .. . ... : ... .. . ... : ... .. . ... : ... .. . ... : ... .. . ...
ROW 0E : ... .. . ... : A-3 15 . ... : D-2 01 . ... : ... .. . ... : ... .. . ...
ROW 0F : ... .. . ... : ... .. . ... : ... .. . ... : ... .. . ... : ... .. . ...
ROW 10 : F#4 14 . ... : E-3 0A . ... : D-3 02 . ... : B-# 04 . ... : ... .. . ...
ROW 11 : ... .. . ... : ... .. . ... : ... .. . ... : B-# 04 . ... : ... .. . ...
ROW 12 : ... .. . ... : ... .. . ... : ... .. . ... : 4-# 04 . ... : ... .. . ...
ROW 13 : ... .. . ... : ... .. . ... : ... .. . ... : 4-# 04 . ... : ... .. . ...
ROW 14 : ... .. . ... : ... .. . ... : D#3 02 . ... : 6-# 04 . ... : ... .. . ...
ROW 15 : ... .. . ... : ... .. . ... : ... .. . ... : 6-# 04 . ... : ... .. . ...
ROW 16 : ... .. . ... : ... .. . ... : ... .. . ... : B-# 04 . ... : ... .. . ...
ROW 17 : ... .. . ... : ... .. . ... : E-3 02 . ... : 6-# 04 . ... : ... .. . ...
ROW 18 : --- .. . ... : --- .. . ... : ... .. . ... : --- .. . ... : ... .. . ...
ROW 19 : ... .. . ... : ... .. . ... : ... .. . ... : ... .. . ... : ... .. . ...
ROW 1A : ... .. . ... : ... .. . ... : --- .. . ... : ... .. . ... : ... .. . ...
ROW 1B : ... .. . ... : ... .. . ... : ... .. . ... : ... .. . ... : ... .. . ...
ROW 1C : ... .. . ... : ... .. . ... : ... .. . ... : ... .. . ... : ... .. . ...
ROW 1D : ... .. . ... : ... .. . ... : ... .. . ... : ... .. . ... : ... .. . ...
ROW 1E : ... .. . ... : ... .. . ... : ... .. . ... : ... .. . ... : ... .. . ...
ROW 1F : ... .. . ... : ... .. . ... : ... .. . ... : ... .. . C00 : ... .. . ...
ROW 20 : ... .. . ... : ... .. . ... : ... .. . ... : ... .. . ... : ... .. . ...
ROW 21 : ... .. . ... : ... .. . ... : ... .. . ... : ... .. . ... : ... .. . ...
ROW 22 : ... .. . ... : ... .. . ... : ... .. . ... : ... .. . ... : ... .. . ...
ROW 23 : ... .. . ... : ... .. . ... : ... .. . ... : ... .. . ... : ... .. . ...
ROW 24 : ... .. . ... : ... .. . ... : ... .. . ... : ... .. . ... : ... .. . ...
ROW 25 : ... .. . ... : ... .. . ... : ... .. . ... : ... .. . ... : ... .. . ...
ROW 26 : ... .. . ... : ... .. . ... : ... .. . ... : ... .. . ... : ... .. . ...
ROW 27 : ... .. . ... : ... .. . ... : ... .. . ... : ... .. . ... : ... .. . ...
ROW 28 : ... .. . ... : ... .. . ... : ... .. . ... : ... .. . ... : ... .. . ...
ROW 29 : ... .. . ... : ... .. . ... : ... .. . ... : ... .. . ... : ... .. . ...
ROW 2A : ... .. . ... : ... .. . ... : ... .. . ... : ... .. . ... : ... .. . ...
ROW 2B : ... .. . ... : ... .. . ... : ... .. . ... : ... .. . ... : ... .. . ...
ROW 2C : ... .. . ... : ... .. . ... : ... .. . ... : ... .. . ... : ... .. . ...
ROW 2D : ... .. . ... : ... .. . ... : ... .. . ... : ... .. . ... : ... .. . ...
ROW 2E : ... .. . ... : ... .. . ... : ... .. . ... : ... .. . ... : ... .. . ...
ROW 2F : ... .. . ... : ... .. . ... : ... .. . ... : ... .. . ... : ... .. . ...
ROW 30 : ... .. . ... : ... .. . ... : ... .. . ... : ... .. . ... : ... .. . ...
ROW 31 : ... .. . ... : ... .. . ... : ... .. . ... : ... .. . ... : ... .. . ...
ROW 32 : ... .. . ... : ... .. . ... : ... .. . ... : ... .. . ... : ... .. . ...
ROW 33 : ... .. . ... : ... .. . ... : ... .. . ... : ... .. . ... : ... .. . ...
ROW 34 : ... .. . ... : ... .. . ... : ... .. . ... : ... .. . ... : ... .. . ...
ROW 35 : ... .. . ... : ... .. . ... : ... .. . ... : ... .. . ... : ... .. . ...
ROW 36 : ... .. . ... : ... .. . ... : ... .. . ... : ... .. . ... : ... .. . ...
ROW 37 : ... .. . ... : ... .. . ... : ... .. . ... : ... .. . ... : ... .. . ...
ROW 38 : ... .. . ... : ... .. . ... : ... .. . ... : ... .. . ... : ... .. . ...
ROW 39 : ... .. . ... : ... .. . ... : ... .. . ... : ... .. . ... : ... .. . ...
ROW 3A : ... .. . ... : ... .. . ... : ... .. . ... : ... .. . ... : ... .. . ...
ROW 3B : ... .. . ... : ... .. . ... : ... .. . ... : ... .. . ... : ... .. . ...
ROW 3C : ... .. . ... : ... .. . ... : ... .. . ... : ... .. . ... : ... .. . ...
ROW 3D : ... .. . ... : ... .. . ... : ... .. . ... : ... .. . ... : ... .. . ...
ROW 3E : ... .. . ... : ... .. . ... : ... .. . ... : ... .. . ... : ... .. . ...
ROW 3F : ... .. . ... : ... .. . ... : ... .. . ... : ... .. . ... : ... .. . ...

# track BOOKMARKS block

# track HEADER block
TRACK  64   7 150 "Game Over [RKK, Amilgi Edit]"
COLUMNS : 1 1 1 1 1

# track FRAMES block
ORDER 00 : 00 00 00 00 00

# track PATTERNS block
PATTERN 00
ROW 00 : B-4 14 . ... : ... .. . ... : B-2 01 . ... : 9-# 03 . ... : ... .. . ...
ROW 01 : A-4 14 . ... : ... .. . ... : ... .. . ... : B-# 07 . ... : ... .. . ...
ROW 02 : F#4 14 . ... : B-4 15 . ... : B-2 01 . ... : 9-# 03 . ... : ... .. . ...
ROW 03 : E-4 14 . ... : A-4 15 . ... : ... .. . ... : B-# 07 . ... : ... .. . ...
ROW 04 : C-4 14 . ... : F#4 15 . ... : B-2 02 . S02 : 7-# 04 . ... : ... .. . ...
ROW 05 : A-3 14 . ... : E-4 15 . ... : ... .. . ... : ... .. . ... : ... .. . ...
ROW 06 : F#3 14 . ... : C-4 15 . ... : B-2 01 . ... : 9-# 03 . ... : ... .. . ...
ROW 07 : E-3 14 . ... : A-3 15 . ... : ... .. . ... : ... .. . ... : ... .. . ...
ROW 08 : B-2 14 . ... : F#3 15 . ... : B-2 01 . ... : 9-# 03 . ... : ... .. . ...
ROW 09 : ... .. . ... : E-3 15 . ... : B-2 01 . S05 : 9-# 03 . ... : ... .. . ...
ROW 0A : ... .. . ... : B-2 15 . ... : B-2 01 . ... : 9-# 03 . ... : ... .. . ...
ROW 0B : ... .. . ... : ... .. . ... : B-2 02 . ... : 7-# 04 . ... : ... .. . ...
ROW 0C : A-3 14 . ... : ... .. . ... : ... .. . ... : ... .. . ... : ... .. . ...
ROW 0D : ... .. . ... : ... .. . ... : D-2 01 . ... : 9-# 03 . ... : ... .. . ...
ROW 0E : ... .. . ... : A-3 15 . ... : ... .. . ... : ... .. . ... : ... .. . ...
ROW 0F : ... .. . ... : ... .. . ... : D-2 01 . ... : 9-# 03 . ... : ... .. . ...
ROW 10 : F#4 14 . ... : E-3 14 . ... : D-3 02 . ... : 7-# 04 . ... : ... .. . ...
ROW 11 : ... .. . ... : ... .. . ... : ... .. . ... : ... .. . ... : ... .. . ...
ROW 12 : ... .. . ... : ... .. . ... : ... .. . ... : B-# 07 . ... : ... .. . ...
ROW 13 : ... .. . ... : ... .. . ... : ... .. . ... : ... .. . ... : ... .. . ...
ROW 14 : ... .. . ... : ... .. . ... : D#3 02 . ... : 7-# 04 . ... : ... .. . ...
ROW 15 : ... .. . ... : ... .. . ... : ... .. . ... : ... .. . ... : ... .. . ...
ROW 16 : ... .. . ... : ... .. . ... : ... .. . ... : B-# 07 . ... : ... .. . ...
ROW 17 : ... .. . ... : ... .. . ... : E-3 02 . ... : 7-# 04 . ... : ... .. . ...
ROW 18 : --- .. . ... : --- .. . ... : ... .. . ... : --- .. . ... : ... .. . ...
ROW 19 : ... .. . ... : ... .. . ... : --- .. . ... : ... .. . C00 : ... .. . ...
ROW 1A : ... .. . ... : ... .. . ... : ... .. . ... : ... .. . ... : ... .. . ...
ROW 1B : ... .. . ... : ... .. . ... : ... .. . ... : ... .. . ... : ... .. . ...
ROW 1C : ... .. . ... : ... .. . ... : ... .. . ... : ... .. . ... : ... .. . ...
ROW 1D : ... .. . ... : ... .. . ... : ... .. . ... : ... .. . ... : ... .. . ...
ROW 1E : ... .. . ... : ... .. . ... : ... .. . ... : ... .. . ... : ... .. . ...
ROW 1F : ... .. . ... : ... .. . ... : ... .. . ... : ... .. . ... : ... .. . ...
ROW 20 : ... .. . ... : ... .. . ... : ... .. . ... : ... .. . ... : ... .. . ...
ROW 21 : ... .. . ... : ... .. . ... : ... .. . ... : ... .. . ... : ... .. . ...
ROW 22 : ... .. . ... : ... .. . ... : ... .. . ... : ... .. . ... : ... .. . ...
ROW 23 : ... .. . ... : ... .. . ... : ... .. . ... : ... .. . ... : ... .. . ...
ROW 24 : ... .. . ... : ... .. . ... : ... .. . ... : ... .. . ... : ... .. . ...
ROW 25 : ... .. . ... : ... .. . ... : ... .. . ... : ... .. . ... : ... .. . ...
ROW 26 : ... .. . ... : ... .. . ... : ... .. . ... : ... .. . ... : ... .. . ...
ROW 27 : ... .. . ... : ... .. . ... : ... .. . ... : ... .. . ... : ... .. . ...
ROW 28 : ... .. . ... : ... .. . ... : ... .. . ... : ... .. . ... : ... .. . ...
ROW 29 : ... .. . ... : ... .. . ... : ... .. . ... : ... .. . ... : ... .. . ...
ROW 2A : ... .. . ... : ... .. . ... : ... .. . ... : ... .. . ... : ... .. . ...
ROW 2B : ... .. . ... : ... .. . ... : ... .. . ... : ... .. . ... : ... .. . ...
ROW 2C : ... .. . ... : ... .. . ... : ... .. . ... : ... .. . ... : ... .. . ...
ROW 2D : ... .. . ... : ... .. . ... : ... .. . ... : ... .. . ... : ... .. . ...
ROW 2E : ... .. . ... : ... .. . ... : ... .. . ... : ... .. . ... : ... .. . ...
ROW 2F : ... .. . ... : ... .. . ... : ... .. . ... : ... .. . ... : ... .. . ...
ROW 30 : ... .. . ... : ... .. . ... : ... .. . ... : ... .. . ... : ... .. . ...
ROW 31 : ... .. . ... : ... .. . ... : ... .. . ... : ... .. . ... : ... .. . ...
ROW 32 : ... .. . ... : ... .. . ... : ... .. . ... : ... .. . ... : ... .. . ...
ROW 33 : ... .. . ... : ... .. . ... : ... .. . ... : ... .. . ... : ... .. . ...
ROW 34 : ... .. . ... : ... .. . ... : ... .. . ... : ... .. . ... : ... .. . ...
ROW 35 : ... .. . ... : ... .. . ... : ... .. . ... : ... .. . ... : ... .. . ...
ROW 36 : ... .. . ... : ... .. . ... : ... .. . ... : ... .. . ... : ... .. . ...
ROW 37 : ... .. . ... : ... .. . ... : ... .. . ... : ... .. . ... : ... .. . ...
ROW 38 : ... .. . ... : ... .. . ... : ... .. . ... : ... .. . ... : ... .. . ...
ROW 39 : ... .. . ... : ... .. . ... : ... .. . ... : ... .. . ... : ... .. . ...
ROW 3A : ... .. . ... : ... .. . ... : ... .. . ... : ... .. . ... : ... .. . ...
ROW 3B : ... .. . ... : ... .. . ... : ... .. . ... : ... .. . ... : ... .. . ...
ROW 3C : ... .. . ... : ... .. . ... : ... .. . ... : ... .. . ... : ... .. . ...
ROW 3D : ... .. . ... : ... .. . ... : ... .. . ... : ... .. . ... : ... .. . ...
ROW 3E : ... .. . ... : ... .. . ... : ... .. . ... : ... .. . ... : ... .. . ...
ROW 3F : ... .. . ... : ... .. . ... : ... .. . ... : ... .. . ... : ... .. . ...

# track BOOKMARKS block

# track HEADER block
TRACK  64   6 150 "Victory [RKK]"
COLUMNS : 1 1 1 1 1

# track FRAMES block
ORDER 00 : 00 00 00 00 00

# track PATTERNS block
PATTERN 00
ROW 00 : E-4 14 . ... : A#2 0C . ... : E-2 02 . ... : 5-# 0E . F03 : ... .. . ...
ROW 01 : F-4 14 . ... : ... .. . ... : ... .. . ... : 3-# 0E . F04 : ... .. . ...
ROW 02 : E-4 14 . ... : E-2 0C . ... : E-2 02 . ... : 5-# 0E . F03 : ... .. . ...
ROW 03 : ... .. . ... : ... .. . ... : ... .. . ... : ... .. . F04 : ... .. . ...
ROW 04 : ... .. . ... : ... .. . ... : ... .. . ... : 5-# 0E . F03 : ... .. . ...
ROW 05 : ... .. . ... : ... .. . ... : ... .. . ... : ... .. . F04 : ... .. . ...
ROW 06 : ... .. . ... : A#2 0C . ... : E-2 02 . ... : 5-# 0E . F03 : ... .. . ...
ROW 07 : ... .. . ... : ... .. . ... : --- .. . ... : ... .. . F04 : ... .. . ...
ROW 08 : ... .. . ... : ... .. . ... : ... .. . ... : ... .. . F03 : ... .. . ...
ROW 09 : ... .. . ... : ... .. . ... : ... .. . ... : ... .. . F04 : ... .. . ...
ROW 0A : ... .. . ... : E-2 0C . ... : E-2 02 . ... : 3-# 0E . F03 : ... .. . ...
ROW 0B : ... .. . ... : ... .. . ... : ... .. . ... : ... .. . F04 : ... .. . ...
ROW 0C : ... .. . ... : A#2 0C . ... : E-2 02 . ... : 5-# 0E . F03 : ... .. . ...
ROW 0D : ... .. . ... : ... .. . ... : --- .. . ... : ... .. . F04 : ... .. . ...
ROW 0E : ... .. . ... : ... .. . ... : ... .. . ... : ... .. . F03 : ... .. . ...
ROW 0F : ... .. . ... : ... .. . ... : ... .. . ... : ... .. . F04 : ... .. . ...
ROW 10 : A#3 14 . ... : A#2 0C . ... : E-2 02 . ... : 5-# 0E . F03 : ... .. . ...
ROW 11 : B-3 14 . ... : ... .. . ... : --- .. . ... : 3-# 0E . F04 : ... .. . ...
ROW 12 : A#3 14 . ... : A#2 0C . ... : E-2 02 . ... : 5-# 0E . F03 : ... .. . ...
ROW 13 : ... .. . ... : ... .. . ... : ... .. . ... : ... .. . F04 : ... .. . ...
ROW 14 : ... .. . ... : ... .. . ... : ... .. . ... : 5-# 0E . F03 : ... .. . ...
ROW 15 : ... .. . ... : ... .. . ... : ... .. . ... : ... .. . F04 : ... .. . ...
ROW 16 : ... .. . ... : A#2 0C . ... : E-2 02 . ... : 5-# 0E . F03 : ... .. . ...
ROW 17 : ... .. . ... : ... .. . ... : --- .. . ... : ... .. . F04 : ... .. . ...
ROW 18 : ... .. . ... : ... .. . ... : ... .. . ... : ... .. . F03 : ... .. . ...
ROW 19 : ... .. . ... : ... .. . ... : ... .. . ... : ... .. . F04 : ... .. . ...
ROW 1A : ... .. . ... : A#2 0C . ... : B-1 02 . ... : 3-# 0E . F03 : ... .. . ...
ROW 1B : ... .. . ... : ... .. . ... : ... .. . ... : ... .. . F04 : ... .. . ...
ROW 1C : ... .. . ... : D-2 0C . ... : E-2 02 . ... : 5-# 0E . F03 : ... .. . ...
ROW 1D : ... .. . ... : ... .. . ... : --- .. . ... : ... .. . F04 : ... .. . ...
ROW 1E : ... .. . ... : ... .. . ... : ... .. . ... : ... .. . F03 : ... .. . ...
ROW 1F : ... .. . ... : ... .. . ... : ... .. . ... : ... .. . F04 : ... .. . ...
ROW 20 : E-3 14 . ... : A#2 14 . ... : E-2 02 . ... : 6-# 14 . ... : ... .. . ...
ROW 21 : ... .. . ... : ... .. . ... : ... .. . ... : ... .. . ... : ... .. . ...
ROW 22 : ... .. . ... : ... .. . ... : ... .. . ... : ... .. . ... : ... .. . ...
ROW 23 : ... .. . ... : ... .. . ... : ... .. . ... : ... .. . ... : ... .. . ...
ROW 24 : ... .. . ... : ... .. . ... : ... .. . ... : ... .. . ... : ... .. . ...
ROW 25 : ... .. . ... : ... .. . ... : ... .. . ... : ... .. . ... : ... .. . ...
ROW 26 : ... .. . ... : ... .. . ... : ... .. . ... : ... .. . ... : ... .. . ...
ROW 27 : ... .. . ... : ... .. . ... : ... .. . ... : ... .. . ... : ... .. . ...
ROW 28 : ... .. . ... : ... .. . ... : ... .. . ... : 6-# 15 . ... : ... .. . ...
ROW 29 : ... .. . ... : ... .. . ... : ... .. . ... : ... .. . ... : ... .. . ...
ROW 2A : ... .. . ... : ... .. . ... : ... .. . ... : ... .. . ... : ... .. . ...
ROW 2B : ... .. . ... : ... .. . ... : ... .. . ... : ... .. . ... : ... .. . ...
ROW 2C : ... .. . ... : ... .. . ... : ... .. . ... : ... .. . ... : ... .. . ...
ROW 2D : ... .. . ... : ... .. . ... : ... .. . ... : ... .. . ... : ... .. . ...
ROW 2E : ... .. . ... : ... .. . ... : ... .. . ... : ... .. . ... : ... .. . ...
ROW 2F : ... .. . ... : ... .. . ... : ... .. . ... : ... .. . C00 : ... .. . ...
ROW 30 : ... .. . ... : ... .. . ... : ... .. . ... : ... .. . ... : ... .. . ...
ROW 31 : ... .. . ... : ... .. . ... : ... .. . ... : ... .. . ... : ... .. . ...
ROW 32 : ... .. . ... : ... .. . ... : ... .. . ... : ... .. . ... : ... .. . ...
ROW 33 : ... .. . ... : ... .. . ... : ... .. . ... : ... .. . ... : ... .. . ...
ROW 34 : ... .. . ... : ... .. . ... : ... .. . ... : ... .. . ... : ... .. . ...
ROW 35 : ... .. . ... : ... .. . ... : ... .. . ... : ... .. . ... : ... .. . ...
ROW 36 : ... .. . ... : ... .. . ... : ... .. . ... : ... .. . ... : ... .. . ...
ROW 37 : ... .. . ... : ... .. . ... : ... .. . ... : ... .. . ... : ... .. . ...
ROW 38 : ... .. . ... : ... .. . ... : ... .. . ... : ... .. . ... : ... .. . ...
ROW 39 : ... .. . ... : ... .. . ... : ... .. . ... : ... .. . ... : ... .. . ...
ROW 3A : ... .. . ... : ... .. . ... : ... .. . ... : ... .. . ... : ... .. . ...
ROW 3B : ... .. . ... : ... .. . ... : ... .. . ... : ... .. . ... : ... .. . ...
ROW 3C : ... .. . ... : ... .. . ... : ... .. . ... : ... .. . ... : ... .. . ...
ROW 3D : ... .. . ... : ... .. . ... : ... .. . ... : ... .. . ... : ... .. . ...
ROW 3E : ... .. . ... : ... .. . ... : ... .. . ... : ... .. . ... : ... .. . ...
ROW 3F : ... .. . ... : ... .. . ... : ... .. . ... : ... .. . ... : ... .. . ...

# track BOOKMARKS block

# track HEADER block
TRACK  64   6 150 "Victory [RKK, Amilgi Edit]"
COLUMNS : 1 1 1 1 1

# track FRAMES block
ORDER 00 : 00 00 00 00 00

# track PATTERNS block
PATTERN 00
ROW 00 : E-4 15 . ... : A#2 0C . ... : E-2 02 . ... : 5-# 0B . F03 : ... .. . ...
ROW 01 : F-4 14 . ... : ... .. . ... : ... .. . ... : 4-# 0B . F04 : ... .. . ...
ROW 02 : E-4 14 . ... : E-2 0C . ... : E-2 02 . ... : 5-# 0B . F03 : ... .. . ...
ROW 03 : ... .. . ... : ... .. . ... : ... .. . ... : ... .. . F04 : ... .. . ...
ROW 04 : ... .. . ... : ... .. . ... : ... .. . ... : 4-# 0B . F03 : ... .. . ...
ROW 05 : ... .. . ... : ... .. . ... : ... .. . ... : ... .. . F04 : ... .. . ...
ROW 06 : ... .. . ... : A#2 0C . ... : B-1 02 . ... : 3-# 0B . F03 : ... .. . ...
ROW 07 : ... .. . ... : ... .. . ... : ... .. . ... : ... .. . F04 : ... .. . ...
ROW 08 : ... .. . ... : ... .. . ... : --- .. . ... : ... .. . F03 : ... .. . ...
ROW 09 : ... .. . ... : ... .. . ... : ... .. . ... : ... .. . F04 : ... .. . ...
ROW 0A : ... .. . ... : E-2 0C . ... : E-2 02 . ... : 7-# 04 . F03 : ... .. . ...
ROW 0B : ... .. . ... : ... .. . ... : ... .. . ... : ... .. . F04 : ... .. . ...
ROW 0C : ... .. . ... : A#2 0C . ... : E-2 02 . ... : 7-# 04 . F03 : ... .. . ...
ROW 0D : ... .. . ... : ... .. . ... : ... .. . ... : ... .. . F04 : ... .. . ...
ROW 0E : ... .. . ... : ... .. . ... : --- .. . ... : ... .. . F03 : ... .. . ...
ROW 0F : ... .. . ... : ... .. . ... : ... .. . ... : ... .. . F04 : ... .. . ...
ROW 10 : A#3 15 . ... : G#2 0C . ... : E-2 02 . ... : 4-# 0B . F03 : ... .. . ...
ROW 11 : B-3 14 . ... : ... .. . ... : ... .. . ... : 3-# 0B . F04 : ... .. . ...
ROW 12 : A#3 14 . ... : D-2 0C . ... : E-2 02 . ... : 4-# 0B . F03 : ... .. . ...
ROW 13 : ... .. . ... : ... .. . ... : ... .. . ... : ... .. . F04 : ... .. . ...
ROW 14 : ... .. . ... : ... .. . ... : ... .. . ... : 3-# 0B . F03 : ... .. . ...
ROW 15 : ... .. . ... : ... .. . ... : ... .. . ... : ... .. . F04 : ... .. . ...
ROW 16 : ... .. . ... : G#1 0C . ... : A#1 02 . ... : 2-# 0B . F03 : ... .. . ...
ROW 17 : ... .. . ... : ... .. . ... : ... .. . ... : ... .. . F04 : ... .. . ...
ROW 18 : ... .. . ... : ... .. . ... : --- .. . ... : ... .. . F03 : ... .. . ...
ROW 19 : ... .. . ... : ... .. . ... : ... .. . ... : ... .. . F04 : ... .. . ...
ROW 1A : ... .. . ... : D-2 0C . ... : D-2 02 . ... : 6-# 04 . F03 : ... .. . ...
ROW 1B : ... .. . ... : ... .. . ... : ... .. . ... : ... .. . F04 : ... .. . ...
ROW 1C : ... .. . ... : G#2 0C . ... : D-2 02 . ... : 6-# 04 . F03 : ... .. . ...
ROW 1D : ... .. . ... : ... .. . ... : ... .. . ... : ... .. . F04 : ... .. . ...
ROW 1E : ... .. . ... : ... .. . ... : --- .. . ... : ... .. . F03 : ... .. . ...
ROW 1F : ... .. . ... : ... .. . ... : ... .. . ... : ... .. . F04 : ... .. . ...
ROW 20 : E-3 15 . ... : A#2 14 . ... : E-2 02 . ... : 6-# 2E . F07 : ... .. . ...
ROW 21 : ... .. . ... : ... .. . ... : ... .. . ... : ... .. . ... : ... .. . ...
ROW 22 : ... .. . ... : ... .. . ... : ... .. . ... : ... .. . ... : ... .. . ...
ROW 23 : ... .. . ... : ... .. . ... : ... .. . ... : ... .. . ... : ... .. . ...
ROW 24 : ... .. . ... : ... .. . ... : ... .. . ... : ... .. . ... : ... .. . ...
ROW 25 : ... .. . ... : ... .. . ... : ... .. . ... : ... .. . ... : ... .. . ...
ROW 26 : ... .. . ... : ... .. . ... : ... .. . ... : ... .. . ... : ... .. . ...
ROW 27 : ... .. . ... : ... .. . ... : ... .. . ... : ... .. . ... : ... .. . ...
ROW 28 : ... .. . ... : ... .. . ... : ... .. . ... : ... .. . ... : ... .. . ...
ROW 29 : ... .. . ... : ... .. . ... : ... .. . ... : ... .. . ... : ... .. . ...
ROW 2A : ... .. . ... : ... .. . ... : ... .. . ... : ... .. . ... : ... .. . ...
ROW 2B : ... .. . ... : ... .. . ... : --- .. . ... : ... .. . ... : ... .. . ...
ROW 2C : ... .. . ... : ... .. . ... : ... .. . ... : ... .. . C00 : ... .. . ...
ROW 2D : ... .. . ... : ... .. . ... : ... .. . ... : ... .. . ... : ... .. . ...
ROW 2E : ... .. . ... : ... .. . ... : ... .. . ... : ... .. . ... : ... .. . ...
ROW 2F : ... .. . ... : ... .. . ... : ... .. . ... : ... .. . ... : ... .. . ...
ROW 30 : ... .. . ... : ... .. . ... : ... .. . ... : ... .. . ... : ... .. . ...
ROW 31 : ... .. . ... : ... .. . ... : ... .. . ... : ... .. . ... : ... .. . ...
ROW 32 : ... .. . ... : ... .. . ... : ... .. . ... : ... .. . ... : ... .. . ...
ROW 33 : ... .. . ... : ... .. . ... : ... .. . ... : ... .. . ... : ... .. . ...
ROW 34 : ... .. . ... : ... .. . ... : ... .. . ... : ... .. . ... : ... .. . ...
ROW 35 : ... .. . ... : ... .. . ... : ... .. . ... : ... .. . ... : ... .. . ...
ROW 36 : ... .. . ... : ... .. . ... : ... .. . ... : ... .. . ... : ... .. . ...
ROW 37 : ... .. . ... : ... .. . ... : ... .. . ... : ... .. . ... : ... .. . ...
ROW 38 : ... .. . ... : ... .. . ... : ... .. . ... : ... .. . ... : ... .. . ...
ROW 39 : ... .. . ... : ... .. . ... : ... .. . ... : ... .. . ... : ... .. . ...
ROW 3A : ... .. . ... : ... .. . ... : ... .. . ... : ... .. . ... : ... .. . ...
ROW 3B : ... .. . ... : ... .. . ... : ... .. . ... : ... .. . ... : ... .. . ...
ROW 3C : ... .. . ... : ... .. . ... : ... .. . ... : ... .. . ... : ... .. . ...
ROW 3D : ... .. . ... : ... .. . ... : ... .. . ... : ... .. . ... : ... .. . ...
ROW 3E : ... .. . ... : ... .. . ... : ... .. . ... : ... .. . ... : ... .. . ...
ROW 3F : ... .. . ... : ... .. . ... : ... .. . ... : ... .. . ... : ... .. . ...

# track BOOKMARKS block

# track HEADER block
TRACK  64   7 150 "Courtyard Victory"
COLUMNS : 1 1 1 1 1

# track FRAMES block
ORDER 00 : 00 00 00 00 00

# track PATTERNS block
PATTERN 00
ROW 00 : D-4 1E . ... : D-2 0A . ... : D-2 00 . ... : ... .. . ... : ... .. . ...
ROW 01 : ... .. . ... : ... .. . ... : D-2 02 . ... : 7-# 04 . ... : ... .. . ...
ROW 02 : ... .. . ... : ... .. . ... : D-2 01 . ... : 9-# 03 . ... : ... .. . ...
ROW 03 : ... .. . ... : ... .. . ... : D-2 02 . ... : 7-# 04 . ... : ... .. . ...
ROW 04 : ... .. . ... : ... .. . ... : ... .. . ... : 6-# 0E . ... : ... .. . ...
ROW 05 : ... .. . ... : ... .. . ... : ... .. . ... : 7-# 05 . ... : ... .. . ...
ROW 06 : ... .. . ... : ... .. . ... : ... .. . ... : 7-# 13 . ... : ... .. . ...
ROW 07 : ... .. . ... : ... .. . ... : D-2 02 . ... : 7-# 04 . ... : ... .. . ...
ROW 08 : ... .. . ... : ... .. . ... : D-2 01 . ... : 9-# 03 . ... : ... .. . ...
ROW 09 : ... .. . ... : ... .. . ... : D-2 02 . ... : 7-# 04 . ... : ... .. . ...
ROW 0A : ... .. . ... : ... .. . ... : D-2 1F . ... : 4-# 0E . ... : ... .. . ...
ROW 0B : ... .. . ... : ... .. . ... : ... .. . ... : 8-# 0B . ... : ... .. . ...
ROW 0C : ... .. . ... : ... .. . ... : ... .. . ... : 8-# 0B . ... : ... .. . ...
ROW 0D : ... .. . ... : ... .. . ... : ... .. . ... : ... .. . ... : ... .. . ...
ROW 0E : ... .. . ... : ... .. . ... : ... .. . ... : ... .. . ... : ... .. . ...
ROW 0F : ... .. . ... : ... .. . ... : ... .. . ... : ... .. . ... : ... .. . ...
ROW 10 : ... .. . ... : ... .. . ... : ... .. . ... : ... .. . ... : ... .. . ...
ROW 11 : ... .. . ... : ... .. . ... : ... .. . ... : ... .. . ... : ... .. . ...
ROW 12 : ... .. . ... : ... .. . ... : ... .. . ... : ... .. . ... : ... .. . ...
ROW 13 : ... .. . ... : ... .. . ... : ... .. . ... : ... .. . ... : ... .. . ...
ROW 14 : --- .. . C00 : --- .. . ... : --- .. . ... : ... .. . ... : ... .. . ...
ROW 15 : ... .. . ... : ... .. . ... : ... .. . ... : ... .. . ... : ... .. . ...
ROW 16 : ... .. . ... : ... .. . ... : ... .. . ... : ... .. . ... : ... .. . ...
ROW 17 : ... .. . ... : ... .. . ... : ... .. . ... : ... .. . ... : ... .. . ...
ROW 18 : ... .. . ... : ... .. . ... : ... .. . ... : ... .. . ... : ... .. . ...
ROW 19 : ... .. . ... : ... .. . ... : ... .. . ... : ... .. . ... : ... .. . ...
ROW 1A : ... .. . ... : ... .. . ... : ... .. . ... : ... .. . ... : ... .. . ...
ROW 1B : ... .. . ... : ... .. . ... : ... .. . ... : ... .. . ... : ... .. . ...
ROW 1C : ... .. . ... : ... .. . ... : ... .. . ... : ... .. . ... : ... .. . ...
ROW 1D : ... .. . ... : ... .. . ... : ... .. . ... : ... .. . ... : ... .. . ...
ROW 1E : ... .. . ... : ... .. . ... : ... .. . ... : ... .. . ... : ... .. . ...
ROW 1F : ... .. . ... : ... .. . ... : ... .. . ... : ... .. . ... : ... .. . ...
ROW 20 : ... .. . ... : ... .. . ... : ... .. . ... : ... .. . ... : ... .. . ...
ROW 21 : ... .. . ... : ... .. . ... : ... .. . ... : ... .. . ... : ... .. . ...
ROW 22 : ... .. . ... : ... .. . ... : ... .. . ... : ... .. . ... : ... .. . ...
ROW 23 : ... .. . ... : ... .. . ... : ... .. . ... : ... .. . ... : ... .. . ...
ROW 24 : ... .. . ... : ... .. . ... : ... .. . ... : ... .. . ... : ... .. . ...
ROW 25 : ... .. . ... : ... .. . ... : ... .. . ... : ... .. . ... : ... .. . ...
ROW 26 : ... .. . ... : ... .. . ... : ... .. . ... : ... .. . ... : ... .. . ...
ROW 27 : ... .. . ... : ... .. . ... : ... .. . ... : ... .. . ... : ... .. . ...
ROW 28 : ... .. . ... : ... .. . ... : ... .. . ... : ... .. . ... : ... .. . ...
ROW 29 : ... .. . ... : ... .. . ... : ... .. . ... : ... .. . ... : ... .. . ...
ROW 2A : ... .. . ... : ... .. . ... : ... .. . ... : ... .. . ... : ... .. . ...
ROW 2B : ... .. . ... : ... .. . ... : ... .. . ... : ... .. . ... : ... .. . ...
ROW 2C : ... .. . ... : ... .. . ... : ... .. . ... : ... .. . ... : ... .. . ...
ROW 2D : ... .. . ... : ... .. . ... : ... .. . ... : ... .. . ... : ... .. . ...
ROW 2E : ... .. . ... : ... .. . ... : ... .. . ... : ... .. . ... : ... .. . ...
ROW 2F : ... .. . ... : ... .. . ... : ... .. . ... : ... .. . ... : ... .. . ...
ROW 30 : ... .. . ... : ... .. . ... : ... .. . ... : ... .. . ... : ... .. . ...
ROW 31 : ... .. . ... : ... .. . ... : ... .. . ... : ... .. . ... : ... .. . ...
ROW 32 : ... .. . ... : ... .. . ... : ... .. . ... : ... .. . ... : ... .. . ...
ROW 33 : ... .. . ... : ... .. . ... : ... .. . ... : ... .. . ... : ... .. . ...
ROW 34 : ... .. . ... : ... .. . ... : ... .. . ... : ... .. . ... : ... .. . ...
ROW 35 : ... .. . ... : ... .. . ... : ... .. . ... : ... .. . ... : ... .. . ...
ROW 36 : ... .. . ... : ... .. . ... : ... .. . ... : ... .. . ... : ... .. . ...
ROW 37 : ... .. . ... : ... .. . ... : ... .. . ... : ... .. . ... : ... .. . ...
ROW 38 : ... .. . ... : ... .. . ... : ... .. . ... : ... .. . ... : ... .. . ...
ROW 39 : ... .. . ... : ... .. . ... : ... .. . ... : ... .. . ... : ... .. . ...
ROW 3A : ... .. . ... : ... .. . ... : ... .. . ... : ... .. . ... : ... .. . ...
ROW 3B : ... .. . ... : ... .. . ... : ... .. . ... : ... .. . ... : ... .. . ...
ROW 3C : ... .. . ... : ... .. . ... : ... .. . ... : ... .. . ... : ... .. . ...
ROW 3D : ... .. . ... : ... .. . ... : ... .. . ... : ... .. . ... : ... .. . ...
ROW 3E : ... .. . ... : ... .. . ... : ... .. . ... : ... .. . ... : ... .. . ...
ROW 3F : ... .. . ... : ... .. . ... : ... .. . ... : ... .. . ... : ... .. . ...

# track BOOKMARKS block

# track HEADER block
TRACK  64   7 150 "Warrior Victory"
COLUMNS : 1 1 1 1 1

# track FRAMES block
ORDER 00 : 00 00 00 00 00

# track PATTERNS block
PATTERN 00
ROW 00 : D-4 1F . ... : A-3 1E . ... : D-2 1F . ... : 3-# 0B . F04 : ... .. . ...
ROW 01 : ... .. . ... : ... .. . ... : ... .. . ... : 3-# 0B . F03 : ... .. . ...
ROW 02 : ... .. . ... : ... .. . ... : ... .. . ... : 3-# 0B . F07 : ... .. . ...
ROW 03 : ... .. . ... : ... .. . ... : ... .. . ... : ... .. . ... : ... .. . ...
ROW 04 : ... .. . ... : ... .. . ... : ... .. . ... : 3-# 0B . ... : ... .. . ...
ROW 05 : ... .. . ... : ... .. . ... : ... .. . ... : 2-# 0B . F04 : ... .. . ...
ROW 06 : ... .. . ... : ... .. . ... : ... .. . ... : 2-# 0B . F03 : ... .. . ...
ROW 07 : ... .. . ... : ... .. . ... : ... .. . ... : 2-# 0B . F07 : ... .. . ...
ROW 08 : ... .. . ... : ... .. . ... : ... .. . ... : ... .. . ... : ... .. . ...
ROW 09 : ... .. . ... : ... .. . ... : ... .. . ... : 1-# 0B . ... : ... .. . ...
ROW 0A : ... .. . ... : ... .. . ... : ... .. . ... : 1-# 0B . ... : ... .. . ...
ROW 0B : ... .. . ... : ... .. . ... : ... .. . ... : ... .. . ... : ... .. . ...
ROW 0C : ... .. . ... : ... .. . ... : ... .. . ... : ... .. . ... : ... .. . ...
ROW 0D : ... .. . ... : ... .. . ... : ... .. . ... : ... .. . ... : ... .. . ...
ROW 0E : ... .. . ... : ... .. . ... : ... .. . ... : ... .. . ... : ... .. . ...
ROW 0F : ... .. . ... : ... .. . ... : ... .. . ... : ... .. . ... : ... .. . ...
ROW 10 : ... .. . ... : ... .. . ... : ... .. . ... : ... .. . ... : ... .. . ...
ROW 11 : ... .. . ... : ... .. . ... : ... .. . ... : ... .. . ... : ... .. . ...
ROW 12 : ... .. . ... : ... .. . ... : ... .. . ... : ... .. . ... : ... .. . ...
ROW 13 : ... .. . ... : ... .. . ... : ... .. . ... : ... .. . ... : ... .. . ...
ROW 14 : ... .. . ... : ... .. . ... : ... .. . ... : ... .. . ... : ... .. . ...
ROW 15 : ... .. . ... : ... .. . ... : ... .. . ... : ... .. . ... : ... .. . ...
ROW 16 : ... .. . ... : ... .. . ... : ... .. . ... : ... .. . ... : ... .. . ...
ROW 17 : ... .. . ... : ... .. . ... : ... .. . ... : ... .. . ... : ... .. . ...
ROW 18 : ... .. . ... : ... .. . ... : ... .. . ... : ... .. . ... : ... .. . ...
ROW 19 : ... .. . ... : ... .. . ... : ... .. . ... : ... .. . ... : ... .. . ...
ROW 1A : --- .. . ... : --- .. . ... : --- .. . C00 : ... .. . ... : ... .. . ...
ROW 1B : ... .. . ... : ... .. . ... : ... .. . ... : ... .. . ... : ... .. . ...
ROW 1C : ... .. . ... : ... .. . ... : ... .. . ... : ... .. . ... : ... .. . ...
ROW 1D : ... .. . ... : ... .. . ... : ... .. . ... : ... .. . ... : ... .. . ...
ROW 1E : ... .. . ... : ... .. . ... : ... .. . ... : ... .. . ... : ... .. . ...
ROW 1F : ... .. . ... : ... .. . ... : ... .. . ... : ... .. . ... : ... .. . ...
ROW 20 : ... .. . ... : ... .. . ... : ... .. . ... : ... .. . ... : ... .. . ...
ROW 21 : ... .. . ... : ... .. . ... : ... .. . ... : ... .. . ... : ... .. . ...
ROW 22 : ... .. . ... : ... .. . ... : ... .. . ... : ... .. . ... : ... .. . ...
ROW 23 : ... .. . ... : ... .. . ... : ... .. . ... : ... .. . ... : ... .. . ...
ROW 24 : ... .. . ... : ... .. . ... : ... .. . ... : ... .. . ... : ... .. . ...
ROW 25 : ... .. . ... : ... .. . ... : ... .. . ... : ... .. . ... : ... .. . ...
ROW 26 : ... .. . ... : ... .. . ... : ... .. . ... : ... .. . ... : ... .. . ...
ROW 27 : ... .. . ... : ... .. . ... : ... .. . ... : ... .. . ... : ... .. . ...
ROW 28 : ... .. . ... : ... .. . ... : ... .. . ... : ... .. . ... : ... .. . ...
ROW 29 : ... .. . ... : ... .. . ... : ... .. . ... : ... .. . ... : ... .. . ...
ROW 2A : ... .. . ... : ... .. . ... : ... .. . ... : ... .. . ... : ... .. . ...
ROW 2B : ... .. . ... : ... .. . ... : ... .. . ... : ... .. . ... : ... .. . ...
ROW 2C : ... .. . ... : ... .. . ... : ... .. . ... : ... .. . ... : ... .. . ...
ROW 2D : ... .. . ... : ... .. . ... : ... .. . ... : ... .. . ... : ... .. . ...
ROW 2E : ... .. . ... : ... .. . ... : ... .. . ... : ... .. . ... : ... .. . ...
ROW 2F : ... .. . ... : ... .. . ... : ... .. . ... : ... .. . ... : ... .. . ...
ROW 30 : ... .. . ... : ... .. . ... : ... .. . ... : ... .. . ... : ... .. . ...
ROW 31 : ... .. . ... : ... .. . ... : ... .. . ... : ... .. . ... : ... .. . ...
ROW 32 : ... .. . ... : ... .. . ... : ... .. . ... : ... .. . ... : ... .. . ...
ROW 33 : ... .. . ... : ... .. . ... : ... .. . ... : ... .. . ... : ... .. . ...
ROW 34 : ... .. . ... : ... .. . ... : ... .. . ... : ... .. . ... : ... .. . ...
ROW 35 : ... .. . ... : ... .. . ... : ... .. . ... : ... .. . ... : ... .. . ...
ROW 36 : ... .. . ... : ... .. . ... : ... .. . ... : ... .. . ... : ... .. . ...
ROW 37 : ... .. . ... : ... .. . ... : ... .. . ... : ... .. . ... : ... .. . ...
ROW 38 : ... .. . ... : ... .. . ... : ... .. . ... : ... .. . ... : ... .. . ...
ROW 39 : ... .. . ... : ... .. . ... : ... .. . ... : ... .. . ... : ... .. . ...
ROW 3A : ... .. . ... : ... .. . ... : ... .. . ... : ... .. . ... : ... .. . ...
ROW 3B : ... .. . ... : ... .. . ... : ... .. . ... : ... .. . ... : ... .. . ...
ROW 3C : ... .. . ... : ... .. . ... : ... .. . ... : ... .. . ... : ... .. . ...
ROW 3D : ... .. . ... : ... .. . ... : ... .. . ... : ... .. . ... : ... .. . ...
ROW 3E : ... .. . ... : ... .. . ... : ... .. . ... : ... .. . ... : ... .. . ...
ROW 3F : ... .. . ... : ... .. . ... : ... .. . ... : ... .. . ... : ... .. . ...

# track BOOKMARKS block

# track HEADER block
TRACK  64   7 150 "Pit Victory"
COLUMNS : 1 1 1 1 1

# track FRAMES block
ORDER 00 : 00 01 00 00 00

# track PATTERNS block
PATTERN 00
ROW 00 : C#4 14 . ... : C#3 1E . ... : C#2 00 . ... : 1-# 0B . F04 : ... .. . ...
ROW 01 : D-4 14 . ... : ... .. . ... : ... .. . ... : ... .. . F03 : ... .. . ...
ROW 02 : C#4 14 . ... : ... .. . ... : ... .. . ... : ... .. . F07 : ... .. . ...
ROW 03 : ... .. . ... : C#3 1E . ... : ... .. . S05 : ... .. . ... : ... .. . ...
ROW 04 : ... .. . ... : ... .. . ... : C#2 00 . ... : ... .. . ... : ... .. . ...
ROW 05 : ... .. . ... : ... .. . ... : C#2 02 . ... : 7-# 04 . ... : ... .. . ...
ROW 06 : ... .. . ... : C#3 1E . ... : ... .. . S05 : ... .. . ... : ... .. . ...
ROW 07 : ... .. . ... : ... .. . ... : C#2 00 . ... : 1-# 0B . ... : ... .. . ...
ROW 08 : ... .. . ... : G-3 1E . ... : ... .. . S05 : ... .. . ... : ... .. . ...
ROW 09 : G#3 14 . ... : ... .. . ... : C#2 02 . ... : 7-# 04 . F04 : ... .. . ...
ROW 0A : A-3 14 . ... : ... .. . ... : ... .. . ... : ... .. . F03 : ... .. . ...
ROW 0B : G#3 14 . ... : G-3 1E . ... : C#2 02 . ... : 7-# 04 . F07 : ... .. . ...
ROW 0C : ... .. . ... : ... .. . ... : C#2 02 . S05 : 7-# 04 . ... : ... .. . ...
ROW 0D : ... .. . ... : ... .. . ... : C#2 02 . ... : 7-# 05 . ... : ... .. . ...
ROW 0E : ... .. . ... : G-3 1E . ... : C#2 02 . ... : 7-# 04 . ... : ... .. . ...
ROW 0F : ... .. . ... : ... .. . ... : C#2 02 . S05 : 7-# 04 . ... : ... .. . ...
ROW 10 : ... .. . ... : G#3 1E . ... : C#2 01 . ... : 9-# 03 . ... : ... .. . ...
ROW 11 : ... .. . ... : ... .. . ... : C#2 01 . S05 : 9-# 03 . ... : ... .. . ...
ROW 12 : E-3 14 . ... : ... .. . ... : C#2 02 . ... : 7-# 04 . ... : ... .. . ...
ROW 13 : ... .. . ... : ... .. . ... : ... .. . ... : ... .. . ... : ... .. . ...
ROW 14 : ... .. . ... : ... .. . ... : ... .. . ... : ... .. . ... : ... .. . ...
ROW 15 : ... .. . ... : ... .. . ... : ... .. . ... : ... .. . ... : ... .. . ...
ROW 16 : ... .. . ... : ... .. . ... : ... .. . ... : ... .. . ... : ... .. . ...
ROW 17 : ... .. . ... : ... .. . ... : ... .. . ... : ... .. . ... : ... .. . ...
ROW 18 : ... .. . ... : ... .. . ... : ... .. . ... : ... .. . ... : ... .. . ...
ROW 19 : ... .. . ... : ... .. . ... : ... .. . ... : ... .. . ... : ... .. . ...
ROW 1A : ... .. . ... : ... .. . ... : ... .. . ... : ... .. . ... : ... .. . ...
ROW 1B : ... .. . ... : ... .. . ... : ... .. . ... : ... .. . ... : ... .. . ...
ROW 1C : ... .. . ... : ... .. . ... : ... .. . ... : ... .. . ... : ... .. . ...
ROW 1D : ... .. . ... : ... .. . ... : ... .. . ... : ... .. . ... : ... .. . ...
ROW 1E : ... .. . ... : ... .. . ... : ... .. . ... : ... .. . ... : ... .. . ...
ROW 1F : ... .. . ... : --- .. . ... : ... .. . ... : ... .. . ... : ... .. . ...
ROW 20 : ... .. . ... : ... .. . ... : ... .. . ... : ... .. . ... : ... .. . ...
ROW 21 : --- .. . C00 : ... .. . ... : --- .. . ... : ... .. . ... : ... .. . ...
ROW 22 : ... .. . ... : ... .. . ... : ... .. . ... : ... .. . ... : ... .. . ...
ROW 23 : ... .. . ... : ... .. . ... : ... .. . ... : ... .. . ... : ... .. . ...
ROW 24 : ... .. . ... : ... .. . ... : ... .. . ... : ... .. . ... : ... .. . ...
ROW 25 : ... .. . ... : ... .. . ... : ... .. . ... : ... .. . ... : ... .. . ...
ROW 26 : ... .. . ... : ... .. . ... : ... .. . ... : ... .. . ... : ... .. . ...
ROW 27 : ... .. . ... : ... .. . ... : ... .. . ... : ... .. . ... : ... .. . ...
ROW 28 : ... .. . ... : ... .. . ... : ... .. . ... : ... .. . ... : ... .. . ...
ROW 29 : ... .. . ... : ... .. . ... : ... .. . ... : ... .. . ... : ... .. . ...
ROW 2A : ... .. . ... : ... .. . ... : ... .. . ... : ... .. . ... : ... .. . ...
ROW 2B : ... .. . ... : ... .. . ... : ... .. . ... : ... .. . ... : ... .. . ...
ROW 2C : ... .. . ... : ... .. . ... : ... .. . ... : ... .. . ... : ... .. . ...
ROW 2D : ... .. . ... : ... .. . ... : ... .. . ... : ... .. . ... : ... .. . ...
ROW 2E : ... .. . ... : ... .. . ... : ... .. . ... : ... .. . ... : ... .. . ...
ROW 2F : ... .. . ... : ... .. . ... : ... .. . ... : ... .. . ... : ... .. . ...
ROW 30 : ... .. . ... : ... .. . ... : ... .. . ... : ... .. . ... : ... .. . ...
ROW 31 : ... .. . ... : ... .. . ... : ... .. . ... : ... .. . ... : ... .. . ...
ROW 32 : ... .. . ... : ... .. . ... : ... .. . ... : ... .. . ... : ... .. . ...
ROW 33 : ... .. . ... : ... .. . ... : ... .. . ... : ... .. . ... : ... .. . ...
ROW 34 : ... .. . ... : ... .. . ... : ... .. . ... : ... .. . ... : ... .. . ...
ROW 35 : ... .. . ... : ... .. . ... : ... .. . ... : ... .. . ... : ... .. . ...
ROW 36 : ... .. . ... : ... .. . ... : ... .. . ... : ... .. . ... : ... .. . ...
ROW 37 : ... .. . ... : ... .. . ... : ... .. . ... : ... .. . ... : ... .. . ...
ROW 38 : ... .. . ... : ... .. . ... : ... .. . ... : ... .. . ... : ... .. . ...
ROW 39 : ... .. . ... : ... .. . ... : ... .. . ... : ... .. . ... : ... .. . ...
ROW 3A : ... .. . ... : ... .. . ... : ... .. . ... : ... .. . ... : ... .. . ...
ROW 3B : ... .. . ... : ... .. . ... : ... .. . ... : ... .. . ... : ... .. . ...
ROW 3C : ... .. . ... : ... .. . ... : ... .. . ... : ... .. . ... : ... .. . ...
ROW 3D : ... .. . ... : ... .. . ... : ... .. . ... : ... .. . ... : ... .. . ...
ROW 3E : ... .. . ... : ... .. . ... : ... .. . ... : ... .. . ... : ... .. . ...
ROW 3F : ... .. . ... : ... .. . ... : ... .. . ... : ... .. . ... : ... .. . ...
PATTERN 01
ROW 00 : ... .. . ... : C#2 18 . ... : ... .. . ... : ... .. . ... : ... .. . ...
ROW 01 : ... .. . ... : ... .. . ... : ... .. . ... : ... .. . ... : ... .. . ...
ROW 02 : ... .. . ... : C#2 16 . ... : ... .. . ... : ... .. . ... : ... .. . ...
ROW 03 : ... .. . ... : ... .. . ... : ... .. . ... : ... .. . ... : ... .. . ...
ROW 04 : ... .. . ... : C#3 16 . ... : ... .. . ... : ... .. . ... : ... .. . ...
ROW 05 : ... .. . ... : ... .. . ... : ... .. . ... : ... .. . ... : ... .. . ...
ROW 06 : ... .. . ... : C#3 16 . ... : ... .. . ... : ... .. . ... : ... .. . ...
ROW 07 : ... .. . ... : C#2 16 . ... : ... .. . ... : ... .. . ... : ... .. . ...
ROW 08 : ... .. . ... : ... .. . ... : ... .. . ... : ... .. . ... : ... .. . ...
ROW 09 : ... .. . ... : ... .. . ... : ... .. . ... : ... .. . ... : ... .. . ...
ROW 0A : ... .. . ... : ... .. . ... : ... .. . ... : ... .. . ... : ... .. . ...
ROW 0B : ... .. . ... : C#2 16 . ... : ... .. . ... : ... .. . ... : ... .. . ...
ROW 0C : ... .. . ... : E-2 16 . ... : ... .. . ... : ... .. . ... : ... .. . ...
ROW 0D : ... .. . ... : F#2 16 . ... : ... .. . ... : ... .. . ... : ... .. . ...
ROW 0E : ... .. . ... : F#3 16 . ... : ... .. . ... : ... .. . ... : ... .. . ...
ROW 0F : ... .. . ... : G-2 16 . ... : ... .. . ... : ... .. . ... : ... .. . ...
ROW 10 : ... .. . ... : G-3 16 . ... : ... .. . ... : ... .. . ... : ... .. . ...
ROW 11 : ... .. . ... : E-2 16 . ... : ... .. . ... : ... .. . ... : ... .. . ...
ROW 12 : ... .. . ... : G#3 14 . ... : ... .. . ... : ... .. . ... : ... .. . ...
ROW 13 : ... .. . ... : ... .. . ... : ... .. . ... : ... .. . ... : ... .. . ...
ROW 14 : ... .. . ... : ... .. . ... : ... .. . ... : ... .. . ... : ... .. . ...
ROW 15 : ... .. . ... : ... .. . ... : ... .. . ... : ... .. . ... : ... .. . ...
ROW 16 : ... .. . ... : ... .. . ... : ... .. . ... : ... .. . ... : ... .. . ...
ROW 17 : ... .. . ... : ... .. . ... : ... .. . ... : ... .. . ... : ... .. . ...
ROW 18 : ... .. . ... : ... .. . ... : ... .. . ... : ... .. . ... : ... .. . ...
ROW 19 : ... .. . ... : ... .. . ... : ... .. . ... : ... .. . ... : ... .. . ...
ROW 1A : ... .. . ... : ... .. . ... : ... .. . ... : ... .. . ... : ... .. . ...
ROW 1B : ... .. . ... : ... .. . ... : ... .. . ... : ... .. . ... : ... .. . ...
ROW 1C : ... .. . ... : ... .. . ... : ... .. . ... : ... .. . ... : ... .. . ...
ROW 1D : ... .. . ... : ... .. . ... : ... .. . ... : ... .. . ... : ... .. . ...
ROW 1E : ... .. . ... : ... .. . ... : ... .. . ... : ... .. . ... : ... .. . ...
ROW 1F : ... .. . ... : ... .. . ... : ... .. . ... : ... .. . ... : ... .. . ...
ROW 20 : ... .. . ... : ... .. . ... : ... .. . ... : ... .. . ... : ... .. . ...
ROW 21 : ... .. . ... : --- .. . ... : ... .. . ... : ... .. . ... : ... .. . ...
ROW 22 : ... .. . ... : ... .. . ... : ... .. . ... : ... .. . ... : ... .. . ...
ROW 23 : ... .. . ... : ... .. . ... : ... .. . ... : ... .. . ... : ... .. . ...
ROW 24 : ... .. . ... : ... .. . ... : ... .. . ... : ... .. . ... : ... .. . ...
ROW 25 : ... .. . ... : ... .. . ... : ... .. . ... : ... .. . ... : ... .. . ...
ROW 26 : ... .. . ... : ... .. . ... : ... .. . ... : ... .. . ... : ... .. . ...
ROW 27 : ... .. . ... : ... .. . ... : ... .. . ... : ... .. . ... : ... .. . ...
ROW 28 : ... .. . ... : ... .. . ... : ... .. . ... : ... .. . ... : ... .. . ...
ROW 29 : ... .. . ... : ... .. . ... : ... .. . ... : ... .. . ... : ... .. . ...
ROW 2A : ... .. . ... : ... .. . ... : ... .. . ... : ... .. . ... : ... .. . ...
ROW 2B : ... .. . ... : ... .. . ... : ... .. . ... : ... .. . ... : ... .. . ...
ROW 2C : ... .. . ... : ... .. . ... : ... .. . ... : ... .. . ... : ... .. . ...
ROW 2D : ... .. . ... : ... .. . ... : ... .. . ... : ... .. . ... : ... .. . ...
ROW 2E : ... .. . ... : ... .. . ... : ... .. . ... : ... .. . ... : ... .. . ...
ROW 2F : ... .. . ... : ... .. . ... : ... .. . ... : ... .. . ... : ... .. . ...
ROW 30 : ... .. . ... : ... .. . ... : ... .. . ... : ... .. . ... : ... .. . ...
ROW 31 : ... .. . ... : ... .. . ... : ... .. . ... : ... .. . ... : ... .. . ...
ROW 32 : ... .. . ... : ... .. . ... : ... .. . ... : ... .. . ... : ... .. . ...
ROW 33 : ... .. . ... : ... .. . ... : ... .. . ... : ... .. . ... : ... .. . ...
ROW 34 : ... .. . ... : ... .. . ... : ... .. . ... : ... .. . ... : ... .. . ...
ROW 35 : ... .. . ... : ... .. . ... : ... .. . ... : ... .. . ... : ... .. . ...
ROW 36 : ... .. . ... : ... .. . ... : ... .. . ... : ... .. . ... : ... .. . ...
ROW 37 : ... .. . ... : ... .. . ... : ... .. . ... : ... .. . ... : ... .. . ...
ROW 38 : ... .. . ... : ... .. . ... : ... .. . ... : ... .. . ... : ... .. . ...
ROW 39 : ... .. . ... : ... .. . ... : ... .. . ... : ... .. . ... : ... .. . ...
ROW 3A : ... .. . ... : ... .. . ... : ... .. . ... : ... .. . ... : ... .. . ...
ROW 3B : ... .. . ... : ... .. . ... : ... .. . ... : ... .. . ... : ... .. . ...
ROW 3C : ... .. . ... : ... .. . ... : ... .. . ... : ... .. . ... : ... .. . ...
ROW 3D : ... .. . ... : ... .. . ... : ... .. . ... : ... .. . ... : ... .. . ...
ROW 3E : ... .. . ... : ... .. . ... : ... .. . ... : ... .. . ... : ... .. . ...
ROW 3F : ... .. . ... : ... .. . ... : ... .. . ... : ... .. . ... : ... .. . ...

# track BOOKMARKS block

# track HEADER block
TRACK  64   7 150 "Hall Victory"
COLUMNS : 1 1 1 1 1

# track FRAMES block
ORDER 00 : 00 00 00 00 00

# track PATTERNS block
PATTERN 00
ROW 00 : G#1 0C . ... : G#3 1E . ... : G#2 02 . ... : 7-# 04 . F04 : ... .. F ...
ROW 01 : A-1 0C . ... : ... .. . ... : ... .. . ... : 7-# 04 . F03 : ... .. F ...
ROW 02 : C#2 0C . ... : A-3 1E . ... : G#2 01 . ... : 9-# 03 . F04 : ... .. F ...
ROW 03 : D#2 0C . ... : ... .. . ... : ... .. . ... : ... .. . F03 : ... .. F ...
ROW 04 : F#4 14 . ... : G#3 1E . ... : G#2 01 . ... : 9-# 03 . F04 : ... .. . ...
ROW 05 : ... .. . ... : ... .. . ... : ... .. . ... : ... .. . F03 : ... .. . ...
ROW 06 : E-4 14 . ... : D#3 1E . ... : G#2 02 . ... : 7-# 04 . F04 : ... .. . ...
ROW 07 : ... .. . ... : ... .. . ... : G#2 02 . ... : 7-# 04 . F03 : ... .. . ...
ROW 08 : D#4 14 . ... : F#3 1E . ... : G#2 01 . ... : 9-# 03 . F04 : ... .. . ...
ROW 09 : ... .. . ... : ... .. . ... : ... .. . ... : ... .. . F03 : ... .. . ...
ROW 0A : C#4 14 . ... : C-3 1E . ... : E-2 01 . ... : 9-# 03 . F04 : ... .. . ...
ROW 0B : ... .. . ... : ... .. . ... : ... .. . ... : ... .. . F03 : ... .. . ...
ROW 0C : D#4 14 . ... : D#3 1E . ... : F#2 02 . ... : 7-# 04 . F04 : ... .. . ...
ROW 0D : ... .. . ... : ... .. . ... : ... .. . ... : 7-# 04 . F03 : ... .. . ...
ROW 0E : G#4 14 . ... : G#2 1E . ... : G#2 01 . ... : 9-# 03 . F04 : ... .. . ...
ROW 0F : ... .. . ... : ... .. . ... : ... .. . ... : ... .. . F03 : ... .. . ...
ROW 10 : ... .. . ... : ... .. . ... : ... .. . ... : ... .. . F04 : ... .. . ...
ROW 11 : ... .. . ... : ... .. . ... : ... .. . ... : ... .. . F03 : ... .. . ...
ROW 12 : ... .. . ... : ... .. . ... : ... .. . ... : ... .. . F04 : ... .. . ...
ROW 13 : ... .. . ... : ... .. . ... : ... .. . ... : ... .. . F03 : ... .. . ...
ROW 14 : ... .. . ... : ... .. . ... : ... .. . ... : ... .. . F04 : ... .. . ...
ROW 15 : ... .. . ... : ... .. . ... : ... .. . ... : ... .. . F03 : ... .. . ...
ROW 16 : ... .. . ... : ... .. . ... : ... .. . ... : ... .. . F04 : ... .. . ...
ROW 17 : ... .. . ... : ... .. . ... : ... .. . ... : ... .. . F03 : ... .. . ...
ROW 18 : ... .. . ... : ... .. . ... : ... .. . ... : ... .. . F04 : ... .. . ...
ROW 19 : ... .. . ... : ... .. . ... : ... .. . ... : ... .. . F03 : ... .. . ...
ROW 1A : ... .. . ... : ... .. . ... : ... .. . ... : ... .. . F04 : ... .. . ...
ROW 1B : ... .. . ... : ... .. . ... : ... .. . ... : ... .. . F03 : ... .. . ...
ROW 1C : ... .. . ... : ... .. . ... : ... .. . ... : ... .. . F04 : ... .. . ...
ROW 1D : ... .. . ... : ... .. . ... : ... .. . ... : ... .. . F03 : ... .. . ...
ROW 1E : ... .. . ... : ... .. . ... : ... .. . ... : ... .. . F04 : ... .. . ...
ROW 1F : ... .. . ... : ... .. . ... : ... .. . ... : ... .. . F03 : ... .. . ...
ROW 20 : ... .. . ... : ... .. . ... : ... .. . ... : ... .. . F07 : ... .. . ...
ROW 21 : ... .. . ... : ... .. . ... : ... .. . ... : ... .. . ... : ... .. . ...
ROW 22 : ... .. . ... : ... .. . ... : ... .. . ... : ... .. . ... : ... .. . ...
ROW 23 : ... .. . ... : ... .. . ... : ... .. . ... : ... .. . ... : ... .. . ...
ROW 24 : ... .. . ... : ... .. . ... : ... .. . ... : ... .. . ... : ... .. . ...
ROW 25 : ... .. . ... : ... .. . ... : ... .. . ... : ... .. . ... : ... .. . ...
ROW 26 : --- .. . ... : --- .. . ... : --- .. . C00 : ... .. . ... : ... .. . ...
ROW 27 : ... .. . ... : ... .. . ... : ... .. . ... : ... .. . ... : ... .. . ...
ROW 28 : ... .. . ... : ... .. . ... : ... .. . ... : ... .. . ... : ... .. . ...
ROW 29 : ... .. . ... : ... .. . ... : ... .. . ... : ... .. . ... : ... .. . ...
ROW 2A : ... .. . ... : ... .. . ... : ... .. . ... : ... .. . ... : ... .. . ...
ROW 2B : ... .. . ... : ... .. . ... : ... .. . ... : ... .. . ... : ... .. . ...
ROW 2C : ... .. . ... : ... .. . ... : ... .. . ... : ... .. . ... : ... .. . ...
ROW 2D : ... .. . ... : ... .. . ... : ... .. . ... : ... .. . ... : ... .. . ...
ROW 2E : ... .. . ... : ... .. . ... : ... .. . ... : ... .. . ... : ... .. . ...
ROW 2F : ... .. . ... : ... .. . ... : ... .. . ... : ... .. . ... : ... .. . ...
ROW 30 : ... .. . ... : ... .. . ... : ... .. . ... : ... .. . ... : ... .. . ...
ROW 31 : ... .. . ... : ... .. . ... : ... .. . ... : ... .. . ... : ... .. . ...
ROW 32 : ... .. . ... : ... .. . ... : ... .. . ... : ... .. . ... : ... .. . ...
ROW 33 : ... .. . ... : ... .. . ... : ... .. . ... : ... .. . ... : ... .. . ...
ROW 34 : ... .. . ... : ... .. . ... : ... .. . ... : ... .. . ... : ... .. . ...
ROW 35 : ... .. . ... : ... .. . ... : ... .. . ... : ... .. . ... : ... .. . ...
ROW 36 : ... .. . ... : ... .. . ... : ... .. . ... : ... .. . ... : ... .. . ...
ROW 37 : ... .. . ... : ... .. . ... : ... .. . ... : ... .. . ... : ... .. . ...
ROW 38 : ... .. . ... : ... .. . ... : ... .. . ... : ... .. . ... : ... .. . ...
ROW 39 : ... .. . ... : ... .. . ... : ... .. . ... : ... .. . ... : ... .. . ...
ROW 3A : ... .. . ... : ... .. . ... : ... .. . ... : ... .. . ... : ... .. . ...
ROW 3B : ... .. . ... : ... .. . ... : ... .. . ... : ... .. . ... : ... .. . ...
ROW 3C : ... .. . ... : ... .. . ... : ... .. . ... : ... .. . ... : ... .. . ...
ROW 3D : ... .. . ... : ... .. . ... : ... .. . ... : ... .. . ... : ... .. . ...
ROW 3E : ... .. . ... : ... .. . ... : ... .. . ... : ... .. . ... : ... .. . ...
ROW 3F : ... .. . ... : ... .. . ... : ... .. . ... : ... .. . ... : ... .. . ...

# track BOOKMARKS block

# track HEADER block
TRACK  64   7 150 "Goro Victory"
COLUMNS : 1 1 1 1 1

# track FRAMES block
ORDER 00 : 00 00 00 00 00

# track PATTERNS block
PATTERN 00
ROW 00 : E-2 16 . ... : B-2 2B . S06 : E-2 00 . S06 : 2-# 0B . ... : ... .. . ...
ROW 01 : E-2 16 . ... : B-2 2B . S06 : E-2 00 . S06 : 2-# 0B . ... : ... .. . ...
ROW 02 : E-2 16 . ... : B-2 2B . S06 : E-2 00 . S06 : 2-# 0B . ... : ... .. . ...
ROW 03 : E-2 16 . ... : B-2 2B . ... : E-2 00 . ... : 2-# 0B . ... : ... .. . ...
ROW 04 : ... .. . ... : ... .. . ... : ... .. . ... : ... .. . ... : ... .. . ...
ROW 05 : ... .. . ... : ... .. . ... : ... .. . ... : ... .. . ... : ... .. . ...
ROW 06 : E-2 16 . ... : B-2 2B . S06 : E-2 00 . S06 : 2-# 0B . ... : ... .. . ...
ROW 07 : E-2 16 . ... : B-2 2B . S06 : E-2 00 . S06 : 2-# 0B . ... : ... .. . ...
ROW 08 : E-2 16 . ... : B-2 2B . ... : E-2 00 . S06 : 2-# 0B . ... : ... .. . ...
ROW 09 : ... .. . ... : ... .. . ... : E-2 00 . ... : 2-# 0B . ... : ... .. . ...
ROW 0A : ... .. . ... : ... .. . ... : ... .. . ... : ... .. . ... : ... .. . ...
ROW 0B : ... .. . ... : ... .. . ... : ... .. . ... : ... .. . ... : ... .. . ...
ROW 0C : ... .. . ... : ... .. . ... : ... .. . ... : ... .. . ... : ... .. . ...
ROW 0D : ... .. . ... : ... .. . ... : ... .. . ... : ... .. . ... : ... .. . ...
ROW 0E : ... .. . ... : ... .. . ... : ... .. . ... : ... .. . ... : ... .. . ...
ROW 0F : ... .. . ... : ... .. . ... : ... .. . ... : ... .. . ... : ... .. . ...
ROW 10 : --- .. . ... : --- .. . ... : --- .. . ... : 1-# 06 . ... : ... .. . ...
ROW 11 : ... .. . ... : ... .. . ... : ... .. . ... : ... .. . ... : ... .. . ...
ROW 12 : ... .. . ... : ... .. . ... : ... .. . ... : ... .. . C00 : ... .. . ...
ROW 13 : ... .. . ... : ... .. . ... : ... .. . ... : ... .. . ... : ... .. . ...
ROW 14 : ... .. . ... : ... .. . ... : ... .. . ... : ... .. . ... : ... .. . ...
ROW 15 : ... .. . ... : ... .. . ... : ... .. . ... : ... .. . ... : ... .. . ...
ROW 16 : ... .. . ... : ... .. . ... : ... .. . ... : ... .. . ... : ... .. . ...
ROW 17 : ... .. . ... : ... .. . ... : ... .. . ... : ... .. . ... : ... .. . ...
ROW 18 : ... .. . ... : ... .. . ... : ... .. . ... : ... .. . ... : ... .. . ...
ROW 19 : ... .. . ... : ... .. . ... : ... .. . ... : ... .. . ... : ... .. . ...
ROW 1A : ... .. . ... : ... .. . ... : ... .. . ... : ... .. . ... : ... .. . ...
ROW 1B : ... .. . ... : ... .. . ... : ... .. . ... : ... .. . ... : ... .. . ...
ROW 1C : ... .. . ... : ... .. . ... : ... .. . ... : ... .. . ... : ... .. . ...
ROW 1D : ... .. . ... : ... .. . ... : ... .. . ... : ... .. . ... : ... .. . ...
ROW 1E : ... .. . ... : ... .. . ... : ... .. . ... : ... .. . ... : ... .. . ...
ROW 1F : ... .. . ... : ... .. . ... : ... .. . ... : ... .. . ... : ... .. . ...
ROW 20 : ... .. . ... : ... .. . ... : ... .. . ... : ... .. . ... : ... .. . ...
ROW 21 : ... .. . ... : ... .. . ... : ... .. . ... : ... .. . ... : ... .. . ...
ROW 22 : ... .. . ... : ... .. . ... : ... .. . ... : ... .. . ... : ... .. . ...
ROW 23 : ... .. . ... : ... .. . ... : ... .. . ... : ... .. . ... : ... .. . ...
ROW 24 : ... .. . ... : ... .. . ... : ... .. . ... : ... .. . ... : ... .. . ...
ROW 25 : ... .. . ... : ... .. . ... : ... .. . ... : ... .. . ... : ... .. . ...
ROW 26 : ... .. . ... : ... .. . ... : ... .. . ... : ... .. . ... : ... .. . ...
ROW 27 : ... .. . ... : ... .. . ... : ... .. . ... : ... .. . ... : ... .. . ...
ROW 28 : ... .. . ... : ... .. . ... : ... .. . ... : ... .. . ... : ... .. . ...
ROW 29 : ... .. . ... : ... .. . ... : ... .. . ... : ... .. . ... : ... .. . ...
ROW 2A : ... .. . ... : ... .. . ... : ... .. . ... : ... .. . ... : ... .. . ...
ROW 2B : ... .. . ... : ... .. . ... : ... .. . ... : ... .. . ... : ... .. . ...
ROW 2C : ... .. . ... : ... .. . ... : ... .. . ... : ... .. . ... : ... .. . ...
ROW 2D : ... .. . ... : ... .. . ... : ... .. . ... : ... .. . ... : ... .. . ...
ROW 2E : ... .. . ... : ... .. . ... : ... .. . ... : ... .. . ... : ... .. . ...
ROW 2F : ... .. . ... : ... .. . ... : ... .. . ... : ... .. . ... : ... .. . ...
ROW 30 : ... .. . ... : ... .. . ... : ... .. . ... : ... .. . ... : ... .. . ...
ROW 31 : ... .. . ... : ... .. . ... : ... .. . ... : ... .. . ... : ... .. . ...
ROW 32 : ... .. . ... : ... .. . ... : ... .. . ... : ... .. . ... : ... .. . ...
ROW 33 : ... .. . ... : ... .. . ... : ... .. . ... : ... .. . ... : ... .. . ...
ROW 34 : ... .. . ... : ... .. . ... : ... .. . ... : ... .. . ... : ... .. . ...
ROW 35 : ... .. . ... : ... .. . ... : ... .. . ... : ... .. . ... : ... .. . ...
ROW 36 : ... .. . ... : ... .. . ... : ... .. . ... : ... .. . ... : ... .. . ...
ROW 37 : ... .. . ... : ... .. . ... : ... .. . ... : ... .. . ... : ... .. . ...
ROW 38 : ... .. . ... : ... .. . ... : ... .. . ... : ... .. . ... : ... .. . ...
ROW 39 : ... .. . ... : ... .. . ... : ... .. . ... : ... .. . ... : ... .. . ...
ROW 3A : ... .. . ... : ... .. . ... : ... .. . ... : ... .. . ... : ... .. . ...
ROW 3B : ... .. . ... : ... .. . ... : ... .. . ... : ... .. . ... : ... .. . ...
ROW 3C : ... .. . ... : ... .. . ... : ... .. . ... : ... .. . ... : ... .. . ...
ROW 3D : ... .. . ... : ... .. . ... : ... .. . ... : ... .. . ... : ... .. . ...
ROW 3E : ... .. . ... : ... .. . ... : ... .. . ... : ... .. . ... : ... .. . ...
ROW 3F : ... .. . ... : ... .. . ... : ... .. . ... : ... .. . ... : ... .. . ...

# track BOOKMARKS block

# track HEADER block
TRACK  64   9 150 "Entrance Victory"
COLUMNS : 1 1 1 1 1

# track FRAMES block
ORDER 00 : 00 00 00 00 00

# track PATTERNS block
PATTERN 00
ROW 00 : A-3 08 . S08 : ... .. . ... : ... .. . ... : ... .. . ... : ... .. . ...
ROW 01 : G-3 08 . S08 : ... .. . ... : ... .. . ... : ... .. . ... : ... .. . ...
ROW 02 : E-3 08 . S08 : A-3 09 . S08 : ... .. . ... : ... .. . ... : ... .. . ...
ROW 03 : D-3 08 . S08 : G-3 09 . S08 : ... .. . ... : ... .. . ... : ... .. . ...
ROW 04 : A#2 08 . S08 : E-3 09 . S08 : ... .. . ... : ... .. . ... : ... .. . ...
ROW 05 : A-2 08 . S08 : D-3 09 . S08 : ... .. . ... : ... .. . ... : ... .. . ...
ROW 06 : G-2 08 . S08 : A#2 09 . S08 : ... .. . ... : ... .. . ... : ... .. . ...
ROW 07 : E-2 08 . S08 : A-2 09 . S08 : ... .. . ... : ... .. . ... : ... .. . ...
ROW 08 : A#1 08 . ... : G-2 09 . S08 : ... .. . ... : ... .. . ... : ... .. . ...
ROW 09 : ... .. . ... : E-2 09 . S08 : ... .. . ... : ... .. . ... : ... .. . ...
ROW 0A : ... .. . ... : A#1 09 . ... : ... .. . ... : ... .. . ... : ... .. . ...
ROW 0B : ... .. . ... : ... .. . ... : ... .. . ... : ... .. . ... : ... .. . ...
ROW 0C : D#3 14 . ... : A#2 14 . ... : D#2 00 . ... : ... .. . ... : ... .. . ...
ROW 0D : ... .. . ... : ... .. . ... : ... .. . ... : ... .. . ... : ... .. . ...
ROW 0E : ... .. . ... : ... .. . ... : ... .. . ... : ... .. . ... : ... .. . ...
ROW 0F : ... .. . ... : ... .. . ... : ... .. . ... : ... .. . ... : ... .. . ...
ROW 10 : E-3 14 . ... : B-2 14 . ... : E-2 1F . ... : ... .. . ... : ... .. . ...
ROW 11 : ... .. . ... : ... .. . ... : ... .. . ... : ... .. . ... : ... .. . ...
ROW 12 : ... .. . ... : ... .. . ... : ... .. . ... : ... .. . ... : ... .. . ...
ROW 13 : ... .. . ... : ... .. . ... : ... .. . ... : ... .. . ... : ... .. . ...
ROW 14 : ... .. . ... : ... .. . ... : ... .. . ... : ... .. . ... : ... .. . ...
ROW 15 : ... .. . ... : ... .. . ... : ... .. . ... : ... .. . ... : ... .. . ...
ROW 16 : ... .. . ... : ... .. . ... : ... .. . ... : ... .. . ... : ... .. . ...
ROW 17 : ... .. . ... : ... .. . ... : ... .. . ... : ... .. . ... : ... .. . ...
ROW 18 : ... .. . ... : ... .. . ... : ... .. . ... : ... .. . ... : ... .. . ...
ROW 19 : ... .. . ... : ... .. . ... : ... .. . ... : ... .. . ... : ... .. . ...
ROW 1A : ... .. . ... : ... .. . ... : ... .. . ... : ... .. . ... : ... .. . ...
ROW 1B : ... .. . ... : ... .. . ... : ... .. . ... : ... .. . ... : ... .. . ...
ROW 1C : --- .. . C00 : --- .. . ... : --- .. . ... : ... .. . ... : ... .. . ...
ROW 1D : ... .. . ... : ... .. . ... : ... .. . ... : ... .. . ... : ... .. . ...
ROW 1E : ... .. . ... : ... .. . ... : ... .. . ... : ... .. . ... : ... .. . ...
ROW 1F : ... .. . ... : ... .. . ... : ... .. . ... : ... .. . ... : ... .. . ...
ROW 20 : ... .. . ... : ... .. . ... : ... .. . ... : ... .. . ... : ... .. . ...
ROW 21 : ... .. . ... : ... .. . ... : ... .. . ... : ... .. . ... : ... .. . ...
ROW 22 : ... .. . ... : ... .. . ... : ... .. . ... : ... .. . ... : ... .. . ...
ROW 23 : ... .. . ... : ... .. . ... : ... .. . ... : ... .. . ... : ... .. . ...
ROW 24 : ... .. . ... : ... .. . ... : ... .. . ... : ... .. . ... : ... .. . ...
ROW 25 : ... .. . ... : ... .. . ... : ... .. . ... : ... .. . ... : ... .. . ...
ROW 26 : ... .. . ... : ... .. . ... : ... .. . ... : ... .. . ... : ... .. . ...
ROW 27 : ... .. . ... : ... .. . ... : ... .. . ... : ... .. . ... : ... .. . ...
ROW 28 : ... .. . ... : ... .. . ... : ... .. . ... : ... .. . ... : ... .. . ...
ROW 29 : ... .. . ... : ... .. . ... : ... .. . ... : ... .. . ... : ... .. . ...
ROW 2A : ... .. . ... : ... .. . ... : ... .. . ... : ... .. . ... : ... .. . ...
ROW 2B : ... .. . ... : ... .. . ... : ... .. . ... : ... .. . ... : ... .. . ...
ROW 2C : ... .. . ... : ... .. . ... : ... .. . ... : ... .. . ... : ... .. . ...
ROW 2D : ... .. . ... : ... .. . ... : ... .. . ... : ... .. . ... : ... .. . ...
ROW 2E : ... .. . ... : ... .. . ... : ... .. . ... : ... .. . ... : ... .. . ...
ROW 2F : ... .. . ... : ... .. . ... : ... .. . ... : ... .. . ... : ... .. . ...
ROW 30 : ... .. . ... : ... .. . ... : ... .. . ... : ... .. . ... : ... .. . ...
ROW 31 : ... .. . ... : ... .. . ... : ... .. . ... : ... .. . ... : ... .. . ...
ROW 32 : ... .. . ... : ... .. . ... : ... .. . ... : ... .. . ... : ... .. . ...
ROW 33 : ... .. . ... : ... .. . ... : ... .. . ... : ... .. . ... : ... .. . ...
ROW 34 : ... .. . ... : ... .. . ... : ... .. . ... : ... .. . ... : ... .. . ...
ROW 35 : ... .. . ... : ... .. . ... : ... .. . ... : ... .. . ... : ... .. . ...
ROW 36 : ... .. . ... : ... .. . ... : ... .. . ... : ... .. . ... : ... .. . ...
ROW 37 : ... .. . ... : ... .. . ... : ... .. . ... : ... .. . ... : ... .. . ...
ROW 38 : ... .. . ... : ... .. . ... : ... .. . ... : ... .. . ... : ... .. . ...
ROW 39 : ... .. . ... : ... .. . ... : ... .. . ... : ... .. . ... : ... .. . ...
ROW 3A : ... .. . ... : ... .. . ... : ... .. . ... : ... .. . ... : ... .. . ...
ROW 3B : ... .. . ... : ... .. . ... : ... .. . ... : ... .. . ... : ... .. . ...
ROW 3C : ... .. . ... : ... .. . ... : ... .. . ... : ... .. . ... : ... .. . ...
ROW 3D : ... .. . ... : ... .. . ... : ... .. . ... : ... .. . ... : ... .. . ...
ROW 3E : ... .. . ... : ... .. . ... : ... .. . ... : ... .. . ... : ... .. . ...
ROW 3F : ... .. . ... : ... .. . ... : ... .. . ... : ... .. . ... : ... .. . ...

# track BOOKMARKS block

# track HEADER block
TRACK  64   7 150 "Test Your Might"
COLUMNS : 1 1 1 1 1

# track FRAMES block
ORDER 00 : 00 00 00 00 00

# track PATTERNS block
PATTERN 00
ROW 00 : G#4 0D . ... : G#1 0C . ... : C-3 01 . S05 : 9-# 03 . ... : ... .. . F05
ROW 01 : A-4 0D . ... : A-1 0C . ... : ... .. . ... : ... .. . ... : ... .. . ...
ROW 02 : F#4 0D . ... : B-1 0C . ... : ... .. . ... : ... .. . ... : ... .. . ...
ROW 03 : G#4 0D . ... : C-2 0C . ... : ... .. . ... : ... .. . ... : ... .. . ...
ROW 04 : E-4 0D . ... : D#2 0C . ... : ... .. . ... : ... .. . ... : ... .. . ...
ROW 05 : F#4 0D . ... : E-2 0C . ... : ... .. . ... : ... .. . ... : ... .. . ...
ROW 06 : C#4 0D . ... : G#2 0C . ... : C-3 01 . S05 : 9-# 03 . ... : ... .. . ...
ROW 07 : D#4 0D . ... : A-2 0C . ... : ... .. . ... : ... .. . ... : ... .. . ...
ROW 08 : C-4 0D . ... : B-2 0C . ... : ... .. . ... : ... .. . ... : ... .. . ...
ROW 09 : C#4 0D . ... : C-3 0C . ... : ... .. . ... : ... .. . ... : ... .. . ...
ROW 0A : A#3 0D . ... : D#3 0C . ... : ... .. . ... : ... .. . ... : ... .. . ...
ROW 0B : C-4 0D . ... : E-3 0C . ... : C-3 01 . S05 : 9-# 03 . ... : ... .. . ...
ROW 0C : G#3 0D . ... : G#3 0C . ... : ... .. . ... : ... .. . ... : ... .. . ...
ROW 0D : A-3 0D . ... : A-3 0C . ... : ... .. . ... : ... .. . ... : ... .. . ...
ROW 0E : F#3 0D . ... : B-3 0C . ... : ... .. . ... : ... .. . ... : ... .. . ...
ROW 0F : G#3 0D . ... : C-4 0C . ... : C-3 01 . S05 : 9-# 03 . ... : ... .. . ...
ROW 10 : D-3 0D . ... : D#4 0C . ... : ... .. . ... : ... .. . ... : ... .. . ...
ROW 11 : C-4 1E . ... : A-3 1F . ... : ... .. . ... : ... .. . ... : ... .. . ...
ROW 12 : ... .. . ... : ... .. . ... : C-3 01 . S05 : 9-# 03 . ... : ... .. . ...
ROW 13 : ... .. . ... : ... .. . ... : ... .. . ... : ... .. . ... : ... .. . ...
ROW 14 : ... .. . ... : ... .. . ... : C-3 01 . S05 : 9-# 03 . ... : ... .. . ...
ROW 15 : ... .. . ... : ... .. . ... : ... .. . ... : ... .. . ... : ... .. . ...
ROW 16 : ... .. . ... : ... .. . ... : C-3 01 . S05 : 9-# 03 . ... : ... .. . ...
ROW 17 : ... .. . ... : ... .. . ... : C-3 01 . S05 : 9-# 03 . ... : ... .. . ...
ROW 18 : C#4 1E . ... : A-3 1F . ... : D#2 01 . ... : 9-# 03 . ... : ... .. . ...
ROW 19 : ... .. . ... : ... .. . ... : D#2 1F . ... : ... .. . ... : ... .. . ...
ROW 1A : ... .. . ... : ... .. . ... : ... .. . ... : ... .. . ... : ... .. . ...
ROW 1B : ... .. . ... : ... .. . ... : ... .. . ... : ... .. . ... : ... .. . ...
ROW 1C : ... .. . ... : ... .. . ... : ... .. . ... : ... .. . ... : ... .. . ...
ROW 1D : ... .. . ... : ... .. . ... : ... .. . ... : ... .. . ... : ... .. . ...
ROW 1E : ... .. . ... : ... .. . ... : ... .. . ... : ... .. . ... : ... .. . ...
ROW 1F : ... .. . ... : ... .. . ... : ... .. . ... : ... .. . ... : ... .. . ...
ROW 20 : ... .. . ... : ... .. . ... : ... .. . ... : ... .. . ... : ... .. . ...
ROW 21 : ... .. . ... : ... .. . ... : ... .. . ... : ... .. . ... : ... .. . ...
ROW 22 : ... .. . ... : ... .. . ... : ... .. . ... : ... .. . ... : ... .. . ...
ROW 23 : ... .. . ... : ... .. . ... : ... .. . ... : ... .. . ... : ... .. . ...
ROW 24 : ... .. . ... : ... .. . ... : ... .. . ... : ... .. . ... : ... .. . ...
ROW 25 : ... .. . ... : ... .. . ... : ... .. . ... : ... .. . ... : ... .. . ...
ROW 26 : ... .. . ... : ... .. . ... : ... .. . ... : ... .. . ... : ... .. . ...
ROW 27 : ... .. . ... : ... .. . ... : ... .. . ... : ... .. . ... : ... .. . ...
ROW 28 : ... .. . ... : ... .. . ... : ... .. . ... : ... .. . ... : ... .. . ...
ROW 29 : ... .. . ... : ... .. . ... : ... .. . ... : ... .. . ... : ... .. . ...
ROW 2A : --- .. . ... : --- .. . ... : --- .. . C00 : ... .. . ... : ... .. . ...
ROW 2B : ... .. . ... : ... .. . ... : ... .. . ... : ... .. . ... : ... .. . ...
ROW 2C : ... .. . ... : ... .. . ... : ... .. . ... : ... .. . ... : ... .. . ...
ROW 2D : ... .. . ... : ... .. . ... : ... .. . ... : ... .. . ... : ... .. . ...
ROW 2E : ... .. . ... : ... .. . ... : ... .. . ... : ... .. . ... : ... .. . ...
ROW 2F : ... .. . ... : ... .. . ... : ... .. . ... : ... .. . ... : ... .. . ...
ROW 30 : ... .. . ... : ... .. . ... : ... .. . ... : ... .. . ... : ... .. . ...
ROW 31 : ... .. . ... : ... .. . ... : ... .. . ... : ... .. . ... : ... .. . ...
ROW 32 : ... .. . ... : ... .. . ... : ... .. . ... : ... .. . ... : ... .. . ...
ROW 33 : ... .. . ... : ... .. . ... : ... .. . ... : ... .. . ... : ... .. . ...
ROW 34 : ... .. . ... : ... .. . ... : ... .. . ... : ... .. . ... : ... .. . ...
ROW 35 : ... .. . ... : ... .. . ... : ... .. . ... : ... .. . ... : ... .. . ...
ROW 36 : ... .. . ... : ... .. . ... : ... .. . ... : ... .. . ... : ... .. . ...
ROW 37 : ... .. . ... : ... .. . ... : ... .. . ... : ... .. . ... : ... .. . ...
ROW 38 : ... .. . ... : ... .. . ... : ... .. . ... : ... .. . ... : ... .. . ...
ROW 39 : ... .. . ... : ... .. . ... : ... .. . ... : ... .. . ... : ... .. . ...
ROW 3A : ... .. . ... : ... .. . ... : ... .. . ... : ... .. . ... : ... .. . ...
ROW 3B : ... .. . ... : ... .. . ... : ... .. . ... : ... .. . ... : ... .. . ...
ROW 3C : ... .. . ... : ... .. . ... : ... .. . ... : ... .. . ... : ... .. . ...
ROW 3D : ... .. . ... : ... .. . ... : ... .. . ... : ... .. . ... : ... .. . ...
ROW 3E : ... .. . ... : ... .. . ... : ... .. . ... : ... .. . ... : ... .. . ...
ROW 3F : ... .. . ... : ... .. . ... : ... .. . ... : ... .. . ... : ... .. . ...

# track BOOKMARKS block

# track HEADER block
TRACK  64   7 150 "2 Player Vs."
COLUMNS : 1 1 1 1 1

# track FRAMES block
ORDER 00 : 00 00 00 00 00

# track PATTERNS block
PATTERN 00
ROW 00 : F-3 1E . ... : C-3 14 . ... : F-2 02 . ... : 6-# 13 . ... : ... .. . ...
ROW 01 : D#3 1E . ... : A#2 14 . ... : D#2 02 . ... : 6-# 13 . ... : ... .. . ...
ROW 02 : F-3 1E . ... : C-3 14 . ... : F-2 02 . ... : 6-# 13 . ... : ... .. . ...
ROW 03 : ... .. . ... : ... .. . ... : ... .. . ... : ... .. . ... : ... .. . ...
ROW 04 : ... .. . ... : ... .. . ... : ... .. . ... : ... .. . ... : ... .. . ...
ROW 05 : ... .. . ... : ... .. . ... : ... .. . ... : ... .. . ... : ... .. . ...
ROW 06 : ... .. . ... : ... .. . ... : ... .. . ... : ... .. . ... : ... .. . ...
ROW 07 : ... .. . ... : ... .. . ... : ... .. . ... : 2-# 0B . G07 : ... .. . ...
ROW 08 : ... .. . ... : ... .. . ... : ... .. . ... : 2-# 0B . G03 : ... .. . ...
ROW 09 : ... .. . ... : ... .. . ... : ... .. . ... : 2-# 0B . ... : ... .. . ...
ROW 0A : ... .. . ... : ... .. . ... : ... .. . ... : 2-# 0B . ... : ... .. . ...
ROW 0B : ... .. . ... : ... .. . ... : ... .. . ... : 2-# 0B . G03 : ... .. . ...
ROW 0C : ... .. . ... : ... .. . ... : --- .. . ... : ... .. . ... : ... .. . ...
ROW 0D : ... .. . ... : ... .. . ... : ... .. . ... : 2-# 0B . G03 : ... .. . ...
ROW 0E : ... .. . ... : ... .. . ... : ... .. . ... : ... .. . ... : ... .. . ...
ROW 0F : ... .. . ... : ... .. . ... : ... .. . ... : ... .. . ... : ... .. . ...
ROW 10 : ... .. . ... : ... .. . ... : ... .. . ... : 2-# 0B . ... : ... .. . ...
ROW 11 : ... .. . ... : ... .. . ... : ... .. . ... : ... .. . ... : ... .. . ...
ROW 12 : ... .. . ... : ... .. . ... : ... .. . ... : ... .. . ... : ... .. . ...
ROW 13 : --- .. . ... : --- .. . ... : ... .. . ... : 2-# 0B . ... : ... .. . ...
ROW 14 : ... .. . ... : ... .. . ... : ... .. . ... : ... .. . ... : ... .. . ...
ROW 15 : ... .. . ... : ... .. . ... : ... .. . ... : ... .. . ... : ... .. . ...
ROW 16 : ... .. . ... : ... .. . ... : ... .. . ... : ... .. . ... : ... .. . ...
ROW 17 : ... .. . ... : ... .. . ... : ... .. . ... : ... .. . ... : ... .. . ...
ROW 18 : ... .. . ... : ... .. . ... : --- .. . C00 : ... .. . ... : ... .. . ...
ROW 19 : ... .. . ... : ... .. . ... : ... .. . ... : ... .. . ... : ... .. . ...
ROW 1A : ... .. . ... : ... .. . ... : ... .. . ... : ... .. . ... : ... .. . ...
ROW 1B : ... .. . ... : ... .. . ... : ... .. . ... : ... .. . ... : ... .. . ...
ROW 1C : ... .. . ... : ... .. . ... : ... .. . ... : ... .. . ... : ... .. . ...
ROW 1D : ... .. . ... : ... .. . ... : ... .. . ... : ... .. . ... : ... .. . ...
ROW 1E : ... .. . ... : ... .. . ... : ... .. . ... : ... .. . ... : ... .. . ...
ROW 1F : ... .. . ... : ... .. . ... : ... .. . ... : ... .. . ... : ... .. . ...
ROW 20 : ... .. . ... : ... .. . ... : ... .. . ... : ... .. . ... : ... .. . ...
ROW 21 : ... .. . ... : ... .. . ... : ... .. . ... : ... .. . ... : ... .. . ...
ROW 22 : ... .. . ... : ... .. . ... : ... .. . ... : ... .. . ... : ... .. . ...
ROW 23 : ... .. . ... : ... .. . ... : ... .. . ... : ... .. . ... : ... .. . ...
ROW 24 : ... .. . ... : ... .. . ... : ... .. . ... : ... .. . ... : ... .. . ...
ROW 25 : ... .. . ... : ... .. . ... : ... .. . ... : ... .. . ... : ... .. . ...
ROW 26 : ... .. . ... : ... .. . ... : ... .. . ... : ... .. . ... : ... .. . ...
ROW 27 : ... .. . ... : ... .. . ... : ... .. . ... : ... .. . ... : ... .. . ...
ROW 28 : ... .. . ... : ... .. . ... : ... .. . ... : ... .. . ... : ... .. . ...
ROW 29 : ... .. . ... : ... .. . ... : ... .. . ... : ... .. . ... : ... .. . ...
ROW 2A : ... .. . ... : ... .. . ... : ... .. . ... : ... .. . ... : ... .. . ...
ROW 2B : ... .. . ... : ... .. . ... : ... .. . ... : ... .. . ... : ... .. . ...
ROW 2C : ... .. . ... : ... .. . ... : ... .. . ... : ... .. . ... : ... .. . ...
ROW 2D : ... .. . ... : ... .. . ... : ... .. . ... : ... .. . ... : ... .. . ...
ROW 2E : ... .. . ... : ... .. . ... : ... .. . ... : ... .. . ... : ... .. . ...
ROW 2F : ... .. . ... : ... .. . ... : ... .. . ... : ... .. . ... : ... .. . ...
ROW 30 : ... .. . ... : ... .. . ... : ... .. . ... : ... .. . ... : ... .. . ...
ROW 31 : ... .. . ... : ... .. . ... : ... .. . ... : ... .. . ... : ... .. . ...
ROW 32 : ... .. . ... : ... .. . ... : ... .. . ... : ... .. . ... : ... .. . ...
ROW 33 : ... .. . ... : ... .. . ... : ... .. . ... : ... .. . ... : ... .. . ...
ROW 34 : ... .. . ... : ... .. . ... : ... .. . ... : ... .. . ... : ... .. . ...
ROW 35 : ... .. . ... : ... .. . ... : ... .. . ... : ... .. . ... : ... .. . ...
ROW 36 : ... .. . ... : ... .. . ... : ... .. . ... : ... .. . ... : ... .. . ...
ROW 37 : ... .. . ... : ... .. . ... : ... .. . ... : ... .. . ... : ... .. . ...
ROW 38 : ... .. . ... : ... .. . ... : ... .. . ... : ... .. . ... : ... .. . ...
ROW 39 : ... .. . ... : ... .. . ... : ... .. . ... : ... .. . ... : ... .. . ...
ROW 3A : ... .. . ... : ... .. . ... : ... .. . ... : ... .. . ... : ... .. . ...
ROW 3B : ... .. . ... : ... .. . ... : ... .. . ... : ... .. . ... : ... .. . ...
ROW 3C : ... .. . ... : ... .. . ... : ... .. . ... : ... .. . ... : ... .. . ...
ROW 3D : ... .. . ... : ... .. . ... : ... .. . ... : ... .. . ... : ... .. . ...
ROW 3E : ... .. . ... : ... .. . ... : ... .. . ... : ... .. . ... : ... .. . ...
ROW 3F : ... .. . ... : ... .. . ... : ... .. . ... : ... .. . ... : ... .. . ...

# track BOOKMARKS block

# track HEADER block
TRACK  64   7 150 "Modern MK Theme"
COLUMNS : 1 1 1 1 1

# track FRAMES block
ORDER 00 : 04 03 04 01 02
ORDER 01 : 05 03 02 02 01
ORDER 02 : 03 02 01 04 00
ORDER 03 : 06 02 00 00 00
ORDER 04 : 01 01 03 03 00
ORDER 05 : 07 01 00 00 00
ORDER 06 : 08 02 03 03 00

# track PATTERNS block
PATTERN 00
ROW 00 : A-1 00 9 A03 : A-2 00 A A03 : A-2 01 . ... : 7-# 2E . ... : ... .. . ...
ROW 01 : ... .. . ... : ... .. . ... : ... .. . ... : ... .. . ... : ... .. . ...
ROW 02 : ... .. . ... : ... .. . ... : --- .. . ... : ... .. . ... : ... .. . ...
ROW 03 : A-1 00 9 ... : A-2 00 A ... : A-2 00 . ... : ... .. . ... : ... .. . ...
ROW 04 : ... .. . ... : ... .. . ... : A-2 02 . ... : 7-# 37 . ... : ... .. . ...
ROW 05 : ... .. . ... : ... .. . ... : --- .. . ... : ... .. . ... : ... .. . ...
ROW 06 : A-1 00 9 ... : A-2 00 A ... : G-2 00 . ... : ... .. . ... : ... .. . ...
ROW 07 : ... .. . ... : ... .. . ... : ... .. . S02 : ... .. . ... : ... .. . ...
ROW 08 : ... .. . ... : ... .. . ... : A-2 01 . S05 : 9-# 03 . ... : ... .. . ...
ROW 09 : A-1 00 9 ... : A-2 00 A ... : A-2 00 . S05 : B-# 07 . ... : ... .. . ...
ROW 0A : ... .. . ... : ... .. . ... : A-2 00 . S05 : B-# 07 . ... : ... .. . ...
ROW 0B : ... .. . ... : ... .. . ... : ... .. . ... : ... .. . ... : ... .. . ...
ROW 0C : G-1 00 9 ... : G-2 00 A ... : A-2 02 . ... : 7-# 04 . ... : ... .. . ...
ROW 0D : ... .. . ... : ... .. . ... : ... .. . S02 : ... .. . ... : ... .. . ...
ROW 0E : C-2 00 9 ... : C-3 00 A ... : G-2 00 . ... : B-# 07 . ... : ... .. . ...
ROW 0F : ... .. . ... : ... .. . ... : ... .. . S02 : ... .. . ... : ... .. . ...
ROW 10 : A-1 00 9 A03 : A-2 00 A A03 : A-2 01 . ... : 9-# 03 . ... : ... .. . ...
ROW 11 : ... .. . ... : ... .. . ... : ... .. . ... : B-# 07 . ... : ... .. . ...
ROW 12 : ... .. . ... : ... .. . ... : --- .. . ... : B-# 07 . ... : ... .. . ...
ROW 13 : A-1 00 9 ... : A-2 00 A ... : A-2 00 . ... : ... .. . ... : ... .. . ...
ROW 14 : ... .. . ... : ... .. . ... : A-2 02 . ... : 7-# 04 . ... : ... .. . ...
ROW 15 : ... .. . ... : ... .. . ... : --- .. . ... : ... .. . ... : ... .. . ...
ROW 16 : A-1 00 9 ... : A-2 00 A ... : G-2 00 . ... : B-# 07 . ... : ... .. . ...
ROW 17 : ... .. . ... : ... .. . ... : ... .. . S02 : ... .. . ... : ... .. . ...
ROW 18 : ... .. . ... : ... .. . ... : A-2 01 . S05 : 9-# 03 . ... : ... .. . ...
ROW 19 : A-1 00 9 ... : A-2 00 A ... : A-2 00 . S05 : B-# 07 . ... : ... .. . ...
ROW 1A : ... .. . ... : ... .. . ... : A-2 00 . S05 : B-# 07 . ... : ... .. . ...
ROW 1B : ... .. . ... : ... .. . ... : ... .. . ... : ... .. . ... : ... .. . ...
ROW 1C : G-1 00 9 ... : G-2 00 A ... : A-2 02 . ... : 7-# 04 . ... : ... .. . ...
ROW 1D : ... .. . ... : ... .. . ... : ... .. . S02 : ... .. . ... : ... .. . ...
ROW 1E : E-1 00 9 ... : E-2 00 A ... : G-2 00 . ... : B-# 07 . ... : ... .. . ...
ROW 1F : ... .. . ... : ... .. . ... : ... .. . S02 : ... .. . ... : ... .. . ...
ROW 20 : A-1 00 9 A03 : A-2 00 A A03 : A-2 01 . ... : 9-# 03 . ... : ... .. . ...
ROW 21 : ... .. . ... : ... .. . ... : ... .. . ... : B-# 07 . ... : ... .. . ...
ROW 22 : ... .. . ... : ... .. . ... : --- .. . ... : B-# 07 . ... : ... .. . ...
ROW 23 : A-1 00 9 ... : A-2 00 A ... : A-2 00 . ... : ... .. . ... : ... .. . ...
ROW 24 : ... .. . ... : ... .. . ... : A-2 02 . ... : 7-# 04 . ... : ... .. . ...
ROW 25 : ... .. . ... : ... .. . ... : --- .. . ... : ... .. . ... : ... .. . ...
ROW 26 : A-1 00 9 ... : A-2 00 A ... : G-2 00 . ... : B-# 07 . ... : ... .. . ...
ROW 27 : ... .. . ... : ... .. . ... : ... .. . S02 : ... .. . ... : ... .. . ...
ROW 28 : ... .. . ... : ... .. . ... : A-2 01 . S05 : 9-# 03 . ... : ... .. . ...
ROW 29 : A-1 00 9 ... : A-2 00 A ... : A-2 00 . S05 : B-# 07 . ... : ... .. . ...
ROW 2A : ... .. . ... : ... .. . ... : A-2 00 . S05 : B-# 07 . ... : ... .. . ...
ROW 2B : ... .. . ... : ... .. . ... : ... .. . ... : ... .. . ... : ... .. . ...
ROW 2C : G-1 00 9 ... : G-2 00 A ... : A-2 02 . ... : 7-# 04 . ... : ... .. . ...
ROW 2D : ... .. . ... : ... .. . ... : ... .. . S02 : ... .. . ... : ... .. . ...
ROW 2E : C-2 00 9 ... : C-3 00 A ... : G-2 00 . ... : B-# 07 . ... : ... .. . ...
ROW 2F : ... .. . ... : ... .. . ... : ... .. . S02 : ... .. . ... : ... .. . ...
ROW 30 : A-1 00 9 A03 : A-2 00 A A03 : A-2 00 . ... : 8-# 30 . ... : ... .. . ...
ROW 31 : ... .. . ... : ... .. . ... : ... .. . ... : ... .. . ... : ... .. . ...
ROW 32 : ... .. . ... : ... .. . ... : --- .. . ... : ... .. . ... : ... .. . ...
ROW 33 : A-1 00 9 ... : A-2 00 A ... : A-2 00 . ... : ... .. . ... : ... .. . ...
ROW 34 : ... .. . ... : ... .. . ... : ... .. . ... : ... .. . ... : ... .. . ...
ROW 35 : ... .. . ... : ... .. . ... : --- .. . ... : ... .. . ... : ... .. . ...
ROW 36 : A-1 00 9 ... : A-2 00 A ... : G-2 00 . ... : ... .. . ... : ... .. . ...
ROW 37 : ... .. . ... : ... .. . ... : ... .. . S02 : ... .. . ... : ... .. . ...
ROW 38 : A-1 00 9 A05 : A-2 00 A A05 : C-3 00 . S05 : ... .. . ... : ... .. . ...
ROW 39 : A-1 00 9 A03 : A-2 00 A A03 : C-3 00 . S05 : ... .. . ... : ... .. . ...
ROW 3A : ... .. . ... : ... .. . ... : C-3 00 . S05 : ... .. . ... : ... .. . ...
ROW 3B : A-1 00 9 A05 : A-2 00 A A05 : ... .. . ... : ... .. . ... : ... .. . ...
ROW 3C : A-1 00 9 A03 : A-2 00 A A03 : D-3 00 . ... : ... .. . ... : ... .. . ...
ROW 3D : ... .. . ... : ... .. . ... : ... .. . S02 : ... .. . ... : ... .. . ...
ROW 3E : ... .. . ... : ... .. . ... : D-3 00 . ... : ... .. . ... : ... .. . ...
ROW 3F : ... .. . ... : ... .. . ... : ... .. . S02 : ... .. . ... : ... .. . ...
PATTERN 01
ROW 00 : A-3 0C . F06 : A-2 35 . ... : A-2 01 . ... : --- .. . ... : ... .. . F06
ROW 01 : E-4 0C . F07 : E-3 35 . ... : ... .. . ... : ... .. . ... : ... .. . F07
ROW 02 : ... .. . F06 : ... .. . ... : --- .. . ... : ... .. . ... : ... .. . ...
ROW 03 : A-3 0C . F07 : A-2 35 . ... : A-2 00 . ... : ... .. . ... : ... .. . ...
ROW 04 : C-4 0C . F06 : C-3 35 . ... : A-2 00 . ... : ... .. . ... : ... .. . F06
ROW 05 : ... .. . F07 : ... .. . ... : --- .. . ... : ... .. . ... : ... .. . F07
ROW 06 : A-3 0C . F06 : A-2 35 . ... : G-2 00 . ... : ... .. . ... : ... .. . ...
ROW 07 : A#3 0C . F07 : A#2 35 . ... : ... .. . S02 : ... .. . ... : ... .. . ...
ROW 08 : ... .. . F06 : ... .. . ... : A-2 00 . S05 : ... .. . ... : ... .. . F06
ROW 09 : A-3 0C . F07 : A-2 35 . ... : A-2 00 . S05 : ... .. . ... : ... .. . F07
ROW 0A : C-4 0C . F06 : C-3 35 . ... : A-2 00 . S05 : ... .. . ... : ... .. . ...
ROW 0B : ... .. . F07 : ... .. . ... : ... .. . ... : ... .. . ... : ... .. . ...
ROW 0C : A-3 0C . F06 : A-2 35 . ... : A-2 00 . ... : ... .. . ... : ... .. . F06
ROW 0D : A#3 0C . F07 : A#2 35 . ... : ... .. . S02 : ... .. . ... : ... .. . F07
ROW 0E : G-3 0C . F06 : G-2 35 . ... : G-2 00 . ... : ... .. . ... : ... .. . ...
ROW 0F : ... .. . F07 : ... .. . ... : ... .. . S02 : ... .. . ... : ... .. . ...
ROW 10 : A-3 0C . F06 : A-2 35 . ... : A-2 00 . ... : ... .. . ... : ... .. . F06
ROW 11 : E-4 0C . F07 : E-3 35 . ... : ... .. . ... : ... .. . ... : ... .. . F07
ROW 12 : ... .. . F06 : ... .. . ... : --- .. . ... : ... .. . ... : ... .. . ...
ROW 13 : A-3 0C . F07 : A-2 35 . ... : A-2 00 . ... : ... .. . ... : ... .. . ...
ROW 14 : C-4 0C . F06 : C-3 35 . ... : A-2 00 . ... : ... .. . ... : ... .. . F06
ROW 15 : ... .. . F07 : ... .. . ... : --- .. . ... : ... .. . ... : ... .. . F07
ROW 16 : A-3 0C . F06 : A-2 35 . ... : G-2 00 . ... : ... .. . ... : ... .. . ...
ROW 17 : A#3 0C . F07 : A#2 35 . ... : ... .. . S02 : ... .. . ... : ... .. . ...
ROW 18 : ... .. . F06 : ... .. . ... : A-2 00 . S05 : ... .. . ... : ... .. . F06
ROW 19 : A-3 0C . F07 : A-2 35 . ... : A-2 00 . S05 : ... .. . ... : ... .. . F07
ROW 1A : C-4 0C . F06 : C-3 35 . ... : A-2 00 . S05 : ... .. . ... : ... .. . ...
ROW 1B : ... .. . F07 : ... .. . ... : ... .. . ... : ... .. . ... : ... .. . ...
ROW 1C : A-3 0C . F06 : A-2 35 . ... : A-2 00 . ... : ... .. . ... : ... .. . F06
ROW 1D : A#3 0C . F07 : A#2 35 . ... : ... .. . S02 : ... .. . ... : ... .. . F07
ROW 1E : G-3 0C . F06 : G-2 35 . ... : G-2 00 . ... : ... .. . ... : ... .. . ...
ROW 1F : ... .. . F07 : ... .. . ... : ... .. . S02 : ... .. . ... : ... .. . ...
ROW 20 : A-3 0C . F06 : A-2 35 . ... : A-2 00 . ... : ... .. . ... : ... .. . F06
ROW 21 : E-4 0C . F07 : E-3 35 . ... : ... .. . ... : ... .. . ... : ... .. . F07
ROW 22 : ... .. . F06 : ... .. . ... : --- .. . ... : ... .. . ... : ... .. . ...
ROW 23 : A-3 0C . F07 : A-2 35 . ... : A-2 00 . ... : ... .. . ... : ... .. . ...
ROW 24 : C-4 0C . F06 : C-3 35 . ... : A-2 00 . ... : ... .. . ... : ... .. . F06
ROW 25 : ... .. . F07 : ... .. . ... : --- .. . ... : ... .. . ... : ... .. . F07
ROW 26 : A-3 0C . F06 : A-2 35 . ... : G-2 00 . ... : ... .. . ... : ... .. . ...
ROW 27 : A#3 0C . F07 : A#2 35 . ... : ... .. . S02 : ... .. . ... : ... .. . ...
ROW 28 : ... .. . F06 : ... .. . ... : A-2 00 . S05 : ... .. . ... : ... .. . F06
ROW 29 : A-3 0C . F07 : A-2 35 . ... : A-2 00 . S05 : ... .. . ... : ... .. . F07
ROW 2A : C-4 0C . F06 : C-3 35 . ... : A-2 00 . S05 : ... .. . ... : ... .. . ...
ROW 2B : ... .. . F07 : ... .. . ... : ... .. . ... : ... .. . ... : ... .. . ...
ROW 2C : A-3 0C . F06 : A-2 35 . ... : A-2 00 . ... : ... .. . ... : ... .. . F06
ROW 2D : A#3 0C . F07 : A#2 35 . ... : ... .. . S02 : ... .. . ... : ... .. . F07
ROW 2E : G-3 0C . F06 : G-2 35 . ... : G-2 00 . ... : ... .. . ... : ... .. . ...
ROW 2F : ... .. . F07 : ... .. . ... : ... .. . S02 : ... .. . ... : ... .. . ...
ROW 30 : A-3 0C . F06 : A-2 35 . ... : A-2 00 . ... : ... .. . ... : C-3 36 . F06
ROW 31 : E-4 0C . F07 : E-3 35 . ... : ... .. . ... : ... .. . ... : ... .. . F07
ROW 32 : ... .. . F06 : ... .. . ... : --- .. . ... : ... .. . ... : ... .. . ...
ROW 33 : A-3 0C . F07 : A-2 35 . ... : A-2 00 . ... : ... .. . ... : ... .. . ...
ROW 34 : C-4 0C . F06 : C-3 35 . ... : ... .. . ... : ... .. . ... : ... .. . F06
ROW 35 : ... .. . F07 : ... .. . ... : --- .. . ... : ... .. . ... : ... .. . F07
ROW 36 : G-3 0C . F06 : G-2 35 . ... : G-2 00 . ... : ... .. . ... : ... .. . ...
ROW 37 : G-3 0C . F07 : G-2 35 . ... : ... .. . S02 : ... .. . ... : ... .. . ...
ROW 38 : ... .. . F06 : ... .. . ... : C-3 00 . S05 : ... .. . ... : D-3 36 . F06
ROW 39 : G-3 0C . F07 : G-2 35 . ... : C-3 00 . S05 : ... .. . ... : ... .. . F07
ROW 3A : A-3 0C . F06 : A-2 35 . ... : C-3 00 . S05 : ... .. . ... : ... .. . ...
ROW 3B : ... .. . F07 : ... .. . ... : ... .. . ... : ... .. . ... : ... .. . ...
ROW 3C : A-3 0C . F06 : A-2 35 . ... : D-3 00 . ... : ... .. . ... : ... .. . F06
ROW 3D : ... .. . F07 : ... .. . ... : ... .. . S02 : ... .. . ... : ... .. . F07
ROW 3E : ... .. . F06 : ... .. . ... : D-3 00 . ... : ... .. . ... : ... .. . ...
ROW 3F : ... .. . F07 : ... .. . ... : ... .. . S02 : ... .. . ... : ... .. . ...
PATTERN 02
ROW 00 : A-2 30 6 V02 : A-2 2F . ... : C-2 01 . S05 : 7-# 2E . ... : ... .. . F06
ROW 01 : ... .. . ... : ... .. . ... : ... .. . ... : ... .. . ... : ... .. . F07
ROW 02 : ... .. . ... : ... .. . ... : ... .. . ... : ... .. . ... : ... .. . ...
ROW 03 : A-2 30 6 ... : A-2 2F . ... : ... .. . ... : ... .. . ... : ... .. . ...
ROW 04 : ... .. . ... : ... .. . ... : ... .. . ... : ... .. . ... : ... .. . F06
ROW 05 : ... .. . ... : ... .. . ... : ... .. . ... : ... .. . ... : ... .. . F07
ROW 06 : A-2 30 6 ... : A-2 2F . ... : ... .. . ... : ... .. . ... : ... .. . ...
ROW 07 : ... .. . ... : ... .. . ... : ... .. . ... : ... .. . ... : ... .. . ...
ROW 08 : ... .. . ... : ... .. . ... : ... .. . ... : ... .. . ... : ... .. . F06
ROW 09 : A-2 30 6 ... : A-2 2F . ... : ... .. . ... : ... .. . ... : ... .. . F07
ROW 0A : ... .. . ... : ... .. . ... : ... .. . ... : ... .. . ... : ... .. . ...
ROW 0B : ... .. . ... : ... .. . ... : ... .. . ... : ... .. . ... : ... .. . ...
ROW 0C : G-2 30 6 ... : G-2 2F . ... : ... .. . ... : ... .. . ... : ... .. . F06
ROW 0D : ... .. . ... : ... .. . ... : ... .. . ... : ... .. . ... : ... .. . F07
ROW 0E : C-3 30 6 ... : C-3 2F . ... : ... .. . ... : ... .. . ... : ... .. . ...
ROW 0F : ... .. . ... : ... .. . ... : ... .. . ... : ... .. . ... : ... .. . ...
ROW 10 : A-2 30 6 ... : A-2 2F . ... : ... .. . ... : ... .. . ... : ... .. . F06
ROW 11 : ... .. . ... : ... .. . ... : ... .. . ... : ... .. . ... : ... .. . F07
ROW 12 : ... .. . ... : ... .. . ... : ... .. . ... : ... .. . ... : ... .. . ...
ROW 13 : A-2 30 6 ... : A-2 2F . ... : ... .. . ... : ... .. . ... : ... .. . ...
ROW 14 : ... .. . ... : ... .. . ... : ... .. . ... : ... .. . ... : ... .. . F06
ROW 15 : ... .. . ... : ... .. . ... : ... .. . ... : ... .. . ... : ... .. . F07
ROW 16 : A-2 30 6 ... : A-2 2F . ... : ... .. . ... : ... .. . ... : ... .. . ...
ROW 17 : ... .. . ... : ... .. . ... : ... .. . ... : ... .. . ... : ... .. . ...
ROW 18 : ... .. . ... : ... .. . ... : ... .. . ... : ... .. . ... : ... .. . F06
ROW 19 : A-2 30 6 ... : A-2 2F . ... : ... .. . ... : ... .. . ... : ... .. . F07
ROW 1A : ... .. . ... : ... .. . ... : ... .. . ... : ... .. . ... : ... .. . ...
ROW 1B : ... .. . ... : ... .. . ... : ... .. . ... : ... .. . ... : ... .. . ...
ROW 1C : G-2 30 6 ... : G-2 2F . ... : ... .. . ... : ... .. . ... : ... .. . F06
ROW 1D : ... .. . ... : ... .. . ... : ... .. . ... : ... .. . ... : ... .. . F07
ROW 1E : E-2 30 6 ... : E-2 2F . ... : ... .. . ... : ... .. . ... : ... .. . ...
ROW 1F : ... .. . ... : ... .. . ... : ... .. . ... : ... .. . ... : ... .. . ...
ROW 20 : A-2 30 6 ... : A-2 2F . ... : ... .. . ... : ... .. . ... : ... .. . F06
ROW 21 : ... .. . ... : ... .. . ... : ... .. . ... : ... .. . ... : ... .. . F07
ROW 22 : ... .. . ... : ... .. . ... : ... .. . ... : ... .. . ... : ... .. . ...
ROW 23 : A-2 30 6 ... : A-2 2F . ... : ... .. . ... : ... .. . ... : ... .. . ...
ROW 24 : ... .. . ... : ... .. . ... : ... .. . ... : ... .. . ... : ... .. . F06
ROW 25 : ... .. . ... : ... .. . ... : ... .. . ... : ... .. . ... : ... .. . F07
ROW 26 : A-2 30 6 ... : A-2 2F . ... : ... .. . ... : ... .. . ... : ... .. . ...
ROW 27 : ... .. . ... : ... .. . ... : ... .. . ... : ... .. . ... : ... .. . ...
ROW 28 : ... .. . ... : ... .. . ... : ... .. . ... : ... .. . ... : ... .. . F06
ROW 29 : A-2 30 6 ... : A-2 2F . ... : ... .. . ... : ... .. . ... : ... .. . F07
ROW 2A : ... .. . ... : ... .. . ... : ... .. . ... : ... .. . ... : ... .. . ...
ROW 2B : ... .. . ... : ... .. . ... : ... .. . ... : ... .. . ... : ... .. . ...
ROW 2C : G-2 30 6 ... : G-2 2F . ... : ... .. . ... : ... .. . ... : ... .. . F06
ROW 2D : ... .. . ... : ... .. . ... : ... .. . ... : ... .. . ... : ... .. . F07
ROW 2E : C-3 30 6 ... : C-3 2F . ... : ... .. . ... : ... .. . ... : ... .. . ...
ROW 2F : ... .. . ... : ... .. . ... : ... .. . ... : ... .. . ... : ... .. . ...
ROW 30 : A-2 30 6 ... : A-2 2F . ... : ... .. . ... : --- 33 . ... : ... .. . F06
ROW 31 : ... .. . ... : ... .. . ... : ... .. . ... : ... .. . ... : ... .. . F07
ROW 32 : ... .. . ... : ... .. . ... : ... .. . ... : ... .. . ... : ... .. . ...
ROW 33 : A-2 30 6 ... : A-2 2F . ... : ... .. . ... : ... .. . ... : ... .. . ...
ROW 34 : ... .. . ... : ... .. . ... : ... .. . ... : ... .. . ... : ... .. . F06
ROW 35 : ... .. . ... : ... .. . ... : ... .. . ... : ... .. . ... : ... .. . F07
ROW 36 : A-2 30 6 ... : A-2 2F . ... : ... .. . ... : ... .. . ... : ... .. . ...
ROW 37 : ... .. . ... : ... .. . ... : ... .. . ... : ... .. . ... : ... .. . ...
ROW 38 : A-2 30 6 ... : A-2 2F . ... : ... .. . ... : --- .. . ... : ... .. . F06
ROW 39 : A-2 30 6 ... : A-2 2F . ... : ... .. . ... : ... .. . ... : ... .. . F07
ROW 3A : ... .. . ... : ... .. . ... : ... .. . ... : ... .. . ... : ... .. . ...
ROW 3B : A-2 30 6 ... : A-2 2F . ... : ... .. . ... : ... .. . ... : ... .. . ...
ROW 3C : A-2 30 6 ... : A-2 2F . ... : ... .. . ... : ... .. . ... : ... .. . F06
ROW 3D : ... .. . ... : ... .. . ... : ... .. . ... : ... .. . ... : ... .. . F07
ROW 3E : ... .. . ... : ... .. . ... : ... .. . ... : ... .. . ... : ... .. . ...
ROW 3F : ... .. . ... : ... .. . ... : ... .. . ... : ... .. . ... : ... .. . ...
PATTERN 03
ROW 00 : A-3 0C . F06 : A-3 31 . ... : A-2 01 . ... : 7-# 2E . ... : ... .. . ...
ROW 01 : ... .. . F07 : B-3 34 . ... : ... .. . ... : ... .. . ... : ... .. . ...
ROW 02 : ... .. . F06 : A-3 31 . ... : --- .. . ... : ... .. . ... : ... .. . ...
ROW 03 : A-3 0C . F07 : A-3 34 . ... : A-2 00 . ... : ... .. . ... : ... .. . ...
ROW 04 : ... .. . F06 : C-4 31 . ... : A-2 02 . ... : 7-# 37 . ... : ... .. . ...
ROW 05 : ... .. . F07 : A-3 34 . ... : --- .. . ... : ... .. . ... : ... .. . ...
ROW 06 : A-3 0C . F06 : A-3 31 . ... : G-2 00 . ... : ... .. . ... : ... .. . ...
ROW 07 : ... .. . F07 : C-4 34 . ... : ... .. . S02 : ... .. . ... : ... .. . ...
ROW 08 : ... .. . F06 : D-4 31 . ... : A-2 01 . S05 : 9-# 03 . ... : ... .. . ...
ROW 09 : A-3 0C . F07 : A-3 34 . ... : A-2 00 . S05 : B-# 07 . ... : ... .. . ...
ROW 0A : ... .. . F06 : A-3 31 . ... : A-2 00 . S05 : B-# 07 . ... : ... .. . ...
ROW 0B : ... .. . F07 : D-4 34 . ... : ... .. . ... : ... .. . ... : ... .. . ...
ROW 0C : G-3 0C . F06 : E-4 31 . ... : A-2 02 . ... : 7-# 04 . ... : ... .. . ...
ROW 0D : ... .. . F07 : A-3 34 . ... : ... .. . S02 : ... .. . ... : ... .. . ...
ROW 0E : C-4 0C . F06 : D-4 31 . ... : G-2 00 . ... : B-# 07 . ... : ... .. . ...
ROW 0F : ... .. . F07 : E-4 34 . ... : ... .. . S02 : ... .. . ... : ... .. . ...
ROW 10 : A-3 0C . F06 : C-4 31 . ... : A-2 01 . ... : 9-# 03 . ... : ... .. . ...
ROW 11 : ... .. . F07 : D-4 34 . ... : ... .. . ... : B-# 07 . ... : ... .. . ...
ROW 12 : ... .. . F06 : C-4 31 . ... : --- .. . ... : B-# 07 . ... : ... .. . ...
ROW 13 : A-3 0C . F07 : C-4 34 . ... : A-2 00 . ... : ... .. . ... : ... .. . ...
ROW 14 : ... .. . F06 : E-4 31 . ... : A-2 02 . ... : 7-# 04 . ... : ... .. . ...
ROW 15 : ... .. . F07 : C-4 34 . ... : --- .. . ... : ... .. . ... : ... .. . ...
ROW 16 : A-3 0C . F06 : C-4 31 . ... : G-2 00 . ... : B-# 07 . ... : ... .. . ...
ROW 17 : ... .. . F07 : E-4 34 . ... : ... .. . S02 : ... .. . ... : ... .. . ...
ROW 18 : ... .. . F06 : G-4 31 . ... : A-2 01 . S05 : 9-# 03 . ... : ... .. . ...
ROW 19 : A-3 0C . F07 : C-4 34 . ... : A-2 00 . S05 : B-# 07 . ... : ... .. . ...
ROW 1A : ... .. . F06 : C-4 31 . ... : A-2 00 . S05 : B-# 07 . ... : ... .. . ...
ROW 1B : ... .. . F07 : G-4 34 . ... : ... .. . ... : ... .. . ... : ... .. . ...
ROW 1C : G-3 0C . F06 : E-4 31 . ... : A-2 02 . ... : 7-# 04 . ... : ... .. . ...
ROW 1D : ... .. . F07 : C-4 34 . ... : ... .. . S02 : ... .. . ... : ... .. . ...
ROW 1E : E-3 0C . F06 : C-4 31 . ... : G-2 00 . ... : B-# 07 . ... : ... .. . ...
ROW 1F : ... .. . F07 : E-4 34 . ... : ... .. . S02 : ... .. . ... : ... .. . ...
ROW 20 : A-3 0C . F06 : G-3 31 . ... : A-2 01 . ... : 9-# 03 . ... : ... .. . ...
ROW 21 : ... .. . F07 : C-4 34 . ... : ... .. . ... : B-# 07 . ... : ... .. . ...
ROW 22 : ... .. . F06 : G-3 31 . ... : --- .. . ... : B-# 07 . ... : ... .. . ...
ROW 23 : A-3 0C . F07 : G-3 34 . ... : A-2 00 . ... : ... .. . ... : ... .. . ...
ROW 24 : ... .. . F06 : B-3 31 . ... : A-2 02 . ... : 7-# 04 . ... : ... .. . ...
ROW 25 : ... .. . F07 : G-3 34 . ... : --- .. . ... : ... .. . ... : ... .. . ...
ROW 26 : A-3 0C . F06 : G-3 31 . ... : G-2 00 . ... : B-# 07 . ... : ... .. . ...
ROW 27 : ... .. . F07 : B-3 34 . ... : ... .. . S02 : ... .. . ... : ... .. . ...
ROW 28 : ... .. . F06 : C-4 31 . ... : A-2 01 . S05 : 9-# 03 . ... : ... .. . ...
ROW 29 : A-3 0C . F07 : G-3 34 . ... : A-2 00 . S05 : B-# 07 . ... : ... .. . ...
ROW 2A : ... .. . F06 : G-3 31 . ... : A-2 00 . S05 : B-# 07 . ... : ... .. . ...
ROW 2B : ... .. . F07 : C-4 34 . ... : ... .. . ... : ... .. . ... : ... .. . ...
ROW 2C : G-3 0C . F06 : D-4 31 . ... : A-2 02 . ... : 7-# 04 . ... : ... .. . ...
ROW 2D : ... .. . F07 : G-3 34 . ... : ... .. . S02 : ... .. . ... : ... .. . ...
ROW 2E : C-4 0C . F06 : C-4 31 . ... : G-2 00 . ... : B-# 07 . ... : ... .. . ...
ROW 2F : ... .. . F07 : D-4 34 . ... : ... .. . S02 : ... .. . ... : ... .. . ...
ROW 30 : A-3 0C . F06 : F-3 31 . ... : A-2 01 . ... : 9-# 03 . ... : ... .. . ...
ROW 31 : ... .. . F07 : C-4 34 . ... : ... .. . ... : B-# 07 . ... : ... .. . ...
ROW 32 : ... .. . F06 : F-3 31 . ... : --- .. . ... : B-# 07 . ... : ... .. . ...
ROW 33 : A-3 0C . F07 : F-3 34 . ... : A-2 00 . ... : ... .. . ... : ... .. . ...
ROW 34 : ... .. . F06 : A-3 31 . ... : A-2 02 . ... : 7-# 04 . ... : ... .. . ...
ROW 35 : ... .. . F07 : F-3 34 . ... : --- .. . ... : ... .. . ... : ... .. . ...
ROW 36 : A-3 0C . F06 : F-3 31 . ... : G-2 00 . ... : B-# 07 . ... : ... .. . ...
ROW 37 : ... .. . F07 : A-3 34 . ... : ... .. . S02 : ... .. . ... : ... .. . ...
ROW 38 : A-3 0C . F06 : C-4 31 . ... : C-3 01 . S05 : 9-# 03 . ... : ... .. . ...
ROW 39 : A-3 0C . F07 : F-3 34 . ... : C-3 00 . S05 : B-# 07 . ... : ... .. . ...
ROW 3A : ... .. . F06 : F-3 31 . ... : C-3 00 . S05 : B-# 07 . ... : ... .. . ...
ROW 3B : A-3 0C . F07 : C-4 34 . ... : ... .. . ... : ... .. . ... : ... .. . ...
ROW 3C : A-3 0C . F06 : C-4 31 . ... : D-3 02 . ... : 7-# 04 . ... : ... .. . ...
ROW 3D : ... .. . F07 : F-3 34 . ... : ... .. . S02 : ... .. . ... : ... .. . ...
ROW 3E : ... .. . F06 : B-3 31 . ... : D-3 00 . ... : B-# 07 . ... : ... .. . ...
ROW 3F : ... .. . F07 : C-4 34 . ... : ... .. . S02 : ... .. . ... : ... .. . ...
PATTERN 04
ROW 00 : A-2 32 . F06 : ... .. . ... : ... .. . ... : 7-# 2E . ... : ... .. . ...
ROW 01 : ... .. . F07 : ... .. . ... : ... .. . ... : ... .. . ... : ... .. . ...
ROW 02 : ... .. . ... : ... .. . ... : ... .. . ... : ... .. . ... : ... .. . ...
ROW 03 : ... .. . ... : ... .. . ... : ... .. . ... : ... .. . ... : ... .. . ...
ROW 04 : ... .. . F06 : ... .. . ... : ... .. . ... : ... .. . ... : ... .. . ...
ROW 05 : ... .. . F07 : ... .. . ... : ... .. . ... : ... .. . ... : ... .. . ...
ROW 06 : ... .. . ... : ... .. . ... : ... .. . ... : ... .. . ... : ... .. . ...
ROW 07 : ... .. . ... : ... .. . ... : ... .. . ... : ... .. . ... : ... .. . ...
ROW 08 : ... .. . F06 : ... .. . ... : ... .. . ... : ... .. . ... : ... .. . ...
ROW 09 : ... .. . F07 : ... .. . ... : ... .. . ... : ... .. . ... : ... .. . ...
ROW 0A : ... .. . ... : ... .. . ... : ... .. . ... : ... .. . ... : ... .. . ...
ROW 0B : ... .. . ... : ... .. . ... : ... .. . ... : ... .. . ... : ... .. . ...
ROW 0C : ... .. . F06 : ... .. . ... : ... .. . ... : ... .. . ... : ... .. . ...
ROW 0D : ... .. . F07 : ... .. . ... : ... .. . ... : ... .. . ... : ... .. . ...
ROW 0E : ... .. . ... : ... .. . ... : ... .. . ... : ... .. . ... : ... .. . ...
ROW 0F : ... .. . ... : ... .. . ... : ... .. . ... : ... .. . ... : ... .. . ...
ROW 10 : C-3 32 . F06 : ... .. . ... : ... .. . ... : ... .. . ... : ... .. . ...
ROW 11 : ... .. . F07 : ... .. . ... : ... .. . ... : ... .. . ... : ... .. . ...
ROW 12 : ... .. . ... : ... .. . ... : ... .. . ... : ... .. . ... : ... .. . ...
ROW 13 : ... .. . ... : ... .. . ... : ... .. . ... : ... .. . ... : ... .. . ...
ROW 14 : ... .. . F06 : ... .. . ... : ... .. . ... : ... .. . ... : ... .. . ...
ROW 15 : ... .. . F07 : ... .. . ... : ... .. . ... : ... .. . ... : ... .. . ...
ROW 16 : ... .. . ... : ... .. . ... : ... .. . ... : ... .. . ... : ... .. . ...
ROW 17 : ... .. . ... : ... .. . ... : ... .. . ... : ... .. . ... : ... .. . ...
ROW 18 : ... .. . F06 : ... .. . ... : ... .. . ... : ... .. . ... : ... .. . ...
ROW 19 : ... .. . F07 : ... .. . ... : ... .. . ... : ... .. . ... : ... .. . ...
ROW 1A : ... .. . ... : ... .. . ... : ... .. . ... : ... .. . ... : ... .. . ...
ROW 1B : ... .. . ... : ... .. . ... : ... .. . ... : ... .. . ... : ... .. . ...
ROW 1C : ... .. . F06 : ... .. . ... : ... .. . ... : ... .. . ... : ... .. . ...
ROW 1D : ... .. . F07 : ... .. . ... : ... .. . ... : ... .. . ... : ... .. . ...
ROW 1E : ... .. . ... : ... .. . ... : ... .. . ... : ... .. . ... : ... .. . ...
ROW 1F : ... .. . ... : ... .. . ... : ... .. . ... : ... .. . ... : ... .. . ...
ROW 20 : G-2 32 . F06 : ... .. . ... : ... .. . ... : ... .. . ... : ... .. . ...
ROW 21 : ... .. . F07 : ... .. . ... : ... .. . ... : ... .. . ... : ... .. . ...
ROW 22 : ... .. . ... : ... .. . ... : ... .. . ... : ... .. . ... : ... .. . ...
ROW 23 : ... .. . ... : ... .. . ... : ... .. . ... : ... .. . ... : ... .. . ...
ROW 24 : ... .. . F06 : ... .. . ... : ... .. . ... : ... .. . ... : ... .. . ...
ROW 25 : ... .. . F07 : ... .. . ... : ... .. . ... : ... .. . ... : ... .. . ...
ROW 26 : ... .. . ... : ... .. . ... : ... .. . ... : ... .. . ... : ... .. . ...
ROW 27 : ... .. . ... : ... .. . ... : ... .. . ... : ... .. . ... : ... .. . ...
ROW 28 : ... .. . F06 : ... .. . ... : ... .. . ... : ... .. . ... : ... .. . ...
ROW 29 : ... .. . F07 : ... .. . ... : ... .. . ... : ... .. . ... : ... .. . ...
ROW 2A : ... .. . ... : ... .. . ... : ... .. . ... : ... .. . ... : ... .. . ...
ROW 2B : ... .. . ... : ... .. . ... : ... .. . ... : ... .. . ... : ... .. . ...
ROW 2C : ... .. . F06 : ... .. . ... : ... .. . ... : ... .. . ... : ... .. . ...
ROW 2D : ... .. . F07 : ... .. . ... : ... .. . ... : ... .. . ... : ... .. . ...
ROW 2E : ... .. . ... : ... .. . ... : ... .. . ... : ... .. . ... : ... .. . ...
ROW 2F : ... .. . ... : ... .. . ... : ... .. . ... : ... .. . ... : ... .. . ...
ROW 30 : F-2 32 . F06 : ... .. . ... : ... .. . ... : 8-# 30 . ... : ... .. . ...
ROW 31 : ... .. . F07 : ... .. . ... : ... .. . ... : ... .. . ... : ... .. . ...
ROW 32 : ... .. . ... : ... .. . ... : ... .. . ... : ... .. . ... : ... .. . ...
ROW 33 : ... .. . ... : ... .. . ... : ... .. . ... : ... .. . ... : ... .. . ...
ROW 34 : ... .. . F06 : ... .. . ... : ... .. . ... : ... .. . ... : ... .. . ...
ROW 35 : ... .. . F07 : ... .. . ... : ... .. . ... : ... .. . ... : ... .. . ...
ROW 36 : ... .. . ... : ... .. . ... : ... .. . ... : ... .. . ... : ... .. . ...
ROW 37 : ... .. . ... : ... .. . ... : ... .. . ... : ... .. . ... : ... .. . ...
ROW 38 : ... .. . F06 : ... .. . ... : ... .. . ... : ... .. . ... : ... .. . ...
ROW 39 : ... .. . F07 : ... .. . ... : ... .. . ... : ... .. . ... : ... .. . ...
ROW 3A : ... .. . ... : ... .. . ... : ... .. . ... : ... .. . ... : ... .. . ...
ROW 3B : ... .. . ... : ... .. . ... : ... .. . ... : ... .. . ... : ... .. . ...
ROW 3C : ... .. . F06 : ... .. . ... : ... .. . ... : ... .. . ... : ... .. . ...
ROW 3D : ... .. . F07 : ... .. . ... : ... .. . ... : ... .. . ... : ... .. . ...
ROW 3E : ... .. . ... : ... .. . ... : ... .. . ... : ... .. . ... : ... .. . ...
ROW 3F : ... .. . ... : ... .. . ... : ... .. . ... : ... .. . ... : ... .. . ...
PATTERN 05
ROW 00 : A-1 0C . F06 : ... .. . ... : ... .. . ... : ... .. . ... : ... .. . ...
ROW 01 : A-1 0C . F07 : ... .. . ... : ... .. . ... : ... .. . ... : ... .. . ...
ROW 02 : A-1 0C . ... : ... .. . ... : ... .. . ... : ... .. . ... : ... .. . ...
ROW 03 : A-1 0C . ... : ... .. . ... : ... .. . ... : ... .. . ... : ... .. . ...
ROW 04 : A-1 0C . F06 : ... .. . ... : ... .. . ... : ... .. . ... : ... .. . ...
ROW 05 : A-1 0C . F07 : ... .. . ... : ... .. . ... : ... .. . ... : ... .. . ...
ROW 06 : G-1 0C . ... : ... .. . ... : ... .. . ... : ... .. . ... : ... .. . ...
ROW 07 : G-1 0C . ... : ... .. . ... : ... .. . ... : ... .. . ... : ... .. . ...
ROW 08 : A-1 0C . F06 : ... .. . ... : ... .. . ... : ... .. . ... : ... .. . ...
ROW 09 : A-1 0C . F07 : ... .. . ... : ... .. . ... : ... .. . ... : ... .. . ...
ROW 0A : A-1 0C . ... : ... .. . ... : ... .. . ... : ... .. . ... : ... .. . ...
ROW 0B : A-1 0C . ... : ... .. . ... : ... .. . ... : ... .. . ... : ... .. . ...
ROW 0C : A-1 0C . F06 : ... .. . ... : ... .. . ... : ... .. . ... : ... .. . ...
ROW 0D : A-1 0C . F07 : ... .. . ... : ... .. . ... : ... .. . ... : ... .. . ...
ROW 0E : G-1 0C . ... : ... .. . ... : ... .. . ... : ... .. . ... : ... .. . ...
ROW 0F : G-1 0C . ... : ... .. . ... : ... .. . ... : ... .. . ... : ... .. . ...
ROW 10 : A-1 0C . F06 : ... .. . ... : ... .. . ... : ... .. . ... : ... .. . ...
ROW 11 : A-1 0C . F07 : ... .. . ... : ... .. . ... : ... .. . ... : ... .. . ...
ROW 12 : A-1 0C . ... : ... .. . ... : ... .. . ... : ... .. . ... : ... .. . ...
ROW 13 : A-1 0C . ... : ... .. . ... : ... .. . ... : ... .. . ... : ... .. . ...
ROW 14 : A-1 0C . F06 : ... .. . ... : ... .. . ... : ... .. . ... : ... .. . ...
ROW 15 : A-1 0C . F07 : ... .. . ... : ... .. . ... : ... .. . ... : ... .. . ...
ROW 16 : G-1 0C . ... : ... .. . ... : ... .. . ... : ... .. . ... : ... .. . ...
ROW 17 : G-1 0C . ... : ... .. . ... : ... .. . ... : ... .. . ... : ... .. . ...
ROW 18 : A-1 0C . F06 : ... .. . ... : ... .. . ... : ... .. . ... : ... .. . ...
ROW 19 : A-1 0C . F07 : ... .. . ... : ... .. . ... : ... .. . ... : ... .. . ...
ROW 1A : A-1 0C . ... : ... .. . ... : ... .. . ... : ... .. . ... : ... .. . ...
ROW 1B : A-1 0C . ... : ... .. . ... : ... .. . ... : ... .. . ... : ... .. . ...
ROW 1C : A-1 0C . F06 : ... .. . ... : ... .. . ... : ... .. . ... : ... .. . ...
ROW 1D : A-1 0C . F07 : ... .. . ... : ... .. . ... : ... .. . ... : ... .. . ...
ROW 1E : G-1 0C . ... : ... .. . ... : ... .. . ... : ... .. . ... : ... .. . ...
ROW 1F : G-1 0C . ... : ... .. . ... : ... .. . ... : ... .. . ... : ... .. . ...
ROW 20 : A-1 0C . F06 : ... .. . ... : ... .. . ... : ... .. . ... : ... .. . ...
ROW 21 : A-1 0C . F07 : ... .. . ... : ... .. . ... : ... .. . ... : ... .. . ...
ROW 22 : A-1 0C . ... : ... .. . ... : ... .. . ... : ... .. . ... : ... .. . ...
ROW 23 : A-1 0C . ... : ... .. . ... : ... .. . ... : ... .. . ... : ... .. . ...
ROW 24 : A-1 0C . F06 : ... .. . ... : ... .. . ... : ... .. . ... : ... .. . ...
ROW 25 : A-1 0C . F07 : ... .. . ... : ... .. . ... : ... .. . ... : ... .. . ...
ROW 26 : G-1 0C . ... : ... .. . ... : ... .. . ... : ... .. . ... : ... .. . ...
ROW 27 : G-1 0C . ... : ... .. . ... : ... .. . ... : ... .. . ... : ... .. . ...
ROW 28 : A-1 0C . F06 : ... .. . ... : ... .. . ... : ... .. . ... : ... .. . ...
ROW 29 : A-1 0C . F07 : ... .. . ... : ... .. . ... : ... .. . ... : ... .. . ...
ROW 2A : A-1 0C . ... : ... .. . ... : ... .. . ... : ... .. . ... : ... .. . ...
ROW 2B : A-1 0C . ... : ... .. . ... : ... .. . ... : ... .. . ... : ... .. . ...
ROW 2C : A-1 0C . F06 : ... .. . ... : ... .. . ... : ... .. . ... : ... .. . ...
ROW 2D : A-1 0C . F07 : ... .. . ... : ... .. . ... : ... .. . ... : ... .. . ...
ROW 2E : G-1 0C . ... : ... .. . ... : ... .. . ... : ... .. . ... : ... .. . ...
ROW 2F : G-1 0C . ... : ... .. . ... : ... .. . ... : ... .. . ... : ... .. . ...
ROW 30 : A-1 0D . F06 : ... .. . ... : ... .. . ... : ... .. . ... : ... .. . ...
ROW 31 : A-1 0D . F07 : ... .. . ... : ... .. . ... : ... .. . ... : ... .. . ...
ROW 32 : A-1 0D . ... : ... .. . ... : ... .. . ... : ... .. . ... : ... .. . ...
ROW 33 : A-1 0D . ... : ... .. . ... : ... .. . ... : ... .. . ... : ... .. . ...
ROW 34 : ... .. . F06 : ... .. . ... : ... .. . ... : ... .. . ... : ... .. . ...
ROW 35 : ... .. . F07 : ... .. . ... : ... .. . ... : ... .. . ... : ... .. . ...
ROW 36 : ... .. . ... : ... .. . ... : ... .. . ... : ... .. . ... : ... .. . ...
ROW 37 : ... .. . ... : ... .. . ... : ... .. . ... : ... .. . ... : ... .. . ...
ROW 38 : ... .. . F06 : ... .. . ... : ... .. . ... : ... .. . ... : ... .. . ...
ROW 39 : ... .. . F07 : ... .. . ... : ... .. . ... : ... .. . ... : ... .. . ...
ROW 3A : ... .. . ... : ... .. . ... : ... .. . ... : ... .. . ... : ... .. . ...
ROW 3B : ... .. . ... : ... .. . ... : ... .. . ... : ... .. . ... : ... .. . ...
ROW 3C : ... .. . F06 : ... .. . ... : ... .. . ... : ... .. . ... : ... .. . ...
ROW 3D : ... .. . F07 : ... .. . ... : ... .. . ... : ... .. . ... : ... .. . ...
ROW 3E : ... .. . ... : ... .. . ... : ... .. . ... : ... .. . ... : ... .. . ...
ROW 3F : ... .. . ... : ... .. . ... : ... .. . ... : ... .. . ... : ... .. . ...
PATTERN 06
ROW 00 : A-3 0C . F06 : ... .. . ... : ... .. . ... : ... .. . ... : ... .. . ...
ROW 01 : ... .. . F07 : ... .. . ... : ... .. . ... : ... .. . ... : ... .. . ...
ROW 02 : C-4 33 . F06 : ... .. . ... : ... .. . ... : ... .. . ... : ... .. . ...
ROW 03 : A-3 0C . F07 : ... .. . ... : ... .. . ... : ... .. . ... : ... .. . ...
ROW 04 : C-4 33 . F06 : ... .. . ... : ... .. . ... : ... .. . ... : ... .. . ...
ROW 05 : ... .. . F07 : ... .. . ... : ... .. . ... : ... .. . ... : ... .. . ...
ROW 06 : A-3 0C . F06 : ... .. . ... : ... .. . ... : ... .. . ... : ... .. . ...
ROW 07 : ... .. . F07 : ... .. . ... : ... .. . ... : ... .. . ... : ... .. . ...
ROW 08 : C-4 33 . F06 : ... .. . ... : ... .. . ... : ... .. . ... : ... .. . ...
ROW 09 : A-3 0C . F07 : ... .. . ... : ... .. . ... : ... .. . ... : ... .. . ...
ROW 0A : ... .. . F06 : ... .. . ... : ... .. . ... : ... .. . ... : ... .. . ...
ROW 0B : C-4 33 . F07 : ... .. . ... : ... .. . ... : ... .. . ... : ... .. . ...
ROW 0C : G-3 0C . F06 : ... .. . ... : ... .. . ... : ... .. . ... : ... .. . ...
ROW 0D : ... .. . F07 : ... .. . ... : ... .. . ... : ... .. . ... : ... .. . ...
ROW 0E : C-4 33 . F06 : ... .. . ... : ... .. . ... : ... .. . ... : ... .. . ...
ROW 0F : C-4 33 . F07 : ... .. . ... : ... .. . ... : ... .. . ... : ... .. . ...
ROW 10 : A-3 0C . F06 : ... .. . ... : ... .. . ... : ... .. . ... : ... .. . ...
ROW 11 : ... .. . F07 : ... .. . ... : ... .. . ... : ... .. . ... : ... .. . ...
ROW 12 : C-4 33 . F06 : ... .. . ... : ... .. . ... : ... .. . ... : ... .. . ...
ROW 13 : A-3 0C . F07 : ... .. . ... : ... .. . ... : ... .. . ... : ... .. . ...
ROW 14 : C-4 33 . F06 : ... .. . ... : ... .. . ... : ... .. . ... : ... .. . ...
ROW 15 : ... .. . F07 : ... .. . ... : ... .. . ... : ... .. . ... : ... .. . ...
ROW 16 : A-3 0C . F06 : ... .. . ... : ... .. . ... : ... .. . ... : ... .. . ...
ROW 17 : ... .. . F07 : ... .. . ... : ... .. . ... : ... .. . ... : ... .. . ...
ROW 18 : C-4 33 . F06 : ... .. . ... : ... .. . ... : ... .. . ... : ... .. . ...
ROW 19 : A-3 0C . F07 : ... .. . ... : ... .. . ... : ... .. . ... : ... .. . ...
ROW 1A : ... .. . F06 : ... .. . ... : ... .. . ... : ... .. . ... : ... .. . ...
ROW 1B : C-4 33 . F07 : ... .. . ... : ... .. . ... : ... .. . ... : ... .. . ...
ROW 1C : G-3 0C . F06 : ... .. . ... : ... .. . ... : ... .. . ... : ... .. . ...
ROW 1D : ... .. . F07 : ... .. . ... : ... .. . ... : ... .. . ... : ... .. . ...
ROW 1E : C-4 33 . F06 : ... .. . ... : ... .. . ... : ... .. . ... : ... .. . ...
ROW 1F : C-4 33 . F07 : ... .. . ... : ... .. . ... : ... .. . ... : ... .. . ...
ROW 20 : A-3 0C . F06 : ... .. . ... : ... .. . ... : ... .. . ... : ... .. . ...
ROW 21 : ... .. . F07 : ... .. . ... : ... .. . ... : ... .. . ... : ... .. . ...
ROW 22 : C-4 33 . F06 : ... .. . ... : ... .. . ... : ... .. . ... : ... .. . ...
ROW 23 : A-3 0C . F07 : ... .. . ... : ... .. . ... : ... .. . ... : ... .. . ...
ROW 24 : C-4 33 . F06 : ... .. . ... : ... .. . ... : ... .. . ... : ... .. . ...
ROW 25 : ... .. . F07 : ... .. . ... : ... .. . ... : ... .. . ... : ... .. . ...
ROW 26 : A-3 0C . F06 : ... .. . ... : ... .. . ... : ... .. . ... : ... .. . ...
ROW 27 : ... .. . F07 : ... .. . ... : ... .. . ... : ... .. . ... : ... .. . ...
ROW 28 : C-4 33 . F06 : ... .. . ... : ... .. . ... : ... .. . ... : ... .. . ...
ROW 29 : A-3 0C . F07 : ... .. . ... : ... .. . ... : ... .. . ... : ... .. . ...
ROW 2A : ... .. . F06 : ... .. . ... : ... .. . ... : ... .. . ... : ... .. . ...
ROW 2B : C-4 33 . F07 : ... .. . ... : ... .. . ... : ... .. . ... : ... .. . ...
ROW 2C : G-3 0C . F06 : ... .. . ... : ... .. . ... : ... .. . ... : ... .. . ...
ROW 2D : ... .. . F07 : ... .. . ... : ... .. . ... : ... .. . ... : ... .. . ...
ROW 2E : C-4 33 . F06 : ... .. . ... : ... .. . ... : ... .. . ... : ... .. . ...
ROW 2F : C-4 33 . F07 : ... .. . ... : ... .. . ... : ... .. . ... : ... .. . ...
ROW 30 : A-3 0C . F06 : ... .. . ... : ... .. . ... : ... .. . ... : ... .. . ...
ROW 31 : ... .. . F07 : ... .. . ... : ... .. . ... : ... .. . ... : ... .. . ...
ROW 32 : ... .. . F06 : ... .. . ... : ... .. . ... : ... .. . ... : ... .. . ...
ROW 33 : A-3 0C . F07 : ... .. . ... : ... .. . ... : ... .. . ... : ... .. . ...
ROW 34 : ... .. . F06 : ... .. . ... : ... .. . ... : ... .. . ... : ... .. . ...
ROW 35 : ... .. . F07 : ... .. . ... : ... .. . ... : ... .. . ... : ... .. . ...
ROW 36 : A-3 0C . F06 : ... .. . ... : ... .. . ... : ... .. . ... : ... .. . ...
ROW 37 : ... .. . F07 : ... .. . ... : ... .. . ... : ... .. . ... : ... .. . ...
ROW 38 : A-3 0C . F06 : ... .. . ... : ... .. . ... : ... .. . ... : ... .. . ...
ROW 39 : A-3 0C . F07 : ... .. . ... : ... .. . ... : ... .. . ... : ... .. . ...
ROW 3A : ... .. . F06 : ... .. . ... : ... .. . ... : ... .. . ... : ... .. . ...
ROW 3B : A-3 0C . F07 : ... .. . ... : ... .. . ... : ... .. . ... : ... .. . ...
ROW 3C : A-3 0C . F06 : ... .. . ... : ... .. . ... : ... .. . ... : ... .. . ...
ROW 3D : ... .. . F07 : ... .. . ... : ... .. . ... : ... .. . ... : ... .. . ...
ROW 3E : ... .. . F06 : ... .. . ... : ... .. . ... : ... .. . ... : ... .. . ...
ROW 3F : ... .. . F07 : ... .. . ... : ... .. . ... : ... .. . ... : ... .. . ...
PATTERN 07
ROW 00 : A-3 0C . F06 : ... .. . ... : ... .. . ... : ... .. . ... : ... .. . ...
ROW 01 : E-4 0C . F07 : ... .. . ... : ... .. . ... : ... .. . ... : ... .. . ...
ROW 02 : C-4 33 . F06 : ... .. . ... : ... .. . ... : ... .. . ... : ... .. . ...
ROW 03 : A-3 0C . F07 : ... .. . ... : ... .. . ... : ... .. . ... : ... .. . ...
ROW 04 : C-4 33 . F06 : ... .. . ... : ... .. . ... : ... .. . ... : ... .. . ...
ROW 05 : ... .. . F07 : ... .. . ... : ... .. . ... : ... .. . ... : ... .. . ...
ROW 06 : A-3 0C . F06 : ... .. . ... : ... .. . ... : ... .. . ... : ... .. . ...
ROW 07 : A#3 0C . F07 : ... .. . ... : ... .. . ... : ... .. . ... : ... .. . ...
ROW 08 : C-4 33 . F06 : ... .. . ... : ... .. . ... : ... .. . ... : ... .. . ...
ROW 09 : A-3 0C . F07 : ... .. . ... : ... .. . ... : ... .. . ... : ... .. . ...
ROW 0A : C-4 0C . F06 : ... .. . ... : ... .. . ... : ... .. . ... : ... .. . ...
ROW 0B : C-4 33 . F07 : ... .. . ... : ... .. . ... : ... .. . ... : ... .. . ...
ROW 0C : A-3 0C . F06 : ... .. . ... : ... .. . ... : ... .. . ... : ... .. . ...
ROW 0D : A#3 0C . F07 : ... .. . ... : ... .. . ... : ... .. . ... : ... .. . ...
ROW 0E : C-4 33 . F06 : ... .. . ... : ... .. . ... : ... .. . ... : ... .. . ...
ROW 0F : C-4 33 . F07 : ... .. . ... : ... .. . ... : ... .. . ... : ... .. . ...
ROW 10 : A-3 0C . F06 : ... .. . ... : ... .. . ... : ... .. . ... : ... .. . ...
ROW 11 : E-4 0C . F07 : ... .. . ... : ... .. . ... : ... .. . ... : ... .. . ...
ROW 12 : C-4 33 . F06 : ... .. . ... : ... .. . ... : ... .. . ... : ... .. . ...
ROW 13 : A-3 0C . F07 : ... .. . ... : ... .. . ... : ... .. . ... : ... .. . ...
ROW 14 : C-4 33 . F06 : ... .. . ... : ... .. . ... : ... .. . ... : ... .. . ...
ROW 15 : ... .. . F07 : ... .. . ... : ... .. . ... : ... .. . ... : ... .. . ...
ROW 16 : A-3 0C . F06 : ... .. . ... : ... .. . ... : ... .. . ... : ... .. . ...
ROW 17 : A#3 0C . F07 : ... .. . ... : ... .. . ... : ... .. . ... : ... .. . ...
ROW 18 : C-4 33 . F06 : ... .. . ... : ... .. . ... : ... .. . ... : ... .. . ...
ROW 19 : A-3 0C . F07 : ... .. . ... : ... .. . ... : ... .. . ... : ... .. . ...
ROW 1A : C-4 0C . F06 : ... .. . ... : ... .. . ... : ... .. . ... : ... .. . ...
ROW 1B : C-4 33 . F07 : ... .. . ... : ... .. . ... : ... .. . ... : ... .. . ...
ROW 1C : A-3 0C . F06 : ... .. . ... : ... .. . ... : ... .. . ... : ... .. . ...
ROW 1D : A#3 0C . F07 : ... .. . ... : ... .. . ... : ... .. . ... : ... .. . ...
ROW 1E : C-4 33 . F06 : ... .. . ... : ... .. . ... : ... .. . ... : ... .. . ...
ROW 1F : C-4 33 . F07 : ... .. . ... : ... .. . ... : ... .. . ... : ... .. . ...
ROW 20 : A-3 0C . F06 : ... .. . ... : ... .. . ... : ... .. . ... : ... .. . ...
ROW 21 : E-4 0C . F07 : ... .. . ... : ... .. . ... : ... .. . ... : ... .. . ...
ROW 22 : C-4 33 . F06 : ... .. . ... : ... .. . ... : ... .. . ... : ... .. . ...
ROW 23 : A-3 0C . F07 : ... .. . ... : ... .. . ... : ... .. . ... : ... .. . ...
ROW 24 : C-4 33 . F06 : ... .. . ... : ... .. . ... : ... .. . ... : ... .. . ...
ROW 25 : ... .. . F07 : ... .. . ... : ... .. . ... : ... .. . ... : ... .. . ...
ROW 26 : A-3 0C . F06 : ... .. . ... : ... .. . ... : ... .. . ... : ... .. . ...
ROW 27 : A#3 0C . F07 : ... .. . ... : ... .. . ... : ... .. . ... : ... .. . ...
ROW 28 : C-4 33 . F06 : ... .. . ... : ... .. . ... : ... .. . ... : ... .. . ...
ROW 29 : A-3 0C . F07 : ... .. . ... : ... .. . ... : ... .. . ... : ... .. . ...
ROW 2A : C-4 0C . F06 : ... .. . ... : ... .. . ... : ... .. . ... : ... .. . ...
ROW 2B : C-4 33 . F07 : ... .. . ... : ... .. . ... : ... .. . ... : ... .. . ...
ROW 2C : A-3 0C . F06 : ... .. . ... : ... .. . ... : ... .. . ... : ... .. . ...
ROW 2D : A#3 0C . F07 : ... .. . ... : ... .. . ... : ... .. . ... : ... .. . ...
ROW 2E : C-4 33 . F06 : ... .. . ... : ... .. . ... : ... .. . ... : ... .. . ...
ROW 2F : C-4 33 . F07 : ... .. . ... : ... .. . ... : ... .. . ... : ... .. . ...
ROW 30 : A-3 0C . F06 : ... .. . ... : ... .. . ... : ... .. . ... : ... .. . ...
ROW 31 : E-4 0C . F07 : ... .. . ... : ... .. . ... : ... .. . ... : ... .. . ...
ROW 32 : ... .. . F06 : ... .. . ... : ... .. . ... : ... .. . ... : ... .. . ...
ROW 33 : A-3 0C . F07 : ... .. . ... : ... .. . ... : ... .. . ... : ... .. . ...
ROW 34 : C-4 0C . F06 : ... .. . ... : ... .. . ... : ... .. . ... : ... .. . ...
ROW 35 : ... .. . F07 : ... .. . ... : ... .. . ... : ... .. . ... : ... .. . ...
ROW 36 : G-3 0C . F06 : ... .. . ... : ... .. . ... : ... .. . ... : ... .. . ...
ROW 37 : G-3 0C . F07 : ... .. . ... : ... .. . ... : ... .. . ... : ... .. . ...
ROW 38 : ... .. . F06 : ... .. . ... : ... .. . ... : ... .. . ... : ... .. . ...
ROW 39 : G-3 0C . F07 : ... .. . ... : ... .. . ... : ... .. . ... : ... .. . ...
ROW 3A : A-3 0C . F06 : ... .. . ... : ... .. . ... : ... .. . ... : ... .. . ...
ROW 3B : ... .. . F07 : ... .. . ... : ... .. . ... : ... .. . ... : ... .. . ...
ROW 3C : A-3 0C . F06 : ... .. . ... : ... .. . ... : ... .. . ... : ... .. . ...
ROW 3D : ... .. . F07 : ... .. . ... : ... .. . ... : ... .. . ... : ... .. . ...
ROW 3E : ... .. . F06 : ... .. . ... : ... .. . ... : ... .. . ... : ... .. . ...
ROW 3F : ... .. . F07 : ... .. . ... : ... .. . ... : ... .. . ... : ... .. . ...
PATTERN 08
ROW 00 : A-3 0C . F06 : ... .. . ... : ... .. . ... : ... .. . ... : ... .. . ...
ROW 01 : ... .. . F07 : ... .. . ... : ... .. . ... : ... .. . ... : ... .. . ...
ROW 02 : ... .. . F06 : ... .. . ... : ... .. . ... : ... .. . ... : ... .. . ...
ROW 03 : A-3 0C . F07 : ... .. . ... : ... .. . ... : ... .. . ... : ... .. . ...
ROW 04 : ... .. . F06 : ... .. . ... : ... .. . ... : ... .. . ... : ... .. . ...
ROW 05 : ... .. . F07 : ... .. . ... : ... .. . ... : ... .. . ... : ... .. . ...
ROW 06 : A-3 0C . F06 : ... .. . ... : ... .. . ... : ... .. . ... : ... .. . ...
ROW 07 : ... .. . F07 : ... .. . ... : ... .. . ... : ... .. . ... : ... .. . ...
ROW 08 : ... .. . F06 : ... .. . ... : ... .. . ... : ... .. . ... : ... .. . ...
ROW 09 : A-3 0C . F07 : ... .. . ... : ... .. . ... : ... .. . ... : ... .. . ...
ROW 0A : ... .. . F06 : ... .. . ... : ... .. . ... : ... .. . ... : ... .. . ...
ROW 0B : ... .. . F07 : ... .. . ... : ... .. . ... : ... .. . ... : ... .. . ...
ROW 0C : G-3 0C . F06 : ... .. . ... : ... .. . ... : ... .. . ... : ... .. . ...
ROW 0D : ... .. . F07 : ... .. . ... : ... .. . ... : ... .. . ... : ... .. . ...
ROW 0E : C-4 0C . F06 : ... .. . ... : ... .. . ... : ... .. . ... : ... .. . ...
ROW 0F : ... .. . F07 : ... .. . ... : ... .. . ... : ... .. . ... : ... .. . ...
ROW 10 : A-3 0C . F06 : ... .. . ... : ... .. . ... : ... .. . ... : ... .. . ...
ROW 11 : ... .. . F07 : ... .. . ... : ... .. . ... : ... .. . ... : ... .. . ...
ROW 12 : ... .. . F06 : ... .. . ... : ... .. . ... : ... .. . ... : ... .. . ...
ROW 13 : A-3 0C . F07 : ... .. . ... : ... .. . ... : ... .. . ... : ... .. . ...
ROW 14 : ... .. . F06 : ... .. . ... : ... .. . ... : ... .. . ... : ... .. . ...
ROW 15 : ... .. . F07 : ... .. . ... : ... .. . ... : ... .. . ... : ... .. . ...
ROW 16 : A-3 0C . F06 : ... .. . ... : ... .. . ... : ... .. . ... : ... .. . ...
ROW 17 : ... .. . F07 : ... .. . ... : ... .. . ... : ... .. . ... : ... .. . ...
ROW 18 : ... .. . F06 : ... .. . ... : ... .. . ... : ... .. . ... : ... .. . ...
ROW 19 : A-3 0C . F07 : ... .. . ... : ... .. . ... : ... .. . ... : ... .. . ...
ROW 1A : ... .. . F06 : ... .. . ... : ... .. . ... : ... .. . ... : ... .. . ...
ROW 1B : ... .. . F07 : ... .. . ... : ... .. . ... : ... .. . ... : ... .. . ...
ROW 1C : G-3 0C . F06 : ... .. . ... : ... .. . ... : ... .. . ... : ... .. . ...
ROW 1D : ... .. . F07 : ... .. . ... : ... .. . ... : ... .. . ... : ... .. . ...
ROW 1E : E-3 0C . F06 : ... .. . ... : ... .. . ... : ... .. . ... : ... .. . ...
ROW 1F : ... .. . F07 : ... .. . ... : ... .. . ... : ... .. . ... : ... .. . ...
ROW 20 : A-3 0C . F06 : ... .. . ... : ... .. . ... : ... .. . ... : ... .. . ...
ROW 21 : ... .. . F07 : ... .. . ... : ... .. . ... : ... .. . ... : ... .. . ...
ROW 22 : ... .. . F06 : ... .. . ... : ... .. . ... : ... .. . ... : ... .. . ...
ROW 23 : A-3 0C . F07 : ... .. . ... : ... .. . ... : ... .. . ... : ... .. . ...
ROW 24 : ... .. . F06 : ... .. . ... : ... .. . ... : ... .. . ... : ... .. . ...
ROW 25 : ... .. . F07 : ... .. . ... : ... .. . ... : ... .. . ... : ... .. . ...
ROW 26 : A-3 0C . F06 : ... .. . ... : ... .. . ... : ... .. . ... : ... .. . ...
ROW 27 : ... .. . F07 : ... .. . ... : ... .. . ... : ... .. . ... : ... .. . ...
ROW 28 : ... .. . F06 : ... .. . ... : ... .. . ... : ... .. . ... : ... .. . ...
ROW 29 : A-3 0C . F07 : ... .. . ... : ... .. . ... : ... .. . ... : ... .. . ...
ROW 2A : ... .. . F06 : ... .. . ... : ... .. . ... : ... .. . ... : ... .. . ...
ROW 2B : ... .. . F07 : ... .. . ... : ... .. . ... : ... .. . ... : ... .. . ...
ROW 2C : G-3 0C . F06 : ... .. . ... : ... .. . ... : ... .. . ... : ... .. . ...
ROW 2D : ... .. . F07 : ... .. . ... : ... .. . ... : ... .. . ... : ... .. . ...
ROW 2E : C-4 0C . F06 : ... .. . ... : ... .. . ... : ... .. . ... : ... .. . ...
ROW 2F : ... .. . F07 : ... .. . ... : ... .. . ... : ... .. . ... : ... .. . ...
ROW 30 : A-3 0C . F06 : ... .. . ... : ... .. . ... : ... .. . ... : ... .. . ...
ROW 31 : ... .. . F07 : ... .. . ... : ... .. . ... : ... .. . ... : ... .. . ...
ROW 32 : ... .. . F06 : ... .. . ... : ... .. . ... : ... .. . ... : ... .. . ...
ROW 33 : A-3 0C . F07 : ... .. . ... : ... .. . ... : ... .. . ... : ... .. . ...
ROW 34 : ... .. . F06 : ... .. . ... : ... .. . ... : ... .. . ... : ... .. . ...
ROW 35 : ... .. . F07 : ... .. . ... : ... .. . ... : ... .. . ... : ... .. . ...
ROW 36 : A-3 0C . F06 : ... .. . ... : ... .. . ... : ... .. . ... : ... .. . ...
ROW 37 : ... .. . F07 : ... .. . ... : ... .. . ... : ... .. . ... : ... .. . ...
ROW 38 : A-3 0C . F06 : ... .. . ... : ... .. . ... : ... .. . ... : ... .. . ...
ROW 39 : A-3 0C . F07 : ... .. . ... : ... .. . ... : ... .. . ... : ... .. . ...
ROW 3A : ... .. . F06 : ... .. . ... : ... .. . ... : ... .. . ... : ... .. . ...
ROW 3B : A-3 0C . F07 : ... .. . ... : ... .. . ... : ... .. . ... : ... .. . ...
ROW 3C : A-3 0C . F06 : ... .. . ... : ... .. . ... : ... .. . ... : ... .. . ...
ROW 3D : ... .. . F07 : ... .. . ... : ... .. . ... : ... .. . ... : ... .. . ...
ROW 3E : ... .. . F06 : ... .. . ... : ... .. . ... : ... .. . ... : ... .. . ...
ROW 3F : ... .. . F07 : ... .. . ... : ... .. . ... : ... .. . ... : ... .. . ...

# track BOOKMARKS block

# JSON block
JSON "null"

# PARAMS_EMU block
USEEXTERNALOPLL 0

# End of export
